<?xml version="1.0" standalone="no"?>
<!DOCTYPE svg PUBLIC "-//W3C//DTD SVG 1.1//EN" "http://www.w3.org/Graphics/SVG/1.1/DTD/svg11.dtd" >
<svg xmlns="http://www.w3.org/2000/svg" xmlns:xlink="http://www.w3.org/1999/xlink" version="1.1">
<metadata>
Created by FontForge 20170731 at Wed Aug 25 19:26:47 2021
 By Aleksey,,,
Copyright 2018 The Changa Project Authors (https://github.com/eliheuer/changa-vf)
</metadata>
<defs>
<font id="Changa-Bold" horiz-adv-x="0" >
  <font-face 
    font-family="Changa"
    font-weight="700"
    font-stretch="normal"
    units-per-em="1000"
    panose-1="0 0 0 0 0 0 0 0 0 0"
    ascent="800"
    descent="-200"
    x-height="500"
    cap-height="625"
    bbox="-182 -598 1875 1226"
    underline-thickness="50"
    underline-position="-175"
    unicode-range="U+0020-FEFC"
  />
<missing-glyph horiz-adv-x="600" 
d="M24 1012h524v-1012h-524v1012zM40 996v-979h492v979h-492z" />
    <glyph glyph-name="f_f" unicode="ff" horiz-adv-x="704" 
d="M266 0h-176v499q3 67 19.5 105t52.5 54.5t96 16.5q23 0 49 -2.5t56 -7.5l-9 -109l-88 8v-564zM330 500v-115h-295v115h295zM618 0h-176v499q3 67 19.5 105t52.5 54.5t96 16.5q23 0 49 -2.5t56 -7.5l-9 -109l-88 8v-564zM682 500v-115h-295v115h295z" />
    <glyph glyph-name="fi" unicode="fi" horiz-adv-x="647" 
d="M266 0h-176v499q3 67 19.5 105t52.5 54.5t96 16.5q23 0 49 -2.5t56 -7.5l-9 -109l-88 8v-564zM330 500v-115h-295v115h295zM412 479l176 23v-502h-176v479zM500 553q-55 0 -75.5 19.5t-20.5 74.5q0 56 20.5 76t75.5 20q54 0 74 -20t20 -76q0 -55 -19 -74.5t-75 -19.5z
" />
    <glyph glyph-name="fl" unicode="fl" horiz-adv-x="652" 
d="M266 0h-176v499q3 67 19.5 105t52.5 54.5t96 16.5q23 0 49 -2.5t56 -7.5l-9 -109l-88 8v-564zM330 500v-115h-295v115h295zM586 126q14 -2 26 -3.5t23 -2.5l-9 -119q-27 -7 -52 -11t-48 -4q-59 0 -87.5 24.5t-28.5 76.5v563l176 15v-539z" />
    <glyph glyph-name="f_f_i" unicode="ffi" horiz-adv-x="999" 
d="M266 0h-176v499q3 67 19.5 105t52.5 54.5t96 16.5q23 0 49 -2.5t56 -7.5l-9 -109l-88 8v-564zM330 500v-115h-295v115h295zM618 0h-176v499q3 67 19.5 105t52.5 54.5t96 16.5q23 0 49 -2.5t56 -7.5l-9 -109l-88 8v-564zM682 500v-115h-295v115h295zM764 479l176 23v-502
h-176v479zM852 553q-55 0 -75.5 19.5t-20.5 74.5q0 56 20.5 76t75.5 20q54 0 74 -20t20 -76q0 -55 -19 -74.5t-75 -19.5z" />
    <glyph glyph-name="f_f_l" unicode="ffl" horiz-adv-x="1004" 
d="M266 0h-176v499q3 67 19.5 105t52.5 54.5t96 16.5q23 0 49 -2.5t56 -7.5l-9 -109l-88 8v-564zM330 500v-115h-295v115h295zM618 0h-176v499q3 67 19.5 105t52.5 54.5t96 16.5q23 0 49 -2.5t56 -7.5l-9 -109l-88 8v-564zM682 500v-115h-295v115h295zM938 126
q14 -2 26 -3.5t23 -2.5l-9 -119q-27 -7 -52 -11t-48 -4q-59 0 -87.5 24.5t-28.5 76.5v563l176 15v-539z" />
    <glyph glyph-name="uniFDF2" unicode="&#x627;&#xfedf;&#xfee0;&#xfeea;" horiz-adv-x="1635" arabic-form="isolated" 
d="M1417 0v630h141v-630h-141zM1262 0h-293v158h152v472h141v-630zM912 158h97v-158h-390v158h152v472h141v-472zM561 158h98v-158h-98v158zM562 470v-470h-263q-70 0 -116 10t-71.5 35.5t-35.5 71.5t-10 118t10 118t35.5 71.5t71.5 35.5t116 10h263zM422 312h-163
q-22 0 -32.5 -9.5t-10.5 -27.5v-80q0 -18 10.5 -27.5t32.5 -9.5h163v154zM1344 998v-210l-267 -72q-7 -1 -12.5 -2.5t-10.5 -1.5q-24 0 -36 21t-12 66q0 28 3.5 56.5t10.5 53.5l74 11q-5 -22 -7.5 -43.5t-2.5 -42.5q0 -16 1.5 -28.5t3.5 -20.5l48 13q-7 15 -7 45v86l79 22
v-133l44 11v133zM1136 1007v198l79 21v-198z" />
    <glyph glyph-name="uniFEF5" unicode="&#xfedf;&#xfe82;" horiz-adv-x="665" arabic-form="isolated" 
d="M435 452v178h141v-170q0 -46 -3 -71.5t-12 -38t-29 -18.5v-7q34 -38 47.5 -75t13.5 -83q0 -96 -62.5 -139t-206.5 -43q-100 0 -156.5 18.5t-79.5 59t-23 106.5q0 51 11 89.5t40.5 66.5t84.5 47zM215 143h173q31 0 43 10.5t12 24.5q0 11 -7 22.5t-22 21.5l-55 45l-144 -49
v-75zM253 356l-174 142l99 118l247 -203zM196 680q-16 0 -29 8.5t-33 32.5l-68 -31l-23 40q43 33 67.5 49.5t38.5 22.5t23 6q16 0 28.5 -8.5t33.5 -33.5l67 31l23 -40q-40 -33 -65 -49.5t-39 -22t-24 -5.5z" />
    <glyph glyph-name="uniFEF6" unicode="&#xfee0;&#xfe82;" horiz-adv-x="701" arabic-form="final" 
d="M170 107l-38 438h141l39 -438h-142zM483 107v523h141v-523h-141zM721 158v-158h-701v158h701zM215 680q-16 0 -29 8.5t-33 32.5l-68 -31l-23 40q43 33 67.5 49.5t38.5 22.5t23 6q16 0 28.5 -8.5t33.5 -33.5l67 31l23 -40q-40 -33 -65 -49.5t-39 -22t-24 -5.5z" />
    <glyph glyph-name="uniFEF7" unicode="&#xfedf;&#xfe84;" horiz-adv-x="665" arabic-form="isolated" 
d="M435 452v178h141v-170q0 -46 -3 -71.5t-12 -38t-29 -18.5v-7q34 -38 47.5 -75t13.5 -83q0 -96 -62.5 -139t-206.5 -43q-100 0 -156.5 18.5t-79.5 59t-23 106.5q0 51 11 89.5t40.5 66.5t84.5 47zM215 143h173q31 0 43 10.5t12 24.5q0 11 -7 22.5t-22 21.5l-55 45l-144 -49
v-75zM253 356l-174 142l99 118l247 -203zM221 758l80 22v-67l-234 -62v65l38 11q-4 11 -6 24t-2 30q0 53 22 83.5t62 45t92 18.5v-76q-25 -3 -45.5 -7.5t-42.5 -13.5l-1 -53q0 -16 8.5 -20.5t28.5 0.5z" />
    <glyph glyph-name="uniFEF8" unicode="&#xfee0;&#xfe84;" horiz-adv-x="701" arabic-form="final" 
d="M170 107l-38 438h141l39 -438h-142zM483 107v523h141v-523h-141zM721 158v-158h-701v158h701zM240 758l80 22v-67l-234 -62v65l38 11q-4 11 -6 24t-2 30q0 53 22 83.5t62 45t92 18.5v-76q-25 -3 -45.5 -7.5t-42.5 -13.5l-1 -53q0 -16 8.5 -20.5t28.5 0.5z" />
    <glyph glyph-name="uniFEF9" unicode="&#xfedf;&#xfe88;" horiz-adv-x="665" arabic-form="isolated" 
d="M435 452v178h141v-170q0 -46 -3 -71.5t-12 -38t-29 -18.5v-7q34 -38 47.5 -75t13.5 -83q0 -96 -62.5 -139t-206.5 -43q-100 0 -156.5 18.5t-79.5 59t-23 106.5q0 51 11 89.5t40.5 66.5t84.5 47zM215 143h173q31 0 43 10.5t12 24.5q0 11 -7 22.5t-22 21.5l-55 45l-144 -49
v-75zM253 356l-174 142l99 118l247 -203zM190 -246l80 22v-67l-234 -62v65l38 11q-4 11 -6 24t-2 30q0 53 22 83.5t62 45t92 18.5v-76q-25 -3 -45.5 -7.5t-42.5 -13.5l-1 -53q0 -16 8.5 -20.5t28.5 0.5z" />
    <glyph glyph-name="uniFEFA" unicode="&#xfee0;&#xfe88;" horiz-adv-x="701" arabic-form="final" 
d="M170 107l-38 438h141l39 -438h-142zM483 107v523h141v-523h-141zM721 158v-158h-701v158h701zM290 -246l80 22v-67l-234 -62v65l38 11q-4 11 -6 24t-2 30q0 53 22 83.5t62 45t92 18.5v-76q-25 -3 -45.5 -7.5t-42.5 -13.5l-1 -53q0 -16 8.5 -20.5t28.5 0.5z" />
    <glyph glyph-name="uniFEFB" unicode="&#xfedf;&#xfe8e;" horiz-adv-x="665" arabic-form="isolated" 
d="M435 452v178h141v-170q0 -46 -3 -71.5t-12 -38t-29 -18.5v-7q34 -38 47.5 -75t13.5 -83q0 -96 -62.5 -139t-206.5 -43q-100 0 -156.5 18.5t-79.5 59t-23 106.5q0 51 11 89.5t40.5 66.5t84.5 47zM215 143h173q31 0 43 10.5t12 24.5q0 11 -7 22.5t-22 21.5l-55 45l-144 -49
v-75zM253 356l-174 142l99 118l247 -203z" />
    <glyph glyph-name="uniFEFC" unicode="&#xfee0;&#xfe8e;" horiz-adv-x="701" arabic-form="final" 
d="M170 107l-38 438h141l39 -438h-142zM483 107v523h141v-523h-141zM721 158v-158h-701v158h701z" />
    <glyph glyph-name="lam_alefWaslaar" unicode="&#xfedf;&#xfb51;" horiz-adv-x="665" 
d="M435 452v178h141v-170q0 -46 -3 -71.5t-12 -38t-29 -18.5v-7q34 -38 47.5 -75t13.5 -83q0 -96 -62.5 -139t-206.5 -43q-100 0 -156.5 18.5t-79.5 59t-23 106.5q0 51 11 89.5t40.5 66.5t84.5 47zM215 143h173q31 0 43 10.5t12 24.5q0 11 -7 22.5t-22 21.5l-55 45l-144 -49
v-75zM253 356l-174 142l99 118l247 -203zM32 715q0 85 44 132.5t127 47.5q73 0 107.5 -21t34.5 -65v-94h-105v102q-12 6 -37 6q-33 0 -49 -27t-16 -81h-106zM2 665v66h343v-66h-343z" />
    <glyph glyph-name="lam_alefWaslaar.fina" unicode="&#xfee0;&#xfb51;" horiz-adv-x="701" 
d="M170 107l-38 438h141l39 -438h-142zM483 107v523h141v-523h-141zM721 158v-158h-701v158h701zM51 715q0 85 44 132.5t127 47.5q73 0 107.5 -21t34.5 -65v-94h-105v102q-12 6 -37 6q-33 0 -49 -27t-16 -81h-106zM21 665v66h343v-66h-343z" />
    <glyph glyph-name="uni066E.init" unicode="&#x66e;" horiz-adv-x="350" 
d="M-20 0v158h152v312h141v-470h-293z" />
    <glyph glyph-name="uni066E.medi" unicode="&#x66e;" horiz-adv-x="350" 
d="M273 158h97v-158h-390v158h152v312h141v-312z" />
    <glyph glyph-name="uni066E.fina" unicode="&#x66e;" horiz-adv-x="914" 
d="M820 158h114v-158h-114v158zM224 0q-58 0 -96 22.5t-55.5 71t-17.5 125.5q0 50 8 100t23 95l135 -21q-13 -35 -19 -68t-6 -65t3 -56t10 -46h487v312h141v-470h-613z" />
    <glyph glyph-name="uni066F.fina" unicode="&#x66f;" horiz-adv-x="929" 
d="M852 158h97v-158h-97v158zM222 -276q-59 0 -96.5 27t-55.5 83.5t-18 147.5q0 40 3.5 80.5t10.5 79t17 74.5l136 -21q-13 -46 -19.5 -88.5t-6.5 -83.5q0 -45 2.5 -78.5t9.5 -62.5h506v118h141v-73q0 -107 -52 -155t-168 -48h-410zM573 0q-53 0 -92 13.5t-63 43t-35.5 77
t-11.5 114.5q0 63 14 108t43.5 73t77 41.5t113.5 13.5q74 0 127.5 -8.5t105.5 -29.5v-446h-279zM670 158q23 0 32 9t9 32v126h-134q-32 0 -44 -8.5t-12 -33.5v-125h149z" />
    <glyph glyph-name="uni06A1.init" unicode="&#x6a1;" horiz-adv-x="667" 
d="M-20 158h147q-9 34 -13.5 62.5t-4.5 69.5q0 50 14 86.5t43.5 60.5t76.5 35.5t114 11.5q70 0 123.5 -8.5t109.5 -29.5v-446h-610v158zM409 158q23 0 31.5 9t8.5 32v126h-149q-23 0 -32 -9t-9 -33v-125h150z" />
    <glyph glyph-name="uni06A1.medi" unicode="&#x6a1;" horiz-adv-x="667" 
d="M590 159h97v-158h-97v158zM-20 158h147q-9 34 -13.5 62.5t-4.5 69.5q0 50 14 86.5t43.5 60.5t76.5 35.5t114 11.5q70 0 123.5 -8.5t109.5 -29.5v-446h-610v158zM409 158q23 0 31.5 9t8.5 32v126h-149q-23 0 -32 -9t-9 -33v-125h150z" />
    <glyph glyph-name="uni06A1.fina" unicode="&#x6a1;" horiz-adv-x="1014" 
d="M937 159h97v-158h-97v158zM224 0q-58 0 -96 22.5t-55.5 71t-17.5 125.5q0 50 8 100t23 95l135 -21q-13 -35 -19 -68t-6 -65t3 -56t10 -46h265q-9 34 -13 62.5t-4 69.5q0 50 13.5 86.5t43 60.5t77 35.5t114.5 11.5q69 0 122.5 -8.5t109.5 -29.5v-446h-713zM756 158
q23 0 31.5 9t8.5 32v123h-149q-23 0 -32 -9t-9 -33v-122h150z" />
    <glyph glyph-name="uni06C2.fina" unicode="&#x6c2;" horiz-adv-x="639" 
d="M561 158h98v-158h-98v158zM562 470v-470h-263q-70 0 -116 10t-71.5 35.5t-35.5 71.5t-10 118t10 118t35.5 71.5t71.5 35.5t116 10h263zM422 312h-163q-22 0 -32.5 -9.5t-10.5 -27.5v-80q0 -18 10.5 -27.5t32.5 -9.5h163v154zM372 683l80 22v-67l-234 -62v65l38 11
q-4 11 -6 24t-2 30q0 53 22 83.5t62 45t92 18.5v-76q-25 -3 -45.5 -7.5t-42.5 -13.5l-1 -53q0 -16 8.5 -20.5t28.5 0.5z" />
    <glyph glyph-name="uni06C3.fina" unicode="&#x6c3;" horiz-adv-x="669" 
d="M315 484q50 0 96.5 -3.5t91 -11t88.5 -18.5l-17 -151q-35 9 -72 14.5t-78 8t-90 2.5q-32 0 -66 -1t-55 -4v-320h-141v317q0 59 23 95.5t76 54t144 17.5zM591 451v-293h98v-158h-238v451h140zM245 586q-14 0 -32.5 13.5t-32 32.5t-13.5 32q0 16 13.5 33.5t31.5 31t33 13.5
t33 -13.5t31.5 -31t13.5 -33.5q0 -14 -14 -32t-32 -32t-32 -14zM425 586q-14 0 -32.5 13.5t-32 32.5t-13.5 32q0 16 13.5 33.5t31.5 31t33 13.5t33 -13.5t31.5 -31t13.5 -33.5q0 -14 -14 -32t-32 -32t-32 -14z" />
    <glyph glyph-name="uniFB51" unicode="&#x671;" horiz-adv-x="295" arabic-form="final" 
d="M77 0v470h141v-312h97v-158h-238zM-4 640q0 85 44 132.5t127 47.5q73 0 107.5 -21t34.5 -65v-94h-105v102q-12 6 -37 6q-33 0 -49 -27t-16 -81h-106zM-34 590v66h343v-66h-343z" />
    <glyph glyph-name="uniFB57" unicode="&#x67e;" horiz-adv-x="914" arabic-form="final" 
d="M820 158h114v-158h-114v158zM224 0q-58 0 -96 22.5t-55.5 71t-17.5 125.5q0 50 8 100t23 95l135 -21q-13 -35 -19 -68t-6 -65t3 -56t10 -46h487v312h141v-470h-613zM454 -415q-14 0 -32.5 13.5t-32 32.5t-13.5 32q0 16 13.5 33.5t31.5 31t33 13.5t33 -13.5t31.5 -31
t13.5 -33.5q0 -14 -14 -32t-32 -32t-32 -14zM365 -238q-14 0 -32.5 13.5t-32 32.5t-13.5 32q0 16 13.5 33.5t31.5 31t33 13.5t33 -13.5t31.5 -31t13.5 -33.5q0 -14 -14 -32t-32 -32t-32 -14zM544 -238q-14 0 -32.5 13.5t-32 32.5t-13.5 32q0 16 13.5 33.5t31.5 31t33 13.5
t33 -13.5t31.5 -31t13.5 -33.5q0 -14 -14 -32t-32 -32t-32 -14z" />
    <glyph glyph-name="uniFB58" unicode="&#x67e;" horiz-adv-x="350" arabic-form="initial" 
d="M-20 0v158h152v312h141v-470h-293zM147 -411q-14 0 -32.5 13.5t-32 32.5t-13.5 32q0 16 13.5 33.5t31.5 31t33 13.5t33 -13.5t31.5 -31t13.5 -33.5q0 -14 -14 -32t-32 -32t-32 -14zM57 -234q-14 0 -32.5 13.5t-32 32.5t-13.5 32q0 16 13.5 33.5t31.5 31t33 13.5t33 -13.5
t31.5 -31t13.5 -33.5q0 -14 -14 -32t-32 -32t-32 -14zM237 -234q-14 0 -32.5 13.5t-32 32.5t-13.5 32q0 16 13.5 33.5t31.5 31t33 13.5t33 -13.5t31.5 -31t13.5 -33.5q0 -14 -14 -32t-32 -32t-32 -14z" />
    <glyph glyph-name="uniFB59" unicode="&#x67e;" horiz-adv-x="350" arabic-form="medial" 
d="M273 158h97v-158h-390v158h152v312h141v-312zM203 -412q-14 0 -32.5 13.5t-32 32.5t-13.5 32q0 16 13.5 33.5t31.5 31t33 13.5t33 -13.5t31.5 -31t13.5 -33.5q0 -14 -14 -32t-32 -32t-32 -14zM113 -236q-14 0 -32.5 13.5t-32 32.5t-13.5 32q0 16 13.5 33.5t31.5 31
t33 13.5t33 -13.5t31.5 -31t13.5 -33.5q0 -14 -14 -32t-32 -32t-32 -14zM293 -236q-14 0 -32.5 13.5t-32 32.5t-13.5 32q0 16 13.5 33.5t31.5 31t33 13.5t33 -13.5t31.5 -31t13.5 -33.5q0 -14 -14 -32t-32 -32t-32 -14z" />
    <glyph glyph-name="uniFB67" unicode="&#x679;" horiz-adv-x="914" arabic-form="final" 
d="M820 158h114v-158h-114v158zM224 0q-58 0 -96 22.5t-55.5 71t-17.5 125.5q0 50 8 100t23 95l135 -21q-13 -35 -19 -68t-6 -65t3 -56t10 -46h487v312h141v-470h-613zM306 542v221h105v-112q14 24 45.5 36.5t66.5 12.5q43 0 65.5 -19t22.5 -67v-72h-105v79q-7 3 -16 5
t-20 2q-32 0 -45.5 -23t-13.5 -63h-105zM276 490v66h335v-66h-335z" />
    <glyph glyph-name="uniFB68" unicode="&#x679;" horiz-adv-x="350" arabic-form="initial" 
d="M-20 0v158h152v312h141v-470h-293zM55 642v221h105v-112q14 24 45.5 36.5t66.5 12.5q43 0 65.5 -19t22.5 -67v-72h-105v79q-7 3 -16 5t-20 2q-32 0 -45.5 -23t-13.5 -63h-105zM25 590v66h335v-66h-335z" />
    <glyph glyph-name="uniFB69" unicode="&#x679;" horiz-adv-x="350" arabic-form="medial" 
d="M273 158h97v-158h-390v158h152v312h141v-312zM55 642v221h105v-112q14 24 45.5 36.5t66.5 12.5q43 0 65.5 -19t22.5 -67v-72h-105v79q-7 3 -16 5t-20 2q-32 0 -45.5 -23t-13.5 -63h-105zM25 590v66h335v-66h-335z" />
    <glyph glyph-name="uniFB6B" unicode="&#x6a4;" horiz-adv-x="1014" arabic-form="final" 
d="M937 159h97v-158h-97v158zM224 0q-58 0 -96 22.5t-55.5 71t-17.5 125.5q0 50 8 100t23 95l135 -21q-13 -35 -19 -68t-6 -65t3 -56t10 -46h265q-9 34 -13 62.5t-4 69.5q0 50 13.5 86.5t43 60.5t77 35.5t114.5 11.5q69 0 122.5 -8.5t109.5 -29.5v-446h-713zM756 158
q23 0 31.5 9t8.5 32v123h-149q-23 0 -32 -9t-9 -33v-122h150zM638 586q-14 0 -32.5 13.5t-32 32.5t-13.5 32q0 16 13.5 33.5t31.5 31t33 13.5t33 -13.5t31.5 -31t13.5 -33.5q0 -14 -14 -32t-32 -32t-32 -14zM818 586q-14 0 -32.5 13.5t-32 32.5t-13.5 32q0 16 13.5 33.5
t31.5 31t33 13.5t33 -13.5t31.5 -31t13.5 -33.5q0 -14 -14 -32t-32 -32t-32 -14zM727 778q-14 0 -32.5 13.5t-32 32.5t-13.5 32q0 16 13.5 33.5t31.5 31t33 13.5t33 -13.5t31.5 -31t13.5 -33.5q0 -14 -14 -32t-32 -32t-32 -14z" />
    <glyph glyph-name="uniFB6C" unicode="&#x6a4;" horiz-adv-x="667" arabic-form="initial" 
d="M-20 158h147q-9 34 -13.5 62.5t-4.5 69.5q0 50 14 86.5t43.5 60.5t76.5 35.5t114 11.5q70 0 123.5 -8.5t109.5 -29.5v-446h-610v158zM409 158q23 0 31.5 9t8.5 32v126h-149q-23 0 -32 -9t-9 -33v-125h150zM268 586q-14 0 -32.5 13.5t-32 32.5t-13.5 32q0 16 13.5 33.5
t31.5 31t33 13.5t33 -13.5t31.5 -31t13.5 -33.5q0 -14 -14 -32t-32 -32t-32 -14zM448 586q-14 0 -32.5 13.5t-32 32.5t-13.5 32q0 16 13.5 33.5t31.5 31t33 13.5t33 -13.5t31.5 -31t13.5 -33.5q0 -14 -14 -32t-32 -32t-32 -14zM358 778q-14 0 -32.5 13.5t-32 32.5t-13.5 32
q0 16 13.5 33.5t31.5 31t33 13.5t33 -13.5t31.5 -31t13.5 -33.5q0 -14 -14 -32t-32 -32t-32 -14z" />
    <glyph glyph-name="uniFB6D" unicode="&#x6a4;" horiz-adv-x="667" arabic-form="medial" 
d="M590 159h97v-158h-97v158zM-20 158h147q-9 34 -13.5 62.5t-4.5 69.5q0 50 14 86.5t43.5 60.5t76.5 35.5t114 11.5q70 0 123.5 -8.5t109.5 -29.5v-446h-610v158zM409 158q23 0 31.5 9t8.5 32v126h-149q-23 0 -32 -9t-9 -33v-125h150zM268 586q-14 0 -32.5 13.5t-32 32.5
t-13.5 32q0 16 13.5 33.5t31.5 31t33 13.5t33 -13.5t31.5 -31t13.5 -33.5q0 -14 -14 -32t-32 -32t-32 -14zM448 586q-14 0 -32.5 13.5t-32 32.5t-13.5 32q0 16 13.5 33.5t31.5 31t33 13.5t33 -13.5t31.5 -31t13.5 -33.5q0 -14 -14 -32t-32 -32t-32 -14zM358 778
q-14 0 -32.5 13.5t-32 32.5t-13.5 32q0 16 13.5 33.5t31.5 31t33 13.5t33 -13.5t31.5 -31t13.5 -33.5q0 -14 -14 -32t-32 -32t-32 -14z" />
    <glyph glyph-name="uniFB7B" unicode="&#x686;" horiz-adv-x="748" arabic-form="final" 
d="M689 158h79v-158h-104q-32 0 -51.5 13.5t-30.5 42.5l-60 156q-15 41 -39.5 65.5t-60.5 36t-89 11.5q-28 0 -58 -1.5t-62 -5.5l-21 156q43 5 77.5 7.5t62.5 2.5q86 0 147 -22t102 -69t67 -123zM309 -124l17 -151q-26 -7 -49 -11t-44 -4q-74 0 -115.5 25t-57.5 80t-16 144
q0 101 48.5 162.5t155 90t278.5 28.5l56 -124q-136 0 -224 -10.5t-130 -33t-42 -59.5v-140q10 -2 22 -3.5t26 -1.5q18 0 38 2t37 6zM428 -240q-12 0 -27.5 11.5t-26.5 27t-11 26.5q0 13 11 28t26.5 26t27.5 11t27.5 -11t26.5 -26t11 -28q0 -11 -11.5 -26.5t-26.5 -27
t-27 -11.5zM353 -91q-12 0 -27.5 11t-26.5 26.5t-11 27.5q0 13 11 27.5t26.5 25.5t27.5 11t27.5 -11t26.5 -25.5t11 -27.5q0 -12 -11.5 -27.5t-26.5 -26.5t-27 -11zM504 -91q-12 0 -27.5 11t-26.5 26.5t-11 27.5q0 13 11 27.5t26.5 25.5t26.5 11q13 0 28.5 -11t26.5 -25.5
t11 -27.5q0 -12 -11.5 -27.5t-27 -26.5t-26.5 -11z" />
    <glyph glyph-name="uniFB7C" unicode="&#x686;" horiz-adv-x="582" arabic-form="initial" 
d="M491 315h91v-159h-116q-32 0 -51.5 13.5t-30.5 42.5q-14 40 -37.5 65t-60 36.5t-91.5 11.5q-26 0 -56 -1t-64 -6l-21 156q39 5 74 7.5t66 2.5q83 0 139.5 -18t94.5 -55t63 -96zM366 305l131 -44q-22 -71 -57.5 -121t-82 -80.5t-100.5 -45t-114 -14.5h-163v158h177
q47 0 82.5 12t59.5 32.5t40.5 46.5t26.5 56zM283 -412q-14 0 -32.5 13.5t-32 32.5t-13.5 32q0 16 13.5 33.5t31.5 31t33 13.5t33 -13.5t31.5 -31t13.5 -33.5q0 -14 -14 -32t-32 -32t-32 -14zM194 -236q-14 0 -32.5 13.5t-32 32.5t-13.5 32q0 16 13.5 33.5t31.5 31t33 13.5
t33 -13.5t31.5 -31t13.5 -33.5q0 -14 -14 -32t-32 -32t-32 -14zM373 -236q-14 0 -32.5 13.5t-32 32.5t-13.5 32q0 16 13.5 33.5t31.5 31t33 13.5t33 -13.5t31.5 -31t13.5 -33.5q0 -14 -14 -32t-32 -32t-32 -14z" />
    <glyph glyph-name="uniFB7D" unicode="&#x686;" horiz-adv-x="608" arabic-form="medial" 
d="M551 158h79v-158h-104q-32 0 -51.5 13.5t-30.5 42.5l-60 156q-14 39 -38 64.5t-60 37t-91 11.5q-26 0 -56 -1t-64 -6l-21 156q39 5 74 7.5t66 2.5q88 0 148.5 -22.5t101 -69.5t66.5 -122zM366 305l131 -44q-21 -71 -53.5 -121t-75 -80.5t-92.5 -45t-105 -14.5h-191v158
h207q41 0 71 12t50.5 32.5t34.5 46.5t23 56zM306 -412q-14 0 -32.5 13.5t-32 32.5t-13.5 32q0 16 13.5 33.5t31.5 31t33 13.5t33 -13.5t31.5 -31t13.5 -33.5q0 -14 -14 -32t-32 -32t-32 -14zM216 -236q-14 0 -32.5 13.5t-32 32.5t-13.5 32q0 16 13.5 33.5t31.5 31t33 13.5
t33 -13.5t31.5 -31t13.5 -33.5q0 -14 -14 -32t-32 -32t-32 -14zM396 -236q-14 0 -32.5 13.5t-32 32.5t-13.5 32q0 16 13.5 33.5t31.5 31t33 13.5t33 -13.5t31.5 -31t13.5 -33.5q0 -14 -14 -32t-32 -32t-32 -14z" />
    <glyph glyph-name="uniFB89" unicode="&#x688;" horiz-adv-x="529" arabic-form="final" 
d="M449 158h100v-158h-100v158zM20 0v158h295q-11 53 -23.5 87t-27.5 53.5t-36.5 27t-51.5 7.5q-26 0 -55 -3.5t-53 -9.5l-38 154q30 8 69.5 12.5t76.5 4.5q56 0 96.5 -9t71 -32t54 -64t44 -105.5t42.5 -157.5v-123h-464zM58 642v221h105v-112q14 24 45.5 36.5t66.5 12.5
q43 0 65.5 -19t22.5 -67v-72h-105v79q-7 3 -16 5t-20 2q-32 0 -45.5 -23t-13.5 -63h-105zM28 590v66h335v-66h-335z" />
    <glyph glyph-name="uniFB8B" unicode="&#x698;" horiz-adv-x="333" arabic-form="final" 
d="M256 158h97v-158h-97v158zM72 -279l-52 126q39 18 60 37.5t29 51.5t8 85v449h140v-449q0 -80 -18 -136.5t-59 -95.5t-108 -68zM96 586q-14 0 -32.5 13.5t-32 32.5t-13.5 32q0 16 13.5 33.5t31.5 31t33 13.5t33 -13.5t31.5 -31t13.5 -33.5q0 -14 -14 -32t-32 -32t-32 -14z
M276 586q-14 0 -32.5 13.5t-32 32.5t-13.5 32q0 16 13.5 33.5t31.5 31t33 13.5t33 -13.5t31.5 -31t13.5 -33.5q0 -14 -14 -32t-32 -32t-32 -14zM185 778q-14 0 -32.5 13.5t-32 32.5t-13.5 32q0 16 13.5 33.5t31.5 31t33 13.5t33 -13.5t31.5 -31t13.5 -33.5q0 -14 -14 -32
t-32 -32t-32 -14z" />
    <glyph glyph-name="uniFB8D" unicode="&#x691;" horiz-adv-x="333" arabic-form="final" 
d="M256 158h97v-158h-97v158zM72 -279l-52 126q39 18 60 37.5t29 51.5t8 85v449h140v-449q0 -80 -18 -136.5t-59 -95.5t-108 -68zM37 642v221h105v-112q14 24 45.5 36.5t66.5 12.5q43 0 65.5 -19t22.5 -67v-72h-105v79q-7 3 -16 5t-20 2q-32 0 -45.5 -23t-13.5 -63h-105z
M7 590v66h335v-66h-335z" />
    <glyph glyph-name="uniFB8F" unicode="&#x6a9;" horiz-adv-x="882" arabic-form="final" 
d="M805 158h97v-158h-97v158zM224 0q-58 0 -96 22.5t-55.5 71t-17.5 125.5q0 50 8 100t23 95l135 -21q-13 -35 -19 -68t-6 -65t3 -56t10 -46h455v130h-212q-55 0 -84.5 30.5t-29.5 87.5q0 38 12 81.5t33 88.5t49.5 86t61.5 73l113 -61q-20 -20 -42 -48.5t-41.5 -60.5
t-33.5 -63t-19 -56h155q69 0 108 -16t55 -54.5t16 -107.5v-268h-581z" />
    <glyph glyph-name="uniFB90" unicode="&#x6a9;" horiz-adv-x="721" arabic-form="initial" 
d="M-20 0v158h523v130h-307q-55 0 -84.5 30.5t-29.5 87.5q0 38 12 81.5t33 88.5t49.5 86t61.5 73l113 -61q-21 -20 -42.5 -48.5t-41 -60.5t-33.5 -63t-20 -56h251q69 0 108 -16t55 -54.5t16 -107.5v-268h-664z" />
    <glyph glyph-name="uniFB91" unicode="&#x6a9;" horiz-adv-x="721" arabic-form="medial" 
d="M644 158h97v-158h-97v158zM-20 0v158h523v130h-307q-55 0 -84.5 30.5t-29.5 87.5q0 38 12 81.5t33 88.5t49.5 86t61.5 73l113 -61q-21 -20 -42.5 -48.5t-41 -60.5t-33.5 -63t-20 -56h251q69 0 108 -16t55 -54.5t16 -107.5v-268h-664z" />
    <glyph glyph-name="uniFB93" unicode="&#x6af;" horiz-adv-x="882" arabic-form="final" 
d="M805 158h97v-158h-97v158zM224 0q-58 0 -96 22.5t-55.5 71t-17.5 125.5q0 50 8 100t23 95l135 -21q-13 -35 -19 -68t-6 -65t3 -56t10 -46h455v130h-212q-55 0 -84.5 30.5t-29.5 87.5q0 38 12 81.5t33 88.5t49.5 86t61.5 73l113 -61q-20 -20 -42 -48.5t-41.5 -60.5
t-33.5 -63t-19 -56h155q69 0 108 -16t55 -54.5t16 -107.5v-268h-581zM298 840q-28 -29 -54.5 -70.5t-47.5 -87.5t-34.5 -89.5t-17.5 -78.5l117 -39q8 46 25.5 96.5t48 103t76.5 104.5z" />
    <glyph glyph-name="uniFB94" unicode="&#x6af;" horiz-adv-x="721" arabic-form="initial" 
d="M-20 0v158h523v130h-307q-55 0 -84.5 30.5t-29.5 87.5q0 38 12 81.5t33 88.5t49.5 86t61.5 73l113 -61q-21 -20 -42.5 -48.5t-41 -60.5t-33.5 -63t-20 -56h251q69 0 108 -16t55 -54.5t16 -107.5v-268h-664zM28 840q-28 -29 -54.5 -70.5t-47.5 -87.5t-34.5 -89.5
t-17.5 -78.5l117 -39q8 46 25.5 96.5t48 103t76.5 104.5z" />
    <glyph glyph-name="uniFB95" unicode="&#x6af;" horiz-adv-x="721" arabic-form="medial" 
d="M644 158h97v-158h-97v158zM-20 0v158h523v130h-307q-55 0 -84.5 30.5t-29.5 87.5q0 38 12 81.5t33 88.5t49.5 86t61.5 73l113 -61q-21 -20 -42.5 -48.5t-41 -60.5t-33.5 -63t-20 -56h251q69 0 108 -16t55 -54.5t16 -107.5v-268h-664zM28 840q-28 -29 -54.5 -70.5
t-47.5 -87.5t-34.5 -89.5t-17.5 -78.5l117 -39q8 46 25.5 96.5t48 103t76.5 104.5z" />
    <glyph glyph-name="uniFB9F" unicode="&#x6ba;" horiz-adv-x="678" arabic-form="final" 
d="M601 158h97v-158h-97v158zM213 -81h143q53 0 78.5 10.5t25.5 42.5v498h141v-472q0 -70 -10.5 -116.5t-39.5 -73t-83 -37.5t-141 -11q-79 0 -131 11t-81.5 38t-41 74t-11.5 120q0 42 3.5 83.5t11.5 82t18 78.5l134 -22q-13 -51 -19.5 -99.5t-6.5 -95.5q0 -35 2 -61.5
t8 -49.5z" />
    <glyph glyph-name="uniFBA7" unicode="&#x6c1;" horiz-adv-x="669" arabic-form="final" 
d="M315 484q50 0 96.5 -3.5t91 -11t88.5 -18.5l-17 -151q-35 9 -72 14.5t-78 8t-90 2.5q-32 0 -66 -1t-55 -4v-320h-141v317q0 59 23 95.5t76 54t144 17.5zM591 451v-293h98v-158h-238v451h140z" />
    <glyph glyph-name="uniFBA8" unicode="&#x6c1;" horiz-adv-x="350" arabic-form="initial" 
d="M211 21l62 -20l-23 -94q24 -4 34 -20t10 -51q0 -44 -17 -61t-63 -17q-44 0 -60.5 17t-16.5 61q1 19 3 30.5t7 23.5t15 33zM-20 0v158h152v312h141v-470h-293z" />
    <glyph glyph-name="uniFBA9" unicode="&#x6c1;" horiz-adv-x="688" arabic-form="medial" 
d="M611 16v-224q0 -58 -18.5 -95t-62 -54.5t-120.5 -17.5q-62 0 -124 11t-119 34q-19 50 -29.5 104.5t-10.5 109.5v116h133v-108q0 -31 5 -63t14 -64q58 -7 112 -7q19 0 43 1t36 4v253h141zM470 0v158h238v-158h-238zM-20 0v158h280v-158h-280z" />
    <glyph glyph-name="uniFBAB" unicode="&#x6be;" horiz-adv-x="767" arabic-form="final" 
d="M647 158h140v-158h-140v158zM20 0v158h543l-34 140q-12 49 -41.5 80.5t-86.5 47t-154 15.5l8 154q130 0 211 -23t127 -75.5t67 -142.5l57 -231v-123h-697zM79 131q0 73 8.5 118.5t29.5 68.5t58.5 30.5t95.5 7.5q59 0 97 -7.5t59.5 -30.5t30 -68t8.5 -119h-387zM343 242
h-104q-19 0 -28 -7.5t-9 -23.5v-80h141v111z" />
    <glyph glyph-name="uniFBAC" unicode="&#x6be;" horiz-adv-x="767" arabic-form="initial" 
d="M-20 0v158h583l-34 140q-12 49 -41.5 80.5t-86.5 47t-154 15.5l8 154q130 0 211 -23t127 -75.5t67 -142.5l57 -231v-123h-737zM79 131q0 73 8.5 118.5t29.5 68.5t58.5 30.5t95.5 7.5q59 0 97 -7.5t59.5 -30.5t30 -68t8.5 -119h-387zM343 242h-104q-19 0 -28 -7.5
t-9 -23.5v-80h141v111z" />
    <glyph glyph-name="uniFBAD" unicode="&#x6be;" horiz-adv-x="767" arabic-form="medial" 
d="M639 158h148v-158h-148v158zM-20 0v158h583l-34 140q-12 49 -41.5 80.5t-86.5 47t-154 15.5l8 154q130 0 211 -23t127 -75.5t67 -142.5l57 -231v-123h-737zM79 131q0 73 8.5 118.5t29.5 68.5t58.5 30.5t95.5 7.5q59 0 97 -7.5t59.5 -30.5t30 -68t8.5 -119h-387zM343 242
h-104q-19 0 -28 -7.5t-9 -23.5v-80h141v111z" />
    <glyph glyph-name="uniFBAF" unicode="&#x6d2;" horiz-adv-x="739" arabic-form="final" 
d="M42 0v158h717v-158h-717zM347 -286q-95 0 -155.5 11t-92.5 38.5t-44.5 75t-12.5 119.5v42h141v-75q0 -21 18 -32.5t60 -16t114 -4.5q40 0 75 1.5t69 4.5t72 8t82 12l21 -151q-53 -11 -110 -18.5t-116 -11t-121 -3.5z" />
    <glyph glyph-name="uniFBB1" unicode="&#x6d3;" horiz-adv-x="739" arabic-form="final" 
d="M42 0v158h717v-158h-717zM347 -286q-95 0 -155.5 11t-92.5 38.5t-44.5 75t-12.5 119.5v42h141v-75q0 -21 18 -32.5t60 -16t114 -4.5q40 0 75 1.5t69 4.5t72 8t82 12l21 -151q-53 -11 -110 -18.5t-116 -11t-121 -3.5zM342 343l80 22v-67l-234 -62v65l38 11q-4 11 -6 24
t-2 30q0 53 22 83.5t62 45t92 18.5v-76q-25 -3 -45.5 -7.5t-42.5 -13.5l-1 -53q0 -16 8.5 -20.5t28.5 0.5z" />
    <glyph glyph-name="uniFBFD" unicode="&#x6cc;" horiz-adv-x="878" arabic-form="final" 
d="M427 -286q-107 0 -178 11t-111.5 37t-58 72t-17.5 114q0 35 3.5 71t11.5 71t18 67l138 -23q-13 -41 -21.5 -80t-8.5 -78q0 -32 2 -57t8 -47h281q63 0 99 4.5t51.5 16t15.5 32.5v75h141v-51q0 -66 -17 -111.5t-59 -72.5t-114.5 -39t-183.5 -12zM648 0q-55 0 -116 8.5
t-115 24.5l21 151q51 -13 92.5 -19.5t83.5 -6.5h284v-158h-250z" />
    <glyph glyph-name="uniFBFE" unicode="&#x6cc;" horiz-adv-x="350" arabic-form="initial" 
d="M-20 0v158h152v312h141v-470h-293zM53 -226q-14 0 -32.5 13.5t-32 32.5t-13.5 32q0 16 13.5 33.5t31.5 31t33 13.5t33 -13.5t31.5 -31t13.5 -33.5q0 -14 -14 -32t-32 -32t-32 -14zM233 -226q-14 0 -32.5 13.5t-32 32.5t-13.5 32q0 16 13.5 33.5t31.5 31t33 13.5t33 -13.5
t31.5 -31t13.5 -33.5q0 -14 -14 -32t-32 -32t-32 -14z" />
    <glyph glyph-name="uniFBFF" unicode="&#x6cc;" horiz-adv-x="350" arabic-form="medial" 
d="M273 158h97v-158h-390v158h152v312h141v-312zM112 -236q-14 0 -32.5 13.5t-32 32.5t-13.5 32q0 16 13.5 33.5t31.5 31t33 13.5t33 -13.5t31.5 -31t13.5 -33.5q0 -14 -14 -32t-32 -32t-32 -14zM292 -236q-14 0 -32.5 13.5t-32 32.5t-13.5 32q0 16 13.5 33.5t31.5 31
t33 13.5t33 -13.5t31.5 -31t13.5 -33.5q0 -14 -14 -32t-32 -32t-32 -14z" />
    <glyph glyph-name="uniFC64" unicode="&#xfc64;" horiz-adv-x="661" arabic-form="final" 
d="M443 0v470h141v-312h97v-158h-238zM257 470h186v-158h-186v158zM72 -279l-52 126q39 18 60 37.5t29 51.5t8 85v449h140v-449q0 -80 -18 -136.5t-59 -95.5t-108 -68zM549 683l80 22v-67l-234 -62v65l38 11q-4 11 -6 24t-2 30q0 53 22 83.5t62 45t92 18.5v-76
q-25 -3 -45.5 -7.5t-42.5 -13.5l-1 -53q0 -16 8.5 -20.5t28.5 0.5z" />
    <glyph glyph-name="uniFC65" unicode="&#xfc65;" horiz-adv-x="661" arabic-form="final" 
d="M443 0v470h141v-312h97v-158h-238zM257 470h186v-158h-186v158zM72 -279l-52 126q39 18 60 37.5t29 51.5t8 85v449h140v-449q0 -80 -18 -136.5t-59 -95.5t-108 -68zM549 683l80 22v-67l-234 -62v65l38 11q-4 11 -6 24t-2 30q0 53 22 83.5t62 45t92 18.5v-76
q-25 -3 -45.5 -7.5t-42.5 -13.5l-1 -53q0 -16 8.5 -20.5t28.5 0.5zM186 586q-14 0 -32.5 13.5t-32 32.5t-13.5 32q0 16 13.5 33.5t31.5 31t33 13.5t33 -13.5t31.5 -31t13.5 -33.5q0 -14 -14 -32t-32 -32t-32 -14z" />
    <glyph glyph-name="uniFC67" unicode="&#xfc67;" horiz-adv-x="1005" arabic-form="final" 
d="M787 0v470h141v-312h97v-158h-238zM601 470h186v-158h-186v158zM213 -81h143q53 0 78.5 10.5t25.5 42.5v498h141v-472q0 -70 -10.5 -116.5t-39.5 -73t-83 -37.5t-141 -11q-79 0 -131 11t-81.5 38t-41 74t-11.5 120q0 42 3.5 83.5t11.5 82t18 78.5l134 -22
q-13 -51 -19.5 -99.5t-6.5 -95.5q0 -35 2 -61.5t8 -49.5zM332 587q-14 0 -32 13.5t-32 32t-14 32.5q0 16 13.5 33.5t32 31t32.5 13.5q16 0 33.5 -13.5t31 -31t13.5 -33.5q0 -14 -13.5 -32t-31.5 -32t-33 -14zM895 683l80 22v-67l-234 -62v65l38 11q-4 11 -6 24t-2 30
q0 53 22 83.5t62 45t92 18.5v-76q-25 -3 -45.5 -7.5t-42.5 -13.5l-1 -53q0 -16 8.5 -20.5t28.5 0.5z" />
    <glyph glyph-name="uniFC68" unicode="&#xfc68;" horiz-adv-x="1171" arabic-form="final" 
d="M953 0v470h141v-312h97v-158h-238zM62 -52q0 35 3.5 71t11.5 71t18 67l138 -23q-13 -41 -21.5 -80t-8.5 -78q0 -32 2 -57t8 -47h281q63 0 99 4.5t51.5 16t15.5 32.5v124l-132 14q-69 7 -105 29t-49.5 63.5t-13.5 107.5q0 59 9 98.5t33 63.5t67.5 34.5t112.5 10.5h371
v-158h-444v-94l133 -13q63 -7 97.5 -27.5t48 -57t13.5 -93.5v-78q0 -66 -17 -111.5t-59 -72.5t-114.5 -39t-183.5 -12q-107 0 -178 11t-111.5 37t-58 72t-17.5 114zM1060 683l80 22v-67l-234 -62v65l38 11q-4 11 -6 24t-2 30q0 53 22 83.5t62 45t92 18.5v-76
q-25 -3 -45.5 -7.5t-42.5 -13.5l-1 -53q0 -16 8.5 -20.5t28.5 0.5z" />
    <glyph glyph-name="uniFC69" unicode="&#xfc69;" horiz-adv-x="1171" arabic-form="final" 
d="M953 0v470h141v-312h97v-158h-238zM62 -52q0 35 3.5 71t11.5 71t18 67l138 -23q-13 -41 -21.5 -80t-8.5 -78q0 -32 2 -57t8 -47h281q63 0 99 4.5t51.5 16t15.5 32.5v124l-132 14q-69 7 -105 29t-49.5 63.5t-13.5 107.5q0 59 9 98.5t33 63.5t67.5 34.5t112.5 10.5h371
v-158h-444v-94l133 -13q63 -7 97.5 -27.5t48 -57t13.5 -93.5v-78q0 -66 -17 -111.5t-59 -72.5t-114.5 -39t-183.5 -12q-107 0 -178 11t-111.5 37t-58 72t-17.5 114zM1060 683l80 22v-67l-234 -62v65l38 11q-4 11 -6 24t-2 30q0 53 22 83.5t62 45t92 18.5v-76
q-25 -3 -45.5 -7.5t-42.5 -13.5l-1 -53q0 -16 8.5 -20.5t28.5 0.5zM345 -486q-14 0 -32.5 13.5t-32 32.5t-13.5 32q0 16 13.5 33.5t31.5 31t33 13.5t33 -13.5t31.5 -31t13.5 -33.5q0 -14 -14 -32t-32 -32t-32 -14zM525 -486q-14 0 -32.5 13.5t-32 32.5t-13.5 32
q0 16 13.5 33.5t31.5 31t33 13.5t33 -13.5t31.5 -31t13.5 -33.5q0 -14 -14 -32t-32 -32t-32 -14z" />
    <glyph glyph-name="uniFC6A" unicode="&#xfc6a;" horiz-adv-x="661" arabic-form="final" 
d="M443 0v470h141v-312h97v-158h-238zM257 470h186v-158h-186v158zM72 -279l-52 126q39 18 60 37.5t29 51.5t8 85v449h140v-449q0 -80 -18 -136.5t-59 -95.5t-108 -68zM513 -236q-14 0 -32.5 13.5t-32 32.5t-13.5 32q0 16 13.5 33.5t31.5 31t33 13.5t33 -13.5t31.5 -31
t13.5 -33.5q0 -14 -14 -32t-32 -32t-32 -14z" />
    <glyph glyph-name="uniFC6B" unicode="&#xfc6b;" horiz-adv-x="661" arabic-form="final" 
d="M443 0v470h141v-312h97v-158h-238zM257 470h186v-158h-186v158zM72 -279l-52 126q39 18 60 37.5t29 51.5t8 85v449h140v-449q0 -80 -18 -136.5t-59 -95.5t-108 -68zM513 -236q-14 0 -32.5 13.5t-32 32.5t-13.5 32q0 16 13.5 33.5t31.5 31t33 13.5t33 -13.5t31.5 -31
t13.5 -33.5q0 -14 -14 -32t-32 -32t-32 -14zM186 586q-14 0 -32.5 13.5t-32 32.5t-13.5 32q0 16 13.5 33.5t31.5 31t33 13.5t33 -13.5t31.5 -31t13.5 -33.5q0 -14 -14 -32t-32 -32t-32 -14z" />
    <glyph glyph-name="uniFC6D" unicode="&#xfc6d;" horiz-adv-x="1005" arabic-form="final" 
d="M787 0v470h141v-312h97v-158h-238zM601 470h186v-158h-186v158zM213 -81h143q53 0 78.5 10.5t25.5 42.5v498h141v-472q0 -70 -10.5 -116.5t-39.5 -73t-83 -37.5t-141 -11q-79 0 -131 11t-81.5 38t-41 74t-11.5 120q0 42 3.5 83.5t11.5 82t18 78.5l134 -22
q-13 -51 -19.5 -99.5t-6.5 -95.5q0 -35 2 -61.5t8 -49.5zM332 587q-14 0 -32 13.5t-32 32t-14 32.5q0 16 13.5 33.5t32 31t32.5 13.5q16 0 33.5 -13.5t31 -31t13.5 -33.5q0 -14 -13.5 -32t-31.5 -32t-33 -14zM858 -236q-14 0 -32.5 13.5t-32 32.5t-13.5 32q0 16 13.5 33.5
t31.5 31t33 13.5t33 -13.5t31.5 -31t13.5 -33.5q0 -14 -14 -32t-32 -32t-32 -14z" />
    <glyph glyph-name="uniFC6E" unicode="&#xfc6e;" horiz-adv-x="1171" arabic-form="final" 
d="M953 0v470h141v-312h97v-158h-238zM62 -52q0 35 3.5 71t11.5 71t18 67l138 -23q-13 -41 -21.5 -80t-8.5 -78q0 -32 2 -57t8 -47h281q63 0 99 4.5t51.5 16t15.5 32.5v124l-132 14q-69 7 -105 29t-49.5 63.5t-13.5 107.5q0 59 9 98.5t33 63.5t67.5 34.5t112.5 10.5h371
v-158h-444v-94l133 -13q63 -7 97.5 -27.5t48 -57t13.5 -93.5v-78q0 -66 -17 -111.5t-59 -72.5t-114.5 -39t-183.5 -12q-107 0 -178 11t-111.5 37t-58 72t-17.5 114zM1024 -216q-14 0 -32.5 13.5t-32 32.5t-13.5 32q0 16 13.5 33.5t31.5 31t33 13.5t33 -13.5t31.5 -31
t13.5 -33.5q0 -14 -14 -32t-32 -32t-32 -14z" />
    <glyph glyph-name="uniFC6F" unicode="&#xfc6f;" horiz-adv-x="1171" arabic-form="final" 
d="M953 0v470h141v-312h97v-158h-238zM62 -52q0 35 3.5 71t11.5 71t18 67l138 -23q-13 -41 -21.5 -80t-8.5 -78q0 -32 2 -57t8 -47h281q63 0 99 4.5t51.5 16t15.5 32.5v124l-132 14q-69 7 -105 29t-49.5 63.5t-13.5 107.5q0 59 9 98.5t33 63.5t67.5 34.5t112.5 10.5h371
v-158h-444v-94l133 -13q63 -7 97.5 -27.5t48 -57t13.5 -93.5v-78q0 -66 -17 -111.5t-59 -72.5t-114.5 -39t-183.5 -12q-107 0 -178 11t-111.5 37t-58 72t-17.5 114zM1024 -216q-14 0 -32.5 13.5t-32 32.5t-13.5 32q0 16 13.5 33.5t31.5 31t33 13.5t33 -13.5t31.5 -31
t13.5 -33.5q0 -14 -14 -32t-32 -32t-32 -14zM345 -486q-14 0 -32.5 13.5t-32 32.5t-13.5 32q0 16 13.5 33.5t31.5 31t33 13.5t33 -13.5t31.5 -31t13.5 -33.5q0 -14 -14 -32t-32 -32t-32 -14zM525 -486q-14 0 -32.5 13.5t-32 32.5t-13.5 32q0 16 13.5 33.5t31.5 31t33 13.5
t33 -13.5t31.5 -31t13.5 -33.5q0 -14 -14 -32t-32 -32t-32 -14z" />
    <glyph glyph-name="uniFC70" unicode="&#xfc70;" horiz-adv-x="661" arabic-form="final" 
d="M443 0v470h141v-312h97v-158h-238zM257 470h186v-158h-186v158zM72 -279l-52 126q39 18 60 37.5t29 51.5t8 85v449h140v-449q0 -80 -18 -136.5t-59 -95.5t-108 -68zM423 586q-14 0 -32.5 13.5t-32 32.5t-13.5 32q0 16 13.5 33.5t31.5 31t33 13.5t33 -13.5t31.5 -31
t13.5 -33.5q0 -14 -14 -32t-32 -32t-32 -14zM603 586q-14 0 -32.5 13.5t-32 32.5t-13.5 32q0 16 13.5 33.5t31.5 31t33 13.5t33 -13.5t31.5 -31t13.5 -33.5q0 -14 -14 -32t-32 -32t-32 -14z" />
    <glyph glyph-name="uniFC71" unicode="&#xfc71;" horiz-adv-x="661" arabic-form="final" 
d="M443 0v470h141v-312h97v-158h-238zM257 470h186v-158h-186v158zM72 -279l-52 126q39 18 60 37.5t29 51.5t8 85v449h140v-449q0 -80 -18 -136.5t-59 -95.5t-108 -68zM423 586q-14 0 -32.5 13.5t-32 32.5t-13.5 32q0 16 13.5 33.5t31.5 31t33 13.5t33 -13.5t31.5 -31
t13.5 -33.5q0 -14 -14 -32t-32 -32t-32 -14zM603 586q-14 0 -32.5 13.5t-32 32.5t-13.5 32q0 16 13.5 33.5t31.5 31t33 13.5t33 -13.5t31.5 -31t13.5 -33.5q0 -14 -14 -32t-32 -32t-32 -14zM186 586q-14 0 -32.5 13.5t-32 32.5t-13.5 32q0 16 13.5 33.5t31.5 31t33 13.5
t33 -13.5t31.5 -31t13.5 -33.5q0 -14 -14 -32t-32 -32t-32 -14z" />
    <glyph glyph-name="uniFC73" unicode="&#xfc73;" horiz-adv-x="1005" arabic-form="final" 
d="M787 0v470h141v-312h97v-158h-238zM601 470h186v-158h-186v158zM213 -81h143q53 0 78.5 10.5t25.5 42.5v498h141v-472q0 -70 -10.5 -116.5t-39.5 -73t-83 -37.5t-141 -11q-79 0 -131 11t-81.5 38t-41 74t-11.5 120q0 42 3.5 83.5t11.5 82t18 78.5l134 -22
q-13 -51 -19.5 -99.5t-6.5 -95.5q0 -35 2 -61.5t8 -49.5zM332 587q-14 0 -32 13.5t-32 32t-14 32.5q0 16 13.5 33.5t32 31t32.5 13.5q16 0 33.5 -13.5t31 -31t13.5 -33.5q0 -14 -13.5 -32t-31.5 -32t-33 -14zM768 586q-14 0 -32.5 13.5t-32 32.5t-13.5 32q0 16 13.5 33.5
t31.5 31t33 13.5t33 -13.5t31.5 -31t13.5 -33.5q0 -14 -14 -32t-32 -32t-32 -14zM948 586q-14 0 -32.5 13.5t-32 32.5t-13.5 32q0 16 13.5 33.5t31.5 31t33 13.5t33 -13.5t31.5 -31t13.5 -33.5q0 -14 -14 -32t-32 -32t-32 -14z" />
    <glyph glyph-name="uniFC74" unicode="&#xfc74;" horiz-adv-x="1171" arabic-form="final" 
d="M953 0v470h141v-312h97v-158h-238zM62 -52q0 35 3.5 71t11.5 71t18 67l138 -23q-13 -41 -21.5 -80t-8.5 -78q0 -32 2 -57t8 -47h281q63 0 99 4.5t51.5 16t15.5 32.5v124l-132 14q-69 7 -105 29t-49.5 63.5t-13.5 107.5q0 59 9 98.5t33 63.5t67.5 34.5t112.5 10.5h371
v-158h-444v-94l133 -13q63 -7 97.5 -27.5t48 -57t13.5 -93.5v-78q0 -66 -17 -111.5t-59 -72.5t-114.5 -39t-183.5 -12q-107 0 -178 11t-111.5 37t-58 72t-17.5 114zM934 586q-14 0 -32.5 13.5t-32 32.5t-13.5 32q0 16 13.5 33.5t31.5 31t33 13.5t33 -13.5t31.5 -31
t13.5 -33.5q0 -14 -14 -32t-32 -32t-32 -14zM1114 586q-14 0 -32.5 13.5t-32 32.5t-13.5 32q0 16 13.5 33.5t31.5 31t33 13.5t33 -13.5t31.5 -31t13.5 -33.5q0 -14 -14 -32t-32 -32t-32 -14z" />
    <glyph glyph-name="uniFC75" unicode="&#xfc75;" horiz-adv-x="1171" arabic-form="final" 
d="M953 0v470h141v-312h97v-158h-238zM62 -52q0 35 3.5 71t11.5 71t18 67l138 -23q-13 -41 -21.5 -80t-8.5 -78q0 -32 2 -57t8 -47h281q63 0 99 4.5t51.5 16t15.5 32.5v124l-132 14q-69 7 -105 29t-49.5 63.5t-13.5 107.5q0 59 9 98.5t33 63.5t67.5 34.5t112.5 10.5h371
v-158h-444v-94l133 -13q63 -7 97.5 -27.5t48 -57t13.5 -93.5v-78q0 -66 -17 -111.5t-59 -72.5t-114.5 -39t-183.5 -12q-107 0 -178 11t-111.5 37t-58 72t-17.5 114zM934 586q-14 0 -32.5 13.5t-32 32.5t-13.5 32q0 16 13.5 33.5t31.5 31t33 13.5t33 -13.5t31.5 -31
t13.5 -33.5q0 -14 -14 -32t-32 -32t-32 -14zM1114 586q-14 0 -32.5 13.5t-32 32.5t-13.5 32q0 16 13.5 33.5t31.5 31t33 13.5t33 -13.5t31.5 -31t13.5 -33.5q0 -14 -14 -32t-32 -32t-32 -14zM345 -486q-14 0 -32.5 13.5t-32 32.5t-13.5 32q0 16 13.5 33.5t31.5 31t33 13.5
t33 -13.5t31.5 -31t13.5 -33.5q0 -14 -14 -32t-32 -32t-32 -14zM525 -486q-14 0 -32.5 13.5t-32 32.5t-13.5 32q0 16 13.5 33.5t31.5 31t33 13.5t33 -13.5t31.5 -31t13.5 -33.5q0 -14 -14 -32t-32 -32t-32 -14z" />
    <glyph glyph-name="uniFC76" unicode="&#xfc76;" horiz-adv-x="661" arabic-form="final" 
d="M443 0v470h141v-312h97v-158h-238zM257 470h186v-158h-186v158zM72 -279l-52 126q39 18 60 37.5t29 51.5t8 85v449h140v-449q0 -80 -18 -136.5t-59 -95.5t-108 -68zM423 586q-14 0 -32.5 13.5t-32 32.5t-13.5 32q0 16 13.5 33.5t31.5 31t33 13.5t33 -13.5t31.5 -31
t13.5 -33.5q0 -14 -14 -32t-32 -32t-32 -14zM603 586q-14 0 -32.5 13.5t-32 32.5t-13.5 32q0 16 13.5 33.5t31.5 31t33 13.5t33 -13.5t31.5 -31t13.5 -33.5q0 -14 -14 -32t-32 -32t-32 -14zM513 778q-14 0 -32.5 13.5t-32 32.5t-13.5 32q0 16 13.5 33.5t31.5 31t33 13.5
t33 -13.5t31.5 -31t13.5 -33.5q0 -14 -14 -32t-32 -32t-32 -14z" />
    <glyph glyph-name="uniFC77" unicode="&#xfc77;" horiz-adv-x="661" arabic-form="final" 
d="M443 0v470h141v-312h97v-158h-238zM257 470h186v-158h-186v158zM72 -279l-52 126q39 18 60 37.5t29 51.5t8 85v449h140v-449q0 -80 -18 -136.5t-59 -95.5t-108 -68zM423 586q-14 0 -32.5 13.5t-32 32.5t-13.5 32q0 16 13.5 33.5t31.5 31t33 13.5t33 -13.5t31.5 -31
t13.5 -33.5q0 -14 -14 -32t-32 -32t-32 -14zM603 586q-14 0 -32.5 13.5t-32 32.5t-13.5 32q0 16 13.5 33.5t31.5 31t33 13.5t33 -13.5t31.5 -31t13.5 -33.5q0 -14 -14 -32t-32 -32t-32 -14zM513 778q-14 0 -32.5 13.5t-32 32.5t-13.5 32q0 16 13.5 33.5t31.5 31t33 13.5
t33 -13.5t31.5 -31t13.5 -33.5q0 -14 -14 -32t-32 -32t-32 -14zM186 586q-14 0 -32.5 13.5t-32 32.5t-13.5 32q0 16 13.5 33.5t31.5 31t33 13.5t33 -13.5t31.5 -31t13.5 -33.5q0 -14 -14 -32t-32 -32t-32 -14z" />
    <glyph glyph-name="uniFC79" unicode="&#xfc79;" horiz-adv-x="1005" arabic-form="final" 
d="M787 0v470h141v-312h97v-158h-238zM601 470h186v-158h-186v158zM213 -81h143q53 0 78.5 10.5t25.5 42.5v498h141v-472q0 -70 -10.5 -116.5t-39.5 -73t-83 -37.5t-141 -11q-79 0 -131 11t-81.5 38t-41 74t-11.5 120q0 42 3.5 83.5t11.5 82t18 78.5l134 -22
q-13 -51 -19.5 -99.5t-6.5 -95.5q0 -35 2 -61.5t8 -49.5zM332 587q-14 0 -32 13.5t-32 32t-14 32.5q0 16 13.5 33.5t32 31t32.5 13.5q16 0 33.5 -13.5t31 -31t13.5 -33.5q0 -14 -13.5 -32t-31.5 -32t-33 -14zM768 586q-14 0 -32.5 13.5t-32 32.5t-13.5 32q0 16 13.5 33.5
t31.5 31t33 13.5t33 -13.5t31.5 -31t13.5 -33.5q0 -14 -14 -32t-32 -32t-32 -14zM948 586q-14 0 -32.5 13.5t-32 32.5t-13.5 32q0 16 13.5 33.5t31.5 31t33 13.5t33 -13.5t31.5 -31t13.5 -33.5q0 -14 -14 -32t-32 -32t-32 -14zM858 778q-14 0 -32.5 13.5t-32 32.5t-13.5 32
q0 16 13.5 33.5t31.5 31t33 13.5t33 -13.5t31.5 -31t13.5 -33.5q0 -14 -14 -32t-32 -32t-32 -14z" />
    <glyph glyph-name="uniFC7A" unicode="&#xfc7a;" horiz-adv-x="1171" arabic-form="final" 
d="M953 0v470h141v-312h97v-158h-238zM62 -52q0 35 3.5 71t11.5 71t18 67l138 -23q-13 -41 -21.5 -80t-8.5 -78q0 -32 2 -57t8 -47h281q63 0 99 4.5t51.5 16t15.5 32.5v124l-132 14q-69 7 -105 29t-49.5 63.5t-13.5 107.5q0 59 9 98.5t33 63.5t67.5 34.5t112.5 10.5h371
v-158h-444v-94l133 -13q63 -7 97.5 -27.5t48 -57t13.5 -93.5v-78q0 -66 -17 -111.5t-59 -72.5t-114.5 -39t-183.5 -12q-107 0 -178 11t-111.5 37t-58 72t-17.5 114zM934 586q-14 0 -32.5 13.5t-32 32.5t-13.5 32q0 16 13.5 33.5t31.5 31t33 13.5t33 -13.5t31.5 -31
t13.5 -33.5q0 -14 -14 -32t-32 -32t-32 -14zM1114 586q-14 0 -32.5 13.5t-32 32.5t-13.5 32q0 16 13.5 33.5t31.5 31t33 13.5t33 -13.5t31.5 -31t13.5 -33.5q0 -14 -14 -32t-32 -32t-32 -14zM1024 778q-14 0 -32.5 13.5t-32 32.5t-13.5 32q0 16 13.5 33.5t31.5 31t33 13.5
t33 -13.5t31.5 -31t13.5 -33.5q0 -14 -14 -32t-32 -32t-32 -14z" />
    <glyph glyph-name="uniFC7B" unicode="&#xfc7b;" horiz-adv-x="1171" arabic-form="final" 
d="M953 0v470h141v-312h97v-158h-238zM62 -52q0 35 3.5 71t11.5 71t18 67l138 -23q-13 -41 -21.5 -80t-8.5 -78q0 -32 2 -57t8 -47h281q63 0 99 4.5t51.5 16t15.5 32.5v124l-132 14q-69 7 -105 29t-49.5 63.5t-13.5 107.5q0 59 9 98.5t33 63.5t67.5 34.5t112.5 10.5h371
v-158h-444v-94l133 -13q63 -7 97.5 -27.5t48 -57t13.5 -93.5v-78q0 -66 -17 -111.5t-59 -72.5t-114.5 -39t-183.5 -12q-107 0 -178 11t-111.5 37t-58 72t-17.5 114zM934 586q-14 0 -32.5 13.5t-32 32.5t-13.5 32q0 16 13.5 33.5t31.5 31t33 13.5t33 -13.5t31.5 -31
t13.5 -33.5q0 -14 -14 -32t-32 -32t-32 -14zM1114 586q-14 0 -32.5 13.5t-32 32.5t-13.5 32q0 16 13.5 33.5t31.5 31t33 13.5t33 -13.5t31.5 -31t13.5 -33.5q0 -14 -14 -32t-32 -32t-32 -14zM1024 778q-14 0 -32.5 13.5t-32 32.5t-13.5 32q0 16 13.5 33.5t31.5 31t33 13.5
t33 -13.5t31.5 -31t13.5 -33.5q0 -14 -14 -32t-32 -32t-32 -14zM345 -486q-14 0 -32.5 13.5t-32 32.5t-13.5 32q0 16 13.5 33.5t31.5 31t33 13.5t33 -13.5t31.5 -31t13.5 -33.5q0 -14 -14 -32t-32 -32t-32 -14zM525 -486q-14 0 -32.5 13.5t-32 32.5t-13.5 32q0 16 13.5 33.5
t31.5 31t33 13.5t33 -13.5t31.5 -31t13.5 -33.5q0 -14 -14 -32t-32 -32t-32 -14z" />
    <glyph glyph-name="uniFC8A" unicode="&#xfc8a;" horiz-adv-x="661" arabic-form="final" 
d="M443 0v470h141v-312h97v-158h-238zM257 470h186v-158h-186v158zM72 -279l-52 126q39 18 60 37.5t29 51.5t8 85v449h140v-449q0 -80 -18 -136.5t-59 -95.5t-108 -68zM513 586q-14 0 -32.5 13.5t-32 32.5t-13.5 32q0 16 13.5 33.5t31.5 31t33 13.5t33 -13.5t31.5 -31
t13.5 -33.5q0 -14 -14 -32t-32 -32t-32 -14z" />
    <glyph glyph-name="uniFC8B" unicode="&#xfc8b;" horiz-adv-x="661" arabic-form="final" 
d="M443 0v470h141v-312h97v-158h-238zM257 470h186v-158h-186v158zM72 -279l-52 126q39 18 60 37.5t29 51.5t8 85v449h140v-449q0 -80 -18 -136.5t-59 -95.5t-108 -68zM513 586q-14 0 -32.5 13.5t-32 32.5t-13.5 32q0 16 13.5 33.5t31.5 31t33 13.5t33 -13.5t31.5 -31
t13.5 -33.5q0 -14 -14 -32t-32 -32t-32 -14zM186 586q-14 0 -32.5 13.5t-32 32.5t-13.5 32q0 16 13.5 33.5t31.5 31t33 13.5t33 -13.5t31.5 -31t13.5 -33.5q0 -14 -14 -32t-32 -32t-32 -14z" />
    <glyph glyph-name="uniFC8D" unicode="&#xfc8d;" horiz-adv-x="1005" arabic-form="final" 
d="M787 0v470h141v-312h97v-158h-238zM601 470h186v-158h-186v158zM213 -81h143q53 0 78.5 10.5t25.5 42.5v498h141v-472q0 -70 -10.5 -116.5t-39.5 -73t-83 -37.5t-141 -11q-79 0 -131 11t-81.5 38t-41 74t-11.5 120q0 42 3.5 83.5t11.5 82t18 78.5l134 -22
q-13 -51 -19.5 -99.5t-6.5 -95.5q0 -35 2 -61.5t8 -49.5zM332 587q-14 0 -32 13.5t-32 32t-14 32.5q0 16 13.5 33.5t32 31t32.5 13.5q16 0 33.5 -13.5t31 -31t13.5 -33.5q0 -14 -13.5 -32t-31.5 -32t-33 -14zM858 586q-14 0 -32.5 13.5t-32 32.5t-13.5 32q0 16 13.5 33.5
t31.5 31t33 13.5t33 -13.5t31.5 -31t13.5 -33.5q0 -14 -14 -32t-32 -32t-32 -14z" />
    <glyph glyph-name="uniFC8E" unicode="&#xfc8e;" horiz-adv-x="1171" arabic-form="final" 
d="M953 0v470h141v-312h97v-158h-238zM62 -52q0 35 3.5 71t11.5 71t18 67l138 -23q-13 -41 -21.5 -80t-8.5 -78q0 -32 2 -57t8 -47h281q63 0 99 4.5t51.5 16t15.5 32.5v124l-132 14q-69 7 -105 29t-49.5 63.5t-13.5 107.5q0 59 9 98.5t33 63.5t67.5 34.5t112.5 10.5h371
v-158h-444v-94l133 -13q63 -7 97.5 -27.5t48 -57t13.5 -93.5v-78q0 -66 -17 -111.5t-59 -72.5t-114.5 -39t-183.5 -12q-107 0 -178 11t-111.5 37t-58 72t-17.5 114zM1024 586q-14 0 -32.5 13.5t-32 32.5t-13.5 32q0 16 13.5 33.5t31.5 31t33 13.5t33 -13.5t31.5 -31
t13.5 -33.5q0 -14 -14 -32t-32 -32t-32 -14z" />
    <glyph glyph-name="uniFC8F" unicode="&#xfc8f;" horiz-adv-x="1171" arabic-form="final" 
d="M953 0v470h141v-312h97v-158h-238zM62 -52q0 35 3.5 71t11.5 71t18 67l138 -23q-13 -41 -21.5 -80t-8.5 -78q0 -32 2 -57t8 -47h281q63 0 99 4.5t51.5 16t15.5 32.5v124l-132 14q-69 7 -105 29t-49.5 63.5t-13.5 107.5q0 59 9 98.5t33 63.5t67.5 34.5t112.5 10.5h371
v-158h-444v-94l133 -13q63 -7 97.5 -27.5t48 -57t13.5 -93.5v-78q0 -66 -17 -111.5t-59 -72.5t-114.5 -39t-183.5 -12q-107 0 -178 11t-111.5 37t-58 72t-17.5 114zM1024 586q-14 0 -32.5 13.5t-32 32.5t-13.5 32q0 16 13.5 33.5t31.5 31t33 13.5t33 -13.5t31.5 -31
t13.5 -33.5q0 -14 -14 -32t-32 -32t-32 -14zM345 -486q-14 0 -32.5 13.5t-32 32.5t-13.5 32q0 16 13.5 33.5t31.5 31t33 13.5t33 -13.5t31.5 -31t13.5 -33.5q0 -14 -14 -32t-32 -32t-32 -14zM525 -486q-14 0 -32.5 13.5t-32 32.5t-13.5 32q0 16 13.5 33.5t31.5 31t33 13.5
t33 -13.5t31.5 -31t13.5 -33.5q0 -14 -14 -32t-32 -32t-32 -14z" />
    <glyph glyph-name="uniFC91" unicode="&#xfc91;" horiz-adv-x="661" arabic-form="final" 
d="M443 0v470h141v-312h97v-158h-238zM257 470h186v-158h-186v158zM72 -279l-52 126q39 18 60 37.5t29 51.5t8 85v449h140v-449q0 -80 -18 -136.5t-59 -95.5t-108 -68zM422 -236q-14 0 -32.5 13.5t-32 32.5t-13.5 32q0 16 13.5 33.5t31.5 31t33 13.5t33 -13.5t31.5 -31
t13.5 -33.5q0 -14 -14 -32t-32 -32t-32 -14zM602 -236q-14 0 -32.5 13.5t-32 32.5t-13.5 32q0 16 13.5 33.5t31.5 31t33 13.5t33 -13.5t31.5 -31t13.5 -33.5q0 -14 -14 -32t-32 -32t-32 -14z" />
    <glyph glyph-name="uniFC92" unicode="&#xfc92;" horiz-adv-x="661" arabic-form="final" 
d="M443 0v470h141v-312h97v-158h-238zM257 470h186v-158h-186v158zM72 -279l-52 126q39 18 60 37.5t29 51.5t8 85v449h140v-449q0 -80 -18 -136.5t-59 -95.5t-108 -68zM422 -236q-14 0 -32.5 13.5t-32 32.5t-13.5 32q0 16 13.5 33.5t31.5 31t33 13.5t33 -13.5t31.5 -31
t13.5 -33.5q0 -14 -14 -32t-32 -32t-32 -14zM602 -236q-14 0 -32.5 13.5t-32 32.5t-13.5 32q0 16 13.5 33.5t31.5 31t33 13.5t33 -13.5t31.5 -31t13.5 -33.5q0 -14 -14 -32t-32 -32t-32 -14zM186 586q-14 0 -32.5 13.5t-32 32.5t-13.5 32q0 16 13.5 33.5t31.5 31t33 13.5
t33 -13.5t31.5 -31t13.5 -33.5q0 -14 -14 -32t-32 -32t-32 -14z" />
    <glyph glyph-name="uniFC94" unicode="&#xfc94;" horiz-adv-x="1005" arabic-form="final" 
d="M787 0v470h141v-312h97v-158h-238zM601 470h186v-158h-186v158zM213 -81h143q53 0 78.5 10.5t25.5 42.5v498h141v-472q0 -70 -10.5 -116.5t-39.5 -73t-83 -37.5t-141 -11q-79 0 -131 11t-81.5 38t-41 74t-11.5 120q0 42 3.5 83.5t11.5 82t18 78.5l134 -22
q-13 -51 -19.5 -99.5t-6.5 -95.5q0 -35 2 -61.5t8 -49.5zM332 587q-14 0 -32 13.5t-32 32t-14 32.5q0 16 13.5 33.5t32 31t32.5 13.5q16 0 33.5 -13.5t31 -31t13.5 -33.5q0 -14 -13.5 -32t-31.5 -32t-33 -14zM767 -236q-14 0 -32.5 13.5t-32 32.5t-13.5 32q0 16 13.5 33.5
t31.5 31t33 13.5t33 -13.5t31.5 -31t13.5 -33.5q0 -14 -14 -32t-32 -32t-32 -14zM947 -236q-14 0 -32.5 13.5t-32 32.5t-13.5 32q0 16 13.5 33.5t31.5 31t33 13.5t33 -13.5t31.5 -31t13.5 -33.5q0 -14 -14 -32t-32 -32t-32 -14z" />
    <glyph glyph-name="uniFCFB" unicode="&#xfcfb;" horiz-adv-x="1849" arabic-form="isolated" 
d="M953 0v470h141v-470h-141zM62 -52q0 35 3.5 71t11.5 71t18 67l138 -23q-13 -41 -21.5 -80t-8.5 -78q0 -32 2 -57t8 -47h281q63 0 99 4.5t51.5 16t15.5 32.5v124l-132 14q-69 7 -105 29t-49.5 63.5t-13.5 107.5q0 59 9 98.5t33 63.5t67.5 34.5t112.5 10.5h371v-158h-444
v-94l133 -13q63 -7 97.5 -27.5t48 -57t13.5 -93.5v-78q0 -66 -17 -111.5t-59 -72.5t-114.5 -39t-183.5 -12q-107 0 -178 11t-111.5 37t-58 72t-17.5 114zM1532 0q-73 0 -119.5 11t-72 37.5t-35.5 74t-10 118.5v139h141v-169q0 -32 19 -42.5t56 -10.5h116q6 20 8 44t2 56
q0 46 -8 93t-20 97l139 22q11 -31 17.5 -65t9.5 -69.5t3 -69.5q0 -104 -26.5 -162t-81 -81t-138.5 -23zM1176 0h-82v158h126q37 0 56 10.5t19 42.5v169h141v-139q0 -71 -10 -118.5t-37.5 -74t-79 -37.5t-133.5 -11z" />
    <glyph glyph-name="uniFCFC" unicode="&#xfcfc;" horiz-adv-x="1849" arabic-form="isolated" 
d="M953 0v470h141v-470h-141zM62 -52q0 35 3.5 71t11.5 71t18 67l138 -23q-13 -41 -21.5 -80t-8.5 -78q0 -32 2 -57t8 -47h281q63 0 99 4.5t51.5 16t15.5 32.5v124l-132 14q-69 7 -105 29t-49.5 63.5t-13.5 107.5q0 59 9 98.5t33 63.5t67.5 34.5t112.5 10.5h371v-158h-444
v-94l133 -13q63 -7 97.5 -27.5t48 -57t13.5 -93.5v-78q0 -66 -17 -111.5t-59 -72.5t-114.5 -39t-183.5 -12q-107 0 -178 11t-111.5 37t-58 72t-17.5 114zM1532 0q-73 0 -119.5 11t-72 37.5t-35.5 74t-10 118.5v139h141v-169q0 -32 19 -42.5t56 -10.5h116q6 20 8 44t2 56
q0 46 -8 93t-20 97l139 22q11 -31 17.5 -65t9.5 -69.5t3 -69.5q0 -104 -26.5 -162t-81 -81t-138.5 -23zM1176 0h-82v158h126q37 0 56 10.5t19 42.5v169h141v-139q0 -71 -10 -118.5t-37.5 -74t-79 -37.5t-133.5 -11zM345 -486q-14 0 -32.5 13.5t-32 32.5t-13.5 32
q0 16 13.5 33.5t31.5 31t33 13.5t33 -13.5t31.5 -31t13.5 -33.5q0 -14 -14 -32t-32 -32t-32 -14zM525 -486q-14 0 -32.5 13.5t-32 32.5t-13.5 32q0 16 13.5 33.5t31.5 31t33 13.5t33 -13.5t31.5 -31t13.5 -33.5q0 -14 -14 -32t-32 -32t-32 -14z" />
    <glyph glyph-name="uniFD0D" unicode="&#xfd0d;" horiz-adv-x="1338" arabic-form="isolated" 
d="M443 0v470h141v-470h-141zM257 470h186v-158h-186v158zM72 -279l-52 126q39 18 60 37.5t29 51.5t8 85v449h140v-449q0 -80 -18 -136.5t-59 -95.5t-108 -68zM1022 0q-73 0 -119.5 11t-72.5 37.5t-35.5 74t-9.5 118.5v139h140v-169q0 -32 19.5 -42.5t55.5 -10.5h117
q5 20 7 44t2 56q0 46 -7.5 93t-20.5 97l140 22q11 -31 17 -65t9 -69.5t3 -69.5q0 -104 -26.5 -162t-81 -81t-137.5 -23zM665 0h-81v158h126q36 0 55.5 10.5t19.5 42.5v169h140v-139q0 -71 -10 -118.5t-37 -74t-78.5 -37.5t-134.5 -11zM766 586q-14 0 -32.5 13.5t-32 32.5
t-13.5 32q0 16 13.5 33.5t31.5 31t33 13.5t33 -13.5t31.5 -31t13.5 -33.5q0 -14 -14 -32t-32 -32t-32 -14zM945 586q-14 0 -32.5 13.5t-32 32.5t-13.5 32q0 16 13.5 33.5t31.5 31t33 13.5t33 -13.5t31.5 -31t13.5 -33.5q0 -14 -14 -32t-32 -32t-32 -14zM855 778
q-14 0 -32.5 13.5t-32 32.5t-13.5 32q0 16 13.5 33.5t31.5 31t33 13.5t33 -13.5t31.5 -31t13.5 -33.5q0 -14 -14 -32t-32 -32t-32 -14z" />
    <glyph glyph-name="uniFD0E" unicode="&#xfd0e;" horiz-adv-x="1338" arabic-form="isolated" 
d="M443 0v470h141v-470h-141zM257 470h186v-158h-186v158zM72 -279l-52 126q39 18 60 37.5t29 51.5t8 85v449h140v-449q0 -80 -18 -136.5t-59 -95.5t-108 -68zM1022 0q-73 0 -119.5 11t-72.5 37.5t-35.5 74t-9.5 118.5v139h140v-169q0 -32 19.5 -42.5t55.5 -10.5h117
q5 20 7 44t2 56q0 46 -7.5 93t-20.5 97l140 22q11 -31 17 -65t9 -69.5t3 -69.5q0 -104 -26.5 -162t-81 -81t-137.5 -23zM665 0h-81v158h126q36 0 55.5 10.5t19.5 42.5v169h140v-139q0 -71 -10 -118.5t-37 -74t-78.5 -37.5t-134.5 -11z" />
    <glyph glyph-name="uniFD0F" unicode="&#xfd0f;" horiz-adv-x="1152" arabic-form="isolated" 
d="M257 469h186v-158h-186v158zM72 -280l-52 127q39 17 60 36.5t29 51.5t8 86v448h140v-448q0 -81 -18 -137.5t-59 -95.5t-108 -68zM1076 158v-159h-633v159h633zM935 -1v311q-16 5 -47.5 8t-71.5 3q-116 0 -174 -53.5t-58 -161.5h-141v363h141v-140q20 46 63.5 79.5t102 52
t126.5 18.5q77 0 120.5 -15.5t61.5 -53t18 -104.5v-307h-141z" />
    <glyph glyph-name="uniFD10" unicode="&#xfd10;" horiz-adv-x="1152" arabic-form="isolated" 
d="M257 469h186v-158h-186v158zM72 -280l-52 127q39 17 60 36.5t29 51.5t8 86v448h140v-448q0 -81 -18 -137.5t-59 -95.5t-108 -68zM1076 158v-159h-633v159h633zM935 -1v311q-16 5 -47.5 8t-71.5 3q-116 0 -174 -53.5t-58 -161.5h-141v363h141v-140q20 46 63.5 79.5t102 52
t126.5 18.5q77 0 120.5 -15.5t61.5 -53t18 -104.5v-307h-141zM803 586q-14 0 -32.5 13.5t-32 32.5t-13.5 32q0 16 13.5 33.5t31.5 31t33 13.5t33 -13.5t31.5 -31t13.5 -33.5q0 -14 -14 -32t-32 -32t-32 -14z" />
    <glyph glyph-name="uniFD17" unicode="&#xfd17;" horiz-adv-x="1855" arabic-form="final" 
d="M1693 158h182v-158h-343zM953 0v470h141v-470h-141zM62 -52q0 35 3.5 71t11.5 71t18 67l138 -23q-13 -41 -21.5 -80t-8.5 -78q0 -32 2 -57t8 -47h281q63 0 99 4.5t51.5 16t15.5 32.5v124l-132 14q-69 7 -105 29t-49.5 63.5t-13.5 107.5q0 59 9 98.5t33 63.5t67.5 34.5
t112.5 10.5h371v-158h-444v-94l133 -13q63 -7 97.5 -27.5t48 -57t13.5 -93.5v-78q0 -66 -17 -111.5t-59 -72.5t-114.5 -39t-183.5 -12q-107 0 -178 11t-111.5 37t-58 72t-17.5 114zM1532 0q-73 0 -119.5 11t-72 37.5t-35.5 74t-10 118.5v139h141v-169q0 -32 19 -42.5
t56 -10.5h116q6 20 8 44t2 56q0 46 -8 93t-20 97l139 22q11 -31 17.5 -65t9.5 -69.5t3 -69.5q0 -104 -26.5 -162t-81 -81t-138.5 -23zM1176 0h-82v158h126q37 0 56 10.5t19 42.5v169h141v-139q0 -71 -10 -118.5t-37.5 -74t-79 -37.5t-133.5 -11z" />
    <glyph glyph-name="uniFD18" unicode="&#xfd18;" horiz-adv-x="1855" arabic-form="final" 
d="M1693 158h182v-158h-343zM953 0v470h141v-470h-141zM62 -52q0 35 3.5 71t11.5 71t18 67l138 -23q-13 -41 -21.5 -80t-8.5 -78q0 -32 2 -57t8 -47h281q63 0 99 4.5t51.5 16t15.5 32.5v124l-132 14q-69 7 -105 29t-49.5 63.5t-13.5 107.5q0 59 9 98.5t33 63.5t67.5 34.5
t112.5 10.5h371v-158h-444v-94l133 -13q63 -7 97.5 -27.5t48 -57t13.5 -93.5v-78q0 -66 -17 -111.5t-59 -72.5t-114.5 -39t-183.5 -12q-107 0 -178 11t-111.5 37t-58 72t-17.5 114zM1532 0q-73 0 -119.5 11t-72 37.5t-35.5 74t-10 118.5v139h141v-169q0 -32 19 -42.5
t56 -10.5h116q6 20 8 44t2 56q0 46 -8 93t-20 97l139 22q11 -31 17.5 -65t9.5 -69.5t3 -69.5q0 -104 -26.5 -162t-81 -81t-138.5 -23zM1176 0h-82v158h126q37 0 56 10.5t19 42.5v169h141v-139q0 -71 -10 -118.5t-37.5 -74t-79 -37.5t-133.5 -11zM345 -486q-14 0 -32.5 13.5
t-32 32.5t-13.5 32q0 16 13.5 33.5t31.5 31t33 13.5t33 -13.5t31.5 -31t13.5 -33.5q0 -14 -14 -32t-32 -32t-32 -14zM525 -486q-14 0 -32.5 13.5t-32 32.5t-13.5 32q0 16 13.5 33.5t31.5 31t33 13.5t33 -13.5t31.5 -31t13.5 -33.5q0 -14 -14 -32t-32 -32t-32 -14z" />
    <glyph glyph-name="uniFD29" unicode="&#xfd29;" horiz-adv-x="1344" arabic-form="final" 
d="M1022 0l160 158h182v-158h-342zM443 0v470h141v-470h-141zM257 470h186v-158h-186v158zM72 -279l-52 126q39 18 60 37.5t29 51.5t8 85v449h140v-449q0 -80 -18 -136.5t-59 -95.5t-108 -68zM1022 0q-73 0 -119.5 11t-72.5 37.5t-35.5 74t-9.5 118.5v139h140v-169
q0 -32 19.5 -42.5t55.5 -10.5h117q5 20 7 44t2 56q0 46 -7.5 93t-20.5 97l140 22q11 -31 17 -65t9 -69.5t3 -69.5q0 -104 -26.5 -162t-81 -81t-137.5 -23zM665 0h-81v158h126q36 0 55.5 10.5t19.5 42.5v169h140v-139q0 -71 -10 -118.5t-37 -74t-78.5 -37.5t-134.5 -11z
M766 586q-14 0 -32.5 13.5t-32 32.5t-13.5 32q0 16 13.5 33.5t31.5 31t33 13.5t33 -13.5t31.5 -31t13.5 -33.5q0 -14 -14 -32t-32 -32t-32 -14zM945 586q-14 0 -32.5 13.5t-32 32.5t-13.5 32q0 16 13.5 33.5t31.5 31t33 13.5t33 -13.5t31.5 -31t13.5 -33.5q0 -14 -14 -32
t-32 -32t-32 -14zM855 778q-14 0 -32.5 13.5t-32 32.5t-13.5 32q0 16 13.5 33.5t31.5 31t33 13.5t33 -13.5t31.5 -31t13.5 -33.5q0 -14 -14 -32t-32 -32t-32 -14z" />
    <glyph glyph-name="uniFD2A" unicode="&#xfd2a;" horiz-adv-x="1344" arabic-form="final" 
d="M1022 0l160 158h182v-158h-342zM443 0v470h141v-470h-141zM257 470h186v-158h-186v158zM72 -279l-52 126q39 18 60 37.5t29 51.5t8 85v449h140v-449q0 -80 -18 -136.5t-59 -95.5t-108 -68zM1022 0q-73 0 -119.5 11t-72.5 37.5t-35.5 74t-9.5 118.5v139h140v-169
q0 -32 19.5 -42.5t55.5 -10.5h117q5 20 7 44t2 56q0 46 -7.5 93t-20.5 97l140 22q11 -31 17 -65t9 -69.5t3 -69.5q0 -104 -26.5 -162t-81 -81t-137.5 -23zM665 0h-81v158h126q36 0 55.5 10.5t19.5 42.5v169h140v-139q0 -71 -10 -118.5t-37 -74t-78.5 -37.5t-134.5 -11z" />
    <glyph glyph-name="uniFD2B" unicode="&#xfd2b;" horiz-adv-x="1153" arabic-form="final" 
d="M1076 158h97v-158h-97v158zM257 469h186v-158h-186v158zM72 -280l-52 127q39 17 60 36.5t29 51.5t8 86v448h140v-448q0 -81 -18 -137.5t-59 -95.5t-108 -68zM1076 158v-159h-633v159h633zM935 -1v311q-16 5 -47.5 8t-71.5 3q-116 0 -174 -53.5t-58 -161.5h-141v363h141
v-140q20 46 63.5 79.5t102 52t126.5 18.5q77 0 120.5 -15.5t61.5 -53t18 -104.5v-307h-141z" />
    <glyph glyph-name="uniFD2C" unicode="&#xfd2c;" horiz-adv-x="1153" arabic-form="final" 
d="M1076 158h97v-158h-97v158zM257 469h186v-158h-186v158zM72 -280l-52 127q39 17 60 36.5t29 51.5t8 86v448h140v-448q0 -81 -18 -137.5t-59 -95.5t-108 -68zM1076 158v-159h-633v159h633zM935 -1v311q-16 5 -47.5 8t-71.5 3q-116 0 -174 -53.5t-58 -161.5h-141v363h141
v-140q20 46 63.5 79.5t102 52t126.5 18.5q77 0 120.5 -15.5t61.5 -53t18 -104.5v-307h-141zM819 586q-14 0 -32.5 13.5t-32 32.5t-13.5 32q0 16 13.5 33.5t31.5 31t33 13.5t33 -13.5t31.5 -31t13.5 -33.5q0 -14 -14 -32t-32 -32t-32 -14z" />
    <glyph glyph-name="uniFE82" unicode="&#x622;" horiz-adv-x="295" arabic-form="final" 
d="M77 0v470h141v-312h97v-158h-238zM159 605q-16 0 -29 8.5t-33 32.5l-68 -31l-23 40q43 33 67.5 49.5t38.5 22.5t23 6q16 0 28.5 -8.5t33.5 -33.5l67 31l23 -40q-40 -33 -65 -49.5t-39 -22t-24 -5.5z" />
    <glyph glyph-name="uniFE84" unicode="&#x623;" horiz-adv-x="295" arabic-form="final" 
d="M77 0v470h141v-312h97v-158h-238zM185 683l80 22v-67l-234 -62v65l38 11q-4 11 -6 24t-2 30q0 53 22 83.5t62 45t92 18.5v-76q-25 -3 -45.5 -7.5t-42.5 -13.5l-1 -53q0 -16 8.5 -20.5t28.5 0.5z" />
    <glyph glyph-name="uniFE86" unicode="&#x624;" horiz-adv-x="626" arabic-form="final" 
d="M479 158h167v-158h-167v158zM260 0q-53 0 -92 13.5t-62.5 43t-35.5 77t-12 114.5q0 63 14.5 108t43.5 73t76.5 41.5t113.5 13.5q74 0 127.5 -8.5t105.5 -29.5v-288l-77 -158h-202zM357 158q23 0 32 9t9 32v126h-134q-32 0 -44 -8.5t-12 -33.5v-125h149zM319 -279l-94 104
q38 32 70 72.5t55 85t35.5 89t12.5 86.5h141q0 -56 -16 -115.5t-45.5 -116.5t-69.5 -109.5t-89 -95.5zM343 683l80 22v-67l-234 -62v65l38 11q-4 11 -6 24t-2 30q0 53 22 83.5t62 45t92 18.5v-76q-25 -3 -45.5 -7.5t-42.5 -13.5l-1 -53q0 -16 8.5 -20.5t28.5 0.5z" />
    <glyph glyph-name="uniFE88" unicode="&#x625;" horiz-adv-x="295" arabic-form="final" 
d="M77 0v630h141v-472h97v-158h-238zM185 -246l80 22v-67l-234 -62v65l38 11q-4 11 -6 24t-2 30q0 53 22 83.5t62 45t92 18.5v-76q-25 -3 -45.5 -7.5t-42.5 -13.5l-1 -53q0 -16 8.5 -20.5t28.5 0.5z" />
    <glyph glyph-name="uniFE8A" unicode="&#x626;" horiz-adv-x="878" arabic-form="final" 
d="M427 -286q-107 0 -178 11t-111.5 37t-58 72t-17.5 114q0 35 3.5 71t11.5 71t18 67l138 -23q-13 -41 -21.5 -80t-8.5 -78q0 -32 2 -57t8 -47h281q63 0 99 4.5t51.5 16t15.5 32.5v75h141v-51q0 -66 -17 -111.5t-59 -72.5t-114.5 -39t-183.5 -12zM648 0q-55 0 -116 8.5
t-115 24.5l21 151q51 -13 92.5 -19.5t83.5 -6.5h284v-158h-250zM219 373l80 22v-67l-234 -62v65l38 11q-4 11 -6 24t-2 30q0 53 22 83.5t62 45t92 18.5v-76q-25 -3 -45.5 -7.5t-42.5 -13.5l-1 -53q0 -16 8.5 -20.5t28.5 0.5z" />
    <glyph glyph-name="uniFE8B" unicode="&#x626;" horiz-adv-x="350" arabic-form="initial" 
d="M-20 0v158h152v312h141v-470h-293zM240 683l80 22v-67l-234 -62v65l38 11q-4 11 -6 24t-2 30q0 53 22 83.5t62 45t92 18.5v-76q-25 -3 -45.5 -7.5t-42.5 -13.5l-1 -53q0 -16 8.5 -20.5t28.5 0.5z" />
    <glyph glyph-name="uniFE8C" unicode="&#x626;" horiz-adv-x="350" arabic-form="medial" 
d="M273 158h97v-158h-390v158h152v312h141v-312zM240 683l80 22v-67l-234 -62v65l38 11q-4 11 -6 24t-2 30q0 53 22 83.5t62 45t92 18.5v-76q-25 -3 -45.5 -7.5t-42.5 -13.5l-1 -53q0 -16 8.5 -20.5t28.5 0.5z" />
    <glyph glyph-name="uniFE8E" unicode="&#x627;" horiz-adv-x="295" arabic-form="final" 
d="M77 0v630h141v-472h97v-158h-238z" />
    <glyph glyph-name="uniFE90" unicode="&#x628;" horiz-adv-x="914" arabic-form="final" 
d="M820 158h114v-158h-114v158zM224 0q-58 0 -96 22.5t-55.5 71t-17.5 125.5q0 50 8 100t23 95l135 -21q-13 -35 -19 -68t-6 -65t3 -56t10 -46h487v312h141v-470h-613zM454 -238q-14 0 -32.5 13.5t-32 32.5t-13.5 32q0 16 13.5 33.5t31.5 31t33 13.5t33 -13.5t31.5 -31
t13.5 -33.5q0 -14 -14 -32t-32 -32t-32 -14z" />
    <glyph glyph-name="uniFE91" unicode="&#x628;" horiz-adv-x="350" arabic-form="initial" 
d="M-20 0v158h152v312h141v-470h-293zM203 -236q-14 0 -32.5 13.5t-32 32.5t-13.5 32q0 16 13.5 33.5t31.5 31t33 13.5t33 -13.5t31.5 -31t13.5 -33.5q0 -14 -14 -32t-32 -32t-32 -14z" />
    <glyph glyph-name="uniFE92" unicode="&#x628;" horiz-adv-x="350" arabic-form="medial" 
d="M273 158h97v-158h-390v158h152v312h141v-312zM203 -236q-14 0 -32.5 13.5t-32 32.5t-13.5 32q0 16 13.5 33.5t31.5 31t33 13.5t33 -13.5t31.5 -31t13.5 -33.5q0 -14 -14 -32t-32 -32t-32 -14z" />
    <glyph glyph-name="uniFE94" unicode="&#x629;" horiz-adv-x="639" arabic-form="final" 
d="M561 158h98v-158h-98v158zM562 470v-470h-263q-70 0 -116 10t-71.5 35.5t-35.5 71.5t-10 118t10 118t35.5 71.5t71.5 35.5t116 10h263zM422 312h-163q-22 0 -32.5 -9.5t-10.5 -27.5v-80q0 -18 10.5 -27.5t32.5 -9.5h163v154zM246 586q-14 0 -32.5 13.5t-32 32.5t-13.5 32
q0 16 13.5 33.5t31.5 31t33 13.5t33 -13.5t31.5 -31t13.5 -33.5q0 -14 -14 -32t-32 -32t-32 -14zM425 586q-14 0 -32.5 13.5t-32 32.5t-13.5 32q0 16 13.5 33.5t31.5 31t33 13.5t33 -13.5t31.5 -31t13.5 -33.5q0 -14 -14 -32t-32 -32t-32 -14z" />
    <glyph glyph-name="uniFE96" unicode="&#x62a;" horiz-adv-x="914" arabic-form="final" 
d="M820 158h114v-158h-114v158zM224 0q-58 0 -96 22.5t-55.5 71t-17.5 125.5q0 50 8 100t23 95l135 -21q-13 -35 -19 -68t-6 -65t3 -56t10 -46h487v312h141v-470h-613zM365 486q-14 0 -32.5 13.5t-32 32.5t-13.5 32q0 16 13.5 33.5t31.5 31t33 13.5t33 -13.5t31.5 -31
t13.5 -33.5q0 -14 -14 -32t-32 -32t-32 -14zM545 486q-14 0 -32.5 13.5t-32 32.5t-13.5 32q0 16 13.5 33.5t31.5 31t33 13.5t33 -13.5t31.5 -31t13.5 -33.5q0 -14 -14 -32t-32 -32t-32 -14z" />
    <glyph glyph-name="uniFE97" unicode="&#x62a;" horiz-adv-x="350" arabic-form="initial" 
d="M-20 0v158h152v312h141v-470h-293zM113 586q-14 0 -32.5 13.5t-32 32.5t-13.5 32q0 16 13.5 33.5t31.5 31t33 13.5t33 -13.5t31.5 -31t13.5 -33.5q0 -14 -14 -32t-32 -32t-32 -14zM293 586q-14 0 -32.5 13.5t-32 32.5t-13.5 32q0 16 13.5 33.5t31.5 31t33 13.5t33 -13.5
t31.5 -31t13.5 -33.5q0 -14 -14 -32t-32 -32t-32 -14z" />
    <glyph glyph-name="uniFE98" unicode="&#x62a;" horiz-adv-x="350" arabic-form="medial" 
d="M273 158h97v-158h-390v158h152v312h141v-312zM113 586q-14 0 -32.5 13.5t-32 32.5t-13.5 32q0 16 13.5 33.5t31.5 31t33 13.5t33 -13.5t31.5 -31t13.5 -33.5q0 -14 -14 -32t-32 -32t-32 -14zM293 586q-14 0 -32.5 13.5t-32 32.5t-13.5 32q0 16 13.5 33.5t31.5 31t33 13.5
t33 -13.5t31.5 -31t13.5 -33.5q0 -14 -14 -32t-32 -32t-32 -14z" />
    <glyph glyph-name="uniFE9A" unicode="&#x62b;" horiz-adv-x="914" arabic-form="final" 
d="M820 158h114v-158h-114v158zM224 0q-58 0 -96 22.5t-55.5 71t-17.5 125.5q0 50 8 100t23 95l135 -21q-13 -35 -19 -68t-6 -65t3 -56t10 -46h487v312h141v-470h-613zM365 486q-14 0 -32.5 13.5t-32 32.5t-13.5 32q0 16 13.5 33.5t31.5 31t33 13.5t33 -13.5t31.5 -31
t13.5 -33.5q0 -14 -14 -32t-32 -32t-32 -14zM545 486q-14 0 -32.5 13.5t-32 32.5t-13.5 32q0 16 13.5 33.5t31.5 31t33 13.5t33 -13.5t31.5 -31t13.5 -33.5q0 -14 -14 -32t-32 -32t-32 -14zM454 678q-14 0 -32.5 13.5t-32 32.5t-13.5 32q0 16 13.5 33.5t31.5 31t33 13.5
t33 -13.5t31.5 -31t13.5 -33.5q0 -14 -14 -32t-32 -32t-32 -14z" />
    <glyph glyph-name="uniFE9B" unicode="&#x62b;" horiz-adv-x="350" arabic-form="initial" 
d="M-20 0v158h152v312h141v-470h-293zM113 586q-14 0 -32.5 13.5t-32 32.5t-13.5 32q0 16 13.5 33.5t31.5 31t33 13.5t33 -13.5t31.5 -31t13.5 -33.5q0 -14 -14 -32t-32 -32t-32 -14zM293 586q-14 0 -32.5 13.5t-32 32.5t-13.5 32q0 16 13.5 33.5t31.5 31t33 13.5t33 -13.5
t31.5 -31t13.5 -33.5q0 -14 -14 -32t-32 -32t-32 -14zM203 778q-14 0 -32.5 13.5t-32 32.5t-13.5 32q0 16 13.5 33.5t31.5 31t33 13.5t33 -13.5t31.5 -31t13.5 -33.5q0 -14 -14 -32t-32 -32t-32 -14z" />
    <glyph glyph-name="uniFE9C" unicode="&#x62b;" horiz-adv-x="350" arabic-form="medial" 
d="M273 158h97v-158h-390v158h152v312h141v-312zM113 586q-14 0 -32.5 13.5t-32 32.5t-13.5 32q0 16 13.5 33.5t31.5 31t33 13.5t33 -13.5t31.5 -31t13.5 -33.5q0 -14 -14 -32t-32 -32t-32 -14zM293 586q-14 0 -32.5 13.5t-32 32.5t-13.5 32q0 16 13.5 33.5t31.5 31t33 13.5
t33 -13.5t31.5 -31t13.5 -33.5q0 -14 -14 -32t-32 -32t-32 -14zM203 778q-14 0 -32.5 13.5t-32 32.5t-13.5 32q0 16 13.5 33.5t31.5 31t33 13.5t33 -13.5t31.5 -31t13.5 -33.5q0 -14 -14 -32t-32 -32t-32 -14z" />
    <glyph glyph-name="uniFE9E" unicode="&#x62c;" horiz-adv-x="572" arabic-form="final" 
d="M265 -292q-61 0 -104 14t-69.5 44.5t-38.5 78.5t-12 114q0 100 44 163t135.5 95.5t232.5 37.5l41 -123q-102 -3 -169.5 -16.5t-100.5 -38.5t-33 -64v-140q22 -3 49.5 -5t61.5 -2q48 0 92 5.5t95 18.5l16 -151q-50 -15 -111.5 -23t-128.5 -8zM551 158h79v-158h-104
q-32 0 -51.5 13.5t-30.5 42.5l-60 156q-15 41 -39.5 65.5t-60.5 36t-89 11.5q-28 0 -58 -1.5t-62 -5.5l-21 156q43 5 77.5 7.5t62.5 2.5q86 0 147 -22t102 -69t67 -123zM329 -106q-14 0 -32.5 13.5t-32 32.5t-13.5 32q0 16 13.5 33.5t31.5 31t33 13.5t33 -13.5t31.5 -31
t13.5 -33.5q0 -14 -14 -32t-32 -32t-32 -14z" />
    <glyph glyph-name="uniFE9F" unicode="&#x62c;" horiz-adv-x="582" arabic-form="initial" 
d="M491 315h91v-159h-116q-32 0 -51.5 13.5t-30.5 42.5q-14 40 -37.5 65t-60 36.5t-91.5 11.5q-26 0 -56 -1t-64 -6l-21 156q39 5 74 7.5t66 2.5q83 0 139.5 -18t94.5 -55t63 -96zM366 305l131 -44q-22 -71 -57.5 -121t-82 -80.5t-100.5 -45t-114 -14.5h-163v158h177
q47 0 82.5 12t59.5 32.5t40.5 46.5t26.5 56zM283 -236q-14 0 -32.5 13.5t-32 32.5t-13.5 32q0 16 13.5 33.5t31.5 31t33 13.5t33 -13.5t31.5 -31t13.5 -33.5q0 -14 -14 -32t-32 -32t-32 -14z" />
    <glyph glyph-name="uniFEA0" unicode="&#x62c;" horiz-adv-x="608" arabic-form="medial" 
d="M551 158h79v-158h-104q-32 0 -51.5 13.5t-30.5 42.5l-60 156q-14 39 -38 64.5t-60 37t-91 11.5q-26 0 -56 -1t-64 -6l-21 156q39 5 74 7.5t66 2.5q88 0 148.5 -22.5t101 -69.5t66.5 -122zM366 305l131 -44q-21 -71 -53.5 -121t-75 -80.5t-92.5 -45t-105 -14.5h-191v158
h207q41 0 71 12t50.5 32.5t34.5 46.5t23 56zM306 -236q-14 0 -32.5 13.5t-32 32.5t-13.5 32q0 16 13.5 33.5t31.5 31t33 13.5t33 -13.5t31.5 -31t13.5 -33.5q0 -14 -14 -32t-32 -32t-32 -14z" />
    <glyph glyph-name="uniFEA2" unicode="&#x62d;" horiz-adv-x="610" arabic-form="final" 
d="M265 -292q-61 0 -104 14t-69.5 44.5t-38.5 78.5t-12 114q0 100 44 163t135.5 95.5t232.5 37.5l41 -123q-102 -3 -169.5 -16.5t-100.5 -38.5t-33 -64v-140q22 -3 49.5 -5t61.5 -2q48 0 92 5.5t95 18.5l16 -151q-50 -15 -111.5 -23t-128.5 -8zM551 158h79v-158h-104
q-32 0 -51.5 13.5t-30.5 42.5l-60 156q-15 41 -39.5 65.5t-60.5 36t-89 11.5q-28 0 -58 -1.5t-62 -5.5l-21 156q43 5 77.5 7.5t62.5 2.5q86 0 147 -22t102 -69t67 -123z" />
    <glyph glyph-name="uniFEA3" unicode="&#x62d;" horiz-adv-x="582" arabic-form="initial" 
d="M491 315h91v-159h-116q-32 0 -51.5 13.5t-30.5 42.5q-14 40 -37.5 65t-60 36.5t-91.5 11.5q-26 0 -56 -1t-64 -6l-21 156q39 5 74 7.5t66 2.5q83 0 139.5 -18t94.5 -55t63 -96zM366 305l131 -44q-22 -71 -57.5 -121t-82 -80.5t-100.5 -45t-114 -14.5h-163v158h177
q47 0 82.5 12t59.5 32.5t40.5 46.5t26.5 56z" />
    <glyph glyph-name="uniFEA4" unicode="&#x62d;" horiz-adv-x="608" arabic-form="medial" 
d="M551 158h79v-158h-104q-32 0 -51.5 13.5t-30.5 42.5l-60 156q-14 39 -38 64.5t-60 37t-91 11.5q-26 0 -56 -1t-64 -6l-21 156q39 5 74 7.5t66 2.5q88 0 148.5 -22.5t101 -69.5t66.5 -122zM366 305l131 -44q-21 -71 -53.5 -121t-75 -80.5t-92.5 -45t-105 -14.5h-191v158
h207q41 0 71 12t50.5 32.5t34.5 46.5t23 56z" />
    <glyph glyph-name="uniFEA6" unicode="&#x62e;" horiz-adv-x="610" arabic-form="final" 
d="M265 -292q-61 0 -104 14t-69.5 44.5t-38.5 78.5t-12 114q0 100 44 163t135.5 95.5t232.5 37.5l41 -123q-102 -3 -169.5 -16.5t-100.5 -38.5t-33 -64v-140q22 -3 49.5 -5t61.5 -2q48 0 92 5.5t95 18.5l16 -151q-50 -15 -111.5 -23t-128.5 -8zM551 158h79v-158h-104
q-32 0 -51.5 13.5t-30.5 42.5l-60 156q-15 41 -39.5 65.5t-60.5 36t-89 11.5q-28 0 -58 -1.5t-62 -5.5l-21 156q43 5 77.5 7.5t62.5 2.5q86 0 147 -22t102 -69t67 -123zM294 609q-14 0 -32.5 13.5t-32 32.5t-13.5 32q0 16 13.5 33.5t31.5 31t33 13.5t33 -13.5t31.5 -31
t13.5 -33.5q0 -14 -14 -32t-32 -32t-32 -14z" />
    <glyph glyph-name="uniFEA7" unicode="&#x62e;" horiz-adv-x="582" arabic-form="initial" 
d="M491 315h91v-159h-116q-32 0 -51.5 13.5t-30.5 42.5q-14 40 -37.5 65t-60 36.5t-91.5 11.5q-26 0 -56 -1t-64 -6l-21 156q39 5 74 7.5t66 2.5q83 0 139.5 -18t94.5 -55t63 -96zM366 305l131 -44q-22 -71 -57.5 -121t-82 -80.5t-100.5 -45t-114 -14.5h-163v158h177
q47 0 82.5 12t59.5 32.5t40.5 46.5t26.5 56zM277 586q-14 0 -32.5 13.5t-32 32.5t-13.5 32q0 16 13.5 33.5t31.5 31t33 13.5t33 -13.5t31.5 -31t13.5 -33.5q0 -14 -14 -32t-32 -32t-32 -14z" />
    <glyph glyph-name="uniFEA8" unicode="&#x62e;" horiz-adv-x="608" arabic-form="medial" 
d="M551 158h79v-158h-104q-32 0 -51.5 13.5t-30.5 42.5l-60 156q-14 39 -38 64.5t-60 37t-91 11.5q-26 0 -56 -1t-64 -6l-21 156q39 5 74 7.5t66 2.5q88 0 148.5 -22.5t101 -69.5t66.5 -122zM366 305l131 -44q-21 -71 -53.5 -121t-75 -80.5t-92.5 -45t-105 -14.5h-191v158
h207q41 0 71 12t50.5 32.5t34.5 46.5t23 56zM277 586q-14 0 -32.5 13.5t-32 32.5t-13.5 32q0 16 13.5 33.5t31.5 31t33 13.5t33 -13.5t31.5 -31t13.5 -33.5q0 -14 -14 -32t-32 -32t-32 -14z" />
    <glyph glyph-name="uniFEAA" unicode="&#x62f;" horiz-adv-x="529" arabic-form="final" 
d="M449 158h100v-158h-100v158zM20 0v158h295q-11 53 -23.5 87t-27.5 53.5t-36.5 27t-51.5 7.5q-26 0 -55 -3.5t-53 -9.5l-38 154q30 8 69.5 12.5t76.5 4.5q56 0 96.5 -9t71 -32t54 -64t44 -105.5t42.5 -157.5v-123h-464z" />
    <glyph glyph-name="uniFEAC" unicode="&#x630;" horiz-adv-x="529" arabic-form="final" 
d="M449 158h100v-158h-100v158zM20 0v158h295q-11 53 -23.5 87t-27.5 53.5t-36.5 27t-51.5 7.5q-26 0 -55 -3.5t-53 -9.5l-38 154q30 8 69.5 12.5t76.5 4.5q56 0 96.5 -9t71 -32t54 -64t44 -105.5t42.5 -157.5v-123h-464zM206 586q-14 0 -32.5 13.5t-32 32.5t-13.5 32
q0 16 13.5 33.5t31.5 31t33 13.5t33 -13.5t31.5 -31t13.5 -33.5q0 -14 -14 -32t-32 -32t-32 -14z" />
    <glyph glyph-name="uniFEAE" unicode="&#x631;" horiz-adv-x="333" arabic-form="final" 
d="M256 158h97v-158h-97v158zM72 -279l-52 126q39 18 60 37.5t29 51.5t8 85v449h140v-449q0 -80 -18 -136.5t-59 -95.5t-108 -68z" />
    <glyph glyph-name="uniFEB0" unicode="&#x632;" horiz-adv-x="333" arabic-form="final" 
d="M256 158h97v-158h-97v158zM72 -279l-52 126q39 18 60 37.5t29 51.5t8 85v449h140v-449q0 -80 -18 -136.5t-59 -95.5t-108 -68zM185 586q-14 0 -32.5 13.5t-32 32.5t-13.5 32q0 16 13.5 33.5t31.5 31t33 13.5t33 -13.5t31.5 -31t13.5 -33.5q0 -14 -14 -32t-32 -32t-32 -14
z" />
    <glyph glyph-name="uniFEB2" unicode="&#x633;" horiz-adv-x="1362" arabic-form="final" 
d="M1200 158h182v-158h-343zM327 -240q-80 0 -132 11t-81 38t-40.5 74t-11.5 120q0 37 3.5 73.5t10 72t17.5 68.5l139 -22q-12 -43 -20.5 -84t-8.5 -81q0 -35 2 -61t8 -51h143q53 0 78.5 10.5t25.5 42.5v409h141v-382q0 -70 -10.5 -116.5t-39.5 -73t-83 -37.5t-141 -11z
M1039 0q-73 0 -119.5 11t-72 37.5t-35.5 74t-10 118.5v139h141v-169q0 -32 19 -42.5t56 -10.5h116q6 20 8 44t2 56q0 46 -8 93t-20 97l140 22q10 -31 16.5 -65t9.5 -69.5t3 -69.5q0 -104 -26.5 -162t-81 -81t-138.5 -23zM683 0h-82v158h126q37 0 56 10.5t19 42.5v169h141
v-139q0 -71 -10 -118.5t-37.5 -74t-78.5 -37.5t-134 -11z" />
    <glyph glyph-name="uniFEB3" unicode="&#x633;" horiz-adv-x="1028" arabic-form="initial" 
d="M711 0q-73 0 -119.5 11t-72 37.5t-35.5 74t-10 118.5v139h141v-169q0 -32 19 -42.5t56 -10.5h116q6 20 8 44t2 56q0 46 -8 93t-20 97l139 22q11 -31 17.5 -65t9.5 -69.5t3 -69.5q0 -104 -26.5 -162t-81 -81t-138.5 -23zM355 0h-82v158h126q37 0 56 10.5t19 42.5v169h141
v-139q0 -71 -10 -118.5t-37.5 -74t-79 -37.5t-133.5 -11zM273 0h-293v158h152v222h141v-380z" />
    <glyph glyph-name="uniFEB4" unicode="&#x633;" horiz-adv-x="1034" arabic-form="medial" 
d="M704 0q-71 0 -116 11t-70 37.5t-34.5 74t-9.5 118.5v139h141v-169q0 -32 19 -42.5t56 -10.5h116q6 20 8 44t2 56q0 46 -8 93t-20 97l139 22q11 -31 17.5 -65t9.5 -69.5t3 -69.5q0 -104 -27.5 -162t-83.5 -81t-142 -23zM355 0h-82v158h126q37 0 56 10.5t19 42.5v169h141
v-139q0 -71 -10 -118.5t-37.5 -74t-79 -37.5t-133.5 -11zM273 0h-293v158h152v222h141v-380zM872 158h182v-158h-350z" />
    <glyph glyph-name="uniFEB6" unicode="&#x634;" horiz-adv-x="1362" arabic-form="final" 
d="M1200 158h182v-158h-343zM327 -240q-80 0 -132 11t-81 38t-40.5 74t-11.5 120q0 37 3.5 73.5t10 72t17.5 68.5l139 -22q-12 -43 -20.5 -84t-8.5 -81q0 -35 2 -61t8 -51h143q53 0 78.5 10.5t25.5 42.5v409h141v-382q0 -70 -10.5 -116.5t-39.5 -73t-83 -37.5t-141 -11z
M1039 0q-73 0 -119.5 11t-72 37.5t-35.5 74t-10 118.5v139h141v-169q0 -32 19 -42.5t56 -10.5h116q6 20 8 44t2 56q0 46 -8 93t-20 97l140 22q10 -31 16.5 -65t9.5 -69.5t3 -69.5q0 -104 -26.5 -162t-81 -81t-138.5 -23zM683 0h-82v158h126q37 0 56 10.5t19 42.5v169h141
v-139q0 -71 -10 -118.5t-37.5 -74t-78.5 -37.5t-134 -11zM786 586q-14 0 -32.5 13.5t-32 32.5t-13.5 32q0 16 13.5 33.5t31.5 31t33 13.5t33 -13.5t31.5 -31t13.5 -33.5q0 -14 -14 -32t-32 -32t-32 -14zM965 586q-14 0 -32.5 13.5t-32 32.5t-13.5 32q0 16 13.5 33.5t31.5 31
t33 13.5t33 -13.5t31.5 -31t13.5 -33.5q0 -14 -14 -32t-32 -32t-32 -14zM875 778q-14 0 -32.5 13.5t-32 32.5t-13.5 32q0 16 13.5 33.5t31.5 31t33 13.5t33 -13.5t31.5 -31t13.5 -33.5q0 -14 -14 -32t-32 -32t-32 -14z" />
    <glyph glyph-name="uniFEB7" unicode="&#x634;" horiz-adv-x="1028" arabic-form="initial" 
d="M711 0q-73 0 -119.5 11t-72 37.5t-35.5 74t-10 118.5v139h141v-169q0 -32 19 -42.5t56 -10.5h116q6 20 8 44t2 56q0 46 -8 93t-20 97l139 22q11 -31 17.5 -65t9.5 -69.5t3 -69.5q0 -104 -26.5 -162t-81 -81t-138.5 -23zM355 0h-82v158h126q37 0 56 10.5t19 42.5v169h141
v-139q0 -71 -10 -118.5t-37.5 -74t-79 -37.5t-133.5 -11zM273 0h-293v158h152v222h141v-380zM458 586q-14 0 -32.5 13.5t-32 32.5t-13.5 32q0 16 13.5 33.5t31.5 31t33 13.5t33 -13.5t31.5 -31t13.5 -33.5q0 -14 -14 -32t-32 -32t-32 -14zM637 586q-14 0 -32.5 13.5
t-32 32.5t-13.5 32q0 16 13.5 33.5t31.5 31t33 13.5t33 -13.5t31.5 -31t13.5 -33.5q0 -14 -14 -32t-32 -32t-32 -14zM547 778q-14 0 -32.5 13.5t-32 32.5t-13.5 32q0 16 13.5 33.5t31.5 31t33 13.5t33 -13.5t31.5 -31t13.5 -33.5q0 -14 -14 -32t-32 -32t-32 -14z" />
    <glyph glyph-name="uniFEB8" unicode="&#x634;" horiz-adv-x="1034" arabic-form="medial" 
d="M704 0q-71 0 -116 11t-70 37.5t-34.5 74t-9.5 118.5v139h141v-169q0 -32 19 -42.5t56 -10.5h116q6 20 8 44t2 56q0 46 -8 93t-20 97l139 22q11 -31 17.5 -65t9.5 -69.5t3 -69.5q0 -104 -27.5 -162t-83.5 -81t-142 -23zM355 0h-82v158h126q37 0 56 10.5t19 42.5v169h141
v-139q0 -71 -10 -118.5t-37.5 -74t-79 -37.5t-133.5 -11zM273 0h-293v158h152v222h141v-380zM872 158h182v-158h-350zM458 586q-14 0 -32.5 13.5t-32 32.5t-13.5 32q0 16 13.5 33.5t31.5 31t33 13.5t33 -13.5t31.5 -31t13.5 -33.5q0 -14 -14 -32t-32 -32t-32 -14zM637 586
q-14 0 -32.5 13.5t-32 32.5t-13.5 32q0 16 13.5 33.5t31.5 31t33 13.5t33 -13.5t31.5 -31t13.5 -33.5q0 -14 -14 -32t-32 -32t-32 -14zM547 778q-14 0 -32.5 13.5t-32 32.5t-13.5 32q0 16 13.5 33.5t31.5 31t33 13.5t33 -13.5t31.5 -31t13.5 -33.5q0 -14 -14 -32t-32 -32
t-32 -14z" />
    <glyph glyph-name="uniFEBA" unicode="&#x635;" horiz-adv-x="1171" arabic-form="final" 
d="M1093 158h98v-158h-98v158zM327 -240q-80 0 -132 11t-81 38t-40.5 74t-11.5 120q0 37 3.5 73.5t10 72t17.5 68.5l139 -22q-12 -43 -20.5 -84t-8.5 -81q0 -35 2 -61t8 -51h143q53 0 78.5 10.5t25.5 42.5v136h141v-109q0 -70 -10.5 -116.5t-39.5 -73t-83 -37.5t-141 -11z
M1026 158l67 -158h-553v158h486zM952 0v311q-16 5 -47 8t-71 3q-116 0 -174.5 -54t-58.5 -161h-141v363h141v-140q21 45 64 79t102 52.5t127 18.5q77 0 120 -15.5t61 -53.5t18 -104v-307h-141z" />
    <glyph glyph-name="uniFEBB" unicode="&#x635;" horiz-adv-x="841" arabic-form="initial" 
d="M765 158v-158h-785v158h785zM624 0v311q-35 11 -118 11q-116 0 -174.5 -54t-58.5 -161h-141v363h141v-140q21 45 64 79t102 52.5t127 18.5q77 0 120 -15.5t61 -53.5t18 -104v-307h-141z" />
    <glyph glyph-name="uniFEBC" unicode="&#x635;" horiz-adv-x="842" arabic-form="medial" 
d="M862 158v-158h-882v158h882zM624 107v204q-35 11 -118 11q-116 0 -174.5 -54t-58.5 -161h-141v363h141v-140q21 45 64 79t102 52.5t127 18.5q77 0 120 -15.5t61 -53.5t18 -104v-200h-141z" />
    <glyph glyph-name="uniFEBE" unicode="&#x636;" horiz-adv-x="1171" arabic-form="final" 
d="M1093 158h98v-158h-98v158zM327 -240q-80 0 -132 11t-81 38t-40.5 74t-11.5 120q0 37 3.5 73.5t10 72t17.5 68.5l139 -22q-12 -43 -20.5 -84t-8.5 -81q0 -35 2 -61t8 -51h143q53 0 78.5 10.5t25.5 42.5v136h141v-109q0 -70 -10.5 -116.5t-39.5 -73t-83 -37.5t-141 -11z
M1026 158l67 -158h-553v158h486zM952 0v311q-16 5 -47 8t-71 3q-116 0 -174.5 -54t-58.5 -161h-141v363h141v-140q21 45 64 79t102 52.5t127 18.5q77 0 120 -15.5t61 -53.5t18 -104v-307h-141zM870 586q-14 0 -32.5 13.5t-32 32.5t-13.5 32q0 16 13.5 33.5t31.5 31t33 13.5
t33 -13.5t31.5 -31t13.5 -33.5q0 -14 -14 -32t-32 -32t-32 -14z" />
    <glyph glyph-name="uniFEBF" unicode="&#x636;" horiz-adv-x="841" arabic-form="initial" 
d="M765 158v-158h-785v158h785zM624 0v311q-35 11 -118 11q-116 0 -174.5 -54t-58.5 -161h-141v363h141v-140q21 45 64 79t102 52.5t127 18.5q77 0 120 -15.5t61 -53.5t18 -104v-307h-141zM493 586q-14 0 -32.5 13.5t-32 32.5t-13.5 32q0 16 13.5 33.5t31.5 31t33 13.5
t33 -13.5t31.5 -31t13.5 -33.5q0 -14 -14 -32t-32 -32t-32 -14z" />
    <glyph glyph-name="uniFEC0" unicode="&#x636;" horiz-adv-x="842" arabic-form="medial" 
d="M862 158v-158h-882v158h882zM624 107v204q-35 11 -118 11q-116 0 -174.5 -54t-58.5 -161h-141v363h141v-140q21 45 64 79t102 52.5t127 18.5q77 0 120 -15.5t61 -53.5t18 -104v-200h-141zM493 586q-14 0 -32.5 13.5t-32 32.5t-13.5 32q0 16 13.5 33.5t31.5 31t33 13.5
t33 -13.5t31.5 -31t13.5 -33.5q0 -14 -14 -32t-32 -32t-32 -14z" />
    <glyph glyph-name="uniFEC2" unicode="&#x637;" horiz-adv-x="842" arabic-form="final" 
d="M765 158h97v-158h-97v158zM765 158v-158h-745v158h745zM624 0v311q-35 11 -118 11q-116 0 -174.5 -54t-58.5 -161h-141v523h141v-300q21 45 64 79t102 52.5t127 18.5q77 0 120 -15.5t61 -53.5t18 -104v-307h-141z" />
    <glyph glyph-name="uniFEC3" unicode="&#x637;" horiz-adv-x="841" arabic-form="initial" 
d="M624 158v-158h-644v158h644zM624 0v311q-35 11 -118 11q-116 0 -174.5 -54t-58.5 -161h-141v523h141v-300q21 45 64 79t102 52.5t127 18.5q77 0 120 -15.5t61 -53.5t18 -104v-307h-141z" />
    <glyph glyph-name="uniFEC4" unicode="&#x637;" horiz-adv-x="842" arabic-form="medial" 
d="M862 158v-158h-882v158h882zM624 0v311q-35 11 -118 11q-116 0 -174.5 -54t-58.5 -161h-141v523h141v-300q21 45 64 79t102 52.5t127 18.5q77 0 120 -15.5t61 -53.5t18 -104v-307h-141z" />
    <glyph glyph-name="uniFEC6" unicode="&#x638;" horiz-adv-x="842" arabic-form="final" 
d="M765 158h97v-158h-97v158zM765 158v-158h-745v158h745zM624 0v311q-35 11 -118 11q-116 0 -174.5 -54t-58.5 -161h-141v523h141v-300q21 45 64 79t102 52.5t127 18.5q77 0 120 -15.5t61 -53.5t18 -104v-307h-141zM553 586q-14 0 -32.5 13.5t-32 32.5t-13.5 32
q0 16 13.5 33.5t31.5 31t33 13.5t33 -13.5t31.5 -31t13.5 -33.5q0 -14 -14 -32t-32 -32t-32 -14z" />
    <glyph glyph-name="uniFEC7" unicode="&#x638;" horiz-adv-x="841" arabic-form="initial" 
d="M624 158v-158h-644v158h644zM624 0v311q-35 11 -118 11q-116 0 -174.5 -54t-58.5 -161h-141v523h141v-300q21 45 64 79t102 52.5t127 18.5q77 0 120 -15.5t61 -53.5t18 -104v-307h-141zM553 586q-14 0 -32.5 13.5t-32 32.5t-13.5 32q0 16 13.5 33.5t31.5 31t33 13.5
t33 -13.5t31.5 -31t13.5 -33.5q0 -14 -14 -32t-32 -32t-32 -14z" />
    <glyph glyph-name="uniFEC8" unicode="&#x638;" horiz-adv-x="842" arabic-form="medial" 
d="M862 158v-158h-882v158h882zM624 0v311q-35 11 -118 11q-116 0 -174.5 -54t-58.5 -161h-141v523h141v-300q21 45 64 79t102 52.5t127 18.5q77 0 120 -15.5t61 -53.5t18 -104v-307h-141zM553 586q-14 0 -32.5 13.5t-32 32.5t-13.5 32q0 16 13.5 33.5t31.5 31t33 13.5
t33 -13.5t31.5 -31t13.5 -33.5q0 -14 -14 -32t-32 -32t-32 -14z" />
    <glyph glyph-name="uniFECA" unicode="&#x639;" horiz-adv-x="702" arabic-form="final" 
d="M44 -113q0 50 11 86.5t31 63t48 45t64 33.5q-60 49 -95 114t-35 140q0 41 29 66.5t91.5 37t162.5 11.5q102 0 164 -11.5t90.5 -37t28.5 -66.5q0 -45 -11 -82.5t-30.5 -67.5t-44.5 -56q23 -2 46.5 -3.5t46.5 -1.5h81v-158h-178q-51 0 -100 8t-93 23q-44 -15 -82 -30
t-60.5 -29.5t-22.5 -28.5v-95q21 -3 54 -5t62 -2q47 0 91 5.5t96 18.5l17 -156q-49 -15 -110 -20.5t-131 -5.5q-60 0 -101.5 12.5t-68.5 38t-39 64t-12 89.5zM209 325q0 -42 15.5 -72t47 -49.5t77.5 -29.5q75 18 109.5 55.5t34.5 95.5h-284z" />
    <glyph glyph-name="uniFECB" unicode="&#x639;" horiz-adv-x="595" arabic-form="initial" 
d="M-20 0v158h257l97 -158h-354zM248 316v-107q0 -27 15.5 -39t47.5 -12h244v-158h-229q-62 0 -104 13t-67.5 40.5t-37 74t-11.5 113.5t10.5 112.5t35 73.5t65.5 40.5t100 12.5q34 0 65.5 -2t62 -7.5t61.5 -14.5l-21 -151q-45 9 -78 13t-68 4q-29 0 -51 -1.5t-40 -4.5z" />
    <glyph glyph-name="uniFECC" unicode="&#x639;" horiz-adv-x="702" arabic-form="medial" 
d="M544 158h178v-158h-178v158zM209 325q0 -58 33.5 -95t107 -54.5t194.5 -17.5v-158q-99 0 -185.5 28.5t-151.5 79t-102 117.5t-37 144q0 41 29 66.5t91.5 37t162.5 11.5q102 0 164 -11.5t90.5 -37t28.5 -66.5q0 -77 -36.5 -144.5t-101.5 -118t-151.5 -78.5t-186.5 -28v158
q121 0 195 17.5t107 54.5t33 95h-284zM-20 158h178v-158h-178v158z" />
    <glyph glyph-name="uniFECE" unicode="&#x63a;" horiz-adv-x="702" arabic-form="final" 
d="M44 -113q0 50 11 86.5t31 63t48 45t64 33.5q-60 49 -95 114t-35 140q0 41 29 66.5t91.5 37t162.5 11.5q102 0 164 -11.5t90.5 -37t28.5 -66.5q0 -45 -11 -82.5t-30.5 -67.5t-44.5 -56q23 -2 46.5 -3.5t46.5 -1.5h81v-158h-178q-51 0 -100 8t-93 23q-44 -15 -82 -30
t-60.5 -29.5t-22.5 -28.5v-95q21 -3 54 -5t62 -2q47 0 91 5.5t96 18.5l17 -156q-49 -15 -110 -20.5t-131 -5.5q-60 0 -101.5 12.5t-68.5 38t-39 64t-12 89.5zM209 325q0 -42 15.5 -72t47 -49.5t77.5 -29.5q75 18 109.5 55.5t34.5 95.5h-284zM351 586q-14 0 -32.5 13.5
t-32 32.5t-13.5 32q0 16 13.5 33.5t31.5 31t33 13.5t33 -13.5t31.5 -31t13.5 -33.5q0 -14 -14 -32t-32 -32t-32 -14z" />
    <glyph glyph-name="uniFECF" unicode="&#x63a;" horiz-adv-x="595" arabic-form="initial" 
d="M-20 0v158h257l97 -158h-354zM248 316v-107q0 -27 15.5 -39t47.5 -12h244v-158h-229q-62 0 -104 13t-67.5 40.5t-37 74t-11.5 113.5t10.5 112.5t35 73.5t65.5 40.5t100 12.5q34 0 65.5 -2t62 -7.5t61.5 -14.5l-21 -151q-45 9 -78 13t-68 4q-29 0 -51 -1.5t-40 -4.5z
M325 586q-14 0 -32.5 13.5t-32 32.5t-13.5 32q0 16 13.5 33.5t31.5 31t33 13.5t33 -13.5t31.5 -31t13.5 -33.5q0 -14 -14 -32t-32 -32t-32 -14z" />
    <glyph glyph-name="uniFED0" unicode="&#x63a;" horiz-adv-x="702" arabic-form="medial" 
d="M544 158h178v-158h-178v158zM209 325q0 -58 33.5 -95t107 -54.5t194.5 -17.5v-158q-99 0 -185.5 28.5t-151.5 79t-102 117.5t-37 144q0 41 29 66.5t91.5 37t162.5 11.5q102 0 164 -11.5t90.5 -37t28.5 -66.5q0 -77 -36.5 -144.5t-101.5 -118t-151.5 -78.5t-186.5 -28v158
q121 0 195 17.5t107 54.5t33 95h-284zM-20 158h178v-158h-178v158zM351 586q-14 0 -32.5 13.5t-32 32.5t-13.5 32q0 16 13.5 33.5t31.5 31t33 13.5t33 -13.5t31.5 -31t13.5 -33.5q0 -14 -14 -32t-32 -32t-32 -14z" />
    <glyph glyph-name="uniFED2" unicode="&#x641;" horiz-adv-x="1014" arabic-form="final" 
d="M937 159h97v-158h-97v158zM224 0q-58 0 -96 22.5t-55.5 71t-17.5 125.5q0 50 8 100t23 95l135 -21q-13 -35 -19 -68t-6 -65t3 -56t10 -46h265q-9 34 -13 62.5t-4 69.5q0 50 13.5 86.5t43 60.5t77 35.5t114.5 11.5q69 0 122.5 -8.5t109.5 -29.5v-446h-713zM756 158
q23 0 31.5 9t8.5 32v123h-149q-23 0 -32 -9t-9 -33v-122h150zM727 586q-14 0 -32.5 13.5t-32 32.5t-13.5 32q0 16 13.5 33.5t31.5 31t33 13.5t33 -13.5t31.5 -31t13.5 -33.5q0 -14 -14 -32t-32 -32t-32 -14z" />
    <glyph glyph-name="uniFED3" unicode="&#x641;" horiz-adv-x="667" arabic-form="initial" 
d="M-20 158h147q-9 34 -13.5 62.5t-4.5 69.5q0 50 14 86.5t43.5 60.5t76.5 35.5t114 11.5q70 0 123.5 -8.5t109.5 -29.5v-446h-610v158zM409 158q23 0 31.5 9t8.5 32v126h-149q-23 0 -32 -9t-9 -33v-125h150zM358 586q-14 0 -32.5 13.5t-32 32.5t-13.5 32q0 16 13.5 33.5
t31.5 31t33 13.5t33 -13.5t31.5 -31t13.5 -33.5q0 -14 -14 -32t-32 -32t-32 -14z" />
    <glyph glyph-name="uniFED4" unicode="&#x641;" horiz-adv-x="667" arabic-form="medial" 
d="M590 159h97v-158h-97v158zM-20 158h147q-9 34 -13.5 62.5t-4.5 69.5q0 50 14 86.5t43.5 60.5t76.5 35.5t114 11.5q70 0 123.5 -8.5t109.5 -29.5v-446h-610v158zM409 158q23 0 31.5 9t8.5 32v126h-149q-23 0 -32 -9t-9 -33v-125h150zM358 586q-14 0 -32.5 13.5t-32 32.5
t-13.5 32q0 16 13.5 33.5t31.5 31t33 13.5t33 -13.5t31.5 -31t13.5 -33.5q0 -14 -14 -32t-32 -32t-32 -14z" />
    <glyph glyph-name="uniFED6" unicode="&#x642;" horiz-adv-x="929" arabic-form="final" 
d="M852 158h97v-158h-97v158zM222 -276q-59 0 -96.5 27t-55.5 83.5t-18 147.5q0 40 3.5 80.5t10.5 79t17 74.5l136 -21q-13 -46 -19.5 -88.5t-6.5 -83.5q0 -45 2.5 -78.5t9.5 -62.5h506v118h141v-73q0 -107 -52 -155t-168 -48h-410zM573 0q-53 0 -92 13.5t-63 43t-35.5 77
t-11.5 114.5q0 63 14 108t43.5 73t77 41.5t113.5 13.5q74 0 127.5 -8.5t105.5 -29.5v-446h-279zM670 158q23 0 32 9t9 32v126h-134q-32 0 -44 -8.5t-12 -33.5v-125h149zM523 586q-14 0 -32.5 13.5t-32 32.5t-13.5 32q0 16 13.5 33.5t31.5 31t33 13.5t33 -13.5t31.5 -31
t13.5 -33.5q0 -14 -14 -32t-32 -32t-32 -14zM703 586q-14 0 -32.5 13.5t-32 32.5t-13.5 32q0 16 13.5 33.5t31.5 31t33 13.5t33 -13.5t31.5 -31t13.5 -33.5q0 -14 -14 -32t-32 -32t-32 -14z" />
    <glyph glyph-name="uniFED7" unicode="&#x642;" horiz-adv-x="667" arabic-form="initial" 
d="M-20 158h147q-9 34 -13.5 62.5t-4.5 69.5q0 50 14 86.5t43.5 60.5t76.5 35.5t114 11.5q70 0 123.5 -8.5t109.5 -29.5v-446h-610v158zM409 158q23 0 31.5 9t8.5 32v126h-149q-23 0 -32 -9t-9 -33v-125h150zM268 586q-14 0 -32.5 13.5t-32 32.5t-13.5 32q0 16 13.5 33.5
t31.5 31t33 13.5t33 -13.5t31.5 -31t13.5 -33.5q0 -14 -14 -32t-32 -32t-32 -14zM448 586q-14 0 -32.5 13.5t-32 32.5t-13.5 32q0 16 13.5 33.5t31.5 31t33 13.5t33 -13.5t31.5 -31t13.5 -33.5q0 -14 -14 -32t-32 -32t-32 -14z" />
    <glyph glyph-name="uniFED8" unicode="&#x642;" horiz-adv-x="667" arabic-form="medial" 
d="M590 159h97v-158h-97v158zM-20 158h147q-9 34 -13.5 62.5t-4.5 69.5q0 50 14 86.5t43.5 60.5t76.5 35.5t114 11.5q70 0 123.5 -8.5t109.5 -29.5v-446h-610v158zM409 158q23 0 31.5 9t8.5 32v126h-149q-23 0 -32 -9t-9 -33v-125h150zM268 586q-14 0 -32.5 13.5t-32 32.5
t-13.5 32q0 16 13.5 33.5t31.5 31t33 13.5t33 -13.5t31.5 -31t13.5 -33.5q0 -14 -14 -32t-32 -32t-32 -14zM448 586q-14 0 -32.5 13.5t-32 32.5t-13.5 32q0 16 13.5 33.5t31.5 31t33 13.5t33 -13.5t31.5 -31t13.5 -33.5q0 -14 -14 -32t-32 -32t-32 -14z" />
    <glyph glyph-name="uniFEDA" unicode="&#x643;" horiz-adv-x="914" arabic-form="final" 
d="M837 158h97v-158h-97v158zM209 158h487v472h141v-630h-613q-58 0 -96 22.5t-55.5 71t-17.5 125.5q0 50 8 100t23 95l135 -21q-13 -35 -19 -68t-6 -65t3 -56t10 -46zM486 483l80 22v-67l-234 -62v65l38 11q-4 11 -5.5 24t-1.5 30q0 53 21.5 83.5t61.5 45t92 18.5v-76
q-24 -3 -45 -7.5t-43 -13.5l-1 -53q0 -16 8.5 -20.5t28.5 0.5z" />
    <glyph glyph-name="uniFEDB" unicode="&#x643;" horiz-adv-x="721" arabic-form="initial" 
d="M-20 0v158h523v130h-307q-55 0 -84.5 30.5t-29.5 87.5q0 38 12 81.5t33 88.5t49.5 86t61.5 73l113 -61q-21 -20 -42.5 -48.5t-41 -60.5t-33.5 -63t-20 -56h251q69 0 108 -16t55 -54.5t16 -107.5v-268h-664z" />
    <glyph glyph-name="uniFEDC" unicode="&#x643;" horiz-adv-x="721" arabic-form="medial" 
d="M644 158h97v-158h-97v158zM-20 0v158h523v130h-307q-55 0 -84.5 30.5t-29.5 87.5q0 38 12 81.5t33 88.5t49.5 86t61.5 73l113 -61q-21 -20 -42.5 -48.5t-41 -60.5t-33.5 -63t-20 -56h251q69 0 108 -16t55 -54.5t16 -107.5v-268h-664z" />
    <glyph glyph-name="uniFEDE" unicode="&#x644;" horiz-adv-x="678" arabic-form="final" 
d="M601 158h97v-158h-97v158zM213 -81h143q53 0 78.5 10.5t25.5 42.5v664h141v-638q0 -70 -10.5 -116.5t-39.5 -73t-83 -37.5t-141 -11q-79 0 -131 11t-81.5 38t-41 74t-11.5 120q0 42 3.5 83.5t11.5 82t18 78.5l134 -22q-13 -51 -19.5 -99.5t-6.5 -95.5q0 -35 2 -61.5
t8 -49.5z" />
    <glyph glyph-name="uniFEDF" unicode="&#x644;" horiz-adv-x="350" arabic-form="initial" 
d="M273 0h-293v158h152v472h141v-630z" />
    <glyph glyph-name="uniFEE0" unicode="&#x644;" horiz-adv-x="350" arabic-form="medial" 
d="M273 158h97v-158h-390v158h152v472h141v-472z" />
    <glyph glyph-name="uniFEE2" unicode="&#x645;" horiz-adv-x="688" arabic-form="final" 
d="M611 158h97v-158h-97v158zM38 -334q-11 35 -18.5 73.5t-11 79.5t-3.5 81q0 90 16.5 147t52.5 84t93 27h303v162q-25 5 -79 5q-45 0 -93.5 -6t-100.5 -19l-55 138q60 22 127.5 34t137.5 12q72 0 117 -17t66 -53.5t21 -93.5v-320h-452q-7 -25 -10 -57t-3 -77q0 -34 6.5 -74
t24.5 -103zM161 47q-31 35 -41.5 85t-10.5 115q0 51 9 96t24 95l145 -31q-17 -48 -27 -84.5t-10 -75.5t3 -66t10 -47.5t19 -40.5z" />
    <glyph glyph-name="uniFEE3" unicode="&#x645;" horiz-adv-x="684" arabic-form="initial" 
d="M407 484q72 0 117 -17t66 -53.5t21 -93.5v-320h-631v158h490v162q-15 3 -34.5 4t-44.5 1q-46 0 -95 -6t-99 -19l-55 138q41 16 85 26t89.5 15t90.5 5zM161 47q-31 35 -41.5 85t-10.5 115q0 51 9 96t24 95l145 -31q-17 -48 -27 -84.5t-10 -75.5t3 -66t10 -47.5t19 -40.5z
" />
    <glyph glyph-name="uniFEE4" unicode="&#x645;" horiz-adv-x="688" arabic-form="medial" 
d="M611 158h97v-158h-97v158zM407 484q72 0 117 -17t66 -53.5t21 -93.5v-320h-631v158h490v162q-15 3 -34.5 4t-44.5 1q-46 0 -95 -6t-99 -19l-55 138q41 16 85 26t89.5 15t90.5 5zM161 47q-31 35 -41.5 85t-10.5 115q0 51 9 96t24 95l145 -31q-17 -48 -27 -84.5t-10 -75.5
t3 -66t10 -47.5t19 -40.5z" />
    <glyph glyph-name="uniFEE6" unicode="&#x646;" horiz-adv-x="678" arabic-form="final" 
d="M601 158h97v-158h-97v158zM213 -81h143q53 0 78.5 10.5t25.5 42.5v498h141v-472q0 -70 -10.5 -116.5t-39.5 -73t-83 -37.5t-141 -11q-79 0 -131 11t-81.5 38t-41 74t-11.5 120q0 42 3.5 83.5t11.5 82t18 78.5l134 -22q-13 -51 -19.5 -99.5t-6.5 -95.5q0 -35 2 -61.5
t8 -49.5zM332 586q-14 0 -32.5 13.5t-32 32.5t-13.5 32q0 16 13.5 33.5t31.5 31t33 13.5t33 -13.5t31.5 -31t13.5 -33.5q0 -14 -14 -32t-32 -32t-32 -14z" />
    <glyph glyph-name="uniFEE7" unicode="&#x646;" horiz-adv-x="350" arabic-form="initial" 
d="M-20 0v158h152v312h141v-470h-293zM203 586q-14 0 -32.5 13.5t-32 32.5t-13.5 32q0 16 13.5 33.5t31.5 31t33 13.5t33 -13.5t31.5 -31t13.5 -33.5q0 -14 -14 -32t-32 -32t-32 -14z" />
    <glyph glyph-name="uniFEE8" unicode="&#x646;" horiz-adv-x="350" arabic-form="medial" 
d="M273 158h97v-158h-390v158h152v312h141v-312zM203 586q-14 0 -32.5 13.5t-32 32.5t-13.5 32q0 16 13.5 33.5t31.5 31t33 13.5t33 -13.5t31.5 -31t13.5 -33.5q0 -14 -14 -32t-32 -32t-32 -14z" />
    <glyph glyph-name="uniFEEA" unicode="&#x647;" horiz-adv-x="639" arabic-form="final" 
d="M561 158h98v-158h-98v158zM562 470v-470h-263q-70 0 -116 10t-71.5 35.5t-35.5 71.5t-10 118t10 118t35.5 71.5t71.5 35.5t116 10h263zM422 312h-163q-22 0 -32.5 -9.5t-10.5 -27.5v-80q0 -18 10.5 -27.5t32.5 -9.5h163v154z" />
    <glyph glyph-name="uniFEEB" unicode="&#x647;" horiz-adv-x="767" arabic-form="initial" 
d="M-20 0v158h583l-34 140q-12 49 -41.5 80.5t-86.5 47t-154 15.5l8 154q130 0 211 -23t127 -75.5t67 -142.5l57 -231v-123h-737zM79 131q0 73 8.5 118.5t29.5 68.5t58.5 30.5t95.5 7.5q59 0 97 -7.5t59.5 -30.5t30 -68t8.5 -119h-387zM343 242h-104q-19 0 -28 -7.5
t-9 -23.5v-80h141v111z" />
    <glyph glyph-name="uniFEEC" unicode="&#x647;" horiz-adv-x="767" arabic-form="medial" 
d="M639 158h148v-158h-148v158zM-20 0v158h583l-34 140q-12 49 -41.5 80.5t-86.5 47t-154 15.5l8 154q130 0 211 -23t127 -75.5t67 -142.5l57 -231v-123h-737zM79 131q0 73 8.5 118.5t29.5 68.5t58.5 30.5t95.5 7.5q59 0 97 -7.5t59.5 -30.5t30 -68t8.5 -119h-387zM343 242
h-104q-19 0 -28 -7.5t-9 -23.5v-80h141v111z" />
    <glyph glyph-name="uniFEEE" unicode="&#x648;" horiz-adv-x="626" arabic-form="final" 
d="M479 158h167v-158h-167v158zM260 0q-53 0 -92 13.5t-62.5 43t-35.5 77t-12 114.5q0 63 14.5 108t43.5 73t76.5 41.5t113.5 13.5q74 0 127.5 -8.5t105.5 -29.5v-288l-77 -158h-202zM357 158q23 0 32 9t9 32v126h-134q-32 0 -44 -8.5t-12 -33.5v-125h149zM319 -279l-94 104
q38 32 70 72.5t55 85t35.5 89t12.5 86.5h141q0 -56 -16 -115.5t-45.5 -116.5t-69.5 -109.5t-89 -95.5z" />
    <glyph glyph-name="uniFEF0" unicode="&#x649;" horiz-adv-x="878" arabic-form="final" 
d="M427 -286q-107 0 -178 11t-111.5 37t-58 72t-17.5 114q0 35 3.5 71t11.5 71t18 67l138 -23q-13 -41 -21.5 -80t-8.5 -78q0 -32 2 -57t8 -47h281q63 0 99 4.5t51.5 16t15.5 32.5v75h141v-51q0 -66 -17 -111.5t-59 -72.5t-114.5 -39t-183.5 -12zM648 0q-55 0 -116 8.5
t-115 24.5l21 151q51 -13 92.5 -19.5t83.5 -6.5h284v-158h-250z" />
    <glyph glyph-name="uniFEF2" unicode="&#x64a;" horiz-adv-x="878" arabic-form="final" 
d="M427 -286q-107 0 -178 11t-111.5 37t-58 72t-17.5 114q0 35 3.5 71t11.5 71t18 67l138 -23q-13 -41 -21.5 -80t-8.5 -78q0 -32 2 -57t8 -47h281q63 0 99 4.5t51.5 16t15.5 32.5v75h141v-51q0 -66 -17 -111.5t-59 -72.5t-114.5 -39t-183.5 -12zM648 0q-55 0 -116 8.5
t-115 24.5l21 151q51 -13 92.5 -19.5t83.5 -6.5h284v-158h-250zM346 -486q-14 0 -32.5 13.5t-32 32.5t-13.5 32q0 16 13.5 33.5t31.5 31t33 13.5t33 -13.5t31.5 -31t13.5 -33.5q0 -14 -14 -32t-32 -32t-32 -14zM526 -486q-14 0 -32.5 13.5t-32 32.5t-13.5 32q0 16 13.5 33.5
t31.5 31t33 13.5t33 -13.5t31.5 -31t13.5 -33.5q0 -14 -14 -32t-32 -32t-32 -14z" />
    <glyph glyph-name="uniFEF3" unicode="&#x64a;" horiz-adv-x="350" arabic-form="initial" 
d="M-20 0v158h152v312h141v-470h-293zM53 -226q-14 0 -32.5 13.5t-32 32.5t-13.5 32q0 16 13.5 33.5t31.5 31t33 13.5t33 -13.5t31.5 -31t13.5 -33.5q0 -14 -14 -32t-32 -32t-32 -14zM233 -226q-14 0 -32.5 13.5t-32 32.5t-13.5 32q0 16 13.5 33.5t31.5 31t33 13.5t33 -13.5
t31.5 -31t13.5 -33.5q0 -14 -14 -32t-32 -32t-32 -14z" />
    <glyph glyph-name="uniFEF4" unicode="&#x64a;" horiz-adv-x="350" arabic-form="medial" 
d="M273 158h97v-158h-390v158h152v312h141v-312zM112 -236q-14 0 -32.5 13.5t-32 32.5t-13.5 32q0 16 13.5 33.5t31.5 31t33 13.5t33 -13.5t31.5 -31t13.5 -33.5q0 -14 -14 -32t-32 -32t-32 -14zM292 -236q-14 0 -32.5 13.5t-32 32.5t-13.5 32q0 16 13.5 33.5t31.5 31
t33 13.5t33 -13.5t31.5 -31t13.5 -33.5q0 -14 -14 -32t-32 -32t-32 -14z" />
    <glyph glyph-name=".notdef" horiz-adv-x="600" 
d="M24 1012h524v-1012h-524v1012zM40 996v-979h492v979h-492z" />
    <glyph glyph-name=".null" 
 />
    <glyph glyph-name="nonmarkingreturn" horiz-adv-x="333" 
 />
    <glyph glyph-name="space" unicode=" " horiz-adv-x="212" 
 />
    <glyph glyph-name="exclam" unicode="!" horiz-adv-x="286" 
d="M86 222l-37 398q0 10 6.5 17.5t26.5 7.5h122q21 0 27.5 -7.5t6.5 -17.5l-38 -398h-114zM55 79q0 47 17.5 67.5t70.5 20.5t70 -20.5t17 -67.5q0 -46 -17 -65.5t-70 -19.5t-70.5 19.5t-17.5 65.5z" />
    <glyph glyph-name="quotedbl" unicode="&#x22;" horiz-adv-x="501" 
d="M328 344l-46 198v81q0 11 7.5 19t29.5 8h97q22 0 29.5 -8t7.5 -19v-81l-47 -198h-78zM95 344l-46 198v81q0 11 7.5 19t29.5 8h96q22 0 29.5 -8t7.5 -19v-81l-46 -198h-78z" />
    <glyph glyph-name="numbersign" unicode="#" horiz-adv-x="797" 
d="M337 -40l269 680q5 13 13.5 19t29.5 6h86l-269 -680q-5 -13 -13.5 -19t-29.5 -6h-86zM22 129l31 75q8 19 17 24.5t22 5.5h579l-31 -75q-7 -19 -16 -24.5t-23 -5.5h-579zM63 -40l269 680q5 13 13.5 19t29.5 6h87l-269 -680q-5 -13 -13.5 -19t-29.5 -6h-87zM127 388l30 75
q8 19 17.5 25t22.5 6h578l-30 -75q-7 -19 -16.5 -25t-23.5 -6h-578z" />
    <glyph glyph-name="dollar" unicode="$" horiz-adv-x="569" 
d="M193 -129l78 884h107l-78 -884h-107zM68 170q47 -14 95.5 -21t96.5 -7q25 0 44 1t41 4v83l-87 6q-57 5 -96.5 17t-63 33t-34.5 53.5t-11 78.5q0 76 21.5 121.5t70.5 65t131 19.5q56 0 110.5 -6.5t106.5 -19.5l-21 -134q-49 10 -84.5 14t-74.5 4q-28 0 -44.5 -0.5
t-34.5 -3.5v-83l77 -6q77 -7 124 -28.5t68.5 -61.5t21.5 -101q0 -70 -25.5 -113t-79.5 -63.5t-140 -20.5q-64 0 -122.5 7.5t-112.5 23.5z" />
    <glyph glyph-name="percent" unicode="%" horiz-adv-x="1245" 
d="M60 427q0 63 8.5 104.5t30 65t59 33.5t95.5 10t95.5 -10t58.5 -33.5t30 -65t9 -104.5q0 -64 -8.5 -105t-29.5 -64.5t-59 -33.5t-96 -10q-59 0 -96.5 10t-59 33.5t-29.5 65t-8 104.5zM174 548v-208q0 -21 10.5 -27.5t44.5 -6.5h102v208q0 20 -11.5 27t-46.5 7h-99z
M535 -15q-7 -12 -14.5 -18.5t-28.5 -6.5h-44l262 680q7 12 14.5 18.5t28.5 6.5h44zM799 203q0 63 8.5 104.5t30 65t59 33.5t95.5 10t95.5 -10t58.5 -33.5t30 -65t9 -104.5q0 -64 -8.5 -105t-29.5 -64.5t-59 -33.5t-96 -10q-59 0 -96.5 10t-59 33.5t-29.5 65t-8 104.5z
M913 324v-208q0 -21 10.5 -27.5t44.5 -6.5h102v208q0 20 -11.5 27t-46.5 7h-99z" />
    <glyph glyph-name="ampersand" unicode="&#x26;" horiz-adv-x="645" 
d="M215 245l42 130h362l-20 -130h-384zM85 389q5 69 21.5 117t47 77.5t77.5 43t113 13.5q30 0 64.5 -3.5t64.5 -9t45 -12.5l-22 -140q-18 6 -41.5 10t-47.5 6.5t-42 2.5q-54 0 -74 -15t-20 -56v-67l-41 -93v-92q0 -71 76 -71q33 0 60 4t56 11l16 -86q-50 -16 -89 -25.5
t-69.5 -14t-57.5 -4.5q-91 0 -136 48t-45 145q0 161 127 180v4zM378 263h170v-364l-107 -14z" />
    <glyph glyph-name="quotesingle" unicode="'" horiz-adv-x="268" 
d="M95 344l-46 198v81q0 11 7.5 19t29.5 8h96q22 0 29.5 -8t7.5 -19v-81l-46 -198h-78z" />
    <glyph glyph-name="parenleft" unicode="(" horiz-adv-x="327" 
d="M274 -146q-77 23 -133.5 80t-86 151.5t-29.5 227.5q0 134 29.5 227.5t86 151t133.5 80.5l18 -135q-26 -16 -46.5 -41.5t-33.5 -64t-19.5 -92.5t-6.5 -126t6.5 -126t19.5 -92.5t33.5 -64.5t46.5 -41z" />
    <glyph glyph-name="parenright" unicode=")" horiz-adv-x="327" 
d="M53 -146l-18 135q27 15 47 41t33 64.5t20 92.5t7 126t-7 126t-20 92.5t-33 64t-47 41.5l18 135q79 -23 134.5 -80.5t85 -151t29.5 -227.5q0 -133 -29.5 -227.5t-85 -151.5t-134.5 -80z" />
    <glyph glyph-name="asterisk" unicode="*" horiz-adv-x="532" 
d="M342 306l-38 53l-63 151l49 37l125 -108l38 -52zM190 306l-112 81l39 52l124 108l49 -37l-62 -151zM256 498l-163 15l-62 19l42 131l62 -20l140 -85zM235 528l-38 159v66h137v-66l-37 -159h-62zM275 498l-19 60l141 85l62 20l42 -131l-62 -19z" />
    <glyph glyph-name="plus" unicode="+" horiz-adv-x="530" 
d="M57 376h416v-128h-416v128zM201 104v416h128v-416h-128zM57 376h416v-128h-416v128z" />
    <glyph glyph-name="comma" unicode="," horiz-adv-x="266" 
d="M139 -141l-79 26l30 116q-30 6 -42.5 26t-12.5 63q0 57 21 77.5t78 20.5q55 0 76 -20.5t21 -77.5q-1 -24 -3.5 -38.5t-8.5 -29t-19 -40.5z" />
    <glyph glyph-name="hyphen" unicode="-" horiz-adv-x="350" 
d="M27 302q0 28 18 34t47 6h231v-94q0 -28 -18 -34t-47 -6h-231v94z" />
    <glyph glyph-name="period" unicode="." horiz-adv-x="266" 
d="M35 90q0 52 19 75t79 23t79 -23t19 -75t-19 -74t-79 -22t-79 22t-19 74z" />
    <glyph glyph-name="slash" unicode="/" horiz-adv-x="404" 
d="M89 -15q-7 -15 -16.5 -20t-26.5 -5h-46l315 680q7 15 16.5 20t26.5 5h46z" />
    <glyph glyph-name="zero" unicode="0" horiz-adv-x="663" 
d="M45 312q0 96 13.5 159.5t46 100.5t88 52.5t139.5 15.5t139 -15.5t87 -52t46 -100t14 -160.5q0 -77 -8.5 -133t-27.5 -93.5t-52 -59.5t-82 -31.5t-116 -9.5q-68 0 -116.5 9.5t-81.5 32t-52.5 60t-28 93t-8.5 132.5zM234 490v-302q0 -32 13.5 -42.5t56.5 -10.5h125v302
q0 32 -15.5 42.5t-61.5 10.5h-118z" />
    <glyph glyph-name="one" unicode="1" horiz-adv-x="511" 
d="M27 0v145h164v322l-174 -15v158l350 30v-495h122v-145h-462z" />
    <glyph glyph-name="two" unicode="2" horiz-adv-x="584" 
d="M40 0v134q0 36 8 64.5t28 52.5t55 47t89 48t130 56v81q-16 4 -37.5 5.5t-55.5 1.5q-40 0 -88.5 -5t-93.5 -14l-23 138q58 15 121 23t119 8q127 0 187 -42.5t60 -132.5q0 -37 -7 -66t-26.5 -53t-56 -47t-96 -50t-146.5 -62v-42h322v-145h-489z" />
    <glyph glyph-name="three" unicode="3" horiz-adv-x="543" 
d="M255 -14q-55 0 -117.5 8t-122.5 22l23 139q41 -9 89.5 -14t91.5 -5q69 0 100 7v98l-173 26v93l173 29v94q-29 7 -91 7q-43 0 -90.5 -5t-88.5 -14l-23 138q60 15 122.5 23t116.5 8q123 0 183 -39.5t60 -122.5q0 -57 -23.5 -97.5t-70.5 -64.5v-5q48 -20 71 -57t23 -91
q0 -61 -26.5 -100.5t-82.5 -58t-144 -18.5z" />
    <glyph glyph-name="four" unicode="4" horiz-adv-x="614" 
d="M336 115h-321v102l179 408h318v-365h67v-145h-67v-115h-176v115zM201 260h135v233h-30z" />
    <glyph glyph-name="five" unicode="5" horiz-adv-x="575" 
d="M293 -15q-67 0 -130.5 7.5t-117.5 23.5l23 138q50 -9 94 -14t78 -5q40 0 66 1.5t45 5.5v81l-77 8q-63 7 -104 16t-64 24.5t-32.5 38.5t-9.5 57l10 258h430l-13 -145h-241v-97l59 -6q84 -9 134.5 -32t73.5 -63t23 -102q0 -101 -60 -148t-187 -47z" />
    <glyph glyph-name="six" unicode="6" horiz-adv-x="603" 
d="M374 264h-99q-28 0 -37 -8t-9 -34v-99h99q28 0 37 8.5t9 33.5v99zM563 196q0 -75 -26.5 -121.5t-84.5 -68t-151 -21.5q-73 0 -123.5 17t-80.5 54.5t-43.5 100.5t-13.5 155q0 93 15.5 156t50.5 101t94 54.5t145 16.5q26 0 64 -5t74 -11.5t55 -14.5l-23 -138
q-37 8 -84 13.5t-81 5.5q-43 0 -74.5 -2t-46.5 -7v-90h76q136 0 197 -46t61 -149z" />
    <glyph glyph-name="seven" unicode="7" horiz-adv-x="492" 
d="M270 0h-180l185 480h-252l-13 145h457v-110z" />
    <glyph glyph-name="eight" unicode="8" horiz-adv-x="607" 
d="M304 640q84 0 138 -19t80 -58.5t26 -101.5q0 -47 -12.5 -86t-34.5 -63v-7q30 -18 48.5 -55t18.5 -79q0 -51 -14.5 -86.5t-46 -57.5t-81.5 -32t-122 -10t-122 10t-82 32t-46 57.5t-14 86.5q0 44 18.5 83t48.5 59v7q-22 22 -35 59.5t-13 81.5q0 62 26.5 101t80.5 58.5
t138 19.5zM262 250q-15 6 -22 6q-11 0 -11 -17v-116h100q30 0 39.5 7t9.5 28v49zM341 376l9 -3t7 -1q9 0 15 5.5t6 12.5v112h-99q-29 0 -39 -6.5t-10 -28.5l-1 -48z" />
    <glyph glyph-name="nine" unicode="9" horiz-adv-x="603" 
d="M229 502v-98q0 -25 8.5 -33.5t35.5 -8.5h101v98q0 26 -8.5 34t-35.5 8h-101zM40 429q0 75 27 121.5t84.5 68t150.5 21.5q73 0 123 -17t80.5 -54.5t44 -100.5t13.5 -155t-15.5 -155.5t-51 -101.5t-94 -54.5t-145.5 -16.5q-27 0 -66.5 5t-77 12t-59.5 14l24 139
q40 -8 89 -13.5t86 -5.5q43 0 74.5 2t46.5 6v90h-76q-136 0 -197 46t-61 149z" />
    <glyph glyph-name="colon" unicode=":" horiz-adv-x="264" 
d="M35 90q0 52 19 75t79 23t79 -23t19 -75t-19 -74t-79 -22t-79 22t-19 74zM35 407q0 52 19 75t79 23t79 -23t19 -75t-19 -74t-79 -22t-79 22t-19 74z" />
    <glyph glyph-name="semicolon" unicode=";" horiz-adv-x="264" 
d="M139 -141l-79 26l30 116q-30 6 -42.5 26t-12.5 63q0 57 21 77.5t78 20.5q55 0 76 -20.5t21 -77.5q-1 -24 -3.5 -38.5t-8.5 -29t-19 -40.5zM35 407q0 52 19 75t79 23t79 -23t19 -75t-19 -74t-79 -22t-79 22t-19 74z" />
    <glyph glyph-name="less" unicode="&#x3c;" horiz-adv-x="530" 
d="M473 94l-416 137v162l416 137v-141l-373 -118v82l373 -118v-141z" />
    <glyph glyph-name="equal" unicode="=" horiz-adv-x="530" 
d="M57 261h416v-128h-416v128zM57 491h416v-128h-416v128z" />
    <glyph glyph-name="greater" unicode="&#x3e;" horiz-adv-x="530" 
d="M57 530l416 -137v-162l-416 -137v141l373 118v-82l-373 118v141z" />
    <glyph glyph-name="question" unicode="?" horiz-adv-x="502" 
d="M134 222l-14 141q-1 19 12.5 29.5t52.5 21.5l92 29v59q-15 2 -32.5 3.5t-36.5 1.5q-38 0 -79 -6t-69 -14l-24 121q53 17 103.5 24.5t96.5 7.5q85 0 135 -15t72.5 -48t22.5 -89q0 -35 -9.5 -61t-33 -45.5t-64.5 -37t-106 -35.5l-5 -87h-114zM102 79q0 47 17 67.5t71 20.5
q53 0 70 -20.5t17 -67.5q0 -46 -17 -65.5t-70 -19.5q-54 0 -71 19.5t-17 65.5z" />
    <glyph glyph-name="at" unicode="@" horiz-adv-x="842" 
d="M612 435q-16 3 -42.5 5t-55.5 3.5t-57 1.5q-42 0 -83 -3.5t-74 -17.5t-52.5 -45t-19.5 -84v-204q0 -58 18.5 -91t50 -48.5t71 -19.5t81.5 -4h189v-88q-50 -10 -97 -15t-96 -5q-90 0 -164.5 16.5t-129 56.5t-84.5 109.5t-30 173.5v83q0 100 30.5 165t85.5 102.5t128.5 53
t158.5 15.5q182 0 265 -46.5t83 -144.5l-1 -404h-87l-45 50q-36 -31 -80 -47.5t-92 -16.5q-89 0 -129.5 39.5t-40.5 125.5q0 47 13.5 78.5t44.5 50.5t83 27t130 8h57v-92h-94q-41 0 -56.5 -9.5t-15.5 -35.5v-71h64q41 0 56.5 9t15.5 34z" />
    <glyph glyph-name="A" unicode="A" horiz-adv-x="619" 
d="M7 0l166 625h273l166 -625h-176l-122 457h-9l-122 -457h-176zM118 109v129h383v-129h-383z" />
    <glyph glyph-name="B" unicode="B" horiz-adv-x="590" 
d="M60 625h273q105 0 151.5 -38.5t46.5 -124.5q0 -46 -17.5 -84t-49.5 -58v-6q43 -11 70.5 -49.5t27.5 -88.5q0 -85 -50 -130.5t-145 -45.5h-307v625zM236 55l-73 73h165q30 0 42 14.5t12 50.5q0 34 -11.5 48t-41.5 14h-109v123h84q30 0 40.5 12.5t10.5 47.5t-10 47t-40 12
h-142l73 73v-515z" />
    <glyph glyph-name="C" unicode="C" horiz-adv-x="505" 
d="M484 11q-38 -13 -81 -19.5t-101 -6.5q-76 0 -127 16.5t-81 53.5t-43 100t-13 157t14 157.5t46 101t86 53.5t135 16q27 0 58.5 -3.5t59.5 -9t44 -12.5l-22 -140q-21 6 -46 10t-48 6.5t-40 2.5q-55 0 -76.5 -14t-21.5 -57v-279q23 -5 45 -7.5t44 -2.5q41 0 82 6.5t72 17.5z
" />
    <glyph glyph-name="D" unicode="D" horiz-adv-x="648" 
d="M60 625h265q85 0 139.5 -14.5t86.5 -49t45 -95.5t13 -154q0 -92 -13 -153t-45 -96t-86.5 -49t-139.5 -14h-265v625zM236 487v-349h106q44 0 61 14.5t17 51.5v217q0 37 -17 51.5t-61 14.5h-106z" />
    <glyph glyph-name="E" unicode="E" horiz-adv-x="519" 
d="M236 248v-103h244v-145h-420v625h423l-22 -145h-225v-103h208v-129h-208z" />
    <glyph glyph-name="F" unicode="F" horiz-adv-x="465" 
d="M236 230v-230h-176v625h393l-22 -145h-195v-121h177v-129h-177z" />
    <glyph glyph-name="G" unicode="G" horiz-adv-x="574" 
d="M290 -15q-74 0 -123 15t-77 51.5t-40 100t-12 160.5q0 96 13.5 159.5t45.5 100t86.5 52.5t137.5 16q31 0 68.5 -3.5t70.5 -9t51 -12.5l-22 -140q-26 6 -56 10t-58 6.5t-49 2.5q-55 0 -77 -14t-22 -57v-296h298l14 -99q-50 -23 -109 -33t-140 -10zM373 30v208h-61v129h227
v-339z" />
    <glyph glyph-name="H" unicode="H" horiz-adv-x="648" 
d="M236 0h-176v625h176v-625zM412 625h176v-625h-176v625zM428 247h-208v129h208v-129z" />
    <glyph glyph-name="I" unicode="I" horiz-adv-x="295" 
d="M60 625h176v-625h-176v625z" />
    <glyph glyph-name="J" unicode="J" horiz-adv-x="381" 
d="M12 145h86q20 0 34 4.5t14 25.5v305h-100v145h276v-467q0 -54 -18 -89t-52.5 -52t-84.5 -17h-137z" />
    <glyph glyph-name="K" unicode="K" horiz-adv-x="602" 
d="M408 0l-77 165q-13 27 -21 50t-8 41h-82v130h82q0 18 7.5 41t21.5 50l72 148h188l-148 -304l153 -321h-188zM60 0v625h176v-625h-176z" />
    <glyph glyph-name="L" unicode="L" horiz-adv-x="441" 
d="M60 0v625h176v-480h199v-145h-375z" />
    <glyph glyph-name="M" unicode="M" horiz-adv-x="807" 
d="M45 0l39 625h223l93 -354h7l93 354h224l39 -625h-175l-20 349h-7l-90 -349h-135l-91 349h-6l-19 -349h-175z" />
    <glyph glyph-name="N" unicode="N" horiz-adv-x="672" 
d="M65 0v625h173l162 -260q14 -23 19.5 -38.5t5.5 -30.5h6v329h176v-625h-174l-161 260q-14 24 -19.5 39.5t-5.5 29.5h-6v-329h-176z" />
    <glyph glyph-name="O" unicode="O" horiz-adv-x="654" 
d="M38 312q0 95 14 158.5t47 100.5t89 53t139 16t139.5 -16t89 -53t46.5 -100.5t14 -158.5t-14 -158t-46.5 -100t-89 -53t-139.5 -16t-139 16t-89 53t-47 100t-14 158zM227 135h119q46 0 63.5 13t17.5 45v297h-120q-45 0 -62.5 -13t-17.5 -45v-297z" />
    <glyph glyph-name="P" unicode="P" horiz-adv-x="576" 
d="M236 164v-164h-176v625h275q80 0 129.5 -22.5t72 -72.5t22.5 -131q0 -121 -50.5 -178t-158.5 -57h-114zM236 293h92q26 0 36.5 9t10.5 33v103q0 24 -10.5 33t-36.5 9h-92v-187z" />
    <glyph glyph-name="Q" unicode="Q" horiz-adv-x="644" 
d="M322 -15q-81 0 -135.5 16.5t-87 54t-47 100t-14.5 156.5t14.5 157t47 100.5t87 54t135.5 16.5t135.5 -16.5t87 -54t47 -101t14.5 -156.5q0 -82 -12 -137.5t-38.5 -90t-70.5 -54.5l-104 5zM228 135h110q45 0 62 13t17 45v297h-111q-45 0 -61.5 -13t-16.5 -45v-297z
M569 -77l-188 62v50l122 59l111 -70z" />
    <glyph glyph-name="R" unicode="R" horiz-adv-x="614" 
d="M236 191v-191h-176v625h280q80 0 129.5 -22.5t72 -72.5t22.5 -131q0 -108 -50 -158t-159 -50h-119zM236 320h97q26 0 36.5 9t10.5 33v76q0 24 -10.5 33t-36.5 9h-97v-160zM444 308l147 -308h-191l-107 226z" />
    <glyph glyph-name="S" unicode="S" horiz-adv-x="563" 
d="M55 163q49 -14 100 -22t101 -8q26 0 46 1t43 5v86l-91 8q-60 5 -101.5 17.5t-66.5 35t-36 56t-11 81.5q0 80 22 127.5t74 68.5t139 21q58 0 115 -7t112 -20l-22 -141q-50 10 -88 14.5t-79 4.5q-29 0 -46.5 -1t-37.5 -4v-86l82 -7q80 -8 129.5 -30.5t72 -64t22.5 -106.5
q0 -73 -26.5 -118.5t-83.5 -67t-147 -21.5q-67 0 -128.5 8t-118.5 25z" />
    <glyph glyph-name="T" unicode="T" horiz-adv-x="483" 
d="M329 480v-480h-176v480h-146v145h468v-145h-146z" />
    <glyph glyph-name="U" unicode="U" horiz-adv-x="635" 
d="M317 -15q-80 0 -132 11t-81.5 37t-41.5 72.5t-12 117.5v402h176v-490h95q36 0 55 4.5t26 16t7 32.5v437h176v-402q0 -70 -12 -116.5t-42 -73t-82 -37.5t-132 -11z" />
    <glyph glyph-name="V" unicode="V" horiz-adv-x="597" 
d="M6 625h176l112 -457h9l112 457h176l-156 -625h-273z" />
    <glyph glyph-name="W" unicode="W" horiz-adv-x="899" 
d="M25 625h176l61 -457h9l83 457h132l-109 -625h-264zM874 625l-89 -625h-264l-108 625h131l84 -457h9l61 457h176z" />
    <glyph glyph-name="X" unicode="X" horiz-adv-x="606" 
d="M600 0h-196l-391 625h196zM360 277l-163 -277h-191l217 369zM239 348l162 277h192l-217 -369z" />
    <glyph glyph-name="Y" unicode="Y" horiz-adv-x="558" 
d="M247 305l121 320h184l-185 -421v-204h-176v204l-185 421h185l121 -320h-65z" />
    <glyph glyph-name="Z" unicode="Z" horiz-adv-x="578" 
d="M27 0v115l277 359l-3 6h-229l-16 145h492v-115l-274 -359l3 -6h270v-145h-520z" />
    <glyph glyph-name="bracketleft" unicode="[" horiz-adv-x="325" 
d="M55 670q0 39 22 62t73 33t136 10l9 -130l-83 -8v-649l83 -8l-9 -130q-85 0 -136 10t-73 33.5t-22 61.5v715z" />
    <glyph glyph-name="backslash" unicode="\" horiz-adv-x="481" 
d="M15 665h34q21 0 28.5 -6.5t14.5 -18.5l374 -680h-33q-21 0 -28.5 6.5t-14.5 18.5z" />
    <glyph glyph-name="bracketright" unicode="]" horiz-adv-x="325" 
d="M270 670v-715q0 -38 -22 -61.5t-73 -33.5t-136 -10l-9 130l83 8v649l-83 8l9 130q85 0 136 -10t73 -33t22 -62z" />
    <glyph glyph-name="asciicircum" unicode="^" horiz-adv-x="530" 
d="M42 120l142 384h162l142 -384h-141l-115 341h66l-115 -341h-141z" />
    <glyph glyph-name="underscore" unicode="_" horiz-adv-x="571" 
d="M25 -29q0 29 18.5 35.5t48.5 6.5h454v-93q0 -29 -18.5 -35.5t-48.5 -6.5h-454v93z" />
    <glyph glyph-name="grave" unicode="`" horiz-adv-x="600" 
d="M283 543l-165 35q-15 3 -25 11l-36 30q-10 10 -10 17q0 6 9 16l58 69q8 9 15 9q6 0 11 -4l180 -132z" />
    <glyph glyph-name="a" unicode="a" horiz-adv-x="560" 
d="M202 -14q-89 0 -129.5 39.5t-40.5 125.5q0 47 13.5 78.5t44 50.5t83 27t130.5 8h57v-92h-94q-41 0 -56.5 -9.5t-15.5 -35.5v-71h64q41 0 56.5 9t15.5 34v228q-21 6 -63 6q-43 0 -90.5 -6t-100.5 -20l-21 123q35 11 73 18.5t78.5 11t80.5 3.5q77 0 125 -17.5t71 -54
t23 -95.5v-347h-87l-45 50q-37 -31 -80.5 -47.5t-91.5 -16.5z" />
    <glyph glyph-name="b" unicode="b" horiz-adv-x="589" 
d="M345 515q55 0 94.5 -14.5t64.5 -46.5t36.5 -82t11.5 -122q0 -71 -13.5 -121.5t-42.5 -82t-75 -46t-111 -14.5q-48 0 -82 14.5t-55 46t-30.5 82t-9.5 121.5q0 72 11.5 122.5t36.5 82t66 46t98 14.5zM363 381h-87q-23 0 -31.5 -5.5t-8.5 -21.5v-234h86q24 0 32.5 5.5
t8.5 20.5v235zM60 654l176 14v-541v-42l74 -99q-74 0 -131.5 8.5t-118.5 29.5v630z" />
    <glyph glyph-name="c" unicode="c" horiz-adv-x="450" 
d="M254 -14q-58 0 -99 14.5t-67 46.5t-38.5 82t-12.5 121t12.5 121.5t38.5 82t67 46t99 14.5q29 0 61.5 -3t61.5 -7t46 -10l-16 -124q-26 8 -52.5 11t-56.5 3q-40 0 -56 -17t-16 -59v-186q20 -6 63 -6q34 0 65 6.5t63 19.5l16 -123q-40 -16 -85.5 -24.5t-93.5 -8.5z" />
    <glyph glyph-name="d" unicode="d" horiz-adv-x="589" 
d="M244 514q58 0 98.5 -15t65.5 -46t36.5 -81.5t11.5 -121.5q0 -72 -11.5 -122.5t-36.5 -82t-65.5 -46t-98.5 -14.5q-56 0 -95 14.5t-64 46.5t-36.5 82t-11.5 122q0 71 11.5 121.5t36.5 82t64 46t95 14.5zM353 380h-87q-23 0 -31.5 -5.5t-8.5 -21.5v-234h86q24 0 32.5 5.5
t8.5 21.5v234zM529 668v-668h-87l-89 127v527z" />
    <glyph glyph-name="e" unicode="e" horiz-adv-x="563" 
d="M285 -14q-65 0 -112 15t-77 47t-44.5 82t-14.5 120q0 94 26.5 152t82 85t143.5 27t137 -15t69.5 -51t20.5 -99q0 -47 -14.5 -78.5t-47.5 -50.5t-89 -27t-139 -8h-30v92h89q41 0 56.5 9.5t15.5 35.5v62h-59q-41 0 -56.5 -9t-15.5 -34v-219q14 -3 32.5 -4.5t46.5 -1.5
q42 0 85 6.5t91 19.5l22 -123q-49 -16 -104 -24.5t-114 -8.5z" />
    <glyph glyph-name="f" unicode="f" horiz-adv-x="352" 
d="M266 0h-176v499q3 67 19.5 105t52.5 54.5t96 16.5q23 0 49 -2.5t56 -7.5l-9 -109l-88 8v-564zM330 500v-115h-295v115h295z" />
    <glyph glyph-name="g" unicode="g" horiz-adv-x="538" 
d="M257 144q-80 0 -130.5 19t-73.5 60t-23 106q0 66 23 106.5t73.5 60t130.5 19.5q82 0 132 -19t73.5 -60t23.5 -107t-23 -106.5t-73.5 -59.5t-132.5 -19zM198 237h77q24 0 33.5 9t9.5 30v146h-78q-24 0 -33 -8.5t-9 -31.5v-145zM492 -25q0 -51 -23 -84t-72 -48.5
t-127 -15.5q-60 0 -118.5 8.5t-112.5 24.5l22 124q46 -13 89 -19.5t85 -6.5q28 0 52 2t47 4v46q-96 7 -137 18t-41 29l35 112l115 -1l-5 -59q57 -8 94 -17.5t58 -24.5t30 -37.5t9 -54.5zM438 375l-90 121l96 74l84 -81z" />
    <glyph glyph-name="h" unicode="h" horiz-adv-x="590" 
d="M60 0v652l172 13v-187q32 19 71.5 27.5t84.5 8.5q71 0 109.5 -28.5t38.5 -79.5v-406h-176v369h-52q-41 0 -56.5 -10t-15.5 -36v-323h-176z" />
    <glyph glyph-name="i" unicode="i" horiz-adv-x="295" 
d="M60 479l176 23v-502h-176v479zM148 553q-55 0 -75.5 19.5t-20.5 74.5q0 56 20.5 76t75.5 20q54 0 74 -20t20 -76q0 -55 -19 -74.5t-75 -19.5z" />
    <glyph glyph-name="j" unicode="j" horiz-adv-x="295" 
d="M77 -179q-28 0 -59.5 4t-57.5 11l8 109q37 0 57 5t27.5 19t7.5 39v471l176 23v-525q0 -80 -38.5 -118t-120.5 -38zM148 553q-55 0 -75.5 19.5t-20.5 74.5q0 56 20.5 76t75.5 20q54 0 74 -20t20 -76q0 -55 -19 -74.5t-75 -19.5z" />
    <glyph glyph-name="k" unicode="k" horiz-adv-x="556" 
d="M280 213h-44v-213h-176v650l176 15v-345h43l80 180h186l-119 -237l124 -263h-184z" />
    <glyph glyph-name="l" unicode="l" horiz-adv-x="300" 
d="M234 126q14 -2 26 -3.5t23 -2.5l-9 -119q-27 -7 -52 -11t-48 -4q-59 0 -87.5 24.5t-28.5 76.5v563l176 15v-539z" />
    <glyph glyph-name="m" unicode="m" horiz-adv-x="870" 
d="M60 0v500h87l44 -50q42 32 89 48t98 16q71 0 109.5 -28.5t38.5 -79.5v-406h-176v369h-64q-28 0 -39 -8t-11 -27v-334h-176zM350 0v500l131 -50q42 32 89 48t98 16q71 0 109.5 -28.5t38.5 -79.5v-406h-176v369h-64q-28 0 -39 -8t-11 -27v-334h-176z" />
    <glyph glyph-name="n" unicode="n" horiz-adv-x="590" 
d="M60 0v500h87l44 -50q43 32 92 48t105 16q71 0 109.5 -28.5t38.5 -79.5v-406h-176v369h-74q-28 0 -39 -8t-11 -27v-334h-176z" />
    <glyph glyph-name="o" unicode="o" horiz-adv-x="581" 
d="M291 -14q-68 0 -116 15t-78.5 46.5t-45 82t-14.5 120.5q0 71 14.5 121.5t45 82t78.5 46t116 14.5t116 -14.5t78.5 -46t44.5 -82t14 -121.5q0 -70 -14 -120.5t-44.5 -82t-78.5 -46.5t-116 -15zM226 120h89q24 0 32.5 5.5t8.5 21.5v233h-89q-24 0 -32.5 -5.5t-8.5 -21.5
v-233z" />
    <glyph glyph-name="p" unicode="p" horiz-adv-x="589" 
d="M345 -15q-57 0 -98 14.5t-66 46t-36.5 82t-11.5 122.5t11.5 122t36.5 81.5t66 46t98 14.5q56 0 95 -14.5t64 -46t36.5 -82t11.5 -121.5t-11.5 -121.5t-36.5 -82.5t-64.5 -46.5t-94.5 -14.5zM236 119h86q24 0 32.5 5.5t8.5 21.5v234h-87q-23 0 -31.5 -5.5t-8.5 -20.5v-235
zM60 -168v668h87l89 -127v-527z" />
    <glyph glyph-name="q" unicode="q" horiz-adv-x="589" 
d="M244 -15q-56 0 -95 14.5t-64 46.5t-36.5 82.5t-11.5 121.5t11.5 121.5t36.5 82t64 46t95 14.5q58 0 98.5 -14.5t65.5 -46t36.5 -81.5t11.5 -122t-11.5 -122.5t-36.5 -82t-65.5 -46t-98.5 -14.5zM226 119h86q24 0 32.5 5.5t8.5 21.5v234h-87q-22 0 -31 -5.5t-9 -20.5v-235
zM529 -154l-176 -14v541l89 127h87v-654z" />
    <glyph glyph-name="r" unicode="r" horiz-adv-x="361" 
d="M147 500l50 -69q33 33 69 53.5t76 30.5l12 -171q-16 -2 -40 -10t-45 -17.5t-33 -18.5v-298h-176v500h87z" />
    <glyph glyph-name="s" unicode="s" horiz-adv-x="511" 
d="M38 351q0 84 52 124t163 40q54 0 106 -5.5t98 -16.5l-21 -122q-25 7 -55 10t-63 3q-26 0 -50.5 -2.5t-41.5 -6.5v-56q74 -8 123 -20.5t78 -32t42 -47t13 -67.5q0 -58 -25.5 -95t-78.5 -54.5t-138 -17.5q-55 0 -110 8.5t-100 24.5l23 128q72 -30 161 -30q17 0 36 2t43 7
v58q-78 9 -127.5 20.5t-77.5 30t-39 47t-11 70.5z" />
    <glyph glyph-name="t" unicode="t" horiz-adv-x="362" 
d="M198 -14q-59 0 -87.5 24.5t-28.5 76.5v499l176 44v-504q16 -2 31 -3.5t31 -2.5l-8 -119q-34 -8 -62.5 -11.5t-51.5 -3.5zM27 385v115h305v-115h-305z" />
    <glyph glyph-name="u" unicode="u" horiz-adv-x="590" 
d="M531 500v-500h-87l-45 50q-42 -32 -92 -48t-107 -16q-75 0 -110 32.5t-35 103.5v378h176v-393h74q28 0 39 8t11 27v358h176z" />
    <glyph glyph-name="v" unicode="v" horiz-adv-x="516" 
d="M4 500h172l77 -347h10l78 347h172l-123 -500h-264z" />
    <glyph glyph-name="w" unicode="w" horiz-adv-x="776" 
d="M437 0l-103 500h129l68 -347h10l60 347h172l-101 -500h-235zM105 0l-101 500h172l60 -347h10l67 347h130l-104 -500h-234z" />
    <glyph glyph-name="x" unicode="x" horiz-adv-x="549" 
d="M346 0l-336 500h194l336 -500h-194zM9 0l185 300l105 -121l-102 -179h-188zM348 193l-99 128l102 179h188z" />
    <glyph glyph-name="y" unicode="y" horiz-adv-x="506" 
d="M121 45l-117 455h172l72 -301h10l73 301h172l-118 -455h-264zM129 -179q-28 0 -58 4t-54 11l8 93l108 13q30 4 46 12t24.5 26t16.5 50l3 15h162q-20 -84 -51.5 -133t-80 -70t-124.5 -21z" />
    <glyph glyph-name="z" unicode="z" horiz-adv-x="516" 
d="M254 367l-4 6h-186l-12 127h423v-97l-218 -270l3 -6h219v-127h-443v97z" />
    <glyph glyph-name="braceleft" unicode="{" horiz-adv-x="349" 
d="M231 -14l83 -7l-8 -129q-48 0 -90.5 2.5t-75 13t-50 33t-15.5 62.5l15 279l-65 17v108l65 17l-15 282q-2 40 15.5 62.5t49.5 33t74.5 13t91.5 2.5l8 -129l-83 -7l16 -192q4 -45 -10 -77.5t-46 -52.5v-12q32 -20 46 -52.5t10 -77.5z" />
    <glyph glyph-name="bar" unicode="|" horiz-adv-x="260" 
d="M77 704h106v-884h-106v884z" />
    <glyph glyph-name="braceright" unicode="}" horiz-adv-x="349" 
d="M118 -14l-16 189q-4 45 10.5 77.5t45.5 52.5v12q-31 20 -45.5 52.5t-10.5 77.5l16 192l-83 7l8 129q49 0 91.5 -2.5t74.5 -13t49.5 -33t15.5 -62.5l-15 -282l65 -17v-108l-65 -17l15 -279q2 -40 -15.5 -62.5t-50 -33t-75 -13t-90.5 -2.5l-8 129z" />
    <glyph glyph-name="asciitilde" unicode="~" horiz-adv-x="530" 
d="M473 249q-23 -18 -45 -26t-44 -8q-30 0 -60 11.5t-59.5 26.5t-59.5 26.5t-60 11.5q-22 0 -44 -7.5t-44 -25.5v119q22 18 44 25.5t44 7.5q30 0 60 -11.5t59.5 -26.5t59.5 -26.5t60 -11.5q22 0 44 8t45 27v-120z" />
    <glyph glyph-name="uni00A0" unicode="&#xa0;" horiz-adv-x="212" 
 />
    <glyph glyph-name="exclamdown" unicode="&#xa1;" horiz-adv-x="286" 
d="M200 287l38 -398q0 -10 -6.5 -17.5t-27.5 -7.5h-121q-20 0 -27 7.5t-7 17.5l37 398h114zM231 430q0 -47 -17 -67.5t-71 -20.5q-53 0 -70 20.5t-17 67.5q0 46 17 65.5t70 19.5q54 0 71 -19.5t17 -65.5z" />
    <glyph glyph-name="cent" unicode="&#xa2;" horiz-adv-x="450" 
d="M285 83l-18 -212h-107l19 212h106zM220 550l18 205h106l-18 -205h-106zM254 51q-58 0 -99 14.5t-67 46.5t-38.5 82t-12.5 121t12.5 121.5t38.5 82t67 46t99 14.5q29 0 61.5 -3t61.5 -7t46 -10l-16 -124q-26 8 -52.5 11t-56.5 3q-40 0 -56 -17t-16 -59v-186q20 -6 63 -6
q34 0 65 6.5t63 19.5l16 -123q-40 -16 -85.5 -24.5t-93.5 -8.5z" />
    <glyph glyph-name="sterling" unicode="&#xa3;" horiz-adv-x="579" 
d="M95 94l23 291q8 93 36 149t82 81t139 25q28 0 60 -3.5t62 -8.5t50 -13l-34 -140q-25 8 -61.5 13.5t-65.5 5.5q-41 0 -57 -16t-19 -61l-24 -290zM52 0v88l81 57h384l22 -145h-487zM52 268v95h406l-9 -95h-397z" />
    <glyph glyph-name="currency" unicode="&#xa4;" horiz-adv-x="672" 
d="M336 129q-66 0 -110 10.5t-70 35t-37.5 66t-11.5 102.5t12 102.5t38 66.5t70 35.5t109 10.5q66 0 110 -10.5t70.5 -35t37.5 -66.5t11 -103t-11 -102.5t-37.5 -66t-70.5 -35t-110 -10.5zM138 -10l-94 56l140 194l92 -55zM313 247h104v155q0 22 -12.5 29.5t-50.5 7.5h-100
v-155q0 -22 11.5 -29.5t47.5 -7.5zM489 447l-95 52l141 197l92 -56zM534 -10l-139 195l92 55l140 -194zM183 447l-139 193l93 56l141 -197z" />
    <glyph glyph-name="yen" unicode="&#xa5;" horiz-adv-x="558" 
d="M52 131v95h456v-95h-456zM52 283v95h166v-95h-166zM342 283v95h166v-95h-166zM247 305l121 320h184l-185 -421v-204h-176v204l-185 421h185l121 -320h-65z" />
    <glyph glyph-name="brokenbar" unicode="&#xa6;" horiz-adv-x="260" 
d="M77 704h106v-336h-106v336zM77 156h106v-336h-106v336z" />
    <glyph glyph-name="section" unicode="&#xa7;" horiz-adv-x="510" 
d="M211 364v-169q78 -8 130.5 -19t83.5 -28t44 -42t13 -60q0 -58 -25 -95t-78.5 -54.5t-138.5 -17.5q-56 0 -111 8.5t-99 24.5l23 128q72 -30 161 -30q18 0 37.5 2t41.5 7v58q-77 9 -127 20.5t-77.5 30.5t-39 47.5t-11.5 71.5q0 78 45.5 116t142.5 42zM308 130v174
q-82 8 -135 19t-82.5 27.5t-41 41.5t-11.5 62q0 84 52 124t163 40q55 0 107 -5.5t97 -16.5l-21 -122q-26 7 -56 10t-62 3q-25 0 -50 -2t-41 -7v-56q73 -9 122 -21.5t78 -32t42 -47.5t13 -68q0 -73 -41.5 -111.5t-129.5 -47.5z" />
    <glyph glyph-name="dieresis" unicode="&#xa8;" horiz-adv-x="600" 
d="M312 558q-48 0 -62.5 17t-14.5 59q0 41 14.5 59t62.5 18q46 0 61 -18t15 -59q0 -42 -15 -59t-61 -17zM109 558q-48 0 -62.5 17t-14.5 59q0 41 14.5 59t62.5 18q46 0 61 -18t15 -59q0 -42 -15 -59t-61 -17z" />
    <glyph glyph-name="copyright" unicode="&#xa9;" horiz-adv-x="563" 
d="M282 179q-130 0 -191 61t-61 191t61 190.5t191 60.5t190.5 -60.5t60.5 -190.5t-60.5 -191t-190.5 -61zM293 274q-75 0 -106 35.5t-31 121.5t31 121.5t106 35.5q20 0 44.5 -4.5t36.5 -9.5l-14 -74q-29 7 -60 7q-23 0 -32 -4t-9 -16v-128q8 -1 17 -2t17 -1q19 0 39 3.5
t35 9.5l7 -81q-18 -7 -36.5 -10.5t-44.5 -3.5zM282 221q76 0 120.5 20.5t64.5 66.5t20 123t-20 122.5t-64.5 66t-120.5 20.5q-75 0 -120.5 -20.5t-65.5 -66t-20 -122.5t20 -123t65 -66.5t121 -20.5z" />
    <glyph glyph-name="ordfeminine" unicode="&#xaa;" horiz-adv-x="424" 
d="M152 339q-71 0 -103 31.5t-32 99.5q0 34 10.5 56.5t35 36t64.5 20t99 6.5h47v-66h-65q-32 0 -43.5 -7.5t-11.5 -26.5v-49h40q32 0 44 6.5t12 24.5v168q-10 2 -20 3t-24 1q-36 0 -74 -5.5t-78 -15.5l-18 103q44 13 91 19.5t95 6.5q92 0 133.5 -32t41.5 -101v-268h-73
l-37 39q-61 -50 -134 -50zM31 233q0 31 13 42.5t47 11.5h294v-70q0 -30 -13 -41.5t-47 -11.5h-294v69z" />
    <glyph glyph-name="guillemotleft" unicode="&#xab;" horiz-adv-x="541" 
d="M446 32l-184 170v96l184 170l70 -46l-99 -172l99 -172zM209 32l-184 170v96l184 170l70 -46l-99 -172l99 -172z" />
    <glyph glyph-name="logicalnot" unicode="&#xac;" horiz-adv-x="530" 
d="M356 112v136h117v-136h-117zM57 376h416v-128h-416v128z" />
    <glyph glyph-name="registered" unicode="&#xae;" horiz-adv-x="563" 
d="M30 431q0 130 61 190.5t191 60.5t190.5 -60.5t60.5 -190.5t-60.5 -191t-190.5 -61t-191 61t-61 191zM76 431q0 -77 20 -123t65 -66.5t121 -20.5t120.5 20.5t64.5 66.5t20 123t-20 122.5t-64.5 66t-120.5 20.5q-75 0 -120.5 -20.5t-65.5 -66t-20 -122.5zM316 281l-40 89
h-18v-89h-96v300h147q104 0 104 -105q0 -70 -44 -94l53 -101h-106zM258 445h29q14 0 18.5 4t4.5 13v25q0 9 -5 12.5t-18 3.5h-29v-58z" />
    <glyph glyph-name="macron" unicode="&#xaf;" horiz-adv-x="600" 
d="M108 572q-35 0 -43 13t-8 47v56h235q35 0 42.5 -11.5t7.5 -46.5v-58h-234z" />
    <glyph glyph-name="degree" unicode="&#xb0;" horiz-adv-x="407" 
d="M36 531q0 83 39 125t129 42t128.5 -42t38.5 -125t-38.5 -125.5t-128.5 -42.5t-129 42.5t-39 125.5zM140 461h63q28 0 45 5.5t17 33.5v100h-57q-31 0 -49.5 -5t-18.5 -33v-101z" />
    <glyph glyph-name="plusminus" unicode="&#xb1;" horiz-adv-x="530" 
d="M57 457h416v-129h-416v129zM201 185v415h129v-415h-129zM57 129h416v-129h-416v129zM57 457h416v-129h-416v129zM57 129h416v-129h-416v129z" />
    <glyph glyph-name="uni00B2" unicode="&#xb2;" horiz-adv-x="453" 
d="M57 324v83q0 31 8.5 52.5t31.5 41t67 39t114 45.5v59q-10 2 -26 3t-39 1q-29 0 -64 -3t-68 -9l-14 85q38 8 79.5 13.5t80.5 5.5q86 0 126 -27.5t40 -84.5q0 -30 -8 -52t-31 -40.5t-70 -39.5t-126 -50v-33h227v-89h-328z" />
    <glyph glyph-name="uni00B3" unicode="&#xb3;" horiz-adv-x="427" 
d="M201 315q-38 0 -79 5t-79 14l14 85q30 -6 65 -9.5t64 -3.5q27 0 43.5 1.5t28.5 3.5v73l-121 16v56l121 20v68q-10 2 -25 3t-38 1q-29 0 -64 -3t-64 -9l-14 85q38 8 79 13.5t80 5.5q160 0 160 -106q0 -36 -15.5 -62.5t-46.5 -42.5v-3q32 -13 47 -37t15 -59
q0 -39 -16 -64.5t-54 -38t-101 -12.5z" />
    <glyph glyph-name="acute" unicode="&#xb4;" horiz-adv-x="600" 
d="M144 545l-36 51l180 133q5 4 10 4q7 0 16 -10l58 -69q8 -10 8 -16q0 -7 -10 -16l-35 -30q-6 -5 -11 -7.5t-14 -4.5z" />
    <glyph glyph-name="uni03BC" unicode="&#xb5;" horiz-adv-x="595" 
d="M60 -165v665h176v-393h48q21 0 38 3t27.5 14t10.5 34v342h176v-500h-87l-39 45q-14 -16 -33 -26t-43 -14.5t-52 -4.5h-79l-32 -165h-111z" />
    <glyph glyph-name="paragraph" unicode="&#xb6;" horiz-adv-x="604" 
d="M80 46l110 35v156q-74 10 -112 58.5t-38 132.5q0 197 208 197h306v-145h-50v-480h-171v480h-49v-480h-204v46z" />
    <glyph glyph-name="periodcentered" unicode="&#xb7;" horiz-adv-x="266" 
d="M35 246q0 52 19 75t79 23t79 -23t19 -75t-19 -74t-79 -22t-79 22t-19 74z" />
    <glyph glyph-name="cedilla" unicode="&#xb8;" horiz-adv-x="600" 
d="M95 -177q-51 0 -96 18l10 79h26q26 0 34.5 7t8.5 32v62h51q32 -13 53 -42t21 -62q0 -43 -29.5 -68.5t-78.5 -25.5z" />
    <glyph glyph-name="uni00B9" unicode="&#xb9;" horiz-adv-x="399" 
d="M50 324v89h111v221l-118 -10v97l225 19v-327h85v-89h-303z" />
    <glyph glyph-name="ordmasculine" unicode="&#xba;" horiz-adv-x="524" 
d="M261 349q-57 0 -97 12t-66 37.5t-37.5 65.5t-11.5 96t11.5 96t37.5 65.5t66 37.5t97 12q58 0 98.5 -12t66 -37.5t37.5 -65.5t12 -96t-12 -96t-37.5 -65.5t-66.5 -37.5t-98 -12zM206 461h76q21 0 28 4.5t7 16.5v177h-76q-20 0 -27.5 -4.5t-7.5 -16.5v-177zM68 236
q0 31 14.5 42.5t51.5 11.5h321v-69q0 -31 -14.5 -42.5t-51.5 -11.5h-321v69z" />
    <glyph glyph-name="guillemotright" unicode="&#xbb;" horiz-adv-x="541" 
d="M95 468l184 -170v-96l-184 -170l-70 46l99 172l-99 172zM332 468l184 -170v-96l-184 -170l-70 46l99 172l-99 172z" />
    <glyph glyph-name="onequarter" unicode="&#xbc;" horiz-adv-x="1069" 
d="M50 224v89h111v221l-118 -10v97l225 19v-327h85v-89h-303zM428 -15q-7 -12 -14.5 -18.5t-28.5 -6.5h-44l262 680q7 12 14.5 18.5t28.5 6.5h44zM862 76h-227v63l136 267h197v-241h47v-89h-47v-76h-106v76zM750 165h112v160h-24z" />
    <glyph glyph-name="onehalf" unicode="&#xbd;" horiz-adv-x="1085" 
d="M50 224v89h111v221l-118 -10v97l225 19v-327h85v-89h-303zM428 -15q-7 -12 -14.5 -18.5t-28.5 -6.5h-44l262 680q7 12 14.5 18.5t28.5 6.5h44zM689 0v83q0 31 8.5 52.5t31.5 41t67 39t114 45.5v59q-10 2 -26 3t-39 1q-29 0 -64 -3t-68 -9l-14 85q38 8 79.5 13.5t80.5 5.5
q86 0 126 -27.5t40 -84.5q0 -30 -8 -52t-31 -40.5t-70 -39.5t-126 -50v-33h227v-89h-328z" />
    <glyph glyph-name="threequarters" unicode="&#xbe;" horiz-adv-x="1097" 
d="M201 215q-38 0 -79 5t-79 14l14 85q30 -6 65 -9.5t64 -3.5q27 0 43.5 1.5t28.5 3.5v73l-121 16v56l121 20v68q-10 2 -25 3t-38 1q-29 0 -64 -3t-64 -9l-14 85q38 8 79 13.5t80 5.5q160 0 160 -106q0 -36 -15.5 -62.5t-46.5 -42.5v-3q32 -13 47 -37t15 -59
q0 -39 -16 -64.5t-54 -38t-101 -12.5zM456 -15q-7 -12 -14.5 -18.5t-28.5 -6.5h-44l262 680q7 12 14.5 18.5t28.5 6.5h44zM890 76h-227v63l136 267h197v-241h47v-89h-47v-76h-106v76zM778 165h112v160h-24z" />
    <glyph glyph-name="questiondown" unicode="&#xbf;" horiz-adv-x="502" 
d="M368 287l14 -141q0 -19 -13.5 -29.5t-51.5 -21.5l-93 -29v-59q16 -2 33 -3.5t37 -1.5q37 0 78 6t70 14l24 -121q-53 -16 -104 -24t-97 -8q-83 0 -133.5 15t-73 48.5t-22.5 88.5q0 35 9.5 61t33 45.5t65 37t104.5 35.5l6 87h114zM399 430q0 -47 -16.5 -67.5t-70.5 -20.5
q-53 0 -70 20.5t-17 67.5q0 46 17 65.5t70 19.5q54 0 70.5 -19.5t16.5 -65.5z" />
    <glyph glyph-name="Agrave" unicode="&#xc0;" horiz-adv-x="619" 
d="M7 0l166 625h273l166 -625h-176l-122 457h-9l-122 -457h-176zM118 109v129h383v-129h-383zM410 668l-165 35q-15 3 -25 11l-36 30q-10 10 -10 17q0 6 9 16l58 69q8 9 15 9q6 0 11 -4l180 -132z" />
    <glyph glyph-name="Aacute" unicode="&#xc1;" horiz-adv-x="619" 
d="M7 0l166 625h273l166 -625h-176l-122 457h-9l-122 -457h-176zM118 109v129h383v-129h-383zM239 670l-36 51l180 133q5 4 10 4q7 0 16 -10l58 -69q8 -10 8 -16q0 -7 -10 -16l-35 -30q-6 -5 -11 -7.5t-14 -4.5z" />
    <glyph glyph-name="Acircumflex" unicode="&#xc2;" horiz-adv-x="619" 
d="M7 0l166 625h273l166 -625h-176l-122 457h-9l-122 -457h-176zM118 109v129h383v-129h-383zM219 667l-46 45l102 130q6 9 15 9h40q9 0 15 -9l102 -130l-46 -45l-91 70z" />
    <glyph glyph-name="Atilde" unicode="&#xc3;" horiz-adv-x="619" 
d="M7 0l166 625h273l166 -625h-176l-122 457h-9l-122 -457h-176zM118 109v129h383v-129h-383zM324 673q-12 0 -22.5 4t-22 13.5t-27.5 27.5l-78 -39l-39 65q57 41 87.5 61t46 27t27.5 7q13 0 23.5 -4t21.5 -13.5t27 -27.5l78 38l39 -65q-56 -39 -86.5 -59.5t-46 -27.5
t-28.5 -7z" />
    <glyph glyph-name="Adieresis" unicode="&#xc4;" horiz-adv-x="619" 
d="M7 0l166 625h273l166 -625h-176l-122 457h-9l-122 -457h-176zM118 109v129h383v-129h-383zM412 683q-48 0 -62.5 17t-14.5 59q0 41 14.5 59t62.5 18q46 0 61 -18t15 -59q0 -42 -15 -59t-61 -17zM209 683q-48 0 -62.5 17t-14.5 59q0 41 14.5 59t62.5 18q46 0 61 -18
t15 -59q0 -42 -15 -59t-61 -17z" />
    <glyph glyph-name="Aring" unicode="&#xc5;" horiz-adv-x="619" 
d="M7 0l166 625h273l166 -625h-176l-122 457h-9l-122 -457h-176zM118 109v129h383v-129h-383zM310 655q-61 0 -86.5 28t-25.5 84q0 55 25.5 83t86.5 28q60 0 85.5 -28t25.5 -83q0 -56 -25.5 -84t-85.5 -28zM271 724h34q19 0 30.5 3.5t11.5 22.5v59h-31q-20 0 -32.5 -3.5
t-12.5 -21.5v-60z" />
    <glyph glyph-name="AE" unicode="&#xc6;" horiz-adv-x="819" 
d="M7 0l162 625h564l-22 -143h-225l29 -108h178v-131h-144l25 -100h210v-143h-358l-26 108h-181l-26 -108h-186zM251 251h116l-48 206h-19z" />
    <glyph glyph-name="Ccedilla" unicode="&#xc7;" horiz-adv-x="505" 
d="M484 11q-38 -13 -81 -19.5t-101 -6.5q-76 0 -127 16.5t-81 53.5t-43 100t-13 157t14 157.5t46 101t86 53.5t135 16q27 0 58.5 -3.5t59.5 -9t44 -12.5l-22 -140q-21 6 -46 10t-48 6.5t-40 2.5q-55 0 -76.5 -14t-21.5 -57v-279q23 -5 45 -7.5t44 -2.5q41 0 82 6.5t72 17.5z
M254 -177q-51 0 -96 18l10 79h26q26 0 34.5 7t8.5 32v62h51q32 -13 53 -42t21 -62q0 -43 -29.5 -68.5t-78.5 -25.5z" />
    <glyph glyph-name="Egrave" unicode="&#xc8;" horiz-adv-x="519" 
d="M236 248v-103h244v-145h-420v625h423l-22 -145h-225v-103h208v-129h-208zM376 668l-165 35q-15 3 -25 11l-36 30q-10 10 -10 17q0 6 9 16l58 69q8 9 15 9q6 0 11 -4l180 -132z" />
    <glyph glyph-name="Eacute" unicode="&#xc9;" horiz-adv-x="519" 
d="M236 248v-103h244v-145h-420v625h423l-22 -145h-225v-103h208v-129h-208zM205 670l-36 51l180 133q5 4 10 4q7 0 16 -10l58 -69q8 -10 8 -16q0 -7 -10 -16l-35 -30q-6 -5 -11 -7.5t-14 -4.5z" />
    <glyph glyph-name="Ecircumflex" unicode="&#xca;" horiz-adv-x="519" 
d="M236 248v-103h244v-145h-420v625h423l-22 -145h-225v-103h208v-129h-208zM185 667l-46 45l102 130q6 9 15 9h40q9 0 15 -9l102 -130l-46 -45l-91 70z" />
    <glyph glyph-name="Edieresis" unicode="&#xcb;" horiz-adv-x="519" 
d="M236 248v-103h244v-145h-420v625h423l-22 -145h-225v-103h208v-129h-208zM379 683q-48 0 -62.5 17t-14.5 59q0 41 14.5 59t62.5 18q46 0 61 -18t15 -59q0 -42 -15 -59t-61 -17zM176 683q-48 0 -62.5 17t-14.5 59q0 41 14.5 59t62.5 18q46 0 61 -18t15 -59q0 -42 -15 -59
t-61 -17z" />
    <glyph glyph-name="Igrave" unicode="&#xcc;" horiz-adv-x="295" 
d="M60 625h176v-625h-176v625zM247 668l-165 35q-15 3 -25 11l-36 30q-10 10 -10 17q0 6 9 16l58 69q8 9 15 9q6 0 11 -4l180 -132z" />
    <glyph glyph-name="Iacute" unicode="&#xcd;" horiz-adv-x="295" 
d="M60 625h176v-625h-176v625zM76 670l-36 51l180 133q5 4 10 4q7 0 16 -10l58 -69q8 -10 8 -16q0 -7 -10 -16l-35 -30q-6 -5 -11 -7.5t-14 -4.5z" />
    <glyph glyph-name="Icircumflex" unicode="&#xce;" horiz-adv-x="295" 
d="M60 625h176v-625h-176v625zM57 667l-46 45l102 130q6 9 15 9h40q9 0 15 -9l102 -130l-46 -45l-91 70z" />
    <glyph glyph-name="Idieresis" unicode="&#xcf;" horiz-adv-x="295" 
d="M60 625h176v-625h-176v625zM250 683q-48 0 -62.5 17t-14.5 59q0 41 14.5 59t62.5 18q46 0 61 -18t15 -59q0 -42 -15 -59t-61 -17zM47 683q-48 0 -62.5 17t-14.5 59q0 41 14.5 59t62.5 18q46 0 61 -18t15 -59q0 -42 -15 -59t-61 -17z" />
    <glyph glyph-name="Eth" unicode="&#xd0;" horiz-adv-x="648" 
d="M60 625h265q85 0 139.5 -14.5t86.5 -49t45 -95.5t13 -154q0 -92 -13 -153t-45 -96t-86.5 -49t-139.5 -14h-265v625zM236 487v-349h106q44 0 61 14.5t17 51.5v217q0 37 -17 51.5t-61 14.5h-106zM7 321q0 31 11.5 42.5t42.5 11.5h267v-69q0 -31 -11.5 -42.5t-42.5 -11.5
h-267v69z" />
    <glyph glyph-name="Ntilde" unicode="&#xd1;" horiz-adv-x="672" 
d="M65 0v625h173l162 -260q14 -23 19.5 -38.5t5.5 -30.5h6v329h176v-625h-174l-161 260q-14 24 -19.5 39.5t-5.5 29.5h-6v-329h-176zM353 673q-12 0 -22.5 4t-22 13.5t-27.5 27.5l-78 -39l-39 65q57 41 87.5 61t46 27t27.5 7q13 0 23.5 -4t21.5 -13.5t27 -27.5l78 38l39 -65
q-56 -39 -86.5 -59.5t-46 -27.5t-28.5 -7z" />
    <glyph glyph-name="Ograve" unicode="&#xd2;" horiz-adv-x="654" 
d="M38 312q0 95 14 158.5t47 100.5t89 53t139 16t139.5 -16t89 -53t46.5 -100.5t14 -158.5t-14 -158t-46.5 -100t-89 -53t-139.5 -16t-139 16t-89 53t-47 100t-14 158zM227 135h119q46 0 63.5 13t17.5 45v297h-120q-45 0 -62.5 -13t-17.5 -45v-297zM427 668l-165 35
q-15 3 -25 11l-36 30q-10 10 -10 17q0 6 9 16l58 69q8 9 15 9q6 0 11 -4l180 -132z" />
    <glyph glyph-name="Oacute" unicode="&#xd3;" horiz-adv-x="654" 
d="M38 312q0 95 14 158.5t47 100.5t89 53t139 16t139.5 -16t89 -53t46.5 -100.5t14 -158.5t-14 -158t-46.5 -100t-89 -53t-139.5 -16t-139 16t-89 53t-47 100t-14 158zM227 135h119q46 0 63.5 13t17.5 45v297h-120q-45 0 -62.5 -13t-17.5 -45v-297zM256 670l-36 51l180 133
q5 4 10 4q7 0 16 -10l58 -69q8 -10 8 -16q0 -7 -10 -16l-35 -30q-6 -5 -11 -7.5t-14 -4.5z" />
    <glyph glyph-name="Ocircumflex" unicode="&#xd4;" horiz-adv-x="654" 
d="M38 312q0 95 14 158.5t47 100.5t89 53t139 16t139.5 -16t89 -53t46.5 -100.5t14 -158.5t-14 -158t-46.5 -100t-89 -53t-139.5 -16t-139 16t-89 53t-47 100t-14 158zM227 135h119q46 0 63.5 13t17.5 45v297h-120q-45 0 -62.5 -13t-17.5 -45v-297zM236 667l-46 45l102 130
q6 9 15 9h40q9 0 15 -9l102 -130l-46 -45l-91 70z" />
    <glyph glyph-name="Otilde" unicode="&#xd5;" horiz-adv-x="654" 
d="M38 312q0 95 14 158.5t47 100.5t89 53t139 16t139.5 -16t89 -53t46.5 -100.5t14 -158.5t-14 -158t-46.5 -100t-89 -53t-139.5 -16t-139 16t-89 53t-47 100t-14 158zM227 135h119q46 0 63.5 13t17.5 45v297h-120q-45 0 -62.5 -13t-17.5 -45v-297zM341 673q-12 0 -22.5 4
t-22 13.5t-27.5 27.5l-78 -39l-39 65q57 41 87.5 61t46 27t27.5 7q13 0 23.5 -4t21.5 -13.5t27 -27.5l78 38l39 -65q-56 -39 -86.5 -59.5t-46 -27.5t-28.5 -7z" />
    <glyph glyph-name="Odieresis" unicode="&#xd6;" horiz-adv-x="654" 
d="M38 312q0 95 14 158.5t47 100.5t89 53t139 16t139.5 -16t89 -53t46.5 -100.5t14 -158.5t-14 -158t-46.5 -100t-89 -53t-139.5 -16t-139 16t-89 53t-47 100t-14 158zM227 135h119q46 0 63.5 13t17.5 45v297h-120q-45 0 -62.5 -13t-17.5 -45v-297zM429 683q-48 0 -62.5 17
t-14.5 59q0 41 14.5 59t62.5 18q46 0 61 -18t15 -59q0 -42 -15 -59t-61 -17zM226 683q-48 0 -62.5 17t-14.5 59q0 41 14.5 59t62.5 18q46 0 61 -18t15 -59q0 -42 -15 -59t-61 -17z" />
    <glyph glyph-name="multiply" unicode="&#xd7;" horiz-adv-x="530" 
d="M56 192l329 329l89 -89l-329 -329zM385 103l-329 329l89 89l329 -329z" />
    <glyph glyph-name="Oslash" unicode="&#xd8;" horiz-adv-x="654" 
d="M214 -47q-7 -17 -16.5 -22.5t-26.5 -5.5h-46l315 748q7 17 16.5 22.5t26.5 5.5h46zM38 312q0 95 14 158.5t47 100.5t89 53t139 16t139.5 -16t89 -53t46.5 -100.5t14 -158.5t-14 -158t-46.5 -100t-89 -53t-139.5 -16t-139 16t-89 53t-47 100t-14 158zM227 135h119
q46 0 63.5 13t17.5 45v297h-120q-45 0 -62.5 -13t-17.5 -45v-297z" />
    <glyph glyph-name="Ugrave" unicode="&#xd9;" horiz-adv-x="635" 
d="M317 -15q-80 0 -132 11t-81.5 37t-41.5 72.5t-12 117.5v402h176v-490h95q36 0 55 4.5t26 16t7 32.5v437h176v-402q0 -70 -12 -116.5t-42 -73t-82 -37.5t-132 -11zM418 668l-165 35q-15 3 -25 11l-36 30q-10 10 -10 17q0 6 9 16l58 69q8 9 15 9q6 0 11 -4l180 -132z" />
    <glyph glyph-name="Uacute" unicode="&#xda;" horiz-adv-x="635" 
d="M317 -15q-80 0 -132 11t-81.5 37t-41.5 72.5t-12 117.5v402h176v-490h95q36 0 55 4.5t26 16t7 32.5v437h176v-402q0 -70 -12 -116.5t-42 -73t-82 -37.5t-132 -11zM247 670l-36 51l180 133q5 4 10 4q7 0 16 -10l58 -69q8 -10 8 -16q0 -7 -10 -16l-35 -30q-6 -5 -11 -7.5
t-14 -4.5z" />
    <glyph glyph-name="Ucircumflex" unicode="&#xdb;" horiz-adv-x="635" 
d="M317 -15q-80 0 -132 11t-81.5 37t-41.5 72.5t-12 117.5v402h176v-490h95q36 0 55 4.5t26 16t7 32.5v437h176v-402q0 -70 -12 -116.5t-42 -73t-82 -37.5t-132 -11zM227 667l-46 45l102 130q6 9 15 9h40q9 0 15 -9l102 -130l-46 -45l-91 70z" />
    <glyph glyph-name="Udieresis" unicode="&#xdc;" horiz-adv-x="635" 
d="M317 -15q-80 0 -132 11t-81.5 37t-41.5 72.5t-12 117.5v402h176v-490h95q36 0 55 4.5t26 16t7 32.5v437h176v-402q0 -70 -12 -116.5t-42 -73t-82 -37.5t-132 -11zM421 683q-48 0 -62.5 17t-14.5 59q0 41 14.5 59t62.5 18q46 0 61 -18t15 -59q0 -42 -15 -59t-61 -17z
M218 683q-48 0 -62.5 17t-14.5 59q0 41 14.5 59t62.5 18q46 0 61 -18t15 -59q0 -42 -15 -59t-61 -17z" />
    <glyph glyph-name="Yacute" unicode="&#xdd;" horiz-adv-x="558" 
d="M247 305l121 320h184l-185 -421v-204h-176v204l-185 421h185l121 -320h-65zM208 670l-36 51l180 133q5 4 10 4q7 0 16 -10l58 -69q8 -10 8 -16q0 -7 -10 -16l-35 -30q-6 -5 -11 -7.5t-14 -4.5z" />
    <glyph glyph-name="Thorn" unicode="&#xde;" horiz-adv-x="576" 
d="M335 543q80 0 129.5 -22.5t72 -72.5t22.5 -131q0 -121 -50.5 -178t-158.5 -57h-114v-82h-176v625h176v-82h99zM375 254v118q0 24 -10.5 33t-36.5 9h-92v-202h92q26 0 36.5 9t10.5 33z" />
    <glyph glyph-name="germandbls" unicode="&#xdf;" horiz-adv-x="672" 
d="M441 -15q-43 0 -83 4.5t-60 11.5l23 129q29 -7 53.5 -10.5t44.5 -3.5q22 0 32.5 1t14.5 3v76q-48 17 -78 30.5t-46 26.5t-22 28.5t-6 37.5q0 24 12 45t27.5 39.5t27.5 38t12 41.5q0 31 -20 46t-62 15q-13 0 -24 -1t-21 -4v-539h-176v385h-55v115h55q8 66 33.5 104
t76.5 54.5t133 16.5q115 0 175.5 -40.5t60.5 -117.5q0 -28 -8 -55t-26 -56t-49 -67q59 -25 93 -52t48.5 -60t14.5 -80q0 -81 -50 -121.5t-151 -40.5z" />
    <glyph glyph-name="agrave" unicode="&#xe0;" horiz-adv-x="560" 
d="M202 -14q-89 0 -129.5 39.5t-40.5 125.5q0 47 13.5 78.5t44 50.5t83 27t130.5 8h57v-92h-94q-41 0 -56.5 -9.5t-15.5 -35.5v-71h64q41 0 56.5 9t15.5 34v228q-21 6 -63 6q-43 0 -90.5 -6t-100.5 -20l-21 123q35 11 73 18.5t78.5 11t80.5 3.5q77 0 125 -17.5t71 -54
t23 -95.5v-347h-87l-45 50q-37 -31 -80.5 -47.5t-91.5 -16.5zM386 543l-165 35q-15 3 -25 11l-36 30q-10 10 -10 17q0 6 9 16l58 69q8 9 15 9q6 0 11 -4l180 -132z" />
    <glyph glyph-name="aacute" unicode="&#xe1;" horiz-adv-x="560" 
d="M202 -14q-89 0 -129.5 39.5t-40.5 125.5q0 47 13.5 78.5t44 50.5t83 27t130.5 8h57v-92h-94q-41 0 -56.5 -9.5t-15.5 -35.5v-71h64q41 0 56.5 9t15.5 34v228q-21 6 -63 6q-43 0 -90.5 -6t-100.5 -20l-21 123q35 11 73 18.5t78.5 11t80.5 3.5q77 0 125 -17.5t71 -54
t23 -95.5v-347h-87l-45 50q-37 -31 -80.5 -47.5t-91.5 -16.5zM215 545l-36 51l180 133q5 4 10 4q7 0 16 -10l58 -69q8 -10 8 -16q0 -7 -10 -16l-35 -30q-6 -5 -11 -7.5t-14 -4.5z" />
    <glyph glyph-name="acircumflex" unicode="&#xe2;" horiz-adv-x="560" 
d="M202 -14q-89 0 -129.5 39.5t-40.5 125.5q0 47 13.5 78.5t44 50.5t83 27t130.5 8h57v-92h-94q-41 0 -56.5 -9.5t-15.5 -35.5v-71h64q41 0 56.5 9t15.5 34v228q-21 6 -63 6q-43 0 -90.5 -6t-100.5 -20l-21 123q35 11 73 18.5t78.5 11t80.5 3.5q77 0 125 -17.5t71 -54
t23 -95.5v-347h-87l-45 50q-37 -31 -80.5 -47.5t-91.5 -16.5zM196 542l-46 45l102 130q6 9 15 9h40q9 0 15 -9l102 -130l-46 -45l-91 70z" />
    <glyph glyph-name="atilde" unicode="&#xe3;" horiz-adv-x="560" 
d="M202 -14q-89 0 -129.5 39.5t-40.5 125.5q0 47 13.5 78.5t44 50.5t83 27t130.5 8h57v-92h-94q-41 0 -56.5 -9.5t-15.5 -35.5v-71h64q41 0 56.5 9t15.5 34v228q-21 6 -63 6q-43 0 -90.5 -6t-100.5 -20l-21 123q35 11 73 18.5t78.5 11t80.5 3.5q77 0 125 -17.5t71 -54
t23 -95.5v-347h-87l-45 50q-37 -31 -80.5 -47.5t-91.5 -16.5zM301 548q-12 0 -22.5 4t-22 13.5t-27.5 27.5l-78 -39l-39 65q57 41 87.5 61t46 27t27.5 7q13 0 23.5 -4t21.5 -13.5t27 -27.5l78 38l39 -65q-56 -39 -86.5 -59.5t-46 -27.5t-28.5 -7z" />
    <glyph glyph-name="adieresis" unicode="&#xe4;" horiz-adv-x="560" 
d="M202 -14q-89 0 -129.5 39.5t-40.5 125.5q0 47 13.5 78.5t44 50.5t83 27t130.5 8h57v-92h-94q-41 0 -56.5 -9.5t-15.5 -35.5v-71h64q41 0 56.5 9t15.5 34v228q-21 6 -63 6q-43 0 -90.5 -6t-100.5 -20l-21 123q35 11 73 18.5t78.5 11t80.5 3.5q77 0 125 -17.5t71 -54
t23 -95.5v-347h-87l-45 50q-37 -31 -80.5 -47.5t-91.5 -16.5zM389 558q-48 0 -62.5 17t-14.5 59q0 41 14.5 59t62.5 18q46 0 61 -18t15 -59q0 -42 -15 -59t-61 -17zM186 558q-48 0 -62.5 17t-14.5 59q0 41 14.5 59t62.5 18q46 0 61 -18t15 -59q0 -42 -15 -59t-61 -17z" />
    <glyph glyph-name="aring" unicode="&#xe5;" horiz-adv-x="560" 
d="M202 -14q-89 0 -129.5 39.5t-40.5 125.5q0 47 13.5 78.5t44 50.5t83 27t130.5 8h57v-92h-94q-41 0 -56.5 -9.5t-15.5 -35.5v-71h64q41 0 56.5 9t15.5 34v228q-21 6 -63 6q-43 0 -90.5 -6t-100.5 -20l-21 123q35 11 73 18.5t78.5 11t80.5 3.5q77 0 125 -17.5t71 -54
t23 -95.5v-347h-87l-45 50q-37 -31 -80.5 -47.5t-91.5 -16.5zM287 530q-61 0 -86.5 28t-25.5 84q0 55 25.5 83t86.5 28q60 0 85.5 -28t25.5 -83q0 -56 -25.5 -84t-85.5 -28zM248 599h34q19 0 30.5 3.5t11.5 22.5v59h-31q-20 0 -32.5 -3.5t-12.5 -21.5v-60z" />
    <glyph glyph-name="ae" unicode="&#xe6;" horiz-adv-x="843" 
d="M202 -14q-89 0 -129.5 39.5t-40.5 125.5q0 47 13.5 78.5t44 50.5t83 27t130.5 8h57v-92h-94q-41 0 -56.5 -9.5t-15.5 -35.5v-71h64q41 0 56.5 9t15.5 34v228q-21 6 -63 6q-43 0 -90.5 -6t-100.5 -20l-21 123q35 11 73 18.5t78.5 11t80.5 3.5q77 0 125 -17.5t71 -54
t23 -95.5v-297l-130 2q-37 -32 -81.5 -49t-92.5 -17zM565 -14q-80 0 -130.5 21.5t-79.5 67.5l31 385q29 27 74 40.5t109 13.5q88 0 137.5 -15t69.5 -51t20 -99q0 -47 -14.5 -78.5t-47.5 -50.5t-89 -27t-139 -8h-30v92h89q41 0 56.5 9.5t15.5 35.5v62h-59q-41 0 -56.5 -9
t-15.5 -34v-219q16 -3 35 -4.5t44 -1.5q43 0 86 6.5t91 19.5l21 -123q-51 -16 -106 -24.5t-112 -8.5z" />
    <glyph glyph-name="ccedilla" unicode="&#xe7;" horiz-adv-x="450" 
d="M254 -14q-58 0 -99 14.5t-67 46.5t-38.5 82t-12.5 121t12.5 121.5t38.5 82t67 46t99 14.5q29 0 61.5 -3t61.5 -7t46 -10l-16 -124q-26 8 -52.5 11t-56.5 3q-40 0 -56 -17t-16 -59v-186q20 -6 63 -6q34 0 65 6.5t63 19.5l16 -123q-40 -16 -85.5 -24.5t-93.5 -8.5z
M225 -177q-51 0 -96 18l10 79h26q26 0 34.5 7t8.5 32v62h51q32 -13 53 -42t21 -62q0 -43 -29.5 -68.5t-78.5 -25.5z" />
    <glyph glyph-name="egrave" unicode="&#xe8;" horiz-adv-x="563" 
d="M285 -14q-65 0 -112 15t-77 47t-44.5 82t-14.5 120q0 94 26.5 152t82 85t143.5 27t137 -15t69.5 -51t20.5 -99q0 -47 -14.5 -78.5t-47.5 -50.5t-89 -27t-139 -8h-30v92h89q41 0 56.5 9.5t15.5 35.5v62h-59q-41 0 -56.5 -9t-15.5 -34v-219q14 -3 32.5 -4.5t46.5 -1.5
q42 0 85 6.5t91 19.5l22 -123q-49 -16 -104 -24.5t-114 -8.5zM389 543l-165 35q-15 3 -25 11l-36 30q-10 10 -10 17q0 6 9 16l58 69q8 9 15 9q6 0 11 -4l180 -132z" />
    <glyph glyph-name="eacute" unicode="&#xe9;" horiz-adv-x="563" 
d="M285 -14q-65 0 -112 15t-77 47t-44.5 82t-14.5 120q0 94 26.5 152t82 85t143.5 27t137 -15t69.5 -51t20.5 -99q0 -47 -14.5 -78.5t-47.5 -50.5t-89 -27t-139 -8h-30v92h89q41 0 56.5 9.5t15.5 35.5v62h-59q-41 0 -56.5 -9t-15.5 -34v-219q14 -3 32.5 -4.5t46.5 -1.5
q42 0 85 6.5t91 19.5l22 -123q-49 -16 -104 -24.5t-114 -8.5zM218 545l-36 51l180 133q5 4 10 4q7 0 16 -10l58 -69q8 -10 8 -16q0 -7 -10 -16l-35 -30q-6 -5 -11 -7.5t-14 -4.5z" />
    <glyph glyph-name="ecircumflex" unicode="&#xea;" horiz-adv-x="563" 
d="M285 -14q-65 0 -112 15t-77 47t-44.5 82t-14.5 120q0 94 26.5 152t82 85t143.5 27t137 -15t69.5 -51t20.5 -99q0 -47 -14.5 -78.5t-47.5 -50.5t-89 -27t-139 -8h-30v92h89q41 0 56.5 9.5t15.5 35.5v62h-59q-41 0 -56.5 -9t-15.5 -34v-219q14 -3 32.5 -4.5t46.5 -1.5
q42 0 85 6.5t91 19.5l22 -123q-49 -16 -104 -24.5t-114 -8.5zM198 542l-46 45l102 130q6 9 15 9h40q9 0 15 -9l102 -130l-46 -45l-91 70z" />
    <glyph glyph-name="edieresis" unicode="&#xeb;" horiz-adv-x="563" 
d="M285 -14q-65 0 -112 15t-77 47t-44.5 82t-14.5 120q0 94 26.5 152t82 85t143.5 27t137 -15t69.5 -51t20.5 -99q0 -47 -14.5 -78.5t-47.5 -50.5t-89 -27t-139 -8h-30v92h89q41 0 56.5 9.5t15.5 35.5v62h-59q-41 0 -56.5 -9t-15.5 -34v-219q14 -3 32.5 -4.5t46.5 -1.5
q42 0 85 6.5t91 19.5l22 -123q-49 -16 -104 -24.5t-114 -8.5zM392 558q-48 0 -62.5 17t-14.5 59q0 41 14.5 59t62.5 18q46 0 61 -18t15 -59q0 -42 -15 -59t-61 -17zM189 558q-48 0 -62.5 17t-14.5 59q0 41 14.5 59t62.5 18q46 0 61 -18t15 -59q0 -42 -15 -59t-61 -17z" />
    <glyph glyph-name="igrave" unicode="&#xec;" horiz-adv-x="295" 
d="M60 479l176 23v-502h-176v479zM247 543l-165 35q-15 3 -25 11l-36 30q-10 10 -10 17q0 6 9 16l58 69q8 9 15 9q6 0 11 -4l180 -132z" />
    <glyph glyph-name="iacute" unicode="&#xed;" horiz-adv-x="295" 
d="M60 479l176 23v-502h-176v479zM76 545l-36 51l180 133q5 4 10 4q7 0 16 -10l58 -69q8 -10 8 -16q0 -7 -10 -16l-35 -30q-6 -5 -11 -7.5t-14 -4.5z" />
    <glyph glyph-name="icircumflex" unicode="&#xee;" horiz-adv-x="295" 
d="M60 479l176 23v-502h-176v479zM57 542l-46 45l102 130q6 9 15 9h40q9 0 15 -9l102 -130l-46 -45l-91 70z" />
    <glyph glyph-name="idieresis" unicode="&#xef;" horiz-adv-x="295" 
d="M60 479l176 23v-502h-176v479zM250 558q-48 0 -62.5 17t-14.5 59q0 41 14.5 59t62.5 18q46 0 61 -18t15 -59q0 -42 -15 -59t-61 -17zM47 558q-48 0 -62.5 17t-14.5 59q0 41 14.5 59t62.5 18q46 0 61 -18t15 -59q0 -42 -15 -59t-61 -17z" />
    <glyph glyph-name="eth" unicode="&#xf0;" horiz-adv-x="584" 
d="M291 -14q-67 0 -115 13t-78.5 40.5t-45 71t-14.5 104.5t14.5 104.5t44.5 71t78 40.5t116 13h142l110 -134v-65q0 -69 -14.5 -118.5t-45 -80.5t-78 -45.5t-114.5 -14.5zM227 120h87q24 0 32 5.5t8 21.5v163h-86q-24 0 -32.5 -5.5t-8.5 -21.5v-163zM372 310q0 89 -30.5 180
t-85.5 168l161 45q36 -48 64.5 -115t45 -139.5t16.5 -138.5h-171zM259 478l-13 36q-8 25 -8 41q0 20 24 28l271 90l13 -37q8 -25 8 -40q0 -20 -24 -29z" />
    <glyph glyph-name="ntilde" unicode="&#xf1;" horiz-adv-x="590" 
d="M60 0v500h87l44 -50q43 32 92 48t105 16q71 0 109.5 -28.5t38.5 -79.5v-406h-176v369h-74q-28 0 -39 -8t-11 -27v-334h-176zM320 548q-12 0 -22.5 4t-22 13.5t-27.5 27.5l-78 -39l-39 65q57 41 87.5 61t46 27t27.5 7q13 0 23.5 -4t21.5 -13.5t27 -27.5l78 38l39 -65
q-56 -39 -86.5 -59.5t-46 -27.5t-28.5 -7z" />
    <glyph glyph-name="ograve" unicode="&#xf2;" horiz-adv-x="581" 
d="M291 -14q-68 0 -116 15t-78.5 46.5t-45 82t-14.5 120.5q0 71 14.5 121.5t45 82t78.5 46t116 14.5t116 -14.5t78.5 -46t44.5 -82t14 -121.5q0 -70 -14 -120.5t-44.5 -82t-78.5 -46.5t-116 -15zM226 120h89q24 0 32.5 5.5t8.5 21.5v233h-89q-24 0 -32.5 -5.5t-8.5 -21.5
v-233zM390 543l-165 35q-15 3 -25 11l-36 30q-10 10 -10 17q0 6 9 16l58 69q8 9 15 9q6 0 11 -4l180 -132z" />
    <glyph glyph-name="oacute" unicode="&#xf3;" horiz-adv-x="581" 
d="M291 -14q-68 0 -116 15t-78.5 46.5t-45 82t-14.5 120.5q0 71 14.5 121.5t45 82t78.5 46t116 14.5t116 -14.5t78.5 -46t44.5 -82t14 -121.5q0 -70 -14 -120.5t-44.5 -82t-78.5 -46.5t-116 -15zM226 120h89q24 0 32.5 5.5t8.5 21.5v233h-89q-24 0 -32.5 -5.5t-8.5 -21.5
v-233zM219 545l-36 51l180 133q5 4 10 4q7 0 16 -10l58 -69q8 -10 8 -16q0 -7 -10 -16l-35 -30q-6 -5 -11 -7.5t-14 -4.5z" />
    <glyph glyph-name="ocircumflex" unicode="&#xf4;" horiz-adv-x="581" 
d="M291 -14q-68 0 -116 15t-78.5 46.5t-45 82t-14.5 120.5q0 71 14.5 121.5t45 82t78.5 46t116 14.5t116 -14.5t78.5 -46t44.5 -82t14 -121.5q0 -70 -14 -120.5t-44.5 -82t-78.5 -46.5t-116 -15zM226 120h89q24 0 32.5 5.5t8.5 21.5v233h-89q-24 0 -32.5 -5.5t-8.5 -21.5
v-233zM200 542l-46 45l102 130q6 9 15 9h40q9 0 15 -9l102 -130l-46 -45l-91 70z" />
    <glyph glyph-name="otilde" unicode="&#xf5;" horiz-adv-x="581" 
d="M291 -14q-68 0 -116 15t-78.5 46.5t-45 82t-14.5 120.5q0 71 14.5 121.5t45 82t78.5 46t116 14.5t116 -14.5t78.5 -46t44.5 -82t14 -121.5q0 -70 -14 -120.5t-44.5 -82t-78.5 -46.5t-116 -15zM226 120h89q24 0 32.5 5.5t8.5 21.5v233h-89q-24 0 -32.5 -5.5t-8.5 -21.5
v-233zM305 548q-12 0 -22.5 4t-22 13.5t-27.5 27.5l-78 -39l-39 65q57 41 87.5 61t46 27t27.5 7q13 0 23.5 -4t21.5 -13.5t27 -27.5l78 38l39 -65q-56 -39 -86.5 -59.5t-46 -27.5t-28.5 -7z" />
    <glyph glyph-name="odieresis" unicode="&#xf6;" horiz-adv-x="581" 
d="M291 -14q-68 0 -116 15t-78.5 46.5t-45 82t-14.5 120.5q0 71 14.5 121.5t45 82t78.5 46t116 14.5t116 -14.5t78.5 -46t44.5 -82t14 -121.5q0 -70 -14 -120.5t-44.5 -82t-78.5 -46.5t-116 -15zM226 120h89q24 0 32.5 5.5t8.5 21.5v233h-89q-24 0 -32.5 -5.5t-8.5 -21.5
v-233zM393 558q-48 0 -62.5 17t-14.5 59q0 41 14.5 59t62.5 18q46 0 61 -18t15 -59q0 -42 -15 -59t-61 -17zM190 558q-48 0 -62.5 17t-14.5 59q0 41 14.5 59t62.5 18q46 0 61 -18t15 -59q0 -42 -15 -59t-61 -17z" />
    <glyph glyph-name="divide" unicode="&#xf7;" horiz-adv-x="530" 
d="M192 115q0 39 14 56.5t59 17.5t59 -17.5t14 -56.5t-14 -55.5t-59 -16.5t-59 16.5t-14 55.5zM192 504q0 39 14 56t59 17t59 -17t14 -56t-14 -55.5t-59 -16.5t-59 16.5t-14 55.5zM57 376h416v-128h-416v128z" />
    <glyph glyph-name="oslash" unicode="&#xf8;" horiz-adv-x="581" 
d="M291 -14q-68 0 -116 15t-78.5 46.5t-45 82t-14.5 120.5q0 71 14.5 121.5t45 82t78.5 46t116 14.5t116 -14.5t78.5 -46t44.5 -82t14 -121.5q0 -70 -14 -120.5t-44.5 -82t-78.5 -46.5t-116 -15zM226 120h89q24 0 32.5 5.5t8.5 21.5v233h-89q-24 0 -32.5 -5.5t-8.5 -21.5
v-233zM178 -78q-7 -15 -16.5 -20t-26.5 -5h-46l315 680q7 15 16.5 20t26.5 5h46z" />
    <glyph glyph-name="ugrave" unicode="&#xf9;" horiz-adv-x="590" 
d="M531 500v-500h-87l-45 50q-42 -32 -92 -48t-107 -16q-75 0 -110 32.5t-35 103.5v378h176v-393h74q28 0 39 8t11 27v358h176zM395 543l-165 35q-15 3 -25 11l-36 30q-10 10 -10 17q0 6 9 16l58 69q8 9 15 9q6 0 11 -4l180 -132z" />
    <glyph glyph-name="uacute" unicode="&#xfa;" horiz-adv-x="590" 
d="M531 500v-500h-87l-45 50q-42 -32 -92 -48t-107 -16q-75 0 -110 32.5t-35 103.5v378h176v-393h74q28 0 39 8t11 27v358h176zM224 545l-36 51l180 133q5 4 10 4q7 0 16 -10l58 -69q8 -10 8 -16q0 -7 -10 -16l-35 -30q-6 -5 -11 -7.5t-14 -4.5z" />
    <glyph glyph-name="ucircumflex" unicode="&#xfb;" horiz-adv-x="590" 
d="M531 500v-500h-87l-45 50q-42 -32 -92 -48t-107 -16q-75 0 -110 32.5t-35 103.5v378h176v-393h74q28 0 39 8t11 27v358h176zM205 542l-46 45l102 130q6 9 15 9h40q9 0 15 -9l102 -130l-46 -45l-91 70z" />
    <glyph glyph-name="udieresis" unicode="&#xfc;" horiz-adv-x="590" 
d="M531 500v-500h-87l-45 50q-42 -32 -92 -48t-107 -16q-75 0 -110 32.5t-35 103.5v378h176v-393h74q28 0 39 8t11 27v358h176zM398 558q-48 0 -62.5 17t-14.5 59q0 41 14.5 59t62.5 18q46 0 61 -18t15 -59q0 -42 -15 -59t-61 -17zM195 558q-48 0 -62.5 17t-14.5 59
q0 41 14.5 59t62.5 18q46 0 61 -18t15 -59q0 -42 -15 -59t-61 -17z" />
    <glyph glyph-name="yacute" unicode="&#xfd;" horiz-adv-x="506" 
d="M121 45l-117 455h172l72 -301h10l73 301h172l-118 -455h-264zM129 -179q-28 0 -58 4t-54 11l8 93l108 13q30 4 46 12t24.5 26t16.5 50l3 15h162q-20 -84 -51.5 -133t-80 -70t-124.5 -21zM182 545l-36 51l180 133q5 4 10 4q7 0 16 -10l58 -69q8 -10 8 -16q0 -7 -10 -16
l-35 -30q-6 -5 -11 -7.5t-14 -4.5z" />
    <glyph glyph-name="thorn" unicode="&#xfe;" horiz-adv-x="589" 
d="M345 -15q-57 0 -98 14.5t-66 46t-36.5 82t-11.5 122.5t11.5 122t36.5 81.5t66 46t98 14.5q56 0 95 -14.5t64 -46t36.5 -82t11.5 -121.5t-11.5 -121.5t-36.5 -82.5t-64.5 -46.5t-94.5 -14.5zM236 119h86q24 0 32.5 5.5t8.5 21.5v234h-87q-23 0 -31.5 -5.5t-8.5 -20.5v-235
zM60 -168v818l176 15v-819z" />
    <glyph glyph-name="ydieresis" unicode="&#xff;" horiz-adv-x="506" 
d="M121 45l-117 455h172l72 -301h10l73 301h172l-118 -455h-264zM129 -179q-28 0 -58 4t-54 11l8 93l108 13q30 4 46 12t24.5 26t16.5 50l3 15h162q-20 -84 -51.5 -133t-80 -70t-124.5 -21zM355 558q-48 0 -62.5 17t-14.5 59q0 41 14.5 59t62.5 18q46 0 61 -18t15 -59
q0 -42 -15 -59t-61 -17zM152 558q-48 0 -62.5 17t-14.5 59q0 41 14.5 59t62.5 18q46 0 61 -18t15 -59q0 -42 -15 -59t-61 -17z" />
    <glyph glyph-name="Amacron" unicode="&#x100;" horiz-adv-x="619" 
d="M7 0l166 625h273l166 -625h-176l-122 457h-9l-122 -457h-176zM118 109v129h383v-129h-383zM218 697q-35 0 -43 13t-8 47v56h235q35 0 42.5 -11.5t7.5 -46.5v-58h-234z" />
    <glyph glyph-name="amacron" unicode="&#x101;" horiz-adv-x="560" 
d="M202 -14q-89 0 -129.5 39.5t-40.5 125.5q0 47 13.5 78.5t44 50.5t83 27t130.5 8h57v-92h-94q-41 0 -56.5 -9.5t-15.5 -35.5v-71h64q41 0 56.5 9t15.5 34v228q-21 6 -63 6q-43 0 -90.5 -6t-100.5 -20l-21 123q35 11 73 18.5t78.5 11t80.5 3.5q77 0 125 -17.5t71 -54
t23 -95.5v-347h-87l-45 50q-37 -31 -80.5 -47.5t-91.5 -16.5zM195 572q-35 0 -43 13t-8 47v56h235q35 0 42.5 -11.5t7.5 -46.5v-58h-234z" />
    <glyph glyph-name="Abreve" unicode="&#x102;" horiz-adv-x="619" 
d="M7 0l166 625h273l166 -625h-176l-122 457h-9l-122 -457h-176zM118 109v129h383v-129h-383zM310 679q-48 0 -88.5 32t-54.5 100l88 14q7 -22 22 -34t33 -12t33 12t22 34l88 -14q-14 -67 -54.5 -99.5t-88.5 -32.5z" />
    <glyph glyph-name="abreve" unicode="&#x103;" horiz-adv-x="560" 
d="M202 -14q-89 0 -129.5 39.5t-40.5 125.5q0 47 13.5 78.5t44 50.5t83 27t130.5 8h57v-92h-94q-41 0 -56.5 -9.5t-15.5 -35.5v-71h64q41 0 56.5 9t15.5 34v228q-21 6 -63 6q-43 0 -90.5 -6t-100.5 -20l-21 123q35 11 73 18.5t78.5 11t80.5 3.5q77 0 125 -17.5t71 -54
t23 -95.5v-347h-87l-45 50q-37 -31 -80.5 -47.5t-91.5 -16.5zM287 554q-48 0 -88.5 32t-54.5 100l88 14q7 -22 22 -34t33 -12t33 12t22 34l88 -14q-14 -67 -54.5 -99.5t-88.5 -32.5z" />
    <glyph glyph-name="Aogonek" unicode="&#x104;" horiz-adv-x="619" 
d="M7 0l166 625h273l166 -625h-176l-122 457h-9l-122 -457h-176zM118 109v129h383v-129h-383zM535 -177q-45 0 -70.5 25t-25.5 67q0 48 40.5 79t115.5 40l10 -34l-13 -2q-22 -4 -29 -11.5t-7 -25.5v-9q0 -17 6.5 -24.5t23.5 -7.5h31l12 -74q-24 -12 -46.5 -17.5t-47.5 -5.5z
" />
    <glyph glyph-name="aogonek" unicode="&#x105;" horiz-adv-x="560" 
d="M202 -14q-89 0 -129.5 39.5t-40.5 125.5q0 47 13.5 78.5t44 50.5t83 27t130.5 8h57v-92h-94q-41 0 -56.5 -9.5t-15.5 -35.5v-71h64q41 0 56.5 9t15.5 34v228q-21 6 -63 6q-43 0 -90.5 -6t-100.5 -20l-21 123q35 11 73 18.5t78.5 11t80.5 3.5q77 0 125 -17.5t71 -54
t23 -95.5v-347h-87l-45 50q-37 -31 -80.5 -47.5t-91.5 -16.5zM436 -177q-45 0 -70.5 25t-25.5 67q0 48 40.5 79t115.5 40l10 -34l-13 -2q-22 -4 -29 -11.5t-7 -25.5v-9q0 -17 6.5 -24.5t23.5 -7.5h31l12 -74q-24 -12 -46.5 -17.5t-47.5 -5.5z" />
    <glyph glyph-name="Cacute" unicode="&#x106;" horiz-adv-x="505" 
d="M484 11q-38 -13 -81 -19.5t-101 -6.5q-76 0 -127 16.5t-81 53.5t-43 100t-13 157t14 157.5t46 101t86 53.5t135 16q27 0 58.5 -3.5t59.5 -9t44 -12.5l-22 -140q-21 6 -46 10t-48 6.5t-40 2.5q-55 0 -76.5 -14t-21.5 -57v-279q23 -5 45 -7.5t44 -2.5q41 0 82 6.5t72 17.5z
M221 670l-36 51l180 133q5 4 10 4q7 0 16 -10l58 -69q8 -10 8 -16q0 -7 -10 -16l-35 -30q-6 -5 -11 -7.5t-14 -4.5z" />
    <glyph glyph-name="cacute" unicode="&#x107;" horiz-adv-x="450" 
d="M254 -14q-58 0 -99 14.5t-67 46.5t-38.5 82t-12.5 121t12.5 121.5t38.5 82t67 46t99 14.5q29 0 61.5 -3t61.5 -7t46 -10l-16 -124q-26 8 -52.5 11t-56.5 3q-40 0 -56 -17t-16 -59v-186q20 -6 63 -6q34 0 65 6.5t63 19.5l16 -123q-40 -16 -85.5 -24.5t-93.5 -8.5zM174 545
l-36 51l180 133q5 4 10 4q7 0 16 -10l58 -69q8 -10 8 -16q0 -7 -10 -16l-35 -30q-6 -5 -11 -7.5t-14 -4.5z" />
    <glyph glyph-name="Ccircumflex" unicode="&#x108;" horiz-adv-x="505" 
d="M484 11q-38 -13 -81 -19.5t-101 -6.5q-76 0 -127 16.5t-81 53.5t-43 100t-13 157t14 157.5t46 101t86 53.5t135 16q27 0 58.5 -3.5t59.5 -9t44 -12.5l-22 -140q-21 6 -46 10t-48 6.5t-40 2.5q-55 0 -76.5 -14t-21.5 -57v-279q23 -5 45 -7.5t44 -2.5q41 0 82 6.5t72 17.5z
M202 667l-46 45l102 130q6 9 15 9h40q9 0 15 -9l102 -130l-46 -45l-91 70z" />
    <glyph glyph-name="ccircumflex" unicode="&#x109;" horiz-adv-x="450" 
d="M254 -14q-58 0 -99 14.5t-67 46.5t-38.5 82t-12.5 121t12.5 121.5t38.5 82t67 46t99 14.5q29 0 61.5 -3t61.5 -7t46 -10l-16 -124q-26 8 -52.5 11t-56.5 3q-40 0 -56 -17t-16 -59v-186q20 -6 63 -6q34 0 65 6.5t63 19.5l16 -123q-40 -16 -85.5 -24.5t-93.5 -8.5zM154 542
l-46 45l102 130q6 9 15 9h40q9 0 15 -9l102 -130l-46 -45l-91 70z" />
    <glyph glyph-name="Cdotaccent" unicode="&#x10a;" horiz-adv-x="505" 
d="M484 11q-38 -13 -81 -19.5t-101 -6.5q-76 0 -127 16.5t-81 53.5t-43 100t-13 157t14 157.5t46 101t86 53.5t135 16q27 0 58.5 -3.5t59.5 -9t44 -12.5l-22 -140q-21 6 -46 10t-48 6.5t-40 2.5q-55 0 -76.5 -14t-21.5 -57v-279q23 -5 45 -7.5t44 -2.5q41 0 82 6.5t72 17.5z
M293 678q-55 0 -75.5 19.5t-20.5 74.5q0 56 20.5 76t75.5 20q54 0 74 -20t20 -76q0 -55 -19 -74.5t-75 -19.5z" />
    <glyph glyph-name="cdotaccent" unicode="&#x10b;" horiz-adv-x="450" 
d="M254 -14q-58 0 -99 14.5t-67 46.5t-38.5 82t-12.5 121t12.5 121.5t38.5 82t67 46t99 14.5q29 0 61.5 -3t61.5 -7t46 -10l-16 -124q-26 8 -52.5 11t-56.5 3q-40 0 -56 -17t-16 -59v-186q20 -6 63 -6q34 0 65 6.5t63 19.5l16 -123q-40 -16 -85.5 -24.5t-93.5 -8.5zM246 553
q-55 0 -75.5 19.5t-20.5 74.5q0 56 20.5 76t75.5 20q54 0 74 -20t20 -76q0 -55 -19 -74.5t-75 -19.5z" />
    <glyph glyph-name="Ccaron" unicode="&#x10c;" horiz-adv-x="505" 
d="M484 11q-38 -13 -81 -19.5t-101 -6.5q-76 0 -127 16.5t-81 53.5t-43 100t-13 157t14 157.5t46 101t86 53.5t135 16q27 0 58.5 -3.5t59.5 -9t44 -12.5l-22 -140q-21 6 -46 10t-48 6.5t-40 2.5q-55 0 -76.5 -14t-21.5 -57v-279q23 -5 45 -7.5t44 -2.5q41 0 82 6.5t72 17.5z
M202 851l91 -71l91 71l46 -46l-102 -130q-6 -8 -15 -8h-40q-9 0 -15 8l-102 130z" />
    <glyph glyph-name="ccaron" unicode="&#x10d;" horiz-adv-x="450" 
d="M254 -14q-58 0 -99 14.5t-67 46.5t-38.5 82t-12.5 121t12.5 121.5t38.5 82t67 46t99 14.5q29 0 61.5 -3t61.5 -7t46 -10l-16 -124q-26 8 -52.5 11t-56.5 3q-40 0 -56 -17t-16 -59v-186q20 -6 63 -6q34 0 65 6.5t63 19.5l16 -123q-40 -16 -85.5 -24.5t-93.5 -8.5zM154 726
l91 -71l91 71l46 -46l-102 -130q-6 -8 -15 -8h-40q-9 0 -15 8l-102 130z" />
    <glyph glyph-name="Dcaron" unicode="&#x10e;" horiz-adv-x="648" 
d="M60 625h265q85 0 139.5 -14.5t86.5 -49t45 -95.5t13 -154q0 -92 -13 -153t-45 -96t-86.5 -49t-139.5 -14h-265v625zM236 487v-349h106q44 0 61 14.5t17 51.5v217q0 37 -17 51.5t-61 14.5h-106zM233 851l91 -71l91 71l46 -46l-102 -130q-6 -8 -15 -8h-40q-9 0 -15 8
l-102 130z" />
    <glyph glyph-name="dcaron" unicode="&#x10f;" horiz-adv-x="736" 
d="M244 514q58 0 98.5 -15t65.5 -46t36.5 -81.5t11.5 -121.5q0 -72 -11.5 -122.5t-36.5 -82t-65.5 -46t-98.5 -14.5q-56 0 -95 14.5t-64 46.5t-36.5 82t-11.5 122q0 71 11.5 121.5t36.5 82t64 46t95 14.5zM353 380h-87q-23 0 -31.5 -5.5t-8.5 -21.5v-234h86q24 0 32.5 5.5
t8.5 21.5v234zM529 668v-668h-87l-89 127v527zM664 419l-67 20l24 102q-33 5 -46.5 20t-13.5 49q0 52 19 71t69 19q49 0 68 -19t19 -71q0 -27 -8 -51.5t-24 -60.5z" />
    <glyph glyph-name="Dcroat" unicode="&#x110;" horiz-adv-x="648" 
d="M60 625h265q85 0 139.5 -14.5t86.5 -49t45 -95.5t13 -154q0 -92 -13 -153t-45 -96t-86.5 -49t-139.5 -14h-265v625zM236 487v-349h106q44 0 61 14.5t17 51.5v217q0 37 -17 51.5t-61 14.5h-106zM7 321q0 31 11.5 42.5t42.5 11.5h267v-69q0 -31 -11.5 -42.5t-42.5 -11.5
h-267v69z" />
    <glyph glyph-name="dcroat" unicode="&#x111;" horiz-adv-x="589" 
d="M297 590q0 17 10.5 23.5t38.5 6.5h241v-38q0 -17 -11 -23t-39 -6h-240v37zM244 514q58 0 98.5 -15t65.5 -46t36.5 -81.5t11.5 -121.5q0 -72 -11.5 -122.5t-36.5 -82t-65.5 -46t-98.5 -14.5q-56 0 -95 14.5t-64 46.5t-36.5 82t-11.5 122q0 71 11.5 121.5t36.5 82t64 46
t95 14.5zM353 380h-87q-23 0 -31.5 -5.5t-8.5 -21.5v-234h86q24 0 32.5 5.5t8.5 21.5v234zM529 668v-668h-87l-89 127v527z" />
    <glyph glyph-name="Emacron" unicode="&#x112;" horiz-adv-x="519" 
d="M236 248v-103h244v-145h-420v625h423l-22 -145h-225v-103h208v-129h-208zM184 697q-35 0 -43 13t-8 47v56h235q35 0 42.5 -11.5t7.5 -46.5v-58h-234z" />
    <glyph glyph-name="emacron" unicode="&#x113;" horiz-adv-x="563" 
d="M285 -14q-65 0 -112 15t-77 47t-44.5 82t-14.5 120q0 94 26.5 152t82 85t143.5 27t137 -15t69.5 -51t20.5 -99q0 -47 -14.5 -78.5t-47.5 -50.5t-89 -27t-139 -8h-30v92h89q41 0 56.5 9.5t15.5 35.5v62h-59q-41 0 -56.5 -9t-15.5 -34v-219q14 -3 32.5 -4.5t46.5 -1.5
q42 0 85 6.5t91 19.5l22 -123q-49 -16 -104 -24.5t-114 -8.5zM197 572q-35 0 -43 13t-8 47v56h235q35 0 42.5 -11.5t7.5 -46.5v-58h-234z" />
    <glyph glyph-name="Ebreve" unicode="&#x114;" horiz-adv-x="519" 
d="M236 248v-103h244v-145h-420v625h423l-22 -145h-225v-103h208v-129h-208zM276 679q-48 0 -88.5 32t-54.5 100l88 14q7 -22 22 -34t33 -12t33 12t22 34l88 -14q-14 -67 -54.5 -99.5t-88.5 -32.5z" />
    <glyph glyph-name="ebreve" unicode="&#x115;" horiz-adv-x="563" 
d="M285 -14q-65 0 -112 15t-77 47t-44.5 82t-14.5 120q0 94 26.5 152t82 85t143.5 27t137 -15t69.5 -51t20.5 -99q0 -47 -14.5 -78.5t-47.5 -50.5t-89 -27t-139 -8h-30v92h89q41 0 56.5 9.5t15.5 35.5v62h-59q-41 0 -56.5 -9t-15.5 -34v-219q14 -3 32.5 -4.5t46.5 -1.5
q42 0 85 6.5t91 19.5l22 -123q-49 -16 -104 -24.5t-114 -8.5zM289 554q-48 0 -88.5 32t-54.5 100l88 14q7 -22 22 -34t33 -12t33 12t22 34l88 -14q-14 -67 -54.5 -99.5t-88.5 -32.5z" />
    <glyph glyph-name="Edotaccent" unicode="&#x116;" horiz-adv-x="519" 
d="M236 248v-103h244v-145h-420v625h423l-22 -145h-225v-103h208v-129h-208zM277 678q-55 0 -75.5 19.5t-20.5 74.5q0 56 20.5 76t75.5 20q54 0 74 -20t20 -76q0 -55 -19 -74.5t-75 -19.5z" />
    <glyph glyph-name="edotaccent" unicode="&#x117;" horiz-adv-x="563" 
d="M285 -14q-65 0 -112 15t-77 47t-44.5 82t-14.5 120q0 94 26.5 152t82 85t143.5 27t137 -15t69.5 -51t20.5 -99q0 -47 -14.5 -78.5t-47.5 -50.5t-89 -27t-139 -8h-30v92h89q41 0 56.5 9.5t15.5 35.5v62h-59q-41 0 -56.5 -9t-15.5 -34v-219q14 -3 32.5 -4.5t46.5 -1.5
q42 0 85 6.5t91 19.5l22 -123q-49 -16 -104 -24.5t-114 -8.5zM290 553q-55 0 -75.5 19.5t-20.5 74.5q0 56 20.5 76t75.5 20q54 0 74 -20t20 -76q0 -55 -19 -74.5t-75 -19.5z" />
    <glyph glyph-name="Eogonek" unicode="&#x118;" horiz-adv-x="519" 
d="M236 248v-103h244v-145h-420v625h423l-22 -145h-225v-103h208v-129h-208zM410 -177q-45 0 -70.5 25t-25.5 67q0 48 40.5 79t115.5 40l10 -34l-13 -2q-22 -4 -29 -11.5t-7 -25.5v-9q0 -17 6.5 -24.5t23.5 -7.5h31l12 -74q-24 -12 -46.5 -17.5t-47.5 -5.5z" />
    <glyph glyph-name="eogonek" unicode="&#x119;" horiz-adv-x="563" 
d="M285 -14q-65 0 -112 15t-77 47t-44.5 82t-14.5 120q0 94 26.5 152t82 85t143.5 27t137 -15t69.5 -51t20.5 -99q0 -47 -14.5 -78.5t-47.5 -50.5t-89 -27t-139 -8h-30v92h89q41 0 56.5 9.5t15.5 35.5v62h-59q-41 0 -56.5 -9t-15.5 -34v-219q14 -3 32.5 -4.5t46.5 -1.5
q42 0 85 6.5t91 19.5l22 -123q-49 -16 -104 -24.5t-114 -8.5zM433 -158q-45 0 -70.5 25t-25.5 67q0 48 40.5 79t115.5 40l10 -34l-13 -2q-22 -4 -29 -11.5t-7 -25.5v-9q0 -17 6.5 -24.5t23.5 -7.5h31l12 -74q-24 -12 -46.5 -17.5t-47.5 -5.5z" />
    <glyph glyph-name="Ecaron" unicode="&#x11a;" horiz-adv-x="519" 
d="M236 248v-103h244v-145h-420v625h423l-22 -145h-225v-103h208v-129h-208zM185 851l91 -71l91 71l46 -46l-102 -130q-6 -8 -15 -8h-40q-9 0 -15 8l-102 130z" />
    <glyph glyph-name="ecaron" unicode="&#x11b;" horiz-adv-x="563" 
d="M285 -14q-65 0 -112 15t-77 47t-44.5 82t-14.5 120q0 94 26.5 152t82 85t143.5 27t137 -15t69.5 -51t20.5 -99q0 -47 -14.5 -78.5t-47.5 -50.5t-89 -27t-139 -8h-30v92h89q41 0 56.5 9.5t15.5 35.5v62h-59q-41 0 -56.5 -9t-15.5 -34v-219q14 -3 32.5 -4.5t46.5 -1.5
q42 0 85 6.5t91 19.5l22 -123q-49 -16 -104 -24.5t-114 -8.5zM198 726l91 -71l91 71l46 -46l-102 -130q-6 -8 -15 -8h-40q-9 0 -15 8l-102 130z" />
    <glyph glyph-name="Gcircumflex" unicode="&#x11c;" horiz-adv-x="574" 
d="M290 -15q-74 0 -123 15t-77 51.5t-40 100t-12 160.5q0 96 13.5 159.5t45.5 100t86.5 52.5t137.5 16q31 0 68.5 -3.5t70.5 -9t51 -12.5l-22 -140q-26 6 -56 10t-58 6.5t-49 2.5q-55 0 -77 -14t-22 -57v-296h298l14 -99q-50 -23 -109 -33t-140 -10zM373 30v208h-61v129h227
v-339zM224 667l-46 45l102 130q6 9 15 9h40q9 0 15 -9l102 -130l-46 -45l-91 70z" />
    <glyph glyph-name="gcircumflex" unicode="&#x11d;" horiz-adv-x="538" 
d="M257 144q-80 0 -130.5 19t-73.5 60t-23 106q0 66 23 106.5t73.5 60t130.5 19.5q82 0 132 -19t73.5 -60t23.5 -107t-23 -106.5t-73.5 -59.5t-132.5 -19zM198 237h77q24 0 33.5 9t9.5 30v146h-78q-24 0 -33 -8.5t-9 -31.5v-145zM492 -25q0 -51 -23 -84t-72 -48.5
t-127 -15.5q-60 0 -118.5 8.5t-112.5 24.5l22 124q46 -13 89 -19.5t85 -6.5q28 0 52 2t47 4v46q-96 7 -137 18t-41 29l35 112l115 -1l-5 -59q57 -8 94 -17.5t58 -24.5t30 -37.5t9 -54.5zM438 375l-90 121l96 74l84 -81zM178 542l-46 45l102 130q6 9 15 9h40q9 0 15 -9
l102 -130l-46 -45l-91 70z" />
    <glyph glyph-name="Gbreve" unicode="&#x11e;" horiz-adv-x="574" 
d="M290 -15q-74 0 -123 15t-77 51.5t-40 100t-12 160.5q0 96 13.5 159.5t45.5 100t86.5 52.5t137.5 16q31 0 68.5 -3.5t70.5 -9t51 -12.5l-22 -140q-26 6 -56 10t-58 6.5t-49 2.5q-55 0 -77 -14t-22 -57v-296h298l14 -99q-50 -23 -109 -33t-140 -10zM373 30v208h-61v129h227
v-339zM315 679q-48 0 -88.5 32t-54.5 100l88 14q7 -22 22 -34t33 -12t33 12t22 34l88 -14q-14 -67 -54.5 -99.5t-88.5 -32.5z" />
    <glyph glyph-name="gbreve" unicode="&#x11f;" horiz-adv-x="538" 
d="M257 144q-80 0 -130.5 19t-73.5 60t-23 106q0 66 23 106.5t73.5 60t130.5 19.5q82 0 132 -19t73.5 -60t23.5 -107t-23 -106.5t-73.5 -59.5t-132.5 -19zM198 237h77q24 0 33.5 9t9.5 30v146h-78q-24 0 -33 -8.5t-9 -31.5v-145zM492 -25q0 -51 -23 -84t-72 -48.5
t-127 -15.5q-60 0 -118.5 8.5t-112.5 24.5l22 124q46 -13 89 -19.5t85 -6.5q28 0 52 2t47 4v46q-96 7 -137 18t-41 29l35 112l115 -1l-5 -59q57 -8 94 -17.5t58 -24.5t30 -37.5t9 -54.5zM438 375l-90 121l96 74l84 -81zM269 554q-48 0 -88.5 32t-54.5 100l88 14
q7 -22 22 -34t33 -12t33 12t22 34l88 -14q-14 -67 -54.5 -99.5t-88.5 -32.5z" />
    <glyph glyph-name="Gdotaccent" unicode="&#x120;" horiz-adv-x="574" 
d="M290 -15q-74 0 -123 15t-77 51.5t-40 100t-12 160.5q0 96 13.5 159.5t45.5 100t86.5 52.5t137.5 16q31 0 68.5 -3.5t70.5 -9t51 -12.5l-22 -140q-26 6 -56 10t-58 6.5t-49 2.5q-55 0 -77 -14t-22 -57v-296h298l14 -99q-50 -23 -109 -33t-140 -10zM373 30v208h-61v129h227
v-339zM315 678q-55 0 -75.5 19.5t-20.5 74.5q0 56 20.5 76t75.5 20q54 0 74 -20t20 -76q0 -55 -19 -74.5t-75 -19.5z" />
    <glyph glyph-name="gdotaccent" unicode="&#x121;" horiz-adv-x="538" 
d="M257 144q-80 0 -130.5 19t-73.5 60t-23 106q0 66 23 106.5t73.5 60t130.5 19.5q82 0 132 -19t73.5 -60t23.5 -107t-23 -106.5t-73.5 -59.5t-132.5 -19zM198 237h77q24 0 33.5 9t9.5 30v146h-78q-24 0 -33 -8.5t-9 -31.5v-145zM492 -25q0 -51 -23 -84t-72 -48.5
t-127 -15.5q-60 0 -118.5 8.5t-112.5 24.5l22 124q46 -13 89 -19.5t85 -6.5q28 0 52 2t47 4v46q-96 7 -137 18t-41 29l35 112l115 -1l-5 -59q57 -8 94 -17.5t58 -24.5t30 -37.5t9 -54.5zM438 375l-90 121l96 74l84 -81zM269 553q-55 0 -75.5 19.5t-20.5 74.5q0 56 20.5 76
t75.5 20q54 0 74 -20t20 -76q0 -55 -19 -74.5t-75 -19.5z" />
    <glyph glyph-name="uni0122" unicode="&#x122;" horiz-adv-x="574" 
d="M290 -15q-74 0 -123 15t-77 51.5t-40 100t-12 160.5q0 96 13.5 159.5t45.5 100t86.5 52.5t137.5 16q31 0 68.5 -3.5t70.5 -9t51 -12.5l-22 -140q-26 6 -56 10t-58 6.5t-49 2.5q-55 0 -77 -14t-22 -57v-296h298l14 -99q-50 -23 -109 -33t-140 -10zM373 30v208h-61v129h227
v-339zM310 -321l-67 20l24 102q-33 5 -46.5 20t-13.5 49q0 52 19 71t69 19q49 0 68 -19t19 -71q0 -27 -8 -51.5t-24 -60.5z" />
    <glyph glyph-name="uni0123" unicode="&#x123;" horiz-adv-x="538" 
d="M257 144q-80 0 -130.5 19t-73.5 60t-23 106q0 66 23 106.5t73.5 60t130.5 19.5q82 0 132 -19t73.5 -60t23.5 -107t-23 -106.5t-73.5 -59.5t-132.5 -19zM198 237h77q24 0 33.5 9t9.5 30v146h-78q-24 0 -33 -8.5t-9 -31.5v-145zM492 -25q0 -51 -23 -84t-72 -48.5
t-127 -15.5q-60 0 -118.5 8.5t-112.5 24.5l22 124q46 -13 89 -19.5t85 -6.5q28 0 52 2t47 4v46q-96 7 -137 18t-41 29l35 112l115 -1l-5 -59q57 -8 94 -17.5t58 -24.5t30 -37.5t9 -54.5zM438 375l-90 121l96 74l84 -81zM254 826l67 -20l-24 -102q32 -5 45.5 -20t13.5 -49
q0 -51 -19 -70.5t-68 -19.5t-68 19.5t-19 70.5q0 27 7.5 51.5t24.5 60.5z" />
    <glyph glyph-name="Hcircumflex" unicode="&#x124;" horiz-adv-x="648" 
d="M236 0h-176v625h176v-625zM412 625h176v-625h-176v625zM428 247h-208v129h208v-129zM233 667l-46 45l102 130q6 9 15 9h40q9 0 15 -9l102 -130l-46 -45l-91 70z" />
    <glyph glyph-name="hcircumflex" unicode="&#x125;" horiz-adv-x="590" 
d="M60 0v652l172 13v-187q32 19 71.5 27.5t84.5 8.5q71 0 109.5 -28.5t38.5 -79.5v-406h-176v369h-52q-41 0 -56.5 -10t-15.5 -36v-323h-176zM57 682l-46 45l102 130q6 9 15 9h40q9 0 15 -9l102 -130l-46 -45l-91 70z" />
    <glyph glyph-name="Hbar" unicode="&#x126;" horiz-adv-x="648" 
d="M236 0h-176v625h176v-625zM412 625h176v-625h-176v625zM428 247h-208v129h208v-129zM-4 500q0 32 11.5 43.5t42.5 11.5h603v-59q0 -30 -12 -42t-43 -12h-602v58z" />
    <glyph glyph-name="hbar" unicode="&#x127;" horiz-adv-x="590" 
d="M3 571q0 18 10.5 24t38.5 6h240v-38q0 -17 -10.5 -23t-38.5 -6h-240v37zM60 0v652l172 13v-187q32 19 71.5 27.5t84.5 8.5q71 0 109.5 -28.5t38.5 -79.5v-406h-176v369h-52q-41 0 -56.5 -10t-15.5 -36v-323h-176z" />
    <glyph glyph-name="Itilde" unicode="&#x128;" horiz-adv-x="295" 
d="M60 625h176v-625h-176v625zM162 673q-12 0 -22.5 4t-22 13.5t-27.5 27.5l-78 -39l-39 65q57 41 87.5 61t46 27t27.5 7q13 0 23.5 -4t21.5 -13.5t27 -27.5l78 38l39 -65q-56 -39 -86.5 -59.5t-46 -27.5t-28.5 -7z" />
    <glyph glyph-name="itilde" unicode="&#x129;" horiz-adv-x="295" 
d="M60 479l176 23v-502h-176v479zM162 548q-12 0 -22.5 4t-22 13.5t-27.5 27.5l-78 -39l-39 65q57 41 87.5 61t46 27t27.5 7q13 0 23.5 -4t21.5 -13.5t27 -27.5l78 38l39 -65q-56 -39 -86.5 -59.5t-46 -27.5t-28.5 -7z" />
    <glyph glyph-name="Imacron" unicode="&#x12a;" horiz-adv-x="295" 
d="M60 625h176v-625h-176v625zM56 697q-35 0 -43 13t-8 47v56h235q35 0 42.5 -11.5t7.5 -46.5v-58h-234z" />
    <glyph glyph-name="imacron" unicode="&#x12b;" horiz-adv-x="295" 
d="M60 479l176 23v-502h-176v479zM56 572q-35 0 -43 13t-8 47v56h235q35 0 42.5 -11.5t7.5 -46.5v-58h-234z" />
    <glyph glyph-name="Ibreve" unicode="&#x12c;" horiz-adv-x="295" 
d="M60 625h176v-625h-176v625zM148 679q-48 0 -88.5 32t-54.5 100l88 14q7 -22 22 -34t33 -12t33 12t22 34l88 -14q-14 -67 -54.5 -99.5t-88.5 -32.5z" />
    <glyph glyph-name="ibreve" unicode="&#x12d;" horiz-adv-x="295" 
d="M60 479l176 23v-502h-176v479zM148 554q-48 0 -88.5 32t-54.5 100l88 14q7 -22 22 -34t33 -12t33 12t22 34l88 -14q-14 -67 -54.5 -99.5t-88.5 -32.5z" />
    <glyph glyph-name="Iogonek" unicode="&#x12e;" horiz-adv-x="295" 
d="M60 625h176v-625h-176v625zM166 -177q-45 0 -70.5 25t-25.5 67q0 48 40.5 79t115.5 40l10 -34l-13 -2q-22 -4 -29 -11.5t-7 -25.5v-9q0 -17 6.5 -24.5t23.5 -7.5h31l12 -74q-24 -12 -46.5 -17.5t-47.5 -5.5z" />
    <glyph glyph-name="iogonek" unicode="&#x12f;" horiz-adv-x="295" 
d="M60 479l176 23v-502h-176v479zM148 553q-55 0 -75.5 19.5t-20.5 74.5q0 56 20.5 76t75.5 20q54 0 74 -20t20 -76q0 -55 -19 -74.5t-75 -19.5zM166 -177q-45 0 -70.5 25t-25.5 67q0 48 40.5 79t115.5 40l10 -34l-13 -2q-22 -4 -29 -11.5t-7 -25.5v-9q0 -17 6.5 -24.5
t23.5 -7.5h31l12 -74q-24 -12 -46.5 -17.5t-47.5 -5.5z" />
    <glyph glyph-name="Idotaccent" unicode="&#x130;" horiz-adv-x="295" 
d="M60 625h176v-625h-176v625zM148 678q-55 0 -75.5 19.5t-20.5 74.5q0 56 20.5 76t75.5 20q54 0 74 -20t20 -76q0 -55 -19 -74.5t-75 -19.5z" />
    <glyph glyph-name="dotlessi" unicode="&#x131;" horiz-adv-x="295" 
d="M60 479l176 23v-502h-176v479z" />
    <glyph glyph-name="IJ" unicode="&#x132;" horiz-adv-x="677" 
d="M60 625h176v-625h-176v625zM307 145h86q20 0 34 4.5t14 25.5v305h-100v145h276v-467q0 -54 -18 -89t-52.5 -52t-84.5 -17h-137z" />
    <glyph glyph-name="ij" unicode="&#x133;" horiz-adv-x="590" 
d="M60 479l176 23v-502h-176v479zM148 553q-55 0 -75.5 19.5t-20.5 74.5q0 56 20.5 76t75.5 20q54 0 74 -20t20 -76q0 -55 -19 -74.5t-75 -19.5zM372 -179q-28 0 -59.5 4t-57.5 11l8 109q37 0 57 5t27.5 19t7.5 39v471l176 23v-525q0 -80 -38.5 -118t-120.5 -38zM443 553
q-55 0 -75.5 19.5t-20.5 74.5q0 56 20.5 76t75.5 20q54 0 74 -20t20 -76q0 -55 -19 -74.5t-75 -19.5z" />
    <glyph glyph-name="Jcircumflex" unicode="&#x134;" horiz-adv-x="381" 
d="M12 145h86q20 0 34 4.5t14 25.5v305h-100v145h276v-467q0 -54 -18 -89t-52.5 -52t-84.5 -17h-137zM100 667l-46 45l102 130q6 9 15 9h40q9 0 15 -9l102 -130l-46 -45l-91 70z" />
    <glyph glyph-name="jcircumflex" unicode="&#x135;" horiz-adv-x="295" 
d="M77 -179q-28 0 -59.5 4t-57.5 11l8 109q37 0 57 5t27.5 19t7.5 39v471l176 23v-525q0 -80 -38.5 -118t-120.5 -38zM57 542l-46 45l102 130q6 9 15 9h40q9 0 15 -9l102 -130l-46 -45l-91 70z" />
    <glyph glyph-name="uni0136" unicode="&#x136;" horiz-adv-x="602" 
d="M408 0l-77 165q-13 27 -21 50t-8 41h-82v130h82q0 18 7.5 41t21.5 50l72 148h188l-148 -304l153 -321h-188zM60 0v625h176v-625h-176zM329 -321l-67 20l24 102q-33 5 -46.5 20t-13.5 49q0 52 19 71t69 19q49 0 68 -19t19 -71q0 -27 -8 -51.5t-24 -60.5z" />
    <glyph glyph-name="uni0137" unicode="&#x137;" horiz-adv-x="556" 
d="M280 213h-44v-213h-176v650l176 15v-345h43l80 180h186l-119 -237l124 -263h-184zM298 -321l-67 20l24 102q-33 5 -46.5 20t-13.5 49q0 52 19 71t69 19q49 0 68 -19t19 -71q0 -27 -8 -51.5t-24 -60.5z" />
    <glyph glyph-name="kgreenlandic" unicode="&#x138;" horiz-adv-x="563" 
d="M288 200h-52v-200h-176v500h176v-193h50l80 193h186l-119 -250l124 -250h-184z" />
    <glyph glyph-name="Lacute" unicode="&#x139;" horiz-adv-x="441" 
d="M60 0v625h176v-480h199v-145h-375zM76 670l-36 51l180 133q5 4 10 4q7 0 16 -10l58 -69q8 -10 8 -16q0 -7 -10 -16l-35 -30q-6 -5 -11 -7.5t-14 -4.5z" />
    <glyph glyph-name="lacute" unicode="&#x13a;" horiz-adv-x="300" 
d="M234 126q14 -2 26 -3.5t23 -2.5l-9 -119q-27 -7 -52 -11t-48 -4q-59 0 -87.5 24.5t-28.5 76.5v563l176 15v-539zM75 685l-36 51l180 133q5 4 10 4q7 0 16 -10l58 -69q8 -10 8 -16q0 -7 -10 -16l-35 -30q-6 -5 -11 -7.5t-14 -4.5z" />
    <glyph glyph-name="uni013B" unicode="&#x13b;" horiz-adv-x="441" 
d="M60 0v625h176v-480h199v-145h-375zM271 -321l-67 20l24 102q-33 5 -46.5 20t-13.5 49q0 52 19 71t69 19q49 0 68 -19t19 -71q0 -27 -8 -51.5t-24 -60.5z" />
    <glyph glyph-name="uni013C" unicode="&#x13c;" horiz-adv-x="300" 
d="M234 126q14 -2 26 -3.5t23 -2.5l-9 -119q-27 -7 -52 -11t-48 -4q-59 0 -87.5 24.5t-28.5 76.5v563l176 15v-539zM161 -321l-67 20l24 102q-33 5 -46.5 20t-13.5 49q0 52 19 71t69 19q49 0 68 -19t19 -71q0 -27 -8 -51.5t-24 -60.5z" />
    <glyph glyph-name="Lcaron" unicode="&#x13d;" horiz-adv-x="441" 
d="M60 0v625h176v-480h199v-145h-375zM271 -321l-67 20l24 102q-33 5 -46.5 20t-13.5 49q0 52 19 71t69 19q49 0 68 -19t19 -71q0 -27 -8 -51.5t-24 -60.5z" />
    <glyph glyph-name="lcaron" unicode="&#x13e;" horiz-adv-x="405" 
d="M234 126q14 -2 26 -3.5t23 -2.5l-9 -119q-27 -7 -52 -11t-48 -4q-59 0 -87.5 24.5t-28.5 76.5v563l176 15v-539zM368 419l-67 20l24 102q-33 5 -46.5 20t-13.5 49q0 52 19 71t69 19q49 0 68 -19t19 -71q0 -27 -8 -51.5t-24 -60.5z" />
    <glyph glyph-name="Ldot" unicode="&#x13f;" horiz-adv-x="441" 
d="M292 352q0 42 15.5 60.5t63.5 18.5t63 -18.5t15 -60.5q0 -41 -15 -59t-63 -18t-63.5 18t-15.5 59zM60 0v625h176v-480h199v-145h-375z" />
    <glyph glyph-name="ldot" unicode="&#x140;" horiz-adv-x="460" 
d="M234 126q14 -2 26 -3.5t23 -2.5l-9 -119q-27 -7 -52 -11t-48 -4q-59 0 -87.5 24.5t-28.5 76.5v563l176 15v-539zM277 341q0 52 19 75t79 23t79 -23t19 -75t-19 -74t-79 -22t-79 22t-19 74z" />
    <glyph glyph-name="Lslash" unicode="&#x141;" horiz-adv-x="441" 
d="M60 0v625h176v-480h199v-145h-375zM9 255l-13 37q-8 25 -8 40q0 21 24 29l271 90l12 -38q9 -24 9 -39q0 -21 -24 -29z" />
    <glyph glyph-name="lslash" unicode="&#x142;" horiz-adv-x="300" 
d="M234 126q14 -2 26 -3.5t23 -2.5l-9 -119q-27 -7 -52 -11t-48 -4q-59 0 -87.5 24.5t-28.5 76.5v563l176 15v-539zM8 233l-13 37q-8 25 -8 40q0 21 24 29l271 90l12 -38q9 -24 9 -39q0 -21 -24 -29z" />
    <glyph glyph-name="Nacute" unicode="&#x143;" horiz-adv-x="672" 
d="M65 0v625h173l162 -260q14 -23 19.5 -38.5t5.5 -30.5h6v329h176v-625h-174l-161 260q-14 24 -19.5 39.5t-5.5 29.5h-6v-329h-176zM267 670l-36 51l180 133q5 4 10 4q7 0 16 -10l58 -69q8 -10 8 -16q0 -7 -10 -16l-35 -30q-6 -5 -11 -7.5t-14 -4.5z" />
    <glyph glyph-name="nacute" unicode="&#x144;" horiz-adv-x="590" 
d="M60 0v500h87l44 -50q43 32 92 48t105 16q71 0 109.5 -28.5t38.5 -79.5v-406h-176v369h-74q-28 0 -39 -8t-11 -27v-334h-176zM234 545l-36 51l180 133q5 4 10 4q7 0 16 -10l58 -69q8 -10 8 -16q0 -7 -10 -16l-35 -30q-6 -5 -11 -7.5t-14 -4.5z" />
    <glyph glyph-name="uni0145" unicode="&#x145;" horiz-adv-x="672" 
d="M65 0v625h173l162 -260q14 -23 19.5 -38.5t5.5 -30.5h6v329h176v-625h-174l-161 260q-14 24 -19.5 39.5t-5.5 29.5h-6v-329h-176zM351 -321l-67 20l24 102q-33 5 -46.5 20t-13.5 49q0 52 19 71t69 19q49 0 68 -19t19 -71q0 -27 -8 -51.5t-24 -60.5z" />
    <glyph glyph-name="uni0146" unicode="&#x146;" horiz-adv-x="590" 
d="M60 0v500h87l44 -50q43 32 92 48t105 16q71 0 109.5 -28.5t38.5 -79.5v-406h-176v369h-74q-28 0 -39 -8t-11 -27v-334h-176zM311 -321l-67 20l24 102q-33 5 -46.5 20t-13.5 49q0 52 19 71t69 19q49 0 68 -19t19 -71q0 -27 -8 -51.5t-24 -60.5z" />
    <glyph glyph-name="Ncaron" unicode="&#x147;" horiz-adv-x="672" 
d="M65 0v625h173l162 -260q14 -23 19.5 -38.5t5.5 -30.5h6v329h176v-625h-174l-161 260q-14 24 -19.5 39.5t-5.5 29.5h-6v-329h-176zM248 851l91 -71l91 71l46 -46l-102 -130q-6 -8 -15 -8h-40q-9 0 -15 8l-102 130z" />
    <glyph glyph-name="ncaron" unicode="&#x148;" horiz-adv-x="590" 
d="M60 0v500h87l44 -50q43 32 92 48t105 16q71 0 109.5 -28.5t38.5 -79.5v-406h-176v369h-74q-28 0 -39 -8t-11 -27v-334h-176zM215 726l91 -71l91 71l46 -46l-102 -130q-6 -8 -15 -8h-40q-9 0 -15 8l-102 130z" />
    <glyph glyph-name="Eng" unicode="&#x14a;" horiz-adv-x="672" 
d="M65 0v625h173l162 -260q14 -23 19.5 -38.5t5.5 -30.5h6v329h176v-625h-174l-161 260q-14 24 -19.5 39.5t-5.5 29.5h-6v-329h-176zM441 -179q-28 0 -59.5 4t-57.5 11l8 109q37 0 57 5t27.5 19t7.5 39v471l176 23v-525q0 -80 -38.5 -118t-120.5 -38z" />
    <glyph glyph-name="eng" unicode="&#x14b;" horiz-adv-x="590" 
d="M378 -179q-27 0 -59 4t-59 11l9 88q37 0 56.5 5t27 19t7.5 39v58h176v-68q0 -80 -38.5 -118t-119.5 -38zM60 0v500h87l44 -50q43 32 92 48t105 16q71 0 109.5 -28.5t38.5 -79.5v-406h-176v369h-74q-28 0 -39 -8t-11 -27v-334h-176z" />
    <glyph glyph-name="Omacron" unicode="&#x14c;" horiz-adv-x="654" 
d="M38 312q0 95 14 158.5t47 100.5t89 53t139 16t139.5 -16t89 -53t46.5 -100.5t14 -158.5t-14 -158t-46.5 -100t-89 -53t-139.5 -16t-139 16t-89 53t-47 100t-14 158zM227 135h119q46 0 63.5 13t17.5 45v297h-120q-45 0 -62.5 -13t-17.5 -45v-297zM235 697q-35 0 -43 13
t-8 47v56h235q35 0 42.5 -11.5t7.5 -46.5v-58h-234z" />
    <glyph glyph-name="omacron" unicode="&#x14d;" horiz-adv-x="581" 
d="M291 -14q-68 0 -116 15t-78.5 46.5t-45 82t-14.5 120.5q0 71 14.5 121.5t45 82t78.5 46t116 14.5t116 -14.5t78.5 -46t44.5 -82t14 -121.5q0 -70 -14 -120.5t-44.5 -82t-78.5 -46.5t-116 -15zM226 120h89q24 0 32.5 5.5t8.5 21.5v233h-89q-24 0 -32.5 -5.5t-8.5 -21.5
v-233zM199 572q-35 0 -43 13t-8 47v56h235q35 0 42.5 -11.5t7.5 -46.5v-58h-234z" />
    <glyph glyph-name="Obreve" unicode="&#x14e;" horiz-adv-x="654" 
d="M38 312q0 95 14 158.5t47 100.5t89 53t139 16t139.5 -16t89 -53t46.5 -100.5t14 -158.5t-14 -158t-46.5 -100t-89 -53t-139.5 -16t-139 16t-89 53t-47 100t-14 158zM227 135h119q46 0 63.5 13t17.5 45v297h-120q-45 0 -62.5 -13t-17.5 -45v-297zM327 679q-48 0 -88.5 32
t-54.5 100l88 14q7 -22 22 -34t33 -12t33 12t22 34l88 -14q-14 -67 -54.5 -99.5t-88.5 -32.5z" />
    <glyph glyph-name="obreve" unicode="&#x14f;" horiz-adv-x="581" 
d="M291 -14q-68 0 -116 15t-78.5 46.5t-45 82t-14.5 120.5q0 71 14.5 121.5t45 82t78.5 46t116 14.5t116 -14.5t78.5 -46t44.5 -82t14 -121.5q0 -70 -14 -120.5t-44.5 -82t-78.5 -46.5t-116 -15zM226 120h89q24 0 32.5 5.5t8.5 21.5v233h-89q-24 0 -32.5 -5.5t-8.5 -21.5
v-233zM291 554q-48 0 -88.5 32t-54.5 100l88 14q7 -22 22 -34t33 -12t33 12t22 34l88 -14q-14 -67 -54.5 -99.5t-88.5 -32.5z" />
    <glyph glyph-name="Ohungarumlaut" unicode="&#x150;" horiz-adv-x="654" 
d="M38 312q0 95 14 158.5t47 100.5t89 53t139 16t139.5 -16t89 -53t46.5 -100.5t14 -158.5t-14 -158t-46.5 -100t-89 -53t-139.5 -16t-139 16t-89 53t-47 100t-14 158zM227 135h119q46 0 63.5 13t17.5 45v297h-120q-45 0 -62.5 -13t-17.5 -45v-297zM388 664l-35 53l138 132
q8 9 14 10q3 0 6.5 -2.5t9.5 -7.5l58 -69q4 -4 5.5 -8.5t1.5 -8.5q0 -3 -2 -7t-6 -8l-38 -35q-4 -3 -10.5 -6.5t-20.5 -7.5zM136 664l-36 53l139 132q8 9 14 10q3 0 6.5 -2.5t8.5 -7.5l59 -69q3 -4 5 -8.5t2 -8.5q0 -3 -2 -7t-6 -8l-39 -35q-3 -3 -9.5 -6.5t-20.5 -7.5z" />
    <glyph glyph-name="ohungarumlaut" unicode="&#x151;" horiz-adv-x="581" 
d="M291 -14q-68 0 -116 15t-78.5 46.5t-45 82t-14.5 120.5q0 71 14.5 121.5t45 82t78.5 46t116 14.5t116 -14.5t78.5 -46t44.5 -82t14 -121.5q0 -70 -14 -120.5t-44.5 -82t-78.5 -46.5t-116 -15zM226 120h89q24 0 32.5 5.5t8.5 21.5v233h-89q-24 0 -32.5 -5.5t-8.5 -21.5
v-233zM352 539l-35 53l138 132q8 9 14 10q3 0 6.5 -2.5t9.5 -7.5l58 -69q4 -4 5.5 -8.5t1.5 -8.5q0 -3 -2 -7t-6 -8l-38 -35q-4 -3 -10.5 -6.5t-20.5 -7.5zM100 539l-36 53l139 132q8 9 14 10q3 0 6.5 -2.5t8.5 -7.5l59 -69q3 -4 5 -8.5t2 -8.5q0 -3 -2 -7t-6 -8l-39 -35
q-3 -3 -9.5 -6.5t-20.5 -7.5z" />
    <glyph glyph-name="OE" unicode="&#x152;" horiz-adv-x="886" 
d="M603 248v-103h244v-145h-420v625h423l-21 -145h-226v-103h209v-129h-209zM38 312q0 91 14 151.5t47 96t89 50.5t139 15h117v-625h-117q-83 0 -139 15t-89 50t-47 95.5t-14 151.5zM227 145h119q46 0 63.5 12.5t17.5 45.5v277h-120q-45 0 -62.5 -12.5t-17.5 -45.5v-277z
" />
    <glyph glyph-name="oe" unicode="&#x153;" horiz-adv-x="881" 
d="M291 -14q-68 0 -116 15t-78.5 46.5t-45 82t-14.5 120.5q0 71 14.5 121.5t45 82t78.5 46t116 14.5q63 0 108 -14.5t73 -46t41.5 -82t13.5 -121.5q0 -70 -13.5 -120.5t-41.5 -82t-73.5 -46.5t-107.5 -15zM226 120h89q24 0 32.5 5.5t8.5 21.5v233h-89q-24 0 -32.5 -5.5
t-8.5 -21.5v-233zM603 -14q-61 0 -105 15t-71.5 46.5t-40.5 81.5t-13 121q0 94 24 152t76 85t134 27q88 0 137.5 -15t69.5 -51t20 -99q0 -47 -14.5 -78.5t-47.5 -50.5t-89 -27t-139 -8h-30v92h89q41 0 57 9.5t16 35.5v62h-60q-41 0 -56.5 -9t-15.5 -34v-219q16 -3 35 -4.5
t44 -1.5q43 0 86 6.5t91 19.5l21 -123q-50 -16 -105.5 -24.5t-112.5 -8.5z" />
    <glyph glyph-name="Racute" unicode="&#x154;" horiz-adv-x="614" 
d="M236 191v-191h-176v625h280q80 0 129.5 -22.5t72 -72.5t22.5 -131q0 -108 -50 -158t-159 -50h-119zM236 320h97q26 0 36.5 9t10.5 33v76q0 24 -10.5 33t-36.5 9h-97v-160zM444 308l147 -308h-191l-107 226zM238 670l-36 51l180 133q5 4 10 4q7 0 16 -10l58 -69
q8 -10 8 -16q0 -7 -10 -16l-35 -30q-6 -5 -11 -7.5t-14 -4.5z" />
    <glyph glyph-name="racute" unicode="&#x155;" horiz-adv-x="361" 
d="M147 500l50 -69q33 33 69 53.5t76 30.5l12 -171q-16 -2 -40 -10t-45 -17.5t-33 -18.5v-298h-176v500h87zM124 545l-36 51l180 133q5 4 10 4q7 0 16 -10l58 -69q8 -10 8 -16q0 -7 -10 -16l-35 -30q-6 -5 -11 -7.5t-14 -4.5z" />
    <glyph glyph-name="uni0156" unicode="&#x156;" horiz-adv-x="614" 
d="M236 191v-191h-176v625h280q80 0 129.5 -22.5t72 -72.5t22.5 -131q0 -108 -50 -158t-159 -50h-119zM236 320h97q26 0 36.5 9t10.5 33v76q0 24 -10.5 33t-36.5 9h-97v-160zM444 308l147 -308h-191l-107 226zM323 -321l-67 20l24 102q-33 5 -46.5 20t-13.5 49q0 52 19 71
t69 19q49 0 68 -19t19 -71q0 -27 -8 -51.5t-24 -60.5z" />
    <glyph glyph-name="uni0157" unicode="&#x157;" horiz-adv-x="361" 
d="M147 500l50 -69q33 33 69 53.5t76 30.5l12 -171q-16 -2 -40 -10t-45 -17.5t-33 -18.5v-298h-176v500h87zM163 -321l-67 20l24 102q-33 5 -46.5 20t-13.5 49q0 52 19 71t69 19q49 0 68 -19t19 -71q0 -27 -8 -51.5t-24 -60.5z" />
    <glyph glyph-name="Rcaron" unicode="&#x158;" horiz-adv-x="614" 
d="M236 191v-191h-176v625h280q80 0 129.5 -22.5t72 -72.5t22.5 -131q0 -108 -50 -158t-159 -50h-119zM236 320h97q26 0 36.5 9t10.5 33v76q0 24 -10.5 33t-36.5 9h-97v-160zM444 308l147 -308h-191l-107 226zM219 851l91 -71l91 71l46 -46l-102 -130q-6 -8 -15 -8h-40
q-9 0 -15 8l-102 130z" />
    <glyph glyph-name="rcaron" unicode="&#x159;" horiz-adv-x="361" 
d="M147 500l50 -69q33 33 69 53.5t76 30.5l12 -171q-16 -2 -40 -10t-45 -17.5t-33 -18.5v-298h-176v500h87zM104 726l91 -71l91 71l46 -46l-102 -130q-6 -8 -15 -8h-40q-9 0 -15 8l-102 130z" />
    <glyph glyph-name="Sacute" unicode="&#x15a;" horiz-adv-x="563" 
d="M55 163q49 -14 100 -22t101 -8q26 0 46 1t43 5v86l-91 8q-60 5 -101.5 17.5t-66.5 35t-36 56t-11 81.5q0 80 22 127.5t74 68.5t139 21q58 0 115 -7t112 -20l-22 -141q-50 10 -88 14.5t-79 4.5q-29 0 -46.5 -1t-37.5 -4v-86l82 -7q80 -8 129.5 -30.5t72 -64t22.5 -106.5
q0 -73 -26.5 -118.5t-83.5 -67t-147 -21.5q-67 0 -128.5 8t-118.5 25zM210 670l-36 51l180 133q5 4 10 4q7 0 16 -10l58 -69q8 -10 8 -16q0 -7 -10 -16l-35 -30q-6 -5 -11 -7.5t-14 -4.5z" />
    <glyph glyph-name="sacute" unicode="&#x15b;" horiz-adv-x="511" 
d="M38 351q0 84 52 124t163 40q54 0 106 -5.5t98 -16.5l-21 -122q-25 7 -55 10t-63 3q-26 0 -50.5 -2.5t-41.5 -6.5v-56q74 -8 123 -20.5t78 -32t42 -47t13 -67.5q0 -58 -25.5 -95t-78.5 -54.5t-138 -17.5q-55 0 -110 8.5t-100 24.5l23 128q72 -30 161 -30q17 0 36 2t43 7
v58q-78 9 -127.5 20.5t-77.5 30t-39 47t-11 70.5zM182 545l-36 51l180 133q5 4 10 4q7 0 16 -10l58 -69q8 -10 8 -16q0 -7 -10 -16l-35 -30q-6 -5 -11 -7.5t-14 -4.5z" />
    <glyph glyph-name="Scircumflex" unicode="&#x15c;" horiz-adv-x="563" 
d="M55 163q49 -14 100 -22t101 -8q26 0 46 1t43 5v86l-91 8q-60 5 -101.5 17.5t-66.5 35t-36 56t-11 81.5q0 80 22 127.5t74 68.5t139 21q58 0 115 -7t112 -20l-22 -141q-50 10 -88 14.5t-79 4.5q-29 0 -46.5 -1t-37.5 -4v-86l82 -7q80 -8 129.5 -30.5t72 -64t22.5 -106.5
q0 -73 -26.5 -118.5t-83.5 -67t-147 -21.5q-67 0 -128.5 8t-118.5 25zM191 667l-46 45l102 130q6 9 15 9h40q9 0 15 -9l102 -130l-46 -45l-91 70z" />
    <glyph glyph-name="scircumflex" unicode="&#x15d;" horiz-adv-x="511" 
d="M38 351q0 84 52 124t163 40q54 0 106 -5.5t98 -16.5l-21 -122q-25 7 -55 10t-63 3q-26 0 -50.5 -2.5t-41.5 -6.5v-56q74 -8 123 -20.5t78 -32t42 -47t13 -67.5q0 -58 -25.5 -95t-78.5 -54.5t-138 -17.5q-55 0 -110 8.5t-100 24.5l23 128q72 -30 161 -30q17 0 36 2t43 7
v58q-78 9 -127.5 20.5t-77.5 30t-39 47t-11 70.5zM163 542l-46 45l102 130q6 9 15 9h40q9 0 15 -9l102 -130l-46 -45l-91 70z" />
    <glyph glyph-name="Scedilla" unicode="&#x15e;" horiz-adv-x="563" 
d="M55 163q49 -14 100 -22t101 -8q26 0 46 1t43 5v86l-91 8q-60 5 -101.5 17.5t-66.5 35t-36 56t-11 81.5q0 80 22 127.5t74 68.5t139 21q58 0 115 -7t112 -20l-22 -141q-50 10 -88 14.5t-79 4.5q-29 0 -46.5 -1t-37.5 -4v-86l82 -7q80 -8 129.5 -30.5t72 -64t22.5 -106.5
q0 -73 -26.5 -118.5t-83.5 -67t-147 -21.5q-67 0 -128.5 8t-118.5 25zM256 -177q-51 0 -96 18l10 79h26q26 0 34.5 7t8.5 32v62h51q32 -13 53 -42t21 -62q0 -43 -29.5 -68.5t-78.5 -25.5z" />
    <glyph glyph-name="scedilla" unicode="&#x15f;" horiz-adv-x="511" 
d="M38 351q0 84 52 124t163 40q54 0 106 -5.5t98 -16.5l-21 -122q-25 7 -55 10t-63 3q-26 0 -50.5 -2.5t-41.5 -6.5v-56q74 -8 123 -20.5t78 -32t42 -47t13 -67.5q0 -58 -25.5 -95t-78.5 -54.5t-138 -17.5q-55 0 -110 8.5t-100 24.5l23 128q72 -30 161 -30q17 0 36 2t43 7
v58q-78 9 -127.5 20.5t-77.5 30t-39 47t-11 70.5zM230 -177q-51 0 -96 18l10 79h26q26 0 34.5 7t8.5 32v62h51q32 -13 53 -42t21 -62q0 -43 -29.5 -68.5t-78.5 -25.5z" />
    <glyph glyph-name="Scaron" unicode="&#x160;" horiz-adv-x="563" 
d="M55 163q49 -14 100 -22t101 -8q26 0 46 1t43 5v86l-91 8q-60 5 -101.5 17.5t-66.5 35t-36 56t-11 81.5q0 80 22 127.5t74 68.5t139 21q58 0 115 -7t112 -20l-22 -141q-50 10 -88 14.5t-79 4.5q-29 0 -46.5 -1t-37.5 -4v-86l82 -7q80 -8 129.5 -30.5t72 -64t22.5 -106.5
q0 -73 -26.5 -118.5t-83.5 -67t-147 -21.5q-67 0 -128.5 8t-118.5 25zM191 851l91 -71l91 71l46 -46l-102 -130q-6 -8 -15 -8h-40q-9 0 -15 8l-102 130z" />
    <glyph glyph-name="scaron" unicode="&#x161;" horiz-adv-x="511" 
d="M38 351q0 84 52 124t163 40q54 0 106 -5.5t98 -16.5l-21 -122q-25 7 -55 10t-63 3q-26 0 -50.5 -2.5t-41.5 -6.5v-56q74 -8 123 -20.5t78 -32t42 -47t13 -67.5q0 -58 -25.5 -95t-78.5 -54.5t-138 -17.5q-55 0 -110 8.5t-100 24.5l23 128q72 -30 161 -30q17 0 36 2t43 7
v58q-78 9 -127.5 20.5t-77.5 30t-39 47t-11 70.5zM163 726l91 -71l91 71l46 -46l-102 -130q-6 -8 -15 -8h-40q-9 0 -15 8l-102 130z" />
    <glyph glyph-name="uni0162" unicode="&#x162;" horiz-adv-x="483" 
d="M329 480v-480h-176v480h-146v145h468v-145h-146zM215 -177q-51 0 -96 18l10 79h26q26 0 34.5 7t8.5 32v62h51q32 -13 53 -42t21 -62q0 -43 -29.5 -68.5t-78.5 -25.5z" />
    <glyph glyph-name="uni0163" unicode="&#x163;" horiz-adv-x="362" 
d="M198 -14q-59 0 -87.5 24.5t-28.5 76.5v499l176 44v-504q16 -2 31 -3.5t31 -2.5l-8 -119q-34 -8 -62.5 -11.5t-51.5 -3.5zM27 385v115h305v-115h-305zM155 -177q-51 0 -96 18l10 79h26q26 0 34.5 7t8.5 32v62h51q32 -13 53 -42t21 -62q0 -43 -29.5 -68.5t-78.5 -25.5z" />
    <glyph glyph-name="Tcaron" unicode="&#x164;" horiz-adv-x="483" 
d="M329 480v-480h-176v480h-146v145h468v-145h-146zM150 851l91 -71l91 71l46 -46l-102 -130q-6 -8 -15 -8h-40q-9 0 -15 8l-102 130z" />
    <glyph glyph-name="tcaron" unicode="&#x165;" horiz-adv-x="463" 
d="M198 -14q-59 0 -87.5 24.5t-28.5 76.5v499l176 44v-504q16 -2 31 -3.5t31 -2.5l-8 -119q-34 -8 -62.5 -11.5t-51.5 -3.5zM27 385v115h305v-115h-305zM426 419l-67 20l24 102q-33 5 -46.5 20t-13.5 49q0 52 19 71t69 19q49 0 68 -19t19 -71q0 -27 -8 -51.5t-24 -60.5z" />
    <glyph glyph-name="Tbar" unicode="&#x166;" horiz-adv-x="483" 
d="M329 480v-480h-176v480h-146v145h468v-145h-146zM81 288q0 31 11.5 42.5t42.5 11.5h267v-69q0 -31 -11.5 -42.5t-42.5 -11.5h-267v69z" />
    <glyph glyph-name="tbar" unicode="&#x167;" horiz-adv-x="362" 
d="M198 -14q-59 0 -87.5 24.5t-28.5 76.5v499l176 44v-504q16 -2 31 -3.5t31 -2.5l-8 -119q-34 -8 -62.5 -11.5t-51.5 -3.5zM27 385v115h305v-115h-305zM10 264q0 31 11.5 42.5t42.5 11.5h267v-69q0 -31 -11.5 -42.5t-42.5 -11.5h-267v69z" />
    <glyph glyph-name="Utilde" unicode="&#x168;" horiz-adv-x="635" 
d="M317 -15q-80 0 -132 11t-81.5 37t-41.5 72.5t-12 117.5v402h176v-490h95q36 0 55 4.5t26 16t7 32.5v437h176v-402q0 -70 -12 -116.5t-42 -73t-82 -37.5t-132 -11zM332 673q-12 0 -22.5 4t-22 13.5t-27.5 27.5l-78 -39l-39 65q57 41 87.5 61t46 27t27.5 7q13 0 23.5 -4
t21.5 -13.5t27 -27.5l78 38l39 -65q-56 -39 -86.5 -59.5t-46 -27.5t-28.5 -7z" />
    <glyph glyph-name="utilde" unicode="&#x169;" horiz-adv-x="590" 
d="M531 500v-500h-87l-45 50q-42 -32 -92 -48t-107 -16q-75 0 -110 32.5t-35 103.5v378h176v-393h74q28 0 39 8t11 27v358h176zM310 548q-12 0 -22.5 4t-22 13.5t-27.5 27.5l-78 -39l-39 65q57 41 87.5 61t46 27t27.5 7q13 0 23.5 -4t21.5 -13.5t27 -27.5l78 38l39 -65
q-56 -39 -86.5 -59.5t-46 -27.5t-28.5 -7z" />
    <glyph glyph-name="Umacron" unicode="&#x16a;" horiz-adv-x="635" 
d="M317 -15q-80 0 -132 11t-81.5 37t-41.5 72.5t-12 117.5v402h176v-490h95q36 0 55 4.5t26 16t7 32.5v437h176v-402q0 -70 -12 -116.5t-42 -73t-82 -37.5t-132 -11zM226 697q-35 0 -43 13t-8 47v56h235q35 0 42.5 -11.5t7.5 -46.5v-58h-234z" />
    <glyph glyph-name="umacron" unicode="&#x16b;" horiz-adv-x="590" 
d="M531 500v-500h-87l-45 50q-42 -32 -92 -48t-107 -16q-75 0 -110 32.5t-35 103.5v378h176v-393h74q28 0 39 8t11 27v358h176zM204 572q-35 0 -43 13t-8 47v56h235q35 0 42.5 -11.5t7.5 -46.5v-58h-234z" />
    <glyph glyph-name="Ubreve" unicode="&#x16c;" horiz-adv-x="635" 
d="M317 -15q-80 0 -132 11t-81.5 37t-41.5 72.5t-12 117.5v402h176v-490h95q36 0 55 4.5t26 16t7 32.5v437h176v-402q0 -70 -12 -116.5t-42 -73t-82 -37.5t-132 -11zM318 679q-48 0 -88.5 32t-54.5 100l88 14q7 -22 22 -34t33 -12t33 12t22 34l88 -14q-14 -67 -54.5 -99.5
t-88.5 -32.5z" />
    <glyph glyph-name="ubreve" unicode="&#x16d;" horiz-adv-x="590" 
d="M531 500v-500h-87l-45 50q-42 -32 -92 -48t-107 -16q-75 0 -110 32.5t-35 103.5v378h176v-393h74q28 0 39 8t11 27v358h176zM296 554q-48 0 -88.5 32t-54.5 100l88 14q7 -22 22 -34t33 -12t33 12t22 34l88 -14q-14 -67 -54.5 -99.5t-88.5 -32.5z" />
    <glyph glyph-name="Uring" unicode="&#x16e;" horiz-adv-x="635" 
d="M317 -15q-80 0 -132 11t-81.5 37t-41.5 72.5t-12 117.5v402h176v-490h95q36 0 55 4.5t26 16t7 32.5v437h176v-402q0 -70 -12 -116.5t-42 -73t-82 -37.5t-132 -11zM318 655q-61 0 -86.5 28t-25.5 84q0 55 25.5 83t86.5 28q60 0 85.5 -28t25.5 -83q0 -56 -25.5 -84
t-85.5 -28zM279 724h34q19 0 30.5 3.5t11.5 22.5v59h-31q-20 0 -32.5 -3.5t-12.5 -21.5v-60z" />
    <glyph glyph-name="uring" unicode="&#x16f;" horiz-adv-x="590" 
d="M531 500v-500h-87l-45 50q-42 -32 -92 -48t-107 -16q-75 0 -110 32.5t-35 103.5v378h176v-393h74q28 0 39 8t11 27v358h176zM296 530q-61 0 -86.5 28t-25.5 84q0 55 25.5 83t86.5 28q60 0 85.5 -28t25.5 -83q0 -56 -25.5 -84t-85.5 -28zM257 599h34q19 0 30.5 3.5
t11.5 22.5v59h-31q-20 0 -32.5 -3.5t-12.5 -21.5v-60z" />
    <glyph glyph-name="Uhungarumlaut" unicode="&#x170;" horiz-adv-x="635" 
d="M317 -15q-80 0 -132 11t-81.5 37t-41.5 72.5t-12 117.5v402h176v-490h95q36 0 55 4.5t26 16t7 32.5v437h176v-402q0 -70 -12 -116.5t-42 -73t-82 -37.5t-132 -11zM380 664l-35 53l138 132q8 9 14 10q3 0 6.5 -2.5t9.5 -7.5l58 -69q4 -4 5.5 -8.5t1.5 -8.5q0 -3 -2 -7
t-6 -8l-38 -35q-4 -3 -10.5 -6.5t-20.5 -7.5zM128 664l-36 53l139 132q8 9 14 10q3 0 6.5 -2.5t8.5 -7.5l59 -69q3 -4 5 -8.5t2 -8.5q0 -3 -2 -7t-6 -8l-39 -35q-3 -3 -9.5 -6.5t-20.5 -7.5z" />
    <glyph glyph-name="uhungarumlaut" unicode="&#x171;" horiz-adv-x="590" 
d="M531 500v-500h-87l-45 50q-42 -32 -92 -48t-107 -16q-75 0 -110 32.5t-35 103.5v378h176v-393h74q28 0 39 8t11 27v358h176zM357 539l-35 53l138 132q8 9 14 10q3 0 6.5 -2.5t9.5 -7.5l58 -69q4 -4 5.5 -8.5t1.5 -8.5q0 -3 -2 -7t-6 -8l-38 -35q-4 -3 -10.5 -6.5
t-20.5 -7.5zM105 539l-36 53l139 132q8 9 14 10q3 0 6.5 -2.5t8.5 -7.5l59 -69q3 -4 5 -8.5t2 -8.5q0 -3 -2 -7t-6 -8l-39 -35q-3 -3 -9.5 -6.5t-20.5 -7.5z" />
    <glyph glyph-name="Uogonek" unicode="&#x172;" horiz-adv-x="635" 
d="M317 -15q-80 0 -132 11t-81.5 37t-41.5 72.5t-12 117.5v402h176v-490h95q36 0 55 4.5t26 16t7 32.5v437h176v-402q0 -70 -12 -116.5t-42 -73t-82 -37.5t-132 -11zM298 -190q-45 0 -70.5 25t-25.5 67q0 48 40.5 79t115.5 40l10 -34l-13 -2q-22 -4 -29 -11.5t-7 -25.5v-9
q0 -17 6.5 -24.5t23.5 -7.5h31l12 -74q-24 -12 -46.5 -17.5t-47.5 -5.5z" />
    <glyph glyph-name="uogonek" unicode="&#x173;" horiz-adv-x="590" 
d="M531 500v-500h-87l-45 50q-42 -32 -92 -48t-107 -16q-75 0 -110 32.5t-35 103.5v378h176v-393h74q28 0 39 8t11 27v358h176zM461 -177q-45 0 -70.5 25t-25.5 67q0 48 40.5 79t115.5 40l10 -34l-13 -2q-22 -4 -29 -11.5t-7 -25.5v-9q0 -17 6.5 -24.5t23.5 -7.5h31l12 -74
q-24 -12 -46.5 -17.5t-47.5 -5.5z" />
    <glyph glyph-name="Wcircumflex" unicode="&#x174;" horiz-adv-x="899" 
d="M25 625h176l61 -457h9l83 457h132l-109 -625h-264zM874 625l-89 -625h-264l-108 625h131l84 -457h9l61 457h176zM359 667l-46 45l102 130q6 9 15 9h40q9 0 15 -9l102 -130l-46 -45l-91 70z" />
    <glyph glyph-name="wcircumflex" unicode="&#x175;" horiz-adv-x="776" 
d="M437 0l-103 500h129l68 -347h10l60 347h172l-101 -500h-235zM105 0l-101 500h172l60 -347h10l67 347h130l-104 -500h-234zM297 542l-46 45l102 130q6 9 15 9h40q9 0 15 -9l102 -130l-46 -45l-91 70z" />
    <glyph glyph-name="Ycircumflex" unicode="&#x176;" horiz-adv-x="558" 
d="M247 305l121 320h184l-185 -421v-204h-176v204l-185 421h185l121 -320h-65zM188 667l-46 45l102 130q6 9 15 9h40q9 0 15 -9l102 -130l-46 -45l-91 70z" />
    <glyph glyph-name="ycircumflex" unicode="&#x177;" horiz-adv-x="506" 
d="M121 45l-117 455h172l72 -301h10l73 301h172l-118 -455h-264zM129 -179q-28 0 -58 4t-54 11l8 93l108 13q30 4 46 12t24.5 26t16.5 50l3 15h162q-20 -84 -51.5 -133t-80 -70t-124.5 -21zM162 542l-46 45l102 130q6 9 15 9h40q9 0 15 -9l102 -130l-46 -45l-91 70z" />
    <glyph glyph-name="Ydieresis" unicode="&#x178;" horiz-adv-x="558" 
d="M247 305l121 320h184l-185 -421v-204h-176v204l-185 421h185l121 -320h-65zM381 683q-48 0 -62.5 17t-14.5 59q0 41 14.5 59t62.5 18q46 0 61 -18t15 -59q0 -42 -15 -59t-61 -17zM178 683q-48 0 -62.5 17t-14.5 59q0 41 14.5 59t62.5 18q46 0 61 -18t15 -59
q0 -42 -15 -59t-61 -17z" />
    <glyph glyph-name="Zacute" unicode="&#x179;" horiz-adv-x="578" 
d="M27 0v115l277 359l-3 6h-229l-16 145h492v-115l-274 -359l3 -6h270v-145h-520zM245 670l-36 51l180 133q5 4 10 4q7 0 16 -10l58 -69q8 -10 8 -16q0 -7 -10 -16l-35 -30q-6 -5 -11 -7.5t-14 -4.5z" />
    <glyph glyph-name="zacute" unicode="&#x17a;" horiz-adv-x="516" 
d="M254 367l-4 6h-186l-12 127h423v-97l-218 -270l3 -6h219v-127h-443v97zM199 545l-36 51l180 133q5 4 10 4q7 0 16 -10l58 -69q8 -10 8 -16q0 -7 -10 -16l-35 -30q-6 -5 -11 -7.5t-14 -4.5z" />
    <glyph glyph-name="Zdotaccent" unicode="&#x17b;" horiz-adv-x="578" 
d="M27 0v115l277 359l-3 6h-229l-16 145h492v-115l-274 -359l3 -6h270v-145h-520zM317 678q-55 0 -75.5 19.5t-20.5 74.5q0 56 20.5 76t75.5 20q54 0 74 -20t20 -76q0 -55 -19 -74.5t-75 -19.5z" />
    <glyph glyph-name="zdotaccent" unicode="&#x17c;" horiz-adv-x="516" 
d="M254 367l-4 6h-186l-12 127h423v-97l-218 -270l3 -6h219v-127h-443v97zM271 553q-55 0 -75.5 19.5t-20.5 74.5q0 56 20.5 76t75.5 20q54 0 74 -20t20 -76q0 -55 -19 -74.5t-75 -19.5z" />
    <glyph glyph-name="Zcaron" unicode="&#x17d;" horiz-adv-x="578" 
d="M27 0v115l277 359l-3 6h-229l-16 145h492v-115l-274 -359l3 -6h270v-145h-520zM226 851l91 -71l91 71l46 -46l-102 -130q-6 -8 -15 -8h-40q-9 0 -15 8l-102 130z" />
    <glyph glyph-name="zcaron" unicode="&#x17e;" horiz-adv-x="516" 
d="M254 367l-4 6h-186l-12 127h423v-97l-218 -270l3 -6h219v-127h-443v97zM180 726l91 -71l91 71l46 -46l-102 -130q-6 -8 -15 -8h-40q-9 0 -15 8l-102 130z" />
    <glyph glyph-name="florin" unicode="&#x192;" horiz-adv-x="465" 
d="M88 -179q-25 0 -56.5 4t-59.5 11l18 109q37 0 57 5.5t28.5 19t10.5 38.5l32 377q8 93 35 149t78.5 81t133.5 25q38 0 81 -7t71 -18l-35 -140q-19 8 -46.5 13.5t-49.5 5.5q-41 0 -56 -16t-20 -61l-38 -437q-6 -82 -51.5 -120.5t-132.5 -38.5zM45 268v95h387l-8 -95h-379z
" />
    <glyph glyph-name="Aringacute" unicode="&#x1fa;" horiz-adv-x="619" 
d="M7 0l166 625h273l166 -625h-176l-122 457h-9l-122 -457h-176zM118 109v129h383v-129h-383zM310 655q-61 0 -86.5 28t-25.5 84q0 55 25.5 83t86.5 28q60 0 85.5 -28t25.5 -83q0 -56 -25.5 -84t-85.5 -28zM271 724h34q19 0 30.5 3.5t11.5 22.5v59h-31q-20 0 -32.5 -3.5
t-12.5 -21.5v-60zM239 903l-36 51l180 133q5 4 10 4q7 0 16 -10l58 -69q8 -10 8 -16q0 -7 -10 -16l-35 -30q-6 -5 -11 -7.5t-14 -4.5z" />
    <glyph glyph-name="aringacute" unicode="&#x1fb;" horiz-adv-x="560" 
d="M202 -14q-89 0 -129.5 39.5t-40.5 125.5q0 47 13.5 78.5t44 50.5t83 27t130.5 8h57v-92h-94q-41 0 -56.5 -9.5t-15.5 -35.5v-71h64q41 0 56.5 9t15.5 34v228q-21 6 -63 6q-43 0 -90.5 -6t-100.5 -20l-21 123q35 11 73 18.5t78.5 11t80.5 3.5q77 0 125 -17.5t71 -54
t23 -95.5v-347h-87l-45 50q-37 -31 -80.5 -47.5t-91.5 -16.5zM287 530q-61 0 -86.5 28t-25.5 84q0 55 25.5 83t86.5 28q60 0 85.5 -28t25.5 -83q0 -56 -25.5 -84t-85.5 -28zM248 599h34q19 0 30.5 3.5t11.5 22.5v59h-31q-20 0 -32.5 -3.5t-12.5 -21.5v-60zM215 778l-36 51
l180 133q5 4 10 4q7 0 16 -10l58 -69q8 -10 8 -16q0 -7 -10 -16l-35 -30q-6 -5 -11 -7.5t-14 -4.5z" />
    <glyph glyph-name="AEacute" unicode="&#x1fc;" horiz-adv-x="819" 
d="M7 0l162 625h564l-22 -143h-225l29 -108h178v-131h-144l25 -100h210v-143h-358l-26 108h-181l-26 -108h-186zM251 251h116l-48 206h-19zM338 670l-36 51l180 133q5 4 10 4q7 0 16 -10l58 -69q8 -10 8 -16q0 -7 -10 -16l-35 -30q-6 -5 -11 -7.5t-14 -4.5z" />
    <glyph glyph-name="aeacute" unicode="&#x1fd;" horiz-adv-x="843" 
d="M202 -14q-89 0 -129.5 39.5t-40.5 125.5q0 47 13.5 78.5t44 50.5t83 27t130.5 8h57v-92h-94q-41 0 -56.5 -9.5t-15.5 -35.5v-71h64q41 0 56.5 9t15.5 34v228q-21 6 -63 6q-43 0 -90.5 -6t-100.5 -20l-21 123q35 11 73 18.5t78.5 11t80.5 3.5q77 0 125 -17.5t71 -54
t23 -95.5v-297l-130 2q-37 -32 -81.5 -49t-92.5 -17zM565 -14q-80 0 -130.5 21.5t-79.5 67.5l31 385q29 27 74 40.5t109 13.5q88 0 137.5 -15t69.5 -51t20 -99q0 -47 -14.5 -78.5t-47.5 -50.5t-89 -27t-139 -8h-30v92h89q41 0 56.5 9.5t15.5 35.5v62h-59q-41 0 -56.5 -9
t-15.5 -34v-219q16 -3 35 -4.5t44 -1.5q43 0 86 6.5t91 19.5l21 -123q-51 -16 -106 -24.5t-112 -8.5zM351 545l-36 51l180 133q5 4 10 4q7 0 16 -10l58 -69q8 -10 8 -16q0 -7 -10 -16l-35 -30q-6 -5 -11 -7.5t-14 -4.5z" />
    <glyph glyph-name="Oslashacute" unicode="&#x1fe;" horiz-adv-x="654" 
d="M214 -47q-7 -17 -16.5 -22.5t-26.5 -5.5h-46l315 748q7 17 16.5 22.5t26.5 5.5h46zM38 312q0 95 14 158.5t47 100.5t89 53t139 16t139.5 -16t89 -53t46.5 -100.5t14 -158.5t-14 -158t-46.5 -100t-89 -53t-139.5 -16t-139 16t-89 53t-47 100t-14 158zM227 135h119
q46 0 63.5 13t17.5 45v297h-120q-45 0 -62.5 -13t-17.5 -45v-297zM256 670l-37 51l180 133q5 4 11 4q7 0 15 -10l59 -69q8 -10 8 -16q0 -7 -10 -16l-35 -30q-6 -5 -11 -7.5t-14 -4.5z" />
    <glyph glyph-name="oslashacute" unicode="&#x1ff;" horiz-adv-x="581" 
d="M291 -14q-68 0 -116 15t-78.5 46.5t-45 82t-14.5 120.5q0 71 14.5 121.5t45 82t78.5 46t116 14.5t116 -14.5t78.5 -46t44.5 -82t14 -121.5q0 -70 -14 -120.5t-44.5 -82t-78.5 -46.5t-116 -15zM226 120h89q24 0 32.5 5.5t8.5 21.5v233h-89q-24 0 -32.5 -5.5t-8.5 -21.5
v-233zM178 -78q-7 -15 -16.5 -20t-26.5 -5h-46l315 680q7 15 16.5 20t26.5 5h46zM219 545l-36 51l180 133q5 4 10 4q7 0 16 -10l58 -69q8 -10 8 -16q0 -7 -10 -16l-35 -30q-6 -5 -11 -7.5t-14 -4.5z" />
    <glyph glyph-name="uni0218" unicode="&#x218;" horiz-adv-x="563" 
d="M55 163q49 -14 100 -22t101 -8q26 0 46 1t43 5v86l-91 8q-60 5 -101.5 17.5t-66.5 35t-36 56t-11 81.5q0 80 22 127.5t74 68.5t139 21q58 0 115 -7t112 -20l-22 -141q-50 10 -88 14.5t-79 4.5q-29 0 -46.5 -1t-37.5 -4v-86l82 -7q80 -8 129.5 -30.5t72 -64t22.5 -106.5
q0 -73 -26.5 -118.5t-83.5 -67t-147 -21.5q-67 0 -128.5 8t-118.5 25zM297 -321l-67 20l24 102q-33 5 -46.5 20t-13.5 49q0 52 19 71t69 19q49 0 68 -19t19 -71q0 -27 -8 -51.5t-24 -60.5z" />
    <glyph glyph-name="uni0219" unicode="&#x219;" horiz-adv-x="511" 
d="M38 351q0 84 52 124t163 40q54 0 106 -5.5t98 -16.5l-21 -122q-25 7 -55 10t-63 3q-26 0 -50.5 -2.5t-41.5 -6.5v-56q74 -8 123 -20.5t78 -32t42 -47t13 -67.5q0 -58 -25.5 -95t-78.5 -54.5t-138 -17.5q-55 0 -110 8.5t-100 24.5l23 128q72 -30 161 -30q17 0 36 2t43 7
v58q-78 9 -127.5 20.5t-77.5 30t-39 47t-11 70.5zM271 -321l-67 20l24 102q-33 5 -46.5 20t-13.5 49q0 52 19 71t69 19q49 0 68 -19t19 -71q0 -27 -8 -51.5t-24 -60.5z" />
    <glyph glyph-name="uni021A" unicode="&#x21a;" horiz-adv-x="483" 
d="M329 480v-480h-176v480h-146v145h468v-145h-146zM256 -321l-67 20l24 102q-33 5 -46.5 20t-13.5 49q0 52 19 71t69 19q49 0 68 -19t19 -71q0 -27 -8 -51.5t-24 -60.5z" />
    <glyph glyph-name="uni021B" unicode="&#x21b;" horiz-adv-x="362" 
d="M198 -14q-59 0 -87.5 24.5t-28.5 76.5v499l176 44v-504q16 -2 31 -3.5t31 -2.5l-8 -119q-34 -8 -62.5 -11.5t-51.5 -3.5zM27 385v115h305v-115h-305zM196 -321l-67 20l24 102q-33 5 -46.5 20t-13.5 49q0 52 19 71t69 19q49 0 68 -19t19 -71q0 -27 -8 -51.5t-24 -60.5z
" />
    <glyph glyph-name="uni0237" unicode="&#x237;" horiz-adv-x="295" 
d="M77 -179q-28 0 -59.5 4t-57.5 11l8 109q37 0 57 5t27.5 19t7.5 39v471l176 23v-525q0 -80 -38.5 -118t-120.5 -38z" />
    <glyph glyph-name="circumflex" unicode="&#x2c6;" horiz-adv-x="600" 
d="M101 542l-46 45l102 130q6 9 15 9h40q9 0 15 -9l102 -130l-46 -45l-91 70z" />
    <glyph glyph-name="caron" unicode="&#x2c7;" horiz-adv-x="600" 
d="M101 726l91 -71l91 71l46 -46l-102 -130q-6 -8 -15 -8h-40q-9 0 -15 8l-102 130z" />
    <glyph glyph-name="breve" unicode="&#x2d8;" horiz-adv-x="600" 
d="M192 554q-48 0 -88.5 32t-54.5 100l88 14q7 -22 22 -34t33 -12t33 12t22 34l88 -14q-14 -67 -54.5 -99.5t-88.5 -32.5z" />
    <glyph glyph-name="dotaccent" unicode="&#x2d9;" horiz-adv-x="600" 
d="M133 553q-55 0 -75.5 19.5t-20.5 74.5q0 56 20.5 76t75.5 20q54 0 74 -20t20 -76q0 -55 -19 -74.5t-75 -19.5z" />
    <glyph glyph-name="ring" unicode="&#x2da;" horiz-adv-x="600" 
d="M133 530q-61 0 -86.5 28t-25.5 84q0 55 25.5 83t86.5 28q60 0 85.5 -28t25.5 -83q0 -56 -25.5 -84t-85.5 -28zM94 599h34q19 0 30.5 3.5t11.5 22.5v59h-31q-20 0 -32.5 -3.5t-12.5 -21.5v-60z" />
    <glyph glyph-name="ogonek" unicode="&#x2db;" horiz-adv-x="600" 
d="M96 -177q-45 0 -70.5 25t-25.5 67q0 48 40.5 79t115.5 40l10 -34l-13 -2q-22 -4 -29 -11.5t-7 -25.5v-9q0 -17 6.5 -24.5t23.5 -7.5h31l12 -74q-24 -12 -46.5 -17.5t-47.5 -5.5z" />
    <glyph glyph-name="tilde" unicode="&#x2dc;" horiz-adv-x="600" 
d="M243 548q-12 0 -22.5 4t-22 13.5t-27.5 27.5l-78 -39l-39 65q57 41 87.5 61t46 27t27.5 7q13 0 23.5 -4t21.5 -13.5t27 -27.5l78 38l39 -65q-56 -39 -86.5 -59.5t-46 -27.5t-28.5 -7z" />
    <glyph glyph-name="hungarumlaut" unicode="&#x2dd;" horiz-adv-x="600" 
d="M320 539l-35 53l138 132q8 9 14 10q3 0 6.5 -2.5t9.5 -7.5l58 -69q4 -4 5.5 -8.5t1.5 -8.5q0 -3 -2 -7t-6 -8l-38 -35q-4 -3 -10.5 -6.5t-20.5 -7.5zM68 539l-36 53l139 132q8 9 14 10q3 0 6.5 -2.5t8.5 -7.5l59 -69q3 -4 5 -8.5t2 -8.5q0 -3 -2 -7t-6 -8l-39 -35
q-3 -3 -9.5 -6.5t-20.5 -7.5z" />
    <glyph glyph-name="gravecomb" unicode="&#x300;" 
d="M283 543l-165 35q-15 3 -25 11l-36 30q-10 10 -10 17q0 6 9 16l58 69q8 9 15 9q6 0 11 -4l180 -132z" />
    <glyph glyph-name="acutecomb" unicode="&#x301;" 
d="M144 545l-36 51l180 133q5 4 10 4q7 0 16 -10l58 -69q8 -10 8 -16q0 -7 -10 -16l-35 -30q-6 -5 -11 -7.5t-14 -4.5z" />
    <glyph glyph-name="uni0302" unicode="&#x302;" 
d="M101 542l-46 45l102 130q6 9 15 9h40q9 0 15 -9l102 -130l-46 -45l-91 70z" />
    <glyph glyph-name="tildecomb" unicode="&#x303;" 
d="M243 548q-12 0 -22.5 4t-22 13.5t-27.5 27.5l-78 -39l-39 65q57 41 87.5 61t46 27t27.5 7q13 0 23.5 -4t21.5 -13.5t27 -27.5l78 38l39 -65q-56 -39 -86.5 -59.5t-46 -27.5t-28.5 -7z" />
    <glyph glyph-name="uni0304" unicode="&#x304;" 
d="M108 572q-35 0 -43 13t-8 47v56h235q35 0 42.5 -11.5t7.5 -46.5v-58h-234z" />
    <glyph glyph-name="uni0306" unicode="&#x306;" 
d="M192 554q-48 0 -88.5 32t-54.5 100l88 14q7 -22 22 -34t33 -12t33 12t22 34l88 -14q-14 -67 -54.5 -99.5t-88.5 -32.5z" />
    <glyph glyph-name="uni0307" unicode="&#x307;" 
d="M133 553q-55 0 -75.5 19.5t-20.5 74.5q0 56 20.5 76t75.5 20q54 0 74 -20t20 -76q0 -55 -19 -74.5t-75 -19.5z" />
    <glyph glyph-name="uni0308" unicode="&#x308;" 
d="M312 558q-48 0 -62.5 17t-14.5 59q0 41 14.5 59t62.5 18q46 0 61 -18t15 -59q0 -42 -15 -59t-61 -17zM109 558q-48 0 -62.5 17t-14.5 59q0 41 14.5 59t62.5 18q46 0 61 -18t15 -59q0 -42 -15 -59t-61 -17z" />
    <glyph glyph-name="uni030A" unicode="&#x30a;" 
d="M133 530q-61 0 -86.5 28t-25.5 84q0 55 25.5 83t86.5 28q60 0 85.5 -28t25.5 -83q0 -56 -25.5 -84t-85.5 -28zM94 599h34q19 0 30.5 3.5t11.5 22.5v59h-31q-20 0 -32.5 -3.5t-12.5 -21.5v-60z" />
    <glyph glyph-name="uni030B" unicode="&#x30b;" 
d="M320 539l-35 53l138 132q8 9 14 10q3 0 6.5 -2.5t9.5 -7.5l58 -69q4 -4 5.5 -8.5t1.5 -8.5q0 -3 -2 -7t-6 -8l-38 -35q-4 -3 -10.5 -6.5t-20.5 -7.5zM68 539l-36 53l139 132q8 9 14 10q3 0 6.5 -2.5t8.5 -7.5l59 -69q3 -4 5 -8.5t2 -8.5q0 -3 -2 -7t-6 -8l-39 -35
q-3 -3 -9.5 -6.5t-20.5 -7.5z" />
    <glyph glyph-name="uni030C" unicode="&#x30c;" 
d="M101 726l91 -71l91 71l46 -46l-102 -130q-6 -8 -15 -8h-40q-9 0 -15 8l-102 130z" />
    <glyph glyph-name="uni0312" unicode="&#x312;" 
d="M118 826l67 -20l-24 -102q32 -5 45.5 -20t13.5 -49q0 -51 -19 -70.5t-68 -19.5t-68 19.5t-19 70.5q0 27 7.5 51.5t24.5 60.5z" />
    <glyph glyph-name="uni0326" unicode="&#x326;" 
d="M143 -321l-67 20l24 102q-33 5 -46.5 20t-13.5 49q0 52 19 71t69 19q49 0 68 -19t19 -71q0 -27 -8 -51.5t-24 -60.5z" />
    <glyph glyph-name="uni0327" unicode="&#x327;" 
d="M95 -177q-51 0 -96 18l10 79h26q26 0 34.5 7t8.5 32v62h51q32 -13 53 -42t21 -62q0 -43 -29.5 -68.5t-78.5 -25.5z" />
    <glyph glyph-name="uni0328" unicode="&#x328;" 
d="M96 -177q-45 0 -70.5 25t-25.5 67q0 48 40.5 79t115.5 40l10 -34l-13 -2q-22 -4 -29 -11.5t-7 -25.5v-9q0 -17 6.5 -24.5t23.5 -7.5h31l12 -74q-24 -12 -46.5 -17.5t-47.5 -5.5z" />
    <glyph glyph-name="uni0335" unicode="&#x335;" 
d="M19 283q0 31 11.5 42.5t42.5 11.5h267v-69q0 -31 -11.5 -42.5t-42.5 -11.5h-267v69z" />
    <glyph glyph-name="uni0336" unicode="&#x336;" 
d="M19 277q0 32 11.5 43.5t42.5 11.5h603v-59q0 -30 -12 -42t-43 -12h-602v58z" />
    <glyph glyph-name="uni0337" unicode="&#x337;" 
d="M21 243l-13 37q-8 25 -8 40q0 21 24 29l271 90l12 -38q9 -24 9 -39q0 -21 -24 -29z" />
    <glyph glyph-name="uni0338" unicode="&#x338;" 
d="M89 -15q-7 -15 -16.5 -20t-26.5 -5h-46l315 680q7 15 16.5 20t26.5 5h46z" />
    <glyph glyph-name="uni0394" unicode="&#x394;" horiz-adv-x="680" 
d="M446 625l195 -573l-19 -52h-564l-19 52l197 573h210zM400 133q29 0 29 23v6.5t-2 7.5l-101 292h-11l-114 -329h199z" />
    <glyph glyph-name="uni03A9" unicode="&#x3a9;" horiz-adv-x="712" 
d="M233 502v-224q0 -23 7 -36t21.5 -17.5t37.5 -4.5l-15 -220h-249v109l140 8l1 35q-36 8 -61 24.5t-40.5 44t-23 65.5t-7.5 89q0 71 17.5 121.5t55.5 82t97 46.5t142 15t142 -15t96.5 -46.5t55.5 -82t18 -121.5q0 -51 -7.5 -89t-23.5 -65.5t-41 -44t-61 -24.5l2 -35l139 -8
v-109h-248l-15 220h66v229q0 21 -6.5 33t-20 16t-36.5 4h-183z" />
    <glyph glyph-name="pi" unicode="&#x3c0;" horiz-adv-x="647" 
d="M79 0l26 379l-52 12v109h423q5 14 6 36l130 -7q0 -63 -8 -98t-27.5 -49.5t-55.5 -15.5l-207 -1q-20 0 -31 -9t-14 -28l-57 -328h-133zM479 -13q-59 0 -87.5 24.5t-28.5 76.5v339h176v-300q14 -2 26 -3.5t22 -2.5l-8 -119q-29 -7 -54 -11t-46 -4z" />
    </font>
</defs>
</svg>
