<?xml version="1.0" standalone="no"?>
<!DOCTYPE svg PUBLIC "-//W3C//DTD SVG 1.1//EN" "http://www.w3.org/Graphics/SVG/1.1/DTD/svg11.dtd" >
<svg xmlns="http://www.w3.org/2000/svg" xmlns:xlink="http://www.w3.org/1999/xlink" version="1.1">
<metadata>
Created by FontForge 20170731 at Wed Aug 25 19:26:47 2021
 By Aleksey,,,
Copyright 2018 The Changa Project Authors (https://github.com/eliheuer/changa-vf)
</metadata>
<defs>
<font id="Changa-Light" horiz-adv-x="0" >
  <font-face 
    font-family="Changa Light"
    font-weight="300"
    font-stretch="normal"
    units-per-em="1000"
    panose-1="0 0 0 0 0 0 0 0 0 0"
    ascent="800"
    descent="-200"
    x-height="500"
    cap-height="625"
    bbox="-151 -541 1726 1222"
    underline-thickness="50"
    underline-position="-175"
    unicode-range="U+0020-FEFC"
  />
<missing-glyph horiz-adv-x="600" 
d="M24 1012h524v-1012h-524v1012zM40 996v-979h492v979h-492z" />
    <glyph glyph-name="f_f" unicode="ff" horiz-adv-x="656" 
d="M208 0h-80v493q4 71 14.5 110.5t33 55.5t60.5 16q23 0 45.5 -2.5t43.5 -7.5l-5 -62l-112 9v-612zM292 500v-57h-238v57h238zM536 0h-80v493q4 71 14.5 110.5t33 55.5t60.5 16q23 0 45.5 -2.5t43.5 -7.5l-5 -62l-112 9v-612zM620 500v-57h-238v57h238z" />
    <glyph glyph-name="fi" unicode="fi" horiz-adv-x="604" 
d="M208 0h-80v493q4 71 14.5 110.5t33 55.5t60.5 16q23 0 45.5 -2.5t43.5 -7.5l-5 -62l-112 9v-612zM292 500v-57h-238v57h238zM426 496l80 14v-510h-80v496zM468 596q-32 0 -42.5 10.5t-10.5 40.5q0 31 11 42t42 11q30 0 40.5 -11t10.5 -42q0 -30 -10 -40.5t-41 -10.5z" />
    <glyph glyph-name="fl" unicode="fl" horiz-adv-x="591" 
d="M208 0h-80v493q4 71 14.5 110.5t33 55.5t60.5 16q23 0 45.5 -2.5t43.5 -7.5l-5 -62l-112 9v-612zM292 500v-57h-238v57h238zM500 60q8 -1 20.5 -2t24.5 -2l-5 -55q-18 -5 -31 -7.5t-26 -2.5q-32 0 -47.5 17t-15.5 51v591l80 15v-605z" />
    <glyph glyph-name="f_f_i" unicode="ffi" horiz-adv-x="932" 
d="M208 0h-80v493q4 71 14.5 110.5t33 55.5t60.5 16q23 0 45.5 -2.5t43.5 -7.5l-5 -62l-112 9v-612zM292 500v-57h-238v57h238zM536 0h-80v493q4 71 14.5 110.5t33 55.5t60.5 16q23 0 45.5 -2.5t43.5 -7.5l-5 -62l-112 9v-612zM620 500v-57h-238v57h238zM754 496l80 14v-510
h-80v496zM796 596q-32 0 -42.5 10.5t-10.5 40.5q0 31 11 42t42 11q30 0 40.5 -11t10.5 -42q0 -30 -10 -40.5t-41 -10.5z" />
    <glyph glyph-name="f_f_l" unicode="ffl" horiz-adv-x="919" 
d="M208 0h-80v493q4 71 14.5 110.5t33 55.5t60.5 16q23 0 45.5 -2.5t43.5 -7.5l-5 -62l-112 9v-612zM292 500v-57h-238v57h238zM536 0h-80v493q4 71 14.5 110.5t33 55.5t60.5 16q23 0 45.5 -2.5t43.5 -7.5l-5 -62l-112 9v-612zM620 500v-57h-238v57h238zM828 60
q8 -1 20.5 -2t24.5 -2l-5 -55q-18 -5 -31 -7.5t-26 -2.5q-32 0 -47.5 17t-15.5 51v591l80 15v-605z" />
    <glyph glyph-name="uniFDF2" unicode="&#x627;&#xfedf;&#xfee0;&#xfeea;" horiz-adv-x="1514" arabic-form="isolated" 
d="M1344 0v630h64v-630h-64zM1132 0h-226v72h162v558h64v-630zM820 72h126v-72h-352v72h162v558h64v-558zM520 72h114v-72h-114v72zM524 470v-470h-239q-62 0 -101 8.5t-59 33.5t-27.5 71t-7.5 122t7.5 122t27.5 71t59 33.5t101 8.5h239zM460 398h-226q-41 0 -58.5 -14
t-17.5 -47v-204q0 -33 17.5 -47t58.5 -14h226v326zM1242 981l1 -196l-255 -68q-5 -1 -10 -1.5t-10 -0.5q-20 0 -29 18t-9 61q0 26 3.5 56t9.5 51l53 8q-5 -25 -7.5 -48.5t-2.5 -44.5q0 -18 1.5 -31.5t5.5 -24.5l78 21q-8 15 -8 70v73l47 13v-145l77 20v147zM1062 1012v198
l48 12v-198z" />
    <glyph glyph-name="uniFEF5" unicode="&#xfedf;&#xfe82;" horiz-adv-x="627" arabic-form="isolated" 
d="M457 375v255h64v-209q0 -26 -6.5 -49t-20 -40t-36.5 -25v-7q50 -41 68.5 -74.5t18.5 -74.5q0 -87 -60.5 -126.5t-194.5 -39.5q-84 0 -131.5 13t-66.5 43t-19 81q0 46 11 73t42 46.5t90 42.5zM141 57h209q67 0 97 26.5t30 60.5q0 23 -12.5 48t-35.5 43l-48 38l-240 -90
v-126zM343 302l-242 195l41 51l273 -220zM188 688q-11 0 -20.5 7t-36.5 32l-57 -26l-12 25q28 20 44 30t26.5 14t18.5 4q9 0 18 -7t38 -34l57 26l12 -25q-23 -16 -39.5 -26.5t-28 -15t-20.5 -4.5z" />
    <glyph glyph-name="uniFEF6" unicode="&#xfee0;&#xfe82;" horiz-adv-x="624" arabic-form="final" 
d="M186 40l-44 505h64l44 -505h-64zM454 40v590h64v-590h-64zM644 72v-72h-624v72h624zM191 688q-11 0 -20.5 7t-36.5 32l-57 -26l-12 25q28 20 44 30t26.5 14t18.5 4q9 0 18 -7t38 -34l57 26l12 -25q-23 -16 -39.5 -26.5t-28 -15t-20.5 -4.5z" />
    <glyph glyph-name="uniFEF7" unicode="&#xfedf;&#xfe84;" horiz-adv-x="627" arabic-form="isolated" 
d="M457 375v255h64v-209q0 -26 -6.5 -49t-20 -40t-36.5 -25v-7q50 -41 68.5 -74.5t18.5 -74.5q0 -87 -60.5 -126.5t-194.5 -39.5q-84 0 -131.5 13t-66.5 43t-19 81q0 46 11 73t42 46.5t90 42.5zM141 57h209q67 0 97 26.5t30 60.5q0 23 -12.5 48t-35.5 43l-48 38l-240 -90
v-126zM343 302l-242 195l41 51l273 -220zM197 731l87 24v-41l-226 -60v40l46 13q-7 13 -10 32t-3 47q0 57 21 87t59.5 41.5t89.5 9.5v-50q-28 0 -59.5 -6t-51.5 -19l-2 -97q0 -19 11 -23.5t38 2.5z" />
    <glyph glyph-name="uniFEF8" unicode="&#xfee0;&#xfe84;" horiz-adv-x="624" arabic-form="final" 
d="M186 40l-44 505h64l44 -505h-64zM454 40v590h64v-590h-64zM644 72v-72h-624v72h624zM200 731l87 24v-41l-226 -60v40l46 13q-7 13 -10 32t-3 47q0 57 21 87t59.5 41.5t89.5 9.5v-50q-28 0 -59.5 -6t-51.5 -19l-2 -97q0 -19 11 -23.5t38 2.5z" />
    <glyph glyph-name="uniFEF9" unicode="&#xfedf;&#xfe88;" horiz-adv-x="627" arabic-form="isolated" 
d="M457 375v255h64v-209q0 -26 -6.5 -49t-20 -40t-36.5 -25v-7q50 -41 68.5 -74.5t18.5 -74.5q0 -87 -60.5 -126.5t-194.5 -39.5q-84 0 -131.5 13t-66.5 43t-19 81q0 46 11 73t42 46.5t90 42.5zM141 57h209q67 0 97 26.5t30 60.5q0 23 -12.5 48t-35.5 43l-48 38l-240 -90
v-126zM343 302l-242 195l41 51l273 -220zM141 -273l87 24v-41l-226 -60v40l46 13q-7 13 -10 32t-3 47q0 57 21 87t59.5 41.5t89.5 9.5v-50q-28 0 -59.5 -6t-51.5 -19l-2 -97q0 -19 11 -23.5t38 2.5z" />
    <glyph glyph-name="uniFEFA" unicode="&#xfee0;&#xfe88;" horiz-adv-x="624" arabic-form="final" 
d="M186 40l-44 505h64l44 -505h-64zM454 40v590h64v-590h-64zM644 72v-72h-624v72h624zM250 -273l87 24v-41l-226 -60v40l46 13q-7 13 -10 32t-3 47q0 57 21 87t59.5 41.5t89.5 9.5v-50q-28 0 -59.5 -6t-51.5 -19l-2 -97q0 -19 11 -23.5t38 2.5z" />
    <glyph glyph-name="uniFEFB" unicode="&#xfedf;&#xfe8e;" horiz-adv-x="627" arabic-form="isolated" 
d="M457 375v255h64v-209q0 -26 -6.5 -49t-20 -40t-36.5 -25v-7q50 -41 68.5 -74.5t18.5 -74.5q0 -87 -60.5 -126.5t-194.5 -39.5q-84 0 -131.5 13t-66.5 43t-19 81q0 46 11 73t42 46.5t90 42.5zM141 57h209q67 0 97 26.5t30 60.5q0 23 -12.5 48t-35.5 43l-48 38l-240 -90
v-126zM343 302l-242 195l41 51l273 -220z" />
    <glyph glyph-name="uniFEFC" unicode="&#xfee0;&#xfe8e;" horiz-adv-x="624" arabic-form="final" 
d="M186 40l-44 505h64l44 -505h-64zM454 40v590h64v-590h-64zM644 72v-72h-624v72h624z" />
    <glyph glyph-name="lam_alefWaslaar" unicode="&#xfedf;&#xfb51;" horiz-adv-x="627" 
d="M457 375v255h64v-209q0 -26 -6.5 -49t-20 -40t-36.5 -25v-7q50 -41 68.5 -74.5t18.5 -74.5q0 -87 -60.5 -126.5t-194.5 -39.5q-84 0 -131.5 13t-66.5 43t-19 81q0 46 11 73t42 46.5t90 42.5zM141 57h209q67 0 97 26.5t30 60.5q0 23 -12.5 48t-35.5 43l-48 38l-240 -90
v-126zM343 302l-242 195l41 51l273 -220zM51 689q0 94 36 150t113 56q53 0 73 -16t20 -56v-134h-48v162q-15 5 -45 5q-53 0 -77 -40.5t-24 -126.5h-48zM21 665v40h272v-40h-272z" />
    <glyph glyph-name="lam_alefWaslaar.fina" unicode="&#xfee0;&#xfb51;" horiz-adv-x="624" 
d="M186 40l-44 505h64l44 -505h-64zM454 40v590h64v-590h-64zM644 72v-72h-624v72h624zM54 689q0 94 36 150t113 56q53 0 73 -16t20 -56v-134h-48v162q-15 5 -45 5q-53 0 -77 -40.5t-24 -126.5h-48zM24 665v40h272v-40h-272z" />
    <glyph glyph-name="uni066E.init" unicode="&#x66e;" horiz-adv-x="312" 
d="M-20 0v72h162v398h64v-470h-226z" />
    <glyph glyph-name="uni066E.medi" unicode="&#x66e;" horiz-adv-x="312" 
d="M206 72h126v-72h-352v72h162v398h64v-398z" />
    <glyph glyph-name="uni066E.fina" unicode="&#x66e;" horiz-adv-x="876" 
d="M762 72h134v-72h-134v72zM206 0q-49 0 -78 19.5t-41.5 64t-12.5 119.5q0 43 7.5 92.5t19.5 80.5l60 -11q-11 -41 -17 -80.5t-6 -72.5q0 -44 3.5 -77t13.5 -63h551v398h64v-470h-564z" />
    <glyph glyph-name="uni066F.fina" unicode="&#x66f;" horiz-adv-x="869" 
d="M764 72h125v-72h-125v72zM194 -256q-49 0 -78 22.5t-41.5 74.5t-12.5 140q0 35 3.5 73.5t10 74t13.5 59.5l61 -10q-12 -52 -18 -99.5t-6 -88.5q0 -54 4 -95.5t13 -78.5h557v184h64v-107q0 -83 -30.5 -116t-107.5 -33h-432zM491 0q-40 0 -65.5 10.5t-39.5 36t-19.5 72.5
t-5.5 119q0 76 8 123t29.5 72.5t61 35.5t101.5 10q61 0 106.5 -6.5t96.5 -22.5v-450h-273zM652 72q27 0 37.5 11.5t10.5 41.5v282h-228q-26 0 -34.5 -11.5t-8.5 -46.5v-277h223z" />
    <glyph glyph-name="uni06A1.init" unicode="&#x6a1;" horiz-adv-x="644" 
d="M-20 72h163q-3 27 -5.5 68.5t-2.5 111.5q0 68 8 112.5t29 69t61 35t102 10.5q51 0 97 -6.5t106 -22.5v-450h-558v72zM427 72q27 0 37 11.5t10 41.5v280h-223q-28 0 -37.5 -12t-9.5 -47v-274h223z" />
    <glyph glyph-name="uni06A1.medi" unicode="&#x6a1;" horiz-adv-x="644" 
d="M538 72h126v-72h-126v72zM-20 72h163q-3 27 -5.5 68.5t-2.5 111.5q0 68 8 112.5t29 69t61 35t102 10.5q51 0 97 -6.5t106 -22.5v-450h-558v72zM427 72q27 0 37 11.5t10 41.5v280h-223q-28 0 -37.5 -12t-9.5 -47v-274h223z" />
    <glyph glyph-name="uni06A1.fina" unicode="&#x6a1;" horiz-adv-x="976" 
d="M870 72h126v-72h-126v72zM206 0q-49 0 -78 19.5t-41.5 64t-12.5 119.5q0 43 7.5 92.5t19.5 80.5l60 -11q-11 -41 -17 -80.5t-6 -72.5q0 -44 3.5 -77t13.5 -63h320q-4 27 -6 68.5t-2 111.5q0 68 8 112.5t29.5 69t60.5 35t102 10.5q52 0 97 -6.5t106 -22.5v-450h-664z
M759 72q27 0 37 11.5t10 41.5v280h-223q-28 0 -38 -11t-10 -47v-275h224z" />
    <glyph glyph-name="uni06C2.fina" unicode="&#x6c2;" horiz-adv-x="614" 
d="M520 72h114v-72h-114v72zM524 470v-470h-239q-62 0 -101 8.5t-59 33.5t-27.5 71t-7.5 122t7.5 122t27.5 71t59 33.5t101 8.5h239zM460 398h-226q-41 0 -58.5 -14t-17.5 -47v-204q0 -33 17.5 -47t58.5 -14h226v326zM329 656l87 24v-41l-226 -60v40l46 13q-7 13 -10 32
t-3 47q0 57 21 87t59.5 41.5t89.5 9.5v-50q-28 0 -59.5 -6t-51.5 -19l-2 -97q0 -19 11 -23.5t38 2.5z" />
    <glyph glyph-name="uni06C3.fina" unicode="&#x6c3;" horiz-adv-x="647" 
d="M315 479q40 0 84.5 -3.5t83.5 -10.5t59 -15l-9 -67q-29 8 -66 13.5t-72.5 8t-63.5 2.5q-49 0 -89.5 -2.5t-75.5 -10.5v-394h-64v346q0 50 19 79t65.5 41.5t128.5 12.5zM542 450v-378h125v-72h-190v450h65zM262 591q-9 0 -20.5 8t-20 20t-8.5 21q0 10 8.5 21t20 19.5
t20.5 8.5q10 0 21.5 -8.5t19.5 -19.5t8 -21q0 -9 -8.5 -20.5t-20 -20t-20.5 -8.5zM397 591q-9 0 -20.5 8t-20 20t-8.5 21q0 10 8.5 21t20 19.5t20.5 8.5q10 0 21.5 -8.5t19.5 -19.5t8 -21q0 -9 -8.5 -20.5t-20 -20t-20.5 -8.5z" />
    <glyph glyph-name="uniFB51" unicode="&#x671;" horiz-adv-x="276" arabic-form="final" 
d="M106 0v470h64v-398h126v-72h-190zM18 614q0 94 36 150t113 56q53 0 73 -16t20 -56v-134h-48v162q-15 5 -45 5q-53 0 -77 -40.5t-24 -126.5h-48zM-12 590v40h272v-40h-272z" />
    <glyph glyph-name="uniFB57" unicode="&#x67e;" horiz-adv-x="876" arabic-form="final" 
d="M762 72h134v-72h-134v72zM206 0q-49 0 -78 19.5t-41.5 64t-12.5 119.5q0 43 7.5 92.5t19.5 80.5l60 -11q-11 -41 -17 -80.5t-6 -72.5q0 -44 3.5 -77t13.5 -63h551v398h64v-470h-564zM434 -334q-9 0 -20.5 8t-20 20t-8.5 21q0 10 8.5 21t20 19.5t20.5 8.5q10 0 21.5 -8.5
t19.5 -19.5t8 -21q0 -9 -8.5 -20.5t-20 -20t-20.5 -8.5zM366 -191q-9 0 -20.5 8t-20 20t-8.5 21q0 10 8.5 21t20 19.5t20.5 8.5q10 0 21.5 -8.5t19.5 -19.5t8 -21q0 -9 -8.5 -20.5t-20 -20t-20.5 -8.5zM501 -191q-9 0 -20.5 8t-20 20t-8.5 21q0 10 8.5 21t20 19.5t20.5 8.5
q10 0 21.5 -8.5t19.5 -19.5t8 -21q0 -9 -8.5 -20.5t-20 -20t-20.5 -8.5z" />
    <glyph glyph-name="uniFB58" unicode="&#x67e;" horiz-adv-x="312" arabic-form="initial" 
d="M-20 0v72h162v398h64v-470h-226zM108 -304q-9 0 -20.5 8t-20 20t-8.5 21q0 10 8.5 21t20 19.5t20.5 8.5q10 0 21.5 -8.5t19.5 -19.5t8 -21q0 -9 -8.5 -20.5t-20 -20t-20.5 -8.5zM40 -161q-9 0 -20.5 8t-20 20t-8.5 21q0 10 8.5 21t20 19.5t20.5 8.5q10 0 21.5 -8.5
t19.5 -19.5t8 -21q0 -9 -8.5 -20.5t-20 -20t-20.5 -8.5zM175 -161q-9 0 -20.5 8t-20 20t-8.5 21q0 10 8.5 21t20 19.5t20.5 8.5q10 0 21.5 -8.5t19.5 -19.5t8 -21q0 -9 -8.5 -20.5t-20 -20t-20.5 -8.5z" />
    <glyph glyph-name="uniFB59" unicode="&#x67e;" horiz-adv-x="312" arabic-form="medial" 
d="M206 72h126v-72h-352v72h162v398h64v-398zM173 -321q-9 0 -20.5 8t-20 20t-8.5 21q0 10 8.5 21t20 19.5t20.5 8.5q10 0 21.5 -8.5t19.5 -19.5t8 -21q0 -9 -8.5 -20.5t-20 -20t-20.5 -8.5zM106 -178q-9 0 -20.5 8t-20 20t-8.5 21q0 10 8.5 21t20 19.5t20.5 8.5
q10 0 21.5 -8.5t19.5 -19.5t8 -21q0 -9 -8.5 -20.5t-20 -20t-20.5 -8.5zM240 -178q-9 0 -20.5 8t-20 20t-8.5 21q0 10 8.5 21t20 19.5t20.5 8.5q10 0 21.5 -8.5t19.5 -19.5t8 -21q0 -9 -8.5 -20.5t-20 -20t-20.5 -8.5z" />
    <glyph glyph-name="uniFB67" unicode="&#x679;" horiz-adv-x="876" arabic-form="final" 
d="M762 72h134v-72h-134v72zM206 0q-49 0 -78 19.5t-41.5 64t-12.5 119.5q0 43 7.5 92.5t19.5 80.5l60 -11q-11 -41 -17 -80.5t-6 -72.5q0 -44 3.5 -77t13.5 -63h551v398h64v-470h-564zM314 526v237h48v-122q18 28 44.5 43.5t73.5 15.5q46 0 62 -15.5t16 -56.5v-102h-48v127
q-9 4 -21 6t-24 2q-53 0 -78 -32t-25 -103h-48zM284 490v40h274v-40h-274z" />
    <glyph glyph-name="uniFB68" unicode="&#x679;" horiz-adv-x="312" arabic-form="initial" 
d="M-20 0v72h162v398h64v-470h-226zM53 626v237h48v-122q18 28 44.5 43.5t73.5 15.5q46 0 62 -15.5t16 -56.5v-102h-48v127q-9 4 -21 6t-24 2q-53 0 -78 -32t-25 -103h-48zM23 590v40h274v-40h-274z" />
    <glyph glyph-name="uniFB69" unicode="&#x679;" horiz-adv-x="312" arabic-form="medial" 
d="M206 72h126v-72h-352v72h162v398h64v-398zM53 626v237h48v-122q18 28 44.5 43.5t73.5 15.5q46 0 62 -15.5t16 -56.5v-102h-48v127q-9 4 -21 6t-24 2q-53 0 -78 -32t-25 -103h-48zM23 590v40h274v-40h-274z" />
    <glyph glyph-name="uniFB6B" unicode="&#x6a4;" horiz-adv-x="976" arabic-form="final" 
d="M870 72h126v-72h-126v72zM206 0q-49 0 -78 19.5t-41.5 64t-12.5 119.5q0 43 7.5 92.5t19.5 80.5l60 -11q-11 -41 -17 -80.5t-6 -72.5q0 -44 3.5 -77t13.5 -63h320q-4 27 -6 68.5t-2 111.5q0 68 8 112.5t29.5 69t60.5 35t102 10.5q52 0 97 -6.5t106 -22.5v-450h-664z
M759 72q27 0 37 11.5t10 41.5v280h-223q-28 0 -38 -11t-10 -47v-275h224zM629 591q-9 0 -20.5 8t-20 20t-8.5 21q0 10 8.5 21t20 19.5t20.5 8.5q10 0 21.5 -8.5t19.5 -19.5t8 -21q0 -9 -8.5 -20.5t-20 -20t-20.5 -8.5zM763 591q-9 0 -20.5 8t-20 20t-8.5 21q0 10 8.5 21
t20 19.5t20.5 8.5q10 0 21.5 -8.5t19.5 -19.5t8 -21q0 -9 -8.5 -20.5t-20 -20t-20.5 -8.5zM697 730q-9 0 -20.5 8t-20 20t-8.5 21q0 10 8.5 21t20 19.5t20.5 8.5q10 0 21.5 -8.5t19.5 -19.5t8 -21q0 -9 -8.5 -20.5t-20 -20t-20.5 -8.5z" />
    <glyph glyph-name="uniFB6C" unicode="&#x6a4;" horiz-adv-x="644" arabic-form="initial" 
d="M-20 72h163q-3 27 -5.5 68.5t-2.5 111.5q0 68 8 112.5t29 69t61 35t102 10.5q51 0 97 -6.5t106 -22.5v-450h-558v72zM427 72q27 0 37 11.5t10 41.5v280h-223q-28 0 -37.5 -12t-9.5 -47v-274h223zM268 591q-9 0 -20.5 8t-20 20t-8.5 21q0 10 8.5 21t20 19.5t20.5 8.5
q10 0 21.5 -8.5t19.5 -19.5t8 -21q0 -9 -8.5 -20.5t-20 -20t-20.5 -8.5zM402 591q-9 0 -20.5 8t-20 20t-8.5 21q0 10 8.5 21t20 19.5t20.5 8.5q10 0 21.5 -8.5t19.5 -19.5t8 -21q0 -9 -8.5 -20.5t-20 -20t-20.5 -8.5zM335 730q-9 0 -20.5 8t-20 20t-8.5 21q0 10 8.5 21
t20 19.5t20.5 8.5q10 0 21.5 -8.5t19.5 -19.5t8 -21q0 -9 -8.5 -20.5t-20 -20t-20.5 -8.5z" />
    <glyph glyph-name="uniFB6D" unicode="&#x6a4;" horiz-adv-x="644" arabic-form="medial" 
d="M538 72h126v-72h-126v72zM-20 72h163q-3 27 -5.5 68.5t-2.5 111.5q0 68 8 112.5t29 69t61 35t102 10.5q51 0 97 -6.5t106 -22.5v-450h-558v72zM427 72q27 0 37 11.5t10 41.5v280h-223q-28 0 -37.5 -12t-9.5 -47v-274h223zM268 591q-9 0 -20.5 8t-20 20t-8.5 21
q0 10 8.5 21t20 19.5t20.5 8.5q10 0 21.5 -8.5t19.5 -19.5t8 -21q0 -9 -8.5 -20.5t-20 -20t-20.5 -8.5zM402 591q-9 0 -20.5 8t-20 20t-8.5 21q0 10 8.5 21t20 19.5t20.5 8.5q10 0 21.5 -8.5t19.5 -19.5t8 -21q0 -9 -8.5 -20.5t-20 -20t-20.5 -8.5zM335 730q-9 0 -20.5 8
t-20 20t-8.5 21q0 10 8.5 21t20 19.5t20.5 8.5q10 0 21.5 -8.5t19.5 -19.5t8 -21q0 -9 -8.5 -20.5t-20 -20t-20.5 -8.5z" />
    <glyph glyph-name="uniFB7B" unicode="&#x686;" horiz-adv-x="652" arabic-form="final" 
d="M617 72h55v-72h-43q-30 0 -46.5 13.5t-27.5 42.5l-71 186q-26 63 -57.5 98.5t-78.5 51t-120 15.5q-16 0 -34 -0.5t-39 -2.5l-11 70q26 2 50 3.5t47 1.5q84 0 140 -21.5t94.5 -67t66.5 -120.5zM306 -191l11 -67q-29 -6 -55.5 -9.5t-50.5 -3.5q-64 0 -98.5 20.5t-47 68
t-12.5 127.5q0 107 42.5 171t139 92.5t257.5 28.5l56 -55q-157 0 -250.5 -18.5t-134 -59t-40.5 -109.5v-186q16 -4 35 -6t41 -2t49 2t58 6zM362 -181q-9 0 -21 8t-21 20.5t-9 22.5q0 9 8.5 21t20.5 20.5t22 9.5q9 -1 21 -9.5t21 -20.5t9 -21q0 -10 -9 -22t-21 -20.5
t-21 -8.5zM292 -32q-10 -1 -21.5 7.5t-20.5 21t-9 21.5q0 10 9 21.5t20.5 20.5t21.5 9t22 -9t20.5 -20.5t8.5 -21.5q0 -9 -9 -21t-21 -21t-21 -8zM431 -32q-9 -1 -21 7.5t-20.5 21t-8.5 21.5q0 10 8.5 21.5t20.5 20.5t21 9q10 0 21.5 -9t20.5 -20.5t9 -21.5q0 -9 -9 -21
t-21 -21t-21 -8z" />
    <glyph glyph-name="uniFB7C" unicode="&#x686;" horiz-adv-x="548" arabic-form="initial" 
d="M456 258h92v-72h-81q-29 0 -45.5 13.5t-27.5 42.5q-23 64 -54.5 100t-80 50.5t-121.5 14.5q-17 0 -35 -0.5t-38 -2.5l-11 70q27 2 51 3.5t46 1.5q84 0 141.5 -22.5t96.5 -70.5t67 -128zM404 254l59 -28q-18 -45 -45.5 -85.5t-66 -72t-90 -50t-118.5 -18.5h-163v72h188
q46 0 83.5 17.5t67 44.5t51 58.5t34.5 61.5zM259 -321q-9 0 -20.5 8t-20 20t-8.5 21q0 10 8.5 21t20 19.5t20.5 8.5q10 0 21.5 -8.5t19.5 -19.5t8 -21q0 -9 -8.5 -20.5t-20 -20t-20.5 -8.5zM192 -178q-9 0 -20.5 8t-20 20t-8.5 21q0 10 8.5 21t20 19.5t20.5 8.5
q10 0 21.5 -8.5t19.5 -19.5t8 -21q0 -9 -8.5 -20.5t-20 -20t-20.5 -8.5zM326 -178q-9 0 -20.5 8t-20 20t-8.5 21q0 10 8.5 21t20 19.5t20.5 8.5q10 0 21.5 -8.5t19.5 -19.5t8 -21q0 -9 -8.5 -20.5t-20 -20t-20.5 -8.5z" />
    <glyph glyph-name="uniFB7D" unicode="&#x686;" horiz-adv-x="562" arabic-form="medial" 
d="M527 72h55v-72h-43q-30 0 -46 13.5t-27 42.5l-72 186q-26 63 -58 98.5t-79 51t-119 15.5q-17 0 -35 -0.5t-38 -2.5l-11 70q27 2 51 3.5t46 1.5q83 0 139.5 -21t95 -67t66.5 -121zM404 254l59 -28q-18 -45 -43.5 -85.5t-62 -72t-85 -50t-111.5 -18.5h-181v72h218
q40 0 73 17.5t58.5 44.5t44 58.5t30.5 61.5zM253 -321q-9 0 -20.5 8t-20 20t-8.5 21q0 10 8.5 21t20 19.5t20.5 8.5q10 0 21.5 -8.5t19.5 -19.5t8 -21q0 -9 -8.5 -20.5t-20 -20t-20.5 -8.5zM186 -178q-9 0 -20.5 8t-20 20t-8.5 21q0 10 8.5 21t20 19.5t20.5 8.5
q10 0 21.5 -8.5t19.5 -19.5t8 -21q0 -9 -8.5 -20.5t-20 -20t-20.5 -8.5zM320 -178q-9 0 -20.5 8t-20 20t-8.5 21q0 10 8.5 21t20 19.5t20.5 8.5q10 0 21.5 -8.5t19.5 -19.5t8 -21q0 -9 -8.5 -20.5t-20 -20t-20.5 -8.5z" />
    <glyph glyph-name="uniFB89" unicode="&#x688;" horiz-adv-x="483" arabic-form="final" 
d="M441 72h62v-72h-62v72zM20 0v72h361q-31 111 -56 179.5t-50.5 105t-58 49.5t-78.5 13q-15 0 -33.5 -2.5t-33.5 -6.5l-18 70q24 6 47 8.5t38 2.5q52 0 89 -7t65 -30.5t52 -71t50.5 -127t62.5 -199.5v-56h-437zM46 626v237h48v-122q18 28 44.5 43.5t73.5 15.5
q46 0 62 -15.5t16 -56.5v-102h-48v127q-9 4 -21 6t-24 2q-53 0 -78 -32t-25 -103h-48zM16 590v40h274v-40h-274z" />
    <glyph glyph-name="uniFB8B" unicode="&#x698;" horiz-adv-x="304" arabic-form="final" 
d="M198 72h126v-72h-126v72zM59 -254l-29 55q39 20 62 45t33 61t10 87v476h64v-476q0 -62 -14 -108.5t-45 -80t-81 -59.5zM98 591q-9 0 -20.5 8t-20 20t-8.5 21q0 10 8.5 21t20 19.5t20.5 8.5q10 0 21.5 -8.5t19.5 -19.5t8 -21q0 -9 -8.5 -20.5t-20 -20t-20.5 -8.5zM233 591
q-9 0 -20.5 8t-20 20t-8.5 21q0 10 8.5 21t20 19.5t20.5 8.5q10 0 21.5 -8.5t19.5 -19.5t8 -21q0 -9 -8.5 -20.5t-20 -20t-20.5 -8.5zM166 730q-9 0 -20.5 8t-20 20t-8.5 21q0 10 8.5 21t20 19.5t20.5 8.5q10 0 21.5 -8.5t19.5 -19.5t8 -21q0 -9 -8.5 -20.5t-20 -20
t-20.5 -8.5z" />
    <glyph glyph-name="uniFB8D" unicode="&#x691;" horiz-adv-x="304" arabic-form="final" 
d="M198 72h126v-72h-126v72zM59 -254l-29 55q39 20 62 45t33 61t10 87v476h64v-476q0 -62 -14 -108.5t-45 -80t-81 -59.5zM45 626v237h48v-122q18 28 44.5 43.5t73.5 15.5q46 0 62 -15.5t16 -56.5v-102h-48v127q-9 4 -21 6t-24 2q-53 0 -78 -32t-25 -103h-48zM15 590v40h274
v-40h-274z" />
    <glyph glyph-name="uniFB8F" unicode="&#x6a9;" horiz-adv-x="834" arabic-form="final" 
d="M728 72h126v-72h-126v72zM206 0q-49 0 -78 19.5t-41.5 64t-12.5 119.5q0 43 7.5 92.5t19.5 80.5l60 -11q-11 -41 -17 -80.5t-6 -72.5q0 -44 3.5 -77t13.5 -63h509v248h-274q-44 0 -66 19t-22 57q0 32 12 72t32 83t46 82.5t55 68.5l56 -29q-29 -33 -54 -67.5t-43.5 -70.5
t-30 -72t-17.5 -71h278q36 0 55.5 -8.5t28 -28.5t8.5 -55v-300h-522z" />
    <glyph glyph-name="uniFB90" unicode="&#x6a9;" horiz-adv-x="697" arabic-form="initial" 
d="M-20 0v72h547v248h-350q-43 0 -66 19t-23 57q0 32 12 72t32.5 83t47 82.5t54.5 68.5l56 -29q-29 -33 -53.5 -67.5t-43 -70.5t-31 -72t-18.5 -71h355q36 0 55.5 -8.5t28 -28t8.5 -55.5v-300h-611z" />
    <glyph glyph-name="uniFB91" unicode="&#x6a9;" horiz-adv-x="697" arabic-form="medial" 
d="M591 72h126v-72h-126v72zM-20 0v72h547v248h-350q-43 0 -66 19t-23 57q0 32 12 72t32.5 83t47 82.5t54.5 68.5l56 -29q-29 -33 -53.5 -67.5t-43 -70.5t-31 -72t-18.5 -71h355q36 0 55.5 -8.5t28 -28t8.5 -55.5v-300h-611z" />
    <glyph glyph-name="uniFB93" unicode="&#x6af;" horiz-adv-x="834" arabic-form="final" 
d="M728 72h126v-72h-126v72zM206 0q-49 0 -78 19.5t-41.5 64t-12.5 119.5q0 43 7.5 92.5t19.5 80.5l60 -11q-11 -41 -17 -80.5t-6 -72.5q0 -44 3.5 -77t13.5 -63h509v248h-274q-44 0 -66 19t-22 57q0 32 12 72t32 83t46 82.5t55 68.5l56 -29q-29 -33 -54 -67.5t-43.5 -70.5
t-30 -72t-17.5 -71h278q36 0 55.5 -8.5t28 -28.5t8.5 -55v-300h-522zM320 768q-28 -26 -51 -60t-41 -73t-29.5 -77t-16.5 -73l61 -21q7 50 26 100t46.5 95t60.5 79z" />
    <glyph glyph-name="uniFB94" unicode="&#x6af;" horiz-adv-x="697" arabic-form="initial" 
d="M-20 0v72h547v248h-350q-43 0 -66 19t-23 57q0 32 12 72t32.5 83t47 82.5t54.5 68.5l56 -29q-29 -33 -53.5 -67.5t-43 -70.5t-31 -72t-18.5 -71h355q36 0 55.5 -8.5t28 -28t8.5 -55.5v-300h-611zM98 768q-28 -26 -51 -60t-41 -73t-29.5 -77t-16.5 -73l61 -21q7 50 26 100
t46.5 95t60.5 79z" />
    <glyph glyph-name="uniFB95" unicode="&#x6af;" horiz-adv-x="697" arabic-form="medial" 
d="M591 72h126v-72h-126v72zM-20 0v72h547v248h-350q-43 0 -66 19t-23 57q0 32 12 72t32.5 83t47 82.5t54.5 68.5l56 -29q-29 -33 -53.5 -67.5t-43 -70.5t-31 -72t-18.5 -71h355q36 0 55.5 -8.5t28 -28t8.5 -55.5v-300h-611zM98 768q-28 -26 -51 -60t-41 -73t-29.5 -77
t-16.5 -73l61 -21q7 50 26 100t46.5 95t60.5 79z" />
    <glyph glyph-name="uniFB9F" unicode="&#x6ba;" horiz-adv-x="656" arabic-form="final" 
d="M550 72h126v-72h-126v72zM149 -168h193q83 0 113.5 10.5t30.5 42.5v585h64v-515q0 -60 -10 -98t-37.5 -59t-78 -29.5t-131.5 -8.5q-72 0 -115.5 9.5t-66.5 33.5t-31 66.5t-8 109.5q0 42 3.5 88.5t10.5 89t15 73.5l59 -11q-12 -61 -18 -118.5t-6 -106.5q0 -51 3 -88.5
t10 -73.5z" />
    <glyph glyph-name="uniFBA7" unicode="&#x6c1;" horiz-adv-x="647" arabic-form="final" 
d="M315 479q40 0 84.5 -3.5t83.5 -10.5t59 -15l-9 -67q-29 8 -66 13.5t-72.5 8t-63.5 2.5q-49 0 -89.5 -2.5t-75.5 -10.5v-394h-64v346q0 50 19 79t65.5 41.5t128.5 12.5zM542 450v-378h125v-72h-190v450h65z" />
    <glyph glyph-name="uniFBA8" unicode="&#x6c1;" horiz-adv-x="312" arabic-form="initial" 
d="M177 9l29 -9l-13 -66q17 -3 23.5 -13t6.5 -35q0 -28 -10.5 -38.5t-36.5 -10.5q-24 0 -34 10.5t-10 38.5q0 6 2 15.5t6.5 22t11.5 29.5zM-20 0v72h162v398h64v-470h-226z" />
    <glyph glyph-name="uniFBA9" unicode="&#x6c1;" horiz-adv-x="644" arabic-form="medial" 
d="M540 16v-258q0 -49 -14 -78.5t-50.5 -42t-101.5 -12.5q-50 0 -105 9.5t-96 29.5q-19 45 -32 106.5t-13 123.5v106h66v-108q0 -42 8.5 -86.5t23.5 -86.5q72 -15 131 -15q35 0 65 3t54 9v300h64zM476 0v72h190v-72h-190zM-20 0v72h214v-72h-214z" />
    <glyph glyph-name="uniFBAB" unicode="&#x6be;" horiz-adv-x="720" arabic-form="final" 
d="M638 71h102v-72h-102v72zM20 0v72h581l-54 209q-20 74 -59.5 114t-100.5 55.5t-148 15.5l5 69q101 0 173 -18.5t118.5 -68t70.5 -143.5l64 -250v-55h-650zM98 54q0 80 4.5 127.5t21 71t49.5 30.5t90 7q62 0 98 -7t53 -30.5t22 -71t5 -127.5h-343zM385 238h-176
q-31 0 -43 -8.5t-12 -32.5v-143h231v184z" />
    <glyph glyph-name="uniFBAC" unicode="&#x6be;" horiz-adv-x="720" arabic-form="initial" 
d="M-20 0v72h621l-54 209q-20 74 -59.5 114t-100.5 55.5t-148 15.5l5 69q101 0 173 -18.5t118.5 -68t70.5 -143.5l64 -250v-55h-690zM98 54q0 80 4.5 127.5t21 71t49.5 30.5t90 7q62 0 98 -7t53 -30.5t22 -71t5 -127.5h-343zM385 238h-176q-31 0 -43 -8.5t-12 -32.5v-143
h231v184z" />
    <glyph glyph-name="uniFBAD" unicode="&#x6be;" horiz-adv-x="720" arabic-form="medial" 
d="M640 71h100v-72h-100v72zM-20 0v72h621l-54 209q-20 74 -59.5 114t-100.5 55.5t-148 15.5l5 69q101 0 173 -18.5t118.5 -68t70.5 -143.5l64 -250v-55h-690zM98 54q0 80 4.5 127.5t21 71t49.5 30.5t90 7q62 0 98 -7t53 -30.5t22 -71t5 -127.5h-343zM385 238h-176
q-31 0 -43 -8.5t-12 -32.5v-143h231v184z" />
    <glyph glyph-name="uniFBAF" unicode="&#x6d2;" horiz-adv-x="677" arabic-form="final" 
d="M52 0v72h645v-72h-645zM374 -272q-100 0 -163.5 8t-98 28.5t-47.5 57t-13 93.5v85h64v-147q0 -21 19.5 -32.5t68 -16t135.5 -4.5q46 0 81 1t65 3.5t62 7t74 12.5l11 -67q-29 -8 -72.5 -14.5t-92.5 -10.5t-93 -4z" />
    <glyph glyph-name="uniFBB1" unicode="&#x6d3;" horiz-adv-x="677" arabic-form="final" 
d="M52 0v72h645v-72h-645zM374 -272q-100 0 -163.5 8t-98 28.5t-47.5 57t-13 93.5v85h64v-147q0 -21 19.5 -32.5t68 -16t135.5 -4.5q46 0 81 1t65 3.5t62 7t74 12.5l11 -67q-29 -8 -72.5 -14.5t-92.5 -10.5t-93 -4zM331 297l87 24v-41l-226 -60v40l46 13q-7 13 -10 32t-3 47
q0 57 21 87t59.5 41.5t89.5 9.5v-50q-28 0 -59.5 -6t-51.5 -19l-2 -97q0 -19 11 -23.5t38 2.5z" />
    <glyph glyph-name="uniFBFD" unicode="&#x6cc;" horiz-adv-x="856" arabic-form="final" 
d="M391 -272q-97 0 -159.5 4t-97 20.5t-48.5 52.5t-14 100q0 39 3.5 82.5t10.5 83.5t15 69l63 -12q-12 -56 -20 -107.5t-8 -95.5q0 -39 3 -67t10 -58h283q100 0 155 4.5t77 16t22 32.5v147h64v-89q0 -54 -14 -90t-52 -56t-109 -28.5t-184 -8.5zM626 0q-48 0 -101.5 8
t-88.5 21l11 67q45 -12 88 -18t79 -6h262v-72h-250z" />
    <glyph glyph-name="uniFBFE" unicode="&#x6cc;" horiz-adv-x="312" arabic-form="initial" 
d="M-20 0v72h162v398h64v-470h-226zM42 -155q-9 0 -20.5 8t-20 20t-8.5 21q0 10 8.5 21t20 19.5t20.5 8.5q10 0 21.5 -8.5t19.5 -19.5t8 -21q0 -9 -8.5 -20.5t-20 -20t-20.5 -8.5zM176 -155q-9 0 -20.5 8t-20 20t-8.5 21q0 10 8.5 21t20 19.5t20.5 8.5q10 0 21.5 -8.5
t19.5 -19.5t8 -21q0 -9 -8.5 -20.5t-20 -20t-20.5 -8.5z" />
    <glyph glyph-name="uniFBFF" unicode="&#x6cc;" horiz-adv-x="312" arabic-form="medial" 
d="M206 72h126v-72h-352v72h162v398h64v-398zM101 -178q-9 0 -20.5 8t-20 20t-8.5 21q0 10 8.5 21t20 19.5t20.5 8.5q10 0 21.5 -8.5t19.5 -19.5t8 -21q0 -9 -8.5 -20.5t-20 -20t-20.5 -8.5zM235 -178q-9 0 -20.5 8t-20 20t-8.5 21q0 10 8.5 21t20 19.5t20.5 8.5
q10 0 21.5 -8.5t19.5 -19.5t8 -21q0 -9 -8.5 -20.5t-20 -20t-20.5 -8.5z" />
    <glyph glyph-name="uniFC64" unicode="&#xfc64;" horiz-adv-x="636" arabic-form="final" 
d="M466 0v470h64v-398h126v-72h-190zM199 470h267v-72h-267v72zM59 -254l-29 55q39 20 62 45t33 61t10 87v476h64v-476q0 -62 -14 -108.5t-45 -80t-81 -59.5zM524 656l87 24v-41l-226 -60v40l46 13q-7 13 -10 32t-3 47q0 57 21 87t59.5 41.5t89.5 9.5v-50q-28 0 -59.5 -6
t-51.5 -19l-2 -97q0 -19 11 -23.5t38 2.5z" />
    <glyph glyph-name="uniFC65" unicode="&#xfc65;" horiz-adv-x="636" arabic-form="final" 
d="M466 0v470h64v-398h126v-72h-190zM199 470h267v-72h-267v72zM59 -254l-29 55q39 20 62 45t33 61t10 87v476h64v-476q0 -62 -14 -108.5t-45 -80t-81 -59.5zM524 656l87 24v-41l-226 -60v40l46 13q-7 13 -10 32t-3 47q0 57 21 87t59.5 41.5t89.5 9.5v-50q-28 0 -59.5 -6
t-51.5 -19l-2 -97q0 -19 11 -23.5t38 2.5zM167 591q-9 0 -20.5 8t-20 20t-8.5 21q0 10 8.5 21t20 19.5t20.5 8.5q10 0 21.5 -8.5t19.5 -19.5t8 -21q0 -9 -8.5 -20.5t-20 -20t-20.5 -8.5z" />
    <glyph glyph-name="uniFC67" unicode="&#xfc67;" horiz-adv-x="987" arabic-form="final" 
d="M817 0v470h64v-398h126v-72h-190zM550 470h267v-72h-267v72zM149 -168h193q83 0 113.5 10.5t30.5 42.5v585h64v-515q0 -60 -10 -98t-37.5 -59t-78 -29.5t-131.5 -8.5q-72 0 -115.5 9.5t-66.5 33.5t-31 66.5t-8 109.5q0 42 3.5 88.5t10.5 89t15 73.5l59 -11
q-12 -61 -18 -118.5t-6 -106.5q0 -51 3 -88.5t10 -73.5zM317 616q-9 0 -20.5 8t-20 20t-8.5 21q0 10 8.5 21t20 19.5t20.5 8.5t20.5 -8.5t20 -19.5t8.5 -21q0 -9 -8.5 -20.5t-20.5 -20t-20 -8.5zM877 656l87 24v-41l-226 -60v40l46 13q-7 13 -10 32t-3 47q0 57 21 87
t59.5 41.5t89.5 9.5v-50q-28 0 -59.5 -6t-51.5 -19l-2 -97q0 -19 11 -23.5t38 2.5z" />
    <glyph glyph-name="uniFC68" unicode="&#xfc68;" horiz-adv-x="1120" arabic-form="final" 
d="M950 0v470h64v-398h126v-72h-190zM72 -95q0 39 3.5 82.5t10.5 83.5t15 69l63 -12q-12 -56 -20 -107.5t-8 -95.5q0 -39 3 -67t10 -58h283q100 0 155 4.5t77 16t22 32.5v234l-142 18q-65 8 -100 27.5t-48 57.5t-13 101q0 48 8.5 82t27.5 55.5t51.5 31.5t79.5 10h400v-72
h-499v-213l169 -18q53 -5 81 -25t38.5 -59.5t10.5 -102.5v-69q0 -54 -14 -90t-52 -56t-109 -28.5t-184 -8.5q-97 0 -159.5 4t-97 20.5t-48.5 52.5t-14 100zM1007 656l87 24v-41l-226 -60v40l46 13q-7 13 -10 32t-3 47q0 57 21 87t59.5 41.5t89.5 9.5v-50q-28 0 -59.5 -6
t-51.5 -19l-2 -97q0 -19 11 -23.5t38 2.5z" />
    <glyph glyph-name="uniFC69" unicode="&#xfc69;" horiz-adv-x="1120" arabic-form="final" 
d="M950 0v470h64v-398h126v-72h-190zM72 -95q0 39 3.5 82.5t10.5 83.5t15 69l63 -12q-12 -56 -20 -107.5t-8 -95.5q0 -39 3 -67t10 -58h283q100 0 155 4.5t77 16t22 32.5v234l-142 18q-65 8 -100 27.5t-48 57.5t-13 101q0 48 8.5 82t27.5 55.5t51.5 31.5t79.5 10h400v-72
h-499v-213l169 -18q53 -5 81 -25t38.5 -59.5t10.5 -102.5v-69q0 -54 -14 -90t-52 -56t-109 -28.5t-184 -8.5q-97 0 -159.5 4t-97 20.5t-48.5 52.5t-14 100zM1007 656l87 24v-41l-226 -60v40l46 13q-7 13 -10 32t-3 47q0 57 21 87t59.5 41.5t89.5 9.5v-50q-28 0 -59.5 -6
t-51.5 -19l-2 -97q0 -19 11 -23.5t38 2.5zM363 -428q-9 0 -20.5 8t-20 20t-8.5 21q0 10 8.5 21t20 19.5t20.5 8.5q10 0 21.5 -8.5t19.5 -19.5t8 -21q0 -9 -8.5 -20.5t-20 -20t-20.5 -8.5zM497 -428q-9 0 -20.5 8t-20 20t-8.5 21q0 10 8.5 21t20 19.5t20.5 8.5
q10 0 21.5 -8.5t19.5 -19.5t8 -21q0 -9 -8.5 -20.5t-20 -20t-20.5 -8.5z" />
    <glyph glyph-name="uniFC6A" unicode="&#xfc6a;" horiz-adv-x="636" arabic-form="final" 
d="M466 0v470h64v-398h126v-72h-190zM199 470h267v-72h-267v72zM59 -254l-29 55q39 20 62 45t33 61t10 87v476h64v-476q0 -62 -14 -108.5t-45 -80t-81 -59.5zM498 -178q-9 0 -20.5 8t-20 20t-8.5 21q0 10 8.5 21t20 19.5t20.5 8.5q10 0 21.5 -8.5t19.5 -19.5t8 -21
q0 -9 -8.5 -20.5t-20 -20t-20.5 -8.5z" />
    <glyph glyph-name="uniFC6B" unicode="&#xfc6b;" horiz-adv-x="636" arabic-form="final" 
d="M466 0v470h64v-398h126v-72h-190zM199 470h267v-72h-267v72zM59 -254l-29 55q39 20 62 45t33 61t10 87v476h64v-476q0 -62 -14 -108.5t-45 -80t-81 -59.5zM498 -178q-9 0 -20.5 8t-20 20t-8.5 21q0 10 8.5 21t20 19.5t20.5 8.5q10 0 21.5 -8.5t19.5 -19.5t8 -21
q0 -9 -8.5 -20.5t-20 -20t-20.5 -8.5zM167 591q-9 0 -20.5 8t-20 20t-8.5 21q0 10 8.5 21t20 19.5t20.5 8.5q10 0 21.5 -8.5t19.5 -19.5t8 -21q0 -9 -8.5 -20.5t-20 -20t-20.5 -8.5z" />
    <glyph glyph-name="uniFC6D" unicode="&#xfc6d;" horiz-adv-x="987" arabic-form="final" 
d="M817 0v470h64v-398h126v-72h-190zM550 470h267v-72h-267v72zM149 -168h193q83 0 113.5 10.5t30.5 42.5v585h64v-515q0 -60 -10 -98t-37.5 -59t-78 -29.5t-131.5 -8.5q-72 0 -115.5 9.5t-66.5 33.5t-31 66.5t-8 109.5q0 42 3.5 88.5t10.5 89t15 73.5l59 -11
q-12 -61 -18 -118.5t-6 -106.5q0 -51 3 -88.5t10 -73.5zM317 616q-9 0 -20.5 8t-20 20t-8.5 21q0 10 8.5 21t20 19.5t20.5 8.5t20.5 -8.5t20 -19.5t8.5 -21q0 -9 -8.5 -20.5t-20.5 -20t-20 -8.5zM852 -178q-9 0 -20.5 8t-20 20t-8.5 21q0 10 8.5 21t20 19.5t20.5 8.5
q10 0 21.5 -8.5t19.5 -19.5t8 -21q0 -9 -8.5 -20.5t-20 -20t-20.5 -8.5z" />
    <glyph glyph-name="uniFC6E" unicode="&#xfc6e;" horiz-adv-x="1120" arabic-form="final" 
d="M950 0v470h64v-398h126v-72h-190zM72 -95q0 39 3.5 82.5t10.5 83.5t15 69l63 -12q-12 -56 -20 -107.5t-8 -95.5q0 -39 3 -67t10 -58h283q100 0 155 4.5t77 16t22 32.5v234l-142 18q-65 8 -100 27.5t-48 57.5t-13 101q0 48 8.5 82t27.5 55.5t51.5 31.5t79.5 10h400v-72
h-499v-213l169 -18q53 -5 81 -25t38.5 -59.5t10.5 -102.5v-69q0 -54 -14 -90t-52 -56t-109 -28.5t-184 -8.5q-97 0 -159.5 4t-97 20.5t-48.5 52.5t-14 100zM982 -158q-9 0 -20.5 8t-20 20t-8.5 21q0 10 8.5 21t20 19.5t20.5 8.5q10 0 21.5 -8.5t19.5 -19.5t8 -21
q0 -9 -8.5 -20.5t-20 -20t-20.5 -8.5z" />
    <glyph glyph-name="uniFC6F" unicode="&#xfc6f;" horiz-adv-x="1120" arabic-form="final" 
d="M950 0v470h64v-398h126v-72h-190zM72 -95q0 39 3.5 82.5t10.5 83.5t15 69l63 -12q-12 -56 -20 -107.5t-8 -95.5q0 -39 3 -67t10 -58h283q100 0 155 4.5t77 16t22 32.5v234l-142 18q-65 8 -100 27.5t-48 57.5t-13 101q0 48 8.5 82t27.5 55.5t51.5 31.5t79.5 10h400v-72
h-499v-213l169 -18q53 -5 81 -25t38.5 -59.5t10.5 -102.5v-69q0 -54 -14 -90t-52 -56t-109 -28.5t-184 -8.5q-97 0 -159.5 4t-97 20.5t-48.5 52.5t-14 100zM982 -158q-9 0 -20.5 8t-20 20t-8.5 21q0 10 8.5 21t20 19.5t20.5 8.5q10 0 21.5 -8.5t19.5 -19.5t8 -21
q0 -9 -8.5 -20.5t-20 -20t-20.5 -8.5zM363 -428q-9 0 -20.5 8t-20 20t-8.5 21q0 10 8.5 21t20 19.5t20.5 8.5q10 0 21.5 -8.5t19.5 -19.5t8 -21q0 -9 -8.5 -20.5t-20 -20t-20.5 -8.5zM497 -428q-9 0 -20.5 8t-20 20t-8.5 21q0 10 8.5 21t20 19.5t20.5 8.5q10 0 21.5 -8.5
t19.5 -19.5t8 -21q0 -9 -8.5 -20.5t-20 -20t-20.5 -8.5z" />
    <glyph glyph-name="uniFC70" unicode="&#xfc70;" horiz-adv-x="636" arabic-form="final" 
d="M466 0v470h64v-398h126v-72h-190zM199 470h267v-72h-267v72zM59 -254l-29 55q39 20 62 45t33 61t10 87v476h64v-476q0 -62 -14 -108.5t-45 -80t-81 -59.5zM431 591q-9 0 -20.5 8t-20 20t-8.5 21q0 10 8.5 21t20 19.5t20.5 8.5q10 0 21.5 -8.5t19.5 -19.5t8 -21
q0 -9 -8.5 -20.5t-20 -20t-20.5 -8.5zM565 591q-9 0 -20.5 8t-20 20t-8.5 21q0 10 8.5 21t20 19.5t20.5 8.5q10 0 21.5 -8.5t19.5 -19.5t8 -21q0 -9 -8.5 -20.5t-20 -20t-20.5 -8.5z" />
    <glyph glyph-name="uniFC71" unicode="&#xfc71;" horiz-adv-x="636" arabic-form="final" 
d="M466 0v470h64v-398h126v-72h-190zM199 470h267v-72h-267v72zM59 -254l-29 55q39 20 62 45t33 61t10 87v476h64v-476q0 -62 -14 -108.5t-45 -80t-81 -59.5zM431 591q-9 0 -20.5 8t-20 20t-8.5 21q0 10 8.5 21t20 19.5t20.5 8.5q10 0 21.5 -8.5t19.5 -19.5t8 -21
q0 -9 -8.5 -20.5t-20 -20t-20.5 -8.5zM565 591q-9 0 -20.5 8t-20 20t-8.5 21q0 10 8.5 21t20 19.5t20.5 8.5q10 0 21.5 -8.5t19.5 -19.5t8 -21q0 -9 -8.5 -20.5t-20 -20t-20.5 -8.5zM167 591q-9 0 -20.5 8t-20 20t-8.5 21q0 10 8.5 21t20 19.5t20.5 8.5q10 0 21.5 -8.5
t19.5 -19.5t8 -21q0 -9 -8.5 -20.5t-20 -20t-20.5 -8.5z" />
    <glyph glyph-name="uniFC73" unicode="&#xfc73;" horiz-adv-x="987" arabic-form="final" 
d="M817 0v470h64v-398h126v-72h-190zM550 470h267v-72h-267v72zM149 -168h193q83 0 113.5 10.5t30.5 42.5v585h64v-515q0 -60 -10 -98t-37.5 -59t-78 -29.5t-131.5 -8.5q-72 0 -115.5 9.5t-66.5 33.5t-31 66.5t-8 109.5q0 42 3.5 88.5t10.5 89t15 73.5l59 -11
q-12 -61 -18 -118.5t-6 -106.5q0 -51 3 -88.5t10 -73.5zM317 616q-9 0 -20.5 8t-20 20t-8.5 21q0 10 8.5 21t20 19.5t20.5 8.5t20.5 -8.5t20 -19.5t8.5 -21q0 -9 -8.5 -20.5t-20.5 -20t-20 -8.5zM784 591q-9 0 -20.5 8t-20 20t-8.5 21q0 10 8.5 21t20 19.5t20.5 8.5
q10 0 21.5 -8.5t19.5 -19.5t8 -21q0 -9 -8.5 -20.5t-20 -20t-20.5 -8.5zM919 591q-9 0 -20.5 8t-20 20t-8.5 21q0 10 8.5 21t20 19.5t20.5 8.5q10 0 21.5 -8.5t19.5 -19.5t8 -21q0 -9 -8.5 -20.5t-20 -20t-20.5 -8.5z" />
    <glyph glyph-name="uniFC74" unicode="&#xfc74;" horiz-adv-x="1120" arabic-form="final" 
d="M950 0v470h64v-398h126v-72h-190zM72 -95q0 39 3.5 82.5t10.5 83.5t15 69l63 -12q-12 -56 -20 -107.5t-8 -95.5q0 -39 3 -67t10 -58h283q100 0 155 4.5t77 16t22 32.5v234l-142 18q-65 8 -100 27.5t-48 57.5t-13 101q0 48 8.5 82t27.5 55.5t51.5 31.5t79.5 10h400v-72
h-499v-213l169 -18q53 -5 81 -25t38.5 -59.5t10.5 -102.5v-69q0 -54 -14 -90t-52 -56t-109 -28.5t-184 -8.5q-97 0 -159.5 4t-97 20.5t-48.5 52.5t-14 100zM914 591q-9 0 -20.5 8t-20 20t-8.5 21q0 10 8.5 21t20 19.5t20.5 8.5q10 0 21.5 -8.5t19.5 -19.5t8 -21
q0 -9 -8.5 -20.5t-20 -20t-20.5 -8.5zM1048 591q-9 0 -20.5 8t-20 20t-8.5 21q0 10 8.5 21t20 19.5t20.5 8.5q10 0 21.5 -8.5t19.5 -19.5t8 -21q0 -9 -8.5 -20.5t-20 -20t-20.5 -8.5z" />
    <glyph glyph-name="uniFC75" unicode="&#xfc75;" horiz-adv-x="1120" arabic-form="final" 
d="M950 0v470h64v-398h126v-72h-190zM72 -95q0 39 3.5 82.5t10.5 83.5t15 69l63 -12q-12 -56 -20 -107.5t-8 -95.5q0 -39 3 -67t10 -58h283q100 0 155 4.5t77 16t22 32.5v234l-142 18q-65 8 -100 27.5t-48 57.5t-13 101q0 48 8.5 82t27.5 55.5t51.5 31.5t79.5 10h400v-72
h-499v-213l169 -18q53 -5 81 -25t38.5 -59.5t10.5 -102.5v-69q0 -54 -14 -90t-52 -56t-109 -28.5t-184 -8.5q-97 0 -159.5 4t-97 20.5t-48.5 52.5t-14 100zM914 591q-9 0 -20.5 8t-20 20t-8.5 21q0 10 8.5 21t20 19.5t20.5 8.5q10 0 21.5 -8.5t19.5 -19.5t8 -21
q0 -9 -8.5 -20.5t-20 -20t-20.5 -8.5zM1048 591q-9 0 -20.5 8t-20 20t-8.5 21q0 10 8.5 21t20 19.5t20.5 8.5q10 0 21.5 -8.5t19.5 -19.5t8 -21q0 -9 -8.5 -20.5t-20 -20t-20.5 -8.5zM363 -428q-9 0 -20.5 8t-20 20t-8.5 21q0 10 8.5 21t20 19.5t20.5 8.5q10 0 21.5 -8.5
t19.5 -19.5t8 -21q0 -9 -8.5 -20.5t-20 -20t-20.5 -8.5zM497 -428q-9 0 -20.5 8t-20 20t-8.5 21q0 10 8.5 21t20 19.5t20.5 8.5q10 0 21.5 -8.5t19.5 -19.5t8 -21q0 -9 -8.5 -20.5t-20 -20t-20.5 -8.5z" />
    <glyph glyph-name="uniFC76" unicode="&#xfc76;" horiz-adv-x="636" arabic-form="final" 
d="M466 0v470h64v-398h126v-72h-190zM199 470h267v-72h-267v72zM59 -254l-29 55q39 20 62 45t33 61t10 87v476h64v-476q0 -62 -14 -108.5t-45 -80t-81 -59.5zM431 591q-9 0 -20.5 8t-20 20t-8.5 21q0 10 8.5 21t20 19.5t20.5 8.5q10 0 21.5 -8.5t19.5 -19.5t8 -21
q0 -9 -8.5 -20.5t-20 -20t-20.5 -8.5zM565 591q-9 0 -20.5 8t-20 20t-8.5 21q0 10 8.5 21t20 19.5t20.5 8.5q10 0 21.5 -8.5t19.5 -19.5t8 -21q0 -9 -8.5 -20.5t-20 -20t-20.5 -8.5zM498 730q-9 0 -20.5 8t-20 20t-8.5 21q0 10 8.5 21t20 19.5t20.5 8.5q10 0 21.5 -8.5
t19.5 -19.5t8 -21q0 -9 -8.5 -20.5t-20 -20t-20.5 -8.5z" />
    <glyph glyph-name="uniFC77" unicode="&#xfc77;" horiz-adv-x="636" arabic-form="final" 
d="M466 0v470h64v-398h126v-72h-190zM199 470h267v-72h-267v72zM59 -254l-29 55q39 20 62 45t33 61t10 87v476h64v-476q0 -62 -14 -108.5t-45 -80t-81 -59.5zM431 591q-9 0 -20.5 8t-20 20t-8.5 21q0 10 8.5 21t20 19.5t20.5 8.5q10 0 21.5 -8.5t19.5 -19.5t8 -21
q0 -9 -8.5 -20.5t-20 -20t-20.5 -8.5zM565 591q-9 0 -20.5 8t-20 20t-8.5 21q0 10 8.5 21t20 19.5t20.5 8.5q10 0 21.5 -8.5t19.5 -19.5t8 -21q0 -9 -8.5 -20.5t-20 -20t-20.5 -8.5zM498 730q-9 0 -20.5 8t-20 20t-8.5 21q0 10 8.5 21t20 19.5t20.5 8.5q10 0 21.5 -8.5
t19.5 -19.5t8 -21q0 -9 -8.5 -20.5t-20 -20t-20.5 -8.5zM167 591q-9 0 -20.5 8t-20 20t-8.5 21q0 10 8.5 21t20 19.5t20.5 8.5q10 0 21.5 -8.5t19.5 -19.5t8 -21q0 -9 -8.5 -20.5t-20 -20t-20.5 -8.5z" />
    <glyph glyph-name="uniFC79" unicode="&#xfc79;" horiz-adv-x="987" arabic-form="final" 
d="M817 0v470h64v-398h126v-72h-190zM550 470h267v-72h-267v72zM149 -168h193q83 0 113.5 10.5t30.5 42.5v585h64v-515q0 -60 -10 -98t-37.5 -59t-78 -29.5t-131.5 -8.5q-72 0 -115.5 9.5t-66.5 33.5t-31 66.5t-8 109.5q0 42 3.5 88.5t10.5 89t15 73.5l59 -11
q-12 -61 -18 -118.5t-6 -106.5q0 -51 3 -88.5t10 -73.5zM317 616q-9 0 -20.5 8t-20 20t-8.5 21q0 10 8.5 21t20 19.5t20.5 8.5t20.5 -8.5t20 -19.5t8.5 -21q0 -9 -8.5 -20.5t-20.5 -20t-20 -8.5zM784 591q-9 0 -20.5 8t-20 20t-8.5 21q0 10 8.5 21t20 19.5t20.5 8.5
q10 0 21.5 -8.5t19.5 -19.5t8 -21q0 -9 -8.5 -20.5t-20 -20t-20.5 -8.5zM919 591q-9 0 -20.5 8t-20 20t-8.5 21q0 10 8.5 21t20 19.5t20.5 8.5q10 0 21.5 -8.5t19.5 -19.5t8 -21q0 -9 -8.5 -20.5t-20 -20t-20.5 -8.5zM852 730q-9 0 -20.5 8t-20 20t-8.5 21q0 10 8.5 21
t20 19.5t20.5 8.5q10 0 21.5 -8.5t19.5 -19.5t8 -21q0 -9 -8.5 -20.5t-20 -20t-20.5 -8.5z" />
    <glyph glyph-name="uniFC7A" unicode="&#xfc7a;" horiz-adv-x="1120" arabic-form="final" 
d="M950 0v470h64v-398h126v-72h-190zM72 -95q0 39 3.5 82.5t10.5 83.5t15 69l63 -12q-12 -56 -20 -107.5t-8 -95.5q0 -39 3 -67t10 -58h283q100 0 155 4.5t77 16t22 32.5v234l-142 18q-65 8 -100 27.5t-48 57.5t-13 101q0 48 8.5 82t27.5 55.5t51.5 31.5t79.5 10h400v-72
h-499v-213l169 -18q53 -5 81 -25t38.5 -59.5t10.5 -102.5v-69q0 -54 -14 -90t-52 -56t-109 -28.5t-184 -8.5q-97 0 -159.5 4t-97 20.5t-48.5 52.5t-14 100zM914 591q-9 0 -20.5 8t-20 20t-8.5 21q0 10 8.5 21t20 19.5t20.5 8.5q10 0 21.5 -8.5t19.5 -19.5t8 -21
q0 -9 -8.5 -20.5t-20 -20t-20.5 -8.5zM1048 591q-9 0 -20.5 8t-20 20t-8.5 21q0 10 8.5 21t20 19.5t20.5 8.5q10 0 21.5 -8.5t19.5 -19.5t8 -21q0 -9 -8.5 -20.5t-20 -20t-20.5 -8.5zM981 730q-9 0 -20.5 8t-20 20t-8.5 21q0 10 8.5 21t20 19.5t20.5 8.5q10 0 21.5 -8.5
t19.5 -19.5t8 -21q0 -9 -8.5 -20.5t-20 -20t-20.5 -8.5z" />
    <glyph glyph-name="uniFC7B" unicode="&#xfc7b;" horiz-adv-x="1120" arabic-form="final" 
d="M950 0v470h64v-398h126v-72h-190zM72 -95q0 39 3.5 82.5t10.5 83.5t15 69l63 -12q-12 -56 -20 -107.5t-8 -95.5q0 -39 3 -67t10 -58h283q100 0 155 4.5t77 16t22 32.5v234l-142 18q-65 8 -100 27.5t-48 57.5t-13 101q0 48 8.5 82t27.5 55.5t51.5 31.5t79.5 10h400v-72
h-499v-213l169 -18q53 -5 81 -25t38.5 -59.5t10.5 -102.5v-69q0 -54 -14 -90t-52 -56t-109 -28.5t-184 -8.5q-97 0 -159.5 4t-97 20.5t-48.5 52.5t-14 100zM914 591q-9 0 -20.5 8t-20 20t-8.5 21q0 10 8.5 21t20 19.5t20.5 8.5q10 0 21.5 -8.5t19.5 -19.5t8 -21
q0 -9 -8.5 -20.5t-20 -20t-20.5 -8.5zM1048 591q-9 0 -20.5 8t-20 20t-8.5 21q0 10 8.5 21t20 19.5t20.5 8.5q10 0 21.5 -8.5t19.5 -19.5t8 -21q0 -9 -8.5 -20.5t-20 -20t-20.5 -8.5zM981 730q-9 0 -20.5 8t-20 20t-8.5 21q0 10 8.5 21t20 19.5t20.5 8.5q10 0 21.5 -8.5
t19.5 -19.5t8 -21q0 -9 -8.5 -20.5t-20 -20t-20.5 -8.5zM363 -428q-9 0 -20.5 8t-20 20t-8.5 21q0 10 8.5 21t20 19.5t20.5 8.5q10 0 21.5 -8.5t19.5 -19.5t8 -21q0 -9 -8.5 -20.5t-20 -20t-20.5 -8.5zM497 -428q-9 0 -20.5 8t-20 20t-8.5 21q0 10 8.5 21t20 19.5t20.5 8.5
q10 0 21.5 -8.5t19.5 -19.5t8 -21q0 -9 -8.5 -20.5t-20 -20t-20.5 -8.5z" />
    <glyph glyph-name="uniFC8A" unicode="&#xfc8a;" horiz-adv-x="636" arabic-form="final" 
d="M466 0v470h64v-398h126v-72h-190zM199 470h267v-72h-267v72zM59 -254l-29 55q39 20 62 45t33 61t10 87v476h64v-476q0 -62 -14 -108.5t-45 -80t-81 -59.5zM498 591q-9 0 -20.5 8t-20 20t-8.5 21q0 10 8.5 21t20 19.5t20.5 8.5q10 0 21.5 -8.5t19.5 -19.5t8 -21
q0 -9 -8.5 -20.5t-20 -20t-20.5 -8.5z" />
    <glyph glyph-name="uniFC8B" unicode="&#xfc8b;" horiz-adv-x="636" arabic-form="final" 
d="M466 0v470h64v-398h126v-72h-190zM199 470h267v-72h-267v72zM59 -254l-29 55q39 20 62 45t33 61t10 87v476h64v-476q0 -62 -14 -108.5t-45 -80t-81 -59.5zM498 591q-9 0 -20.5 8t-20 20t-8.5 21q0 10 8.5 21t20 19.5t20.5 8.5q10 0 21.5 -8.5t19.5 -19.5t8 -21
q0 -9 -8.5 -20.5t-20 -20t-20.5 -8.5zM167 591q-9 0 -20.5 8t-20 20t-8.5 21q0 10 8.5 21t20 19.5t20.5 8.5q10 0 21.5 -8.5t19.5 -19.5t8 -21q0 -9 -8.5 -20.5t-20 -20t-20.5 -8.5z" />
    <glyph glyph-name="uniFC8D" unicode="&#xfc8d;" horiz-adv-x="987" arabic-form="final" 
d="M817 0v470h64v-398h126v-72h-190zM550 470h267v-72h-267v72zM149 -168h193q83 0 113.5 10.5t30.5 42.5v585h64v-515q0 -60 -10 -98t-37.5 -59t-78 -29.5t-131.5 -8.5q-72 0 -115.5 9.5t-66.5 33.5t-31 66.5t-8 109.5q0 42 3.5 88.5t10.5 89t15 73.5l59 -11
q-12 -61 -18 -118.5t-6 -106.5q0 -51 3 -88.5t10 -73.5zM317 616q-9 0 -20.5 8t-20 20t-8.5 21q0 10 8.5 21t20 19.5t20.5 8.5t20.5 -8.5t20 -19.5t8.5 -21q0 -9 -8.5 -20.5t-20.5 -20t-20 -8.5zM852 591q-9 0 -20.5 8t-20 20t-8.5 21q0 10 8.5 21t20 19.5t20.5 8.5
q10 0 21.5 -8.5t19.5 -19.5t8 -21q0 -9 -8.5 -20.5t-20 -20t-20.5 -8.5z" />
    <glyph glyph-name="uniFC8E" unicode="&#xfc8e;" horiz-adv-x="1120" arabic-form="final" 
d="M950 0v470h64v-398h126v-72h-190zM72 -95q0 39 3.5 82.5t10.5 83.5t15 69l63 -12q-12 -56 -20 -107.5t-8 -95.5q0 -39 3 -67t10 -58h283q100 0 155 4.5t77 16t22 32.5v234l-142 18q-65 8 -100 27.5t-48 57.5t-13 101q0 48 8.5 82t27.5 55.5t51.5 31.5t79.5 10h400v-72
h-499v-213l169 -18q53 -5 81 -25t38.5 -59.5t10.5 -102.5v-69q0 -54 -14 -90t-52 -56t-109 -28.5t-184 -8.5q-97 0 -159.5 4t-97 20.5t-48.5 52.5t-14 100zM981 591q-9 0 -20.5 8t-20 20t-8.5 21q0 10 8.5 21t20 19.5t20.5 8.5q10 0 21.5 -8.5t19.5 -19.5t8 -21
q0 -9 -8.5 -20.5t-20 -20t-20.5 -8.5z" />
    <glyph glyph-name="uniFC8F" unicode="&#xfc8f;" horiz-adv-x="1120" arabic-form="final" 
d="M950 0v470h64v-398h126v-72h-190zM72 -95q0 39 3.5 82.5t10.5 83.5t15 69l63 -12q-12 -56 -20 -107.5t-8 -95.5q0 -39 3 -67t10 -58h283q100 0 155 4.5t77 16t22 32.5v234l-142 18q-65 8 -100 27.5t-48 57.5t-13 101q0 48 8.5 82t27.5 55.5t51.5 31.5t79.5 10h400v-72
h-499v-213l169 -18q53 -5 81 -25t38.5 -59.5t10.5 -102.5v-69q0 -54 -14 -90t-52 -56t-109 -28.5t-184 -8.5q-97 0 -159.5 4t-97 20.5t-48.5 52.5t-14 100zM981 591q-9 0 -20.5 8t-20 20t-8.5 21q0 10 8.5 21t20 19.5t20.5 8.5q10 0 21.5 -8.5t19.5 -19.5t8 -21
q0 -9 -8.5 -20.5t-20 -20t-20.5 -8.5zM363 -428q-9 0 -20.5 8t-20 20t-8.5 21q0 10 8.5 21t20 19.5t20.5 8.5q10 0 21.5 -8.5t19.5 -19.5t8 -21q0 -9 -8.5 -20.5t-20 -20t-20.5 -8.5zM497 -428q-9 0 -20.5 8t-20 20t-8.5 21q0 10 8.5 21t20 19.5t20.5 8.5q10 0 21.5 -8.5
t19.5 -19.5t8 -21q0 -9 -8.5 -20.5t-20 -20t-20.5 -8.5z" />
    <glyph glyph-name="uniFC91" unicode="&#xfc91;" horiz-adv-x="636" arabic-form="final" 
d="M466 0v470h64v-398h126v-72h-190zM199 470h267v-72h-267v72zM59 -254l-29 55q39 20 62 45t33 61t10 87v476h64v-476q0 -62 -14 -108.5t-45 -80t-81 -59.5zM425 -178q-9 0 -20.5 8t-20 20t-8.5 21q0 10 8.5 21t20 19.5t20.5 8.5q10 0 21.5 -8.5t19.5 -19.5t8 -21
q0 -9 -8.5 -20.5t-20 -20t-20.5 -8.5zM559 -178q-9 0 -20.5 8t-20 20t-8.5 21q0 10 8.5 21t20 19.5t20.5 8.5q10 0 21.5 -8.5t19.5 -19.5t8 -21q0 -9 -8.5 -20.5t-20 -20t-20.5 -8.5z" />
    <glyph glyph-name="uniFC92" unicode="&#xfc92;" horiz-adv-x="636" arabic-form="final" 
d="M466 0v470h64v-398h126v-72h-190zM199 470h267v-72h-267v72zM59 -254l-29 55q39 20 62 45t33 61t10 87v476h64v-476q0 -62 -14 -108.5t-45 -80t-81 -59.5zM425 -178q-9 0 -20.5 8t-20 20t-8.5 21q0 10 8.5 21t20 19.5t20.5 8.5q10 0 21.5 -8.5t19.5 -19.5t8 -21
q0 -9 -8.5 -20.5t-20 -20t-20.5 -8.5zM559 -178q-9 0 -20.5 8t-20 20t-8.5 21q0 10 8.5 21t20 19.5t20.5 8.5q10 0 21.5 -8.5t19.5 -19.5t8 -21q0 -9 -8.5 -20.5t-20 -20t-20.5 -8.5zM167 591q-9 0 -20.5 8t-20 20t-8.5 21q0 10 8.5 21t20 19.5t20.5 8.5q10 0 21.5 -8.5
t19.5 -19.5t8 -21q0 -9 -8.5 -20.5t-20 -20t-20.5 -8.5z" />
    <glyph glyph-name="uniFC94" unicode="&#xfc94;" horiz-adv-x="987" arabic-form="final" 
d="M817 0v470h64v-398h126v-72h-190zM550 470h267v-72h-267v72zM149 -168h193q83 0 113.5 10.5t30.5 42.5v585h64v-515q0 -60 -10 -98t-37.5 -59t-78 -29.5t-131.5 -8.5q-72 0 -115.5 9.5t-66.5 33.5t-31 66.5t-8 109.5q0 42 3.5 88.5t10.5 89t15 73.5l59 -11
q-12 -61 -18 -118.5t-6 -106.5q0 -51 3 -88.5t10 -73.5zM317 616q-9 0 -20.5 8t-20 20t-8.5 21q0 10 8.5 21t20 19.5t20.5 8.5t20.5 -8.5t20 -19.5t8.5 -21q0 -9 -8.5 -20.5t-20.5 -20t-20 -8.5zM779 -178q-9 0 -20.5 8t-20 20t-8.5 21q0 10 8.5 21t20 19.5t20.5 8.5
q10 0 21.5 -8.5t19.5 -19.5t8 -21q0 -9 -8.5 -20.5t-20 -20t-20.5 -8.5zM913 -178q-9 0 -20.5 8t-20 20t-8.5 21q0 10 8.5 21t20 19.5t20.5 8.5q10 0 21.5 -8.5t19.5 -19.5t8 -21q0 -9 -8.5 -20.5t-20 -20t-20.5 -8.5z" />
    <glyph glyph-name="uniFCFB" unicode="&#xfcfb;" horiz-adv-x="1695" arabic-form="isolated" 
d="M950 0v470h64v-470h-64zM72 -95q0 39 3.5 82.5t10.5 83.5t15 69l63 -12q-12 -56 -20 -107.5t-8 -95.5q0 -39 3 -67t10 -58h283q100 0 155 4.5t77 16t22 32.5v234l-142 18q-65 8 -100 27.5t-48 57.5t-13 101q0 48 8.5 82t27.5 55.5t51.5 31.5t79.5 10h400v-72h-499v-213
l169 -18q53 -5 81 -25t38.5 -59.5t10.5 -102.5v-69q0 -54 -14 -90t-52 -56t-109 -28.5t-184 -8.5q-97 0 -159.5 4t-97 20.5t-48.5 52.5t-14 100zM1437 0q-62 0 -100 7.5t-58.5 26.5t-28 53.5t-7.5 87.5v205h64v-255q0 -32 18 -42.5t61 -10.5h137q8 39 10.5 82.5t2.5 100.5
q0 44 -7 96t-19 106l63 10q7 -24 13 -62.5t10 -77.5t4 -70q0 -98 -12 -154t-46.5 -79.5t-104.5 -23.5zM1119 0h-105v72h151q43 0 60.5 10.5t17.5 42.5v255h64v-205q0 -53 -7 -87.5t-26.5 -53.5t-57 -26.5t-97.5 -7.5z" />
    <glyph glyph-name="uniFCFC" unicode="&#xfcfc;" horiz-adv-x="1695" arabic-form="isolated" 
d="M950 0v470h64v-470h-64zM72 -95q0 39 3.5 82.5t10.5 83.5t15 69l63 -12q-12 -56 -20 -107.5t-8 -95.5q0 -39 3 -67t10 -58h283q100 0 155 4.5t77 16t22 32.5v234l-142 18q-65 8 -100 27.5t-48 57.5t-13 101q0 48 8.5 82t27.5 55.5t51.5 31.5t79.5 10h400v-72h-499v-213
l169 -18q53 -5 81 -25t38.5 -59.5t10.5 -102.5v-69q0 -54 -14 -90t-52 -56t-109 -28.5t-184 -8.5q-97 0 -159.5 4t-97 20.5t-48.5 52.5t-14 100zM1437 0q-62 0 -100 7.5t-58.5 26.5t-28 53.5t-7.5 87.5v205h64v-255q0 -32 18 -42.5t61 -10.5h137q8 39 10.5 82.5t2.5 100.5
q0 44 -7 96t-19 106l63 10q7 -24 13 -62.5t10 -77.5t4 -70q0 -98 -12 -154t-46.5 -79.5t-104.5 -23.5zM1119 0h-105v72h151q43 0 60.5 10.5t17.5 42.5v255h64v-205q0 -53 -7 -87.5t-26.5 -53.5t-57 -26.5t-97.5 -7.5zM363 -428q-9 0 -20.5 8t-20 20t-8.5 21q0 10 8.5 21
t20 19.5t20.5 8.5q10 0 21.5 -8.5t19.5 -19.5t8 -21q0 -9 -8.5 -20.5t-20 -20t-20.5 -8.5zM497 -428q-9 0 -20.5 8t-20 20t-8.5 21q0 10 8.5 21t20 19.5t20.5 8.5q10 0 21.5 -8.5t19.5 -19.5t8 -21q0 -9 -8.5 -20.5t-20 -20t-20.5 -8.5z" />
    <glyph glyph-name="uniFD0D" unicode="&#xfd0d;" horiz-adv-x="1210" arabic-form="isolated" 
d="M466 0v470h64v-470h-64zM199 470h267v-72h-267v72zM59 -254l-29 55q39 20 62 45t33 61t10 87v476h64v-476q0 -62 -14 -108.5t-45 -80.5t-81 -59zM953 0q-62 0 -100.5 7.5t-58.5 27t-27.5 53.5t-7.5 87v205h64v-255q0 -32 17.5 -42.5t61.5 -10.5h137q7 39 10 82.5t3 100.5
q0 44 -7 96t-19 106l63 10q7 -24 13 -62.5t10 -77.5t4 -70q0 -98 -12 -154t-46.5 -79.5t-104.5 -23.5zM635 0h-105v72h149q44 0 62 10.5t18 42.5v255h64v-205q0 -53 -7 -87.5t-27 -53.5t-57 -26.5t-97 -7.5zM723 591q-9 0 -20.5 8t-20 20t-8.5 21q0 10 8.5 21t20 19.5
t20.5 8.5q10 0 21.5 -8.5t19.5 -19.5t8 -21q0 -9 -8.5 -20.5t-20 -20t-20.5 -8.5zM858 591q-9 0 -20.5 8t-20 20t-8.5 21q0 10 8.5 21t20 19.5t20.5 8.5q10 0 21.5 -8.5t19.5 -19.5t8 -21q0 -9 -8.5 -20.5t-20 -20t-20.5 -8.5zM791 730q-9 0 -20.5 8t-20 20t-8.5 21
q0 10 8.5 21t20 19.5t20.5 8.5q10 0 21.5 -8.5t19.5 -19.5t8 -21q0 -9 -8.5 -20.5t-20 -20t-20.5 -8.5z" />
    <glyph glyph-name="uniFD0E" unicode="&#xfd0e;" horiz-adv-x="1210" arabic-form="isolated" 
d="M466 0v470h64v-470h-64zM199 470h267v-72h-267v72zM59 -254l-29 55q39 20 62 45t33 61t10 87v476h64v-476q0 -62 -14 -108.5t-45 -80.5t-81 -59zM953 0q-62 0 -100.5 7.5t-58.5 27t-27.5 53.5t-7.5 87v205h64v-255q0 -32 17.5 -42.5t61.5 -10.5h137q7 39 10 82.5t3 100.5
q0 44 -7 96t-19 106l63 10q7 -24 13 -62.5t10 -77.5t4 -70q0 -98 -12 -154t-46.5 -79.5t-104.5 -23.5zM635 0h-105v72h149q44 0 62 10.5t18 42.5v255h64v-205q0 -53 -7 -87.5t-27 -53.5t-57 -26.5t-97 -7.5z" />
    <glyph glyph-name="uniFD0F" unicode="&#xfd0f;" horiz-adv-x="1122" arabic-form="isolated" 
d="M199 470h267v-72h-267v72zM59 -254l-29 56q39 19 62 44t33 61t10 88v475h64v-475q0 -62 -14 -109t-45 -80.5t-81 -59.5zM1022 72v-72h-556v72h556zM958 0v397q-16 5 -43.5 8t-65.5 3q-163 0 -241 -90t-78 -278h-64v430h64v-195q23 66 71 112t118.5 69.5t160.5 23.5
q53 0 84 -9.5t44.5 -32.5t13.5 -64v-374h-64z" />
    <glyph glyph-name="uniFD10" unicode="&#xfd10;" horiz-adv-x="1122" arabic-form="isolated" 
d="M199 470h267v-72h-267v72zM59 -254l-29 56q39 19 62 44t33 61t10 88v475h64v-475q0 -62 -14 -109t-45 -80.5t-81 -59.5zM1022 72v-72h-556v72h556zM958 0v397q-16 5 -43.5 8t-65.5 3q-163 0 -241 -90t-78 -278h-64v430h64v-195q23 66 71 112t118.5 69.5t160.5 23.5
q53 0 84 -9.5t44.5 -32.5t13.5 -64v-374h-64zM787 591q-9 0 -20.5 8t-20 20t-8.5 21q0 10 8.5 21t20 19.5t20.5 8.5q10 0 21.5 -8.5t19.5 -19.5t8 -21q0 -9 -8.5 -20.5t-20 -20t-20.5 -8.5z" />
    <glyph glyph-name="uniFD17" unicode="&#xfd17;" horiz-adv-x="1706" arabic-form="final" 
d="M1540 72h186v-72h-289zM950 0v470h64v-470h-64zM72 -95q0 39 3.5 82.5t10.5 83.5t15 69l63 -12q-12 -56 -20 -107.5t-8 -95.5q0 -39 3 -67t10 -58h283q100 0 155 4.5t77 16t22 32.5v234l-142 18q-65 8 -100 27.5t-48 57.5t-13 101q0 48 8.5 82t27.5 55.5t51.5 31.5
t79.5 10h400v-72h-499v-213l169 -18q53 -5 81 -25t38.5 -59.5t10.5 -102.5v-69q0 -54 -14 -90t-52 -56t-109 -28.5t-184 -8.5q-97 0 -159.5 4t-97 20.5t-48.5 52.5t-14 100zM1437 0q-62 0 -100 7.5t-58.5 26.5t-28 53.5t-7.5 87.5v205h64v-255q0 -32 18 -42.5t61 -10.5h137
q8 39 10.5 82.5t2.5 100.5q0 44 -7 96t-19 106l63 10q7 -24 13 -62.5t10 -77.5t4 -70q0 -98 -12 -154t-46.5 -79.5t-104.5 -23.5zM1119 0h-105v72h151q43 0 60.5 10.5t17.5 42.5v255h64v-205q0 -53 -7 -87.5t-26.5 -53.5t-57 -26.5t-97.5 -7.5z" />
    <glyph glyph-name="uniFD18" unicode="&#xfd18;" horiz-adv-x="1706" arabic-form="final" 
d="M1540 72h186v-72h-289zM950 0v470h64v-470h-64zM72 -95q0 39 3.5 82.5t10.5 83.5t15 69l63 -12q-12 -56 -20 -107.5t-8 -95.5q0 -39 3 -67t10 -58h283q100 0 155 4.5t77 16t22 32.5v234l-142 18q-65 8 -100 27.5t-48 57.5t-13 101q0 48 8.5 82t27.5 55.5t51.5 31.5
t79.5 10h400v-72h-499v-213l169 -18q53 -5 81 -25t38.5 -59.5t10.5 -102.5v-69q0 -54 -14 -90t-52 -56t-109 -28.5t-184 -8.5q-97 0 -159.5 4t-97 20.5t-48.5 52.5t-14 100zM1437 0q-62 0 -100 7.5t-58.5 26.5t-28 53.5t-7.5 87.5v205h64v-255q0 -32 18 -42.5t61 -10.5h137
q8 39 10.5 82.5t2.5 100.5q0 44 -7 96t-19 106l63 10q7 -24 13 -62.5t10 -77.5t4 -70q0 -98 -12 -154t-46.5 -79.5t-104.5 -23.5zM1119 0h-105v72h151q43 0 60.5 10.5t17.5 42.5v255h64v-205q0 -53 -7 -87.5t-26.5 -53.5t-57 -26.5t-97.5 -7.5zM363 -428q-9 0 -20.5 8
t-20 20t-8.5 21q0 10 8.5 21t20 19.5t20.5 8.5q10 0 21.5 -8.5t19.5 -19.5t8 -21q0 -9 -8.5 -20.5t-20 -20t-20.5 -8.5zM497 -428q-9 0 -20.5 8t-20 20t-8.5 21q0 10 8.5 21t20 19.5t20.5 8.5q10 0 21.5 -8.5t19.5 -19.5t8 -21q0 -9 -8.5 -20.5t-20 -20t-20.5 -8.5z" />
    <glyph glyph-name="uniFD29" unicode="&#xfd29;" horiz-adv-x="1221" arabic-form="final" 
d="M953 0l103 72h185v-72h-288zM466 0v470h64v-470h-64zM199 470h267v-72h-267v72zM59 -254l-29 55q39 20 62 45t33 61t10 87v476h64v-476q0 -62 -14 -108.5t-45 -80.5t-81 -59zM953 0q-62 0 -100.5 7.5t-58.5 27t-27.5 53.5t-7.5 87v205h64v-255q0 -32 17.5 -42.5
t61.5 -10.5h137q7 39 10 82.5t3 100.5q0 44 -7 96t-19 106l63 10q7 -24 13 -62.5t10 -77.5t4 -70q0 -98 -12 -154t-46.5 -79.5t-104.5 -23.5zM635 0h-105v72h149q44 0 62 10.5t18 42.5v255h64v-205q0 -53 -7 -87.5t-27 -53.5t-57 -26.5t-97 -7.5zM723 591q-9 0 -20.5 8
t-20 20t-8.5 21q0 10 8.5 21t20 19.5t20.5 8.5q10 0 21.5 -8.5t19.5 -19.5t8 -21q0 -9 -8.5 -20.5t-20 -20t-20.5 -8.5zM858 591q-9 0 -20.5 8t-20 20t-8.5 21q0 10 8.5 21t20 19.5t20.5 8.5q10 0 21.5 -8.5t19.5 -19.5t8 -21q0 -9 -8.5 -20.5t-20 -20t-20.5 -8.5zM791 730
q-9 0 -20.5 8t-20 20t-8.5 21q0 10 8.5 21t20 19.5t20.5 8.5q10 0 21.5 -8.5t19.5 -19.5t8 -21q0 -9 -8.5 -20.5t-20 -20t-20.5 -8.5z" />
    <glyph glyph-name="uniFD2A" unicode="&#xfd2a;" horiz-adv-x="1221" arabic-form="final" 
d="M953 0l103 72h185v-72h-288zM466 0v470h64v-470h-64zM199 470h267v-72h-267v72zM59 -254l-29 55q39 20 62 45t33 61t10 87v476h64v-476q0 -62 -14 -108.5t-45 -80.5t-81 -59zM953 0q-62 0 -100.5 7.5t-58.5 27t-27.5 53.5t-7.5 87v205h64v-255q0 -32 17.5 -42.5
t61.5 -10.5h137q7 39 10 82.5t3 100.5q0 44 -7 96t-19 106l63 10q7 -24 13 -62.5t10 -77.5t4 -70q0 -98 -12 -154t-46.5 -79.5t-104.5 -23.5zM635 0h-105v72h149q44 0 62 10.5t18 42.5v255h64v-205q0 -53 -7 -87.5t-27 -53.5t-57 -26.5t-97 -7.5z" />
    <glyph glyph-name="uniFD2B" unicode="&#xfd2b;" horiz-adv-x="1128" arabic-form="final" 
d="M1022 72h126v-72h-126v72zM199 470h267v-72h-267v72zM59 -254l-29 56q39 19 62 44t33 61t10 88v475h64v-475q0 -62 -14 -109t-45 -80.5t-81 -59.5zM1022 72v-72h-556v72h556zM958 0v397q-16 5 -43.5 8t-65.5 3q-163 0 -241 -90t-78 -278h-64v430h64v-195q23 66 71 112
t118.5 69.5t160.5 23.5q53 0 84 -9.5t44.5 -32.5t13.5 -64v-374h-64z" />
    <glyph glyph-name="uniFD2C" unicode="&#xfd2c;" horiz-adv-x="1128" arabic-form="final" 
d="M1022 72h126v-72h-126v72zM199 470h267v-72h-267v72zM59 -254l-29 56q39 19 62 44t33 61t10 88v475h64v-475q0 -62 -14 -109t-45 -80.5t-81 -59.5zM1022 72v-72h-556v72h556zM958 0v397q-16 5 -43.5 8t-65.5 3q-163 0 -241 -90t-78 -278h-64v430h64v-195q23 66 71 112
t118.5 69.5t160.5 23.5q53 0 84 -9.5t44.5 -32.5t13.5 -64v-374h-64zM783 591q-9 0 -20.5 8t-20 20t-8.5 21q0 10 8.5 21t20 19.5t20.5 8.5q10 0 21.5 -8.5t19.5 -19.5t8 -21q0 -9 -8.5 -20.5t-20 -20t-20.5 -8.5z" />
    <glyph glyph-name="uniFE82" unicode="&#x622;" horiz-adv-x="276" arabic-form="final" 
d="M106 0v470h64v-398h126v-72h-190zM155 613q-11 0 -20.5 7t-36.5 32l-57 -26l-12 25q28 20 44 30t26.5 14t18.5 4q9 0 18 -7t38 -34l57 26l12 -25q-23 -16 -39.5 -26.5t-28 -15t-20.5 -4.5z" />
    <glyph glyph-name="uniFE84" unicode="&#x623;" horiz-adv-x="276" arabic-form="final" 
d="M106 0v470h64v-398h126v-72h-190zM164 656l87 24v-41l-226 -60v40l46 13q-7 13 -10 32t-3 47q0 57 21 87t59.5 41.5t89.5 9.5v-50q-28 0 -59.5 -6t-51.5 -19l-2 -97q0 -19 11 -23.5t38 2.5z" />
    <glyph glyph-name="uniFE86" unicode="&#x624;" horiz-adv-x="611" arabic-form="final" 
d="M473 72h158v-72h-158v72zM222 0q-40 0 -65 10.5t-39.5 36t-20 72.5t-5.5 119q0 76 8 123t29.5 72.5t61 35.5t101.5 10q61 0 106.5 -6.5t96.5 -22.5v-378l-27 -72h-246zM383 72q28 0 38 11.5t10 41.5v282h-228q-25 0 -34 -11.5t-9 -46.5v-277h223zM285 -264l-38 51
q36 28 69 64t59 75t41 77t15 69h64q0 -38 -17 -84.5t-46 -93.5t-67 -88t-80 -70zM318 656l87 24v-41l-226 -60v40l46 13q-7 13 -10 32t-3 47q0 57 21 87t59.5 41.5t89.5 9.5v-50q-28 0 -59.5 -6t-51.5 -19l-2 -97q0 -19 11 -23.5t38 2.5z" />
    <glyph glyph-name="uniFE88" unicode="&#x625;" horiz-adv-x="276" arabic-form="final" 
d="M106 0v630h64v-558h126v-72h-190zM164 -273l87 24v-41l-226 -60v40l46 13q-7 13 -10 32t-3 47q0 57 21 87t59.5 41.5t89.5 9.5v-50q-28 0 -59.5 -6t-51.5 -19l-2 -97q0 -19 11 -23.5t38 2.5z" />
    <glyph glyph-name="uniFE8A" unicode="&#x626;" horiz-adv-x="856" arabic-form="final" 
d="M391 -272q-97 0 -159.5 4t-97 20.5t-48.5 52.5t-14 100q0 39 3.5 82.5t10.5 83.5t15 69l63 -12q-12 -56 -20 -107.5t-8 -95.5q0 -39 3 -67t10 -58h283q100 0 155 4.5t77 16t22 32.5v147h64v-89q0 -54 -14 -90t-52 -56t-109 -28.5t-184 -8.5zM626 0q-48 0 -101.5 8
t-88.5 21l11 67q45 -12 88 -18t79 -6h262v-72h-250zM192 346l87 24v-41l-226 -60v40l46 13q-7 13 -10 32t-3 47q0 57 21 87t59.5 41.5t89.5 9.5v-50q-28 0 -59.5 -6t-51.5 -19l-2 -97q0 -19 11 -23.5t38 2.5z" />
    <glyph glyph-name="uniFE8B" unicode="&#x626;" horiz-adv-x="312" arabic-form="initial" 
d="M-20 0v72h162v398h64v-470h-226zM200 656l87 24v-41l-226 -60v40l46 13q-7 13 -10 32t-3 47q0 57 21 87t59.5 41.5t89.5 9.5v-50q-28 0 -59.5 -6t-51.5 -19l-2 -97q0 -19 11 -23.5t38 2.5z" />
    <glyph glyph-name="uniFE8C" unicode="&#x626;" horiz-adv-x="312" arabic-form="medial" 
d="M206 72h126v-72h-352v72h162v398h64v-398zM200 656l87 24v-41l-226 -60v40l46 13q-7 13 -10 32t-3 47q0 57 21 87t59.5 41.5t89.5 9.5v-50q-28 0 -59.5 -6t-51.5 -19l-2 -97q0 -19 11 -23.5t38 2.5z" />
    <glyph glyph-name="uniFE8E" unicode="&#x627;" horiz-adv-x="276" arabic-form="final" 
d="M106 0v630h64v-558h126v-72h-190z" />
    <glyph glyph-name="uniFE90" unicode="&#x628;" horiz-adv-x="876" arabic-form="final" 
d="M762 72h134v-72h-134v72zM206 0q-49 0 -78 19.5t-41.5 64t-12.5 119.5q0 43 7.5 92.5t19.5 80.5l60 -11q-11 -41 -17 -80.5t-6 -72.5q0 -44 3.5 -77t13.5 -63h551v398h64v-470h-564zM435 -191q-9 0 -20.5 8t-20 20t-8.5 21q0 10 8.5 21t20 19.5t20.5 8.5q10 0 21.5 -8.5
t19.5 -19.5t8 -21q0 -9 -8.5 -20.5t-20 -20t-20.5 -8.5z" />
    <glyph glyph-name="uniFE91" unicode="&#x628;" horiz-adv-x="312" arabic-form="initial" 
d="M-20 0v72h162v398h64v-470h-226zM174 -178q-9 0 -20.5 8t-20 20t-8.5 21q0 10 8.5 21t20 19.5t20.5 8.5q10 0 21.5 -8.5t19.5 -19.5t8 -21q0 -9 -8.5 -20.5t-20 -20t-20.5 -8.5z" />
    <glyph glyph-name="uniFE92" unicode="&#x628;" horiz-adv-x="312" arabic-form="medial" 
d="M206 72h126v-72h-352v72h162v398h64v-398zM174 -178q-9 0 -20.5 8t-20 20t-8.5 21q0 10 8.5 21t20 19.5t20.5 8.5q10 0 21.5 -8.5t19.5 -19.5t8 -21q0 -9 -8.5 -20.5t-20 -20t-20.5 -8.5z" />
    <glyph glyph-name="uniFE94" unicode="&#x629;" horiz-adv-x="614" arabic-form="final" 
d="M520 72h114v-72h-114v72zM524 470v-470h-239q-62 0 -101 8.5t-59 33.5t-27.5 71t-7.5 122t7.5 122t27.5 71t59 33.5t101 8.5h239zM460 398h-226q-41 0 -58.5 -14t-17.5 -47v-204q0 -33 17.5 -47t58.5 -14h226v326zM236 591q-9 0 -20.5 8t-20 20t-8.5 21q0 10 8.5 21
t20 19.5t20.5 8.5q10 0 21.5 -8.5t19.5 -19.5t8 -21q0 -9 -8.5 -20.5t-20 -20t-20.5 -8.5zM370 591q-9 0 -20.5 8t-20 20t-8.5 21q0 10 8.5 21t20 19.5t20.5 8.5q10 0 21.5 -8.5t19.5 -19.5t8 -21q0 -9 -8.5 -20.5t-20 -20t-20.5 -8.5z" />
    <glyph glyph-name="uniFE96" unicode="&#x62a;" horiz-adv-x="876" arabic-form="final" 
d="M762 72h134v-72h-134v72zM206 0q-49 0 -78 19.5t-41.5 64t-12.5 119.5q0 43 7.5 92.5t19.5 80.5l60 -11q-11 -41 -17 -80.5t-6 -72.5q0 -44 3.5 -77t13.5 -63h551v398h64v-470h-564zM367 491q-9 0 -20.5 8t-20 20t-8.5 21q0 10 8.5 21t20 19.5t20.5 8.5q10 0 21.5 -8.5
t19.5 -19.5t8 -21q0 -9 -8.5 -20.5t-20 -20t-20.5 -8.5zM502 491q-9 0 -20.5 8t-20 20t-8.5 21q0 10 8.5 21t20 19.5t20.5 8.5q10 0 21.5 -8.5t19.5 -19.5t8 -21q0 -9 -8.5 -20.5t-20 -20t-20.5 -8.5z" />
    <glyph glyph-name="uniFE97" unicode="&#x62a;" horiz-adv-x="312" arabic-form="initial" 
d="M-20 0v72h162v398h64v-470h-226zM107 591q-9 0 -20.5 8t-20 20t-8.5 21q0 10 8.5 21t20 19.5t20.5 8.5q10 0 21.5 -8.5t19.5 -19.5t8 -21q0 -9 -8.5 -20.5t-20 -20t-20.5 -8.5zM241 591q-9 0 -20.5 8t-20 20t-8.5 21q0 10 8.5 21t20 19.5t20.5 8.5q10 0 21.5 -8.5
t19.5 -19.5t8 -21q0 -9 -8.5 -20.5t-20 -20t-20.5 -8.5z" />
    <glyph glyph-name="uniFE98" unicode="&#x62a;" horiz-adv-x="312" arabic-form="medial" 
d="M206 72h126v-72h-352v72h162v398h64v-398zM107 591q-9 0 -20.5 8t-20 20t-8.5 21q0 10 8.5 21t20 19.5t20.5 8.5q10 0 21.5 -8.5t19.5 -19.5t8 -21q0 -9 -8.5 -20.5t-20 -20t-20.5 -8.5zM241 591q-9 0 -20.5 8t-20 20t-8.5 21q0 10 8.5 21t20 19.5t20.5 8.5
q10 0 21.5 -8.5t19.5 -19.5t8 -21q0 -9 -8.5 -20.5t-20 -20t-20.5 -8.5z" />
    <glyph glyph-name="uniFE9A" unicode="&#x62b;" horiz-adv-x="876" arabic-form="final" 
d="M762 72h134v-72h-134v72zM206 0q-49 0 -78 19.5t-41.5 64t-12.5 119.5q0 43 7.5 92.5t19.5 80.5l60 -11q-11 -41 -17 -80.5t-6 -72.5q0 -44 3.5 -77t13.5 -63h551v398h64v-470h-564zM367 491q-9 0 -20.5 8t-20 20t-8.5 21q0 10 8.5 21t20 19.5t20.5 8.5q10 0 21.5 -8.5
t19.5 -19.5t8 -21q0 -9 -8.5 -20.5t-20 -20t-20.5 -8.5zM502 491q-9 0 -20.5 8t-20 20t-8.5 21q0 10 8.5 21t20 19.5t20.5 8.5q10 0 21.5 -8.5t19.5 -19.5t8 -21q0 -9 -8.5 -20.5t-20 -20t-20.5 -8.5zM435 630q-9 0 -20.5 8t-20 20t-8.5 21q0 10 8.5 21t20 19.5t20.5 8.5
q10 0 21.5 -8.5t19.5 -19.5t8 -21q0 -9 -8.5 -20.5t-20 -20t-20.5 -8.5z" />
    <glyph glyph-name="uniFE9B" unicode="&#x62b;" horiz-adv-x="312" arabic-form="initial" 
d="M-20 0v72h162v398h64v-470h-226zM107 591q-9 0 -20.5 8t-20 20t-8.5 21q0 10 8.5 21t20 19.5t20.5 8.5q10 0 21.5 -8.5t19.5 -19.5t8 -21q0 -9 -8.5 -20.5t-20 -20t-20.5 -8.5zM241 591q-9 0 -20.5 8t-20 20t-8.5 21q0 10 8.5 21t20 19.5t20.5 8.5q10 0 21.5 -8.5
t19.5 -19.5t8 -21q0 -9 -8.5 -20.5t-20 -20t-20.5 -8.5zM174 730q-9 0 -20.5 8t-20 20t-8.5 21q0 10 8.5 21t20 19.5t20.5 8.5q10 0 21.5 -8.5t19.5 -19.5t8 -21q0 -9 -8.5 -20.5t-20 -20t-20.5 -8.5z" />
    <glyph glyph-name="uniFE9C" unicode="&#x62b;" horiz-adv-x="312" arabic-form="medial" 
d="M206 72h126v-72h-352v72h162v398h64v-398zM107 591q-9 0 -20.5 8t-20 20t-8.5 21q0 10 8.5 21t20 19.5t20.5 8.5q10 0 21.5 -8.5t19.5 -19.5t8 -21q0 -9 -8.5 -20.5t-20 -20t-20.5 -8.5zM241 591q-9 0 -20.5 8t-20 20t-8.5 21q0 10 8.5 21t20 19.5t20.5 8.5
q10 0 21.5 -8.5t19.5 -19.5t8 -21q0 -9 -8.5 -20.5t-20 -20t-20.5 -8.5zM174 730q-9 0 -20.5 8t-20 20t-8.5 21q0 10 8.5 21t20 19.5t20.5 8.5q10 0 21.5 -8.5t19.5 -19.5t8 -21q0 -9 -8.5 -20.5t-20 -20t-20.5 -8.5z" />
    <glyph glyph-name="uniFE9E" unicode="&#x62c;" horiz-adv-x="572" arabic-form="final" 
d="M245 -273q-65 0 -103.5 9.5t-57 33.5t-24.5 66.5t-6 108.5q0 113 42.5 177t129 91.5t216.5 31.5l16 -56q-110 -4 -185 -23.5t-113 -60t-38 -110.5v-186q29 -6 66 -8t82 -2q36 0 72.5 5t92.5 17l10 -67q-36 -13 -89.5 -20t-110.5 -7zM527 72h55v-72h-43q-30 0 -46 13.5
t-27 42.5l-72 186q-26 63 -57.5 98.5t-78.5 51t-120 15.5q-16 0 -34 -0.5t-39 -2.5l-11 70q26 2 50 3.5t47 1.5q83 0 140 -21.5t95 -67t66 -120.5zM296 -77q-9 0 -20.5 8t-20 20t-8.5 21q0 10 8.5 21t20 19.5t20.5 8.5q10 0 21.5 -8.5t19.5 -19.5t8 -21q0 -9 -8.5 -20.5
t-20 -20t-20.5 -8.5z" />
    <glyph glyph-name="uniFE9F" unicode="&#x62c;" horiz-adv-x="548" arabic-form="initial" 
d="M456 258h92v-72h-81q-29 0 -45.5 13.5t-27.5 42.5q-23 64 -54.5 100t-80 50.5t-121.5 14.5q-17 0 -35 -0.5t-38 -2.5l-11 70q27 2 51 3.5t46 1.5q84 0 141.5 -22.5t96.5 -70.5t67 -128zM404 254l59 -28q-18 -45 -45.5 -85.5t-66 -72t-90 -50t-118.5 -18.5h-163v72h188
q46 0 83.5 17.5t67 44.5t51 58.5t34.5 61.5zM260 -178q-9 0 -20.5 8t-20 20t-8.5 21q0 10 8.5 21t20 19.5t20.5 8.5q10 0 21.5 -8.5t19.5 -19.5t8 -21q0 -9 -8.5 -20.5t-20 -20t-20.5 -8.5z" />
    <glyph glyph-name="uniFEA0" unicode="&#x62c;" horiz-adv-x="562" arabic-form="medial" 
d="M527 72h55v-72h-43q-30 0 -46 13.5t-27 42.5l-72 186q-26 63 -58 98.5t-79 51t-119 15.5q-17 0 -35 -0.5t-38 -2.5l-11 70q27 2 51 3.5t46 1.5q83 0 139.5 -21t95 -67t66.5 -121zM404 254l59 -28q-18 -45 -43.5 -85.5t-62 -72t-85 -50t-111.5 -18.5h-181v72h218
q40 0 73 17.5t58.5 44.5t44 58.5t30.5 61.5zM254 -178q-9 0 -20.5 8t-20 20t-8.5 21q0 10 8.5 21t20 19.5t20.5 8.5q10 0 21.5 -8.5t19.5 -19.5t8 -21q0 -9 -8.5 -20.5t-20 -20t-20.5 -8.5z" />
    <glyph glyph-name="uniFEA2" unicode="&#x62d;" horiz-adv-x="562" arabic-form="final" 
d="M245 -273q-65 0 -103.5 9.5t-57 33.5t-24.5 66.5t-6 108.5q0 113 42.5 177t129 91.5t216.5 31.5l16 -56q-110 -4 -185 -23.5t-113 -60t-38 -110.5v-186q29 -6 66 -8t82 -2q36 0 72.5 5t92.5 17l10 -67q-36 -13 -89.5 -20t-110.5 -7zM527 72h55v-72h-43q-30 0 -46 13.5
t-27 42.5l-72 186q-26 63 -57.5 98.5t-78.5 51t-120 15.5q-16 0 -34 -0.5t-39 -2.5l-11 70q26 2 50 3.5t47 1.5q83 0 140 -21.5t95 -67t66 -120.5z" />
    <glyph glyph-name="uniFEA3" unicode="&#x62d;" horiz-adv-x="548" arabic-form="initial" 
d="M456 258h92v-72h-81q-29 0 -45.5 13.5t-27.5 42.5q-23 64 -54.5 100t-80 50.5t-121.5 14.5q-17 0 -35 -0.5t-38 -2.5l-11 70q27 2 51 3.5t46 1.5q84 0 141.5 -22.5t96.5 -70.5t67 -128zM404 254l59 -28q-18 -45 -45.5 -85.5t-66 -72t-90 -50t-118.5 -18.5h-163v72h188
q46 0 83.5 17.5t67 44.5t51 58.5t34.5 61.5z" />
    <glyph glyph-name="uniFEA4" unicode="&#x62d;" horiz-adv-x="562" arabic-form="medial" 
d="M527 72h55v-72h-43q-30 0 -46 13.5t-27 42.5l-72 186q-26 63 -58 98.5t-79 51t-119 15.5q-17 0 -35 -0.5t-38 -2.5l-11 70q27 2 51 3.5t46 1.5q83 0 139.5 -21t95 -67t66.5 -121zM404 254l59 -28q-18 -45 -43.5 -85.5t-62 -72t-85 -50t-111.5 -18.5h-181v72h218
q40 0 73 17.5t58.5 44.5t44 58.5t30.5 61.5z" />
    <glyph glyph-name="uniFEA6" unicode="&#x62e;" horiz-adv-x="562" arabic-form="final" 
d="M245 -273q-65 0 -103.5 9.5t-57 33.5t-24.5 66.5t-6 108.5q0 113 42.5 177t129 91.5t216.5 31.5l16 -56q-110 -4 -185 -23.5t-113 -60t-38 -110.5v-186q29 -6 66 -8t82 -2q36 0 72.5 5t92.5 17l10 -67q-36 -13 -89.5 -20t-110.5 -7zM527 72h55v-72h-43q-30 0 -46 13.5
t-27 42.5l-72 186q-26 63 -57.5 98.5t-78.5 51t-120 15.5q-16 0 -34 -0.5t-39 -2.5l-11 70q26 2 50 3.5t47 1.5q83 0 140 -21.5t95 -67t66 -120.5zM275 614q-9 0 -20.5 8t-20 20t-8.5 21q0 10 8.5 21t20 19.5t20.5 8.5q10 0 21.5 -8.5t19.5 -19.5t8 -21q0 -9 -8.5 -20.5
t-20 -20t-20.5 -8.5z" />
    <glyph glyph-name="uniFEA7" unicode="&#x62e;" horiz-adv-x="548" arabic-form="initial" 
d="M456 258h92v-72h-81q-29 0 -45.5 13.5t-27.5 42.5q-23 64 -54.5 100t-80 50.5t-121.5 14.5q-17 0 -35 -0.5t-38 -2.5l-11 70q27 2 51 3.5t46 1.5q84 0 141.5 -22.5t96.5 -70.5t67 -128zM404 254l59 -28q-18 -45 -45.5 -85.5t-66 -72t-90 -50t-118.5 -18.5h-163v72h188
q46 0 83.5 17.5t67 44.5t51 58.5t34.5 61.5zM229 591q-9 0 -20.5 8t-20 20t-8.5 21q0 10 8.5 21t20 19.5t20.5 8.5q10 0 21.5 -8.5t19.5 -19.5t8 -21q0 -9 -8.5 -20.5t-20 -20t-20.5 -8.5z" />
    <glyph glyph-name="uniFEA8" unicode="&#x62e;" horiz-adv-x="562" arabic-form="medial" 
d="M527 72h55v-72h-43q-30 0 -46 13.5t-27 42.5l-72 186q-26 63 -58 98.5t-79 51t-119 15.5q-17 0 -35 -0.5t-38 -2.5l-11 70q27 2 51 3.5t46 1.5q83 0 139.5 -21t95 -67t66.5 -121zM404 254l59 -28q-18 -45 -43.5 -85.5t-62 -72t-85 -50t-111.5 -18.5h-181v72h218
q40 0 73 17.5t58.5 44.5t44 58.5t30.5 61.5zM229 591q-9 0 -20.5 8t-20 20t-8.5 21q0 10 8.5 21t20 19.5t20.5 8.5q10 0 21.5 -8.5t19.5 -19.5t8 -21q0 -9 -8.5 -20.5t-20 -20t-20.5 -8.5z" />
    <glyph glyph-name="uniFEAA" unicode="&#x62f;" horiz-adv-x="483" arabic-form="final" 
d="M441 72h62v-72h-62v72zM20 0v72h361q-31 111 -56 179.5t-50.5 105t-58 49.5t-78.5 13q-15 0 -33.5 -2.5t-33.5 -6.5l-18 70q24 6 47 8.5t38 2.5q52 0 89 -7t65 -30.5t52 -71t50.5 -127t62.5 -199.5v-56h-437z" />
    <glyph glyph-name="uniFEAC" unicode="&#x630;" horiz-adv-x="483" arabic-form="final" 
d="M441 72h62v-72h-62v72zM20 0v72h361q-31 111 -56 179.5t-50.5 105t-58 49.5t-78.5 13q-15 0 -33.5 -2.5t-33.5 -6.5l-18 70q24 6 47 8.5t38 2.5q52 0 89 -7t65 -30.5t52 -71t50.5 -127t62.5 -199.5v-56h-437zM167 591q-9 0 -20.5 8t-20 20t-8.5 21q0 10 8.5 21t20 19.5
t20.5 8.5q10 0 21.5 -8.5t19.5 -19.5t8 -21q0 -9 -8.5 -20.5t-20 -20t-20.5 -8.5z" />
    <glyph glyph-name="uniFEAE" unicode="&#x631;" horiz-adv-x="304" arabic-form="final" 
d="M198 72h126v-72h-126v72zM59 -254l-29 55q39 20 62 45t33 61t10 87v476h64v-476q0 -62 -14 -108.5t-45 -80t-81 -59.5z" />
    <glyph glyph-name="uniFEB0" unicode="&#x632;" horiz-adv-x="304" arabic-form="final" 
d="M198 72h126v-72h-126v72zM59 -254l-29 55q39 20 62 45t33 61t10 87v476h64v-476q0 -62 -14 -108.5t-45 -80t-81 -59.5zM166 591q-9 0 -20.5 8t-20 20t-8.5 21q0 10 8.5 21t20 19.5t20.5 8.5q10 0 21.5 -8.5t19.5 -19.5t8 -21q0 -9 -8.5 -20.5t-20 -20t-20.5 -8.5z" />
    <glyph glyph-name="uniFEB2" unicode="&#x633;" horiz-adv-x="1242" arabic-form="final" 
d="M1076 72h186v-72h-289zM293 -240q-76 0 -120.5 9.5t-66 33.5t-28 66.5t-6.5 109.5q0 37 3.5 78t9.5 78.5t14 64.5l63 -11q-11 -53 -18.5 -103t-7.5 -92q0 -51 3 -88.5t10 -73.5h193q83 0 113.5 10.5t30.5 42.5v495h64v-425q0 -60 -10 -98t-37.5 -59t-78 -29.5
t-131.5 -8.5zM973 0q-61 0 -99.5 7.5t-59 26.5t-28 53.5t-7.5 87.5v205h64v-255q0 -32 18 -42.5t61 -10.5h138q7 39 9.5 82.5t2.5 100.5q0 44 -7 96t-18 106l63 10q6 -24 12 -62.5t10 -77.5t4 -70q0 -98 -12 -154t-46.5 -79.5t-104.5 -23.5zM655 0h-105v72h150q43 0 61 10.5
t18 42.5v255h64v-205q0 -53 -6.5 -87.5t-26.5 -53.5t-57 -26.5t-98 -7.5z" />
    <glyph glyph-name="uniFEB3" unicode="&#x633;" horiz-adv-x="887" arabic-form="initial" 
d="M629 0q-62 0 -100 7.5t-58.5 27t-28 53.5t-7.5 87v205h64v-255q0 -32 17.5 -42.5t61.5 -10.5h137q7 39 10 82.5t3 100.5q0 44 -7 96t-19 106l63 10q7 -24 13 -62.5t10 -77.5t4 -70q0 -98 -12 -154t-46.5 -79.5t-104.5 -23.5zM311 0h-105v72h150q43 0 61 10.5t18 42.5v255
h64v-205q0 -53 -7 -87.5t-27 -53.5t-57 -26.5t-97 -7.5zM206 0h-226v72h162v308h64v-380z" />
    <glyph glyph-name="uniFEB4" unicode="&#x633;" horiz-adv-x="897" arabic-form="medial" 
d="M631 0q-63 0 -101.5 7.5t-59 26.5t-28 53.5t-7.5 87.5v205h64v-255q0 -32 17.5 -42.5t61.5 -10.5h137q7 39 10 82.5t3 100.5q0 44 -7 96t-19 106l63 10q7 -24 13 -62.5t10 -77.5t4 -70q0 -98 -11.5 -154t-46 -79.5t-103.5 -23.5zM311 0h-105v72h150q43 0 61 10.5t18 42.5
v255h64v-205q0 -53 -7 -87.5t-27 -53.5t-57 -26.5t-97 -7.5zM206 0h-226v72h162v308h64v-380zM732 72h185v-72h-286z" />
    <glyph glyph-name="uniFEB6" unicode="&#x634;" horiz-adv-x="1242" arabic-form="final" 
d="M1076 72h186v-72h-289zM293 -240q-76 0 -120.5 9.5t-66 33.5t-28 66.5t-6.5 109.5q0 37 3.5 78t9.5 78.5t14 64.5l63 -11q-11 -53 -18.5 -103t-7.5 -92q0 -51 3 -88.5t10 -73.5h193q83 0 113.5 10.5t30.5 42.5v495h64v-425q0 -60 -10 -98t-37.5 -59t-78 -29.5
t-131.5 -8.5zM973 0q-61 0 -99.5 7.5t-59 26.5t-28 53.5t-7.5 87.5v205h64v-255q0 -32 18 -42.5t61 -10.5h138q7 39 9.5 82.5t2.5 100.5q0 44 -7 96t-18 106l63 10q6 -24 12 -62.5t10 -77.5t4 -70q0 -98 -12 -154t-46.5 -79.5t-104.5 -23.5zM655 0h-105v72h150q43 0 61 10.5
t18 42.5v255h64v-205q0 -53 -6.5 -87.5t-26.5 -53.5t-57 -26.5t-98 -7.5zM756 591q-9 0 -20.5 8t-20 20t-8.5 21q0 10 8.5 21t20 19.5t20.5 8.5q10 0 21.5 -8.5t19.5 -19.5t8 -21q0 -9 -8.5 -20.5t-20 -20t-20.5 -8.5zM890 591q-9 0 -20.5 8t-20 20t-8.5 21q0 10 8.5 21
t20 19.5t20.5 8.5q10 0 21.5 -8.5t19.5 -19.5t8 -21q0 -9 -8.5 -20.5t-20 -20t-20.5 -8.5zM823 730q-9 0 -20.5 8t-20 20t-8.5 21q0 10 8.5 21t20 19.5t20.5 8.5q10 0 21.5 -8.5t19.5 -19.5t8 -21q0 -9 -8.5 -20.5t-20 -20t-20.5 -8.5z" />
    <glyph glyph-name="uniFEB7" unicode="&#x634;" horiz-adv-x="887" arabic-form="initial" 
d="M629 0q-62 0 -100 7.5t-58.5 27t-28 53.5t-7.5 87v205h64v-255q0 -32 17.5 -42.5t61.5 -10.5h137q7 39 10 82.5t3 100.5q0 44 -7 96t-19 106l63 10q7 -24 13 -62.5t10 -77.5t4 -70q0 -98 -12 -154t-46.5 -79.5t-104.5 -23.5zM311 0h-105v72h150q43 0 61 10.5t18 42.5v255
h64v-205q0 -53 -7 -87.5t-27 -53.5t-57 -26.5t-97 -7.5zM206 0h-226v72h162v308h64v-380zM411 591q-9 0 -20.5 8t-20 20t-8.5 21q0 10 8.5 21t20 19.5t20.5 8.5q10 0 21.5 -8.5t19.5 -19.5t8 -21q0 -9 -8.5 -20.5t-20 -20t-20.5 -8.5zM545 591q-9 0 -20.5 8t-20 20t-8.5 21
q0 10 8.5 21t20 19.5t20.5 8.5q10 0 21.5 -8.5t19.5 -19.5t8 -21q0 -9 -8.5 -20.5t-20 -20t-20.5 -8.5zM479 730q-9 0 -20.5 8t-20 20t-8.5 21q0 10 8.5 21t20 19.5t20.5 8.5q10 0 21.5 -8.5t19.5 -19.5t8 -21q0 -9 -8.5 -20.5t-20 -20t-20.5 -8.5z" />
    <glyph glyph-name="uniFEB8" unicode="&#x634;" horiz-adv-x="897" arabic-form="medial" 
d="M631 0q-63 0 -101.5 7.5t-59 26.5t-28 53.5t-7.5 87.5v205h64v-255q0 -32 17.5 -42.5t61.5 -10.5h137q7 39 10 82.5t3 100.5q0 44 -7 96t-19 106l63 10q7 -24 13 -62.5t10 -77.5t4 -70q0 -98 -11.5 -154t-46 -79.5t-103.5 -23.5zM311 0h-105v72h150q43 0 61 10.5t18 42.5
v255h64v-205q0 -53 -7 -87.5t-27 -53.5t-57 -26.5t-97 -7.5zM206 0h-226v72h162v308h64v-380zM732 72h185v-72h-286zM411 591q-9 0 -20.5 8t-20 20t-8.5 21q0 10 8.5 21t20 19.5t20.5 8.5q10 0 21.5 -8.5t19.5 -19.5t8 -21q0 -9 -8.5 -20.5t-20 -20t-20.5 -8.5zM545 591
q-9 0 -20.5 8t-20 20t-8.5 21q0 10 8.5 21t20 19.5t20.5 8.5q10 0 21.5 -8.5t19.5 -19.5t8 -21q0 -9 -8.5 -20.5t-20 -20t-20.5 -8.5zM479 730q-9 0 -20.5 8t-20 20t-8.5 21q0 10 8.5 21t20 19.5t20.5 8.5q10 0 21.5 -8.5t19.5 -19.5t8 -21q0 -9 -8.5 -20.5t-20 -20
t-20.5 -8.5z" />
    <glyph glyph-name="uniFEBA" unicode="&#x635;" horiz-adv-x="1151" arabic-form="final" 
d="M1042 72h129v-72h-129v72zM293 -240q-76 0 -120.5 9.5t-66 33.5t-28 66.5t-6.5 109.5q0 37 3.5 78t9.5 78.5t14 64.5l63 -11q-11 -53 -18.5 -103t-7.5 -92q0 -51 3 -88.5t10 -73.5h193q83 0 113.5 10.5t30.5 42.5v155h64v-85q0 -60 -10 -98t-37.5 -59t-78 -29.5
t-131.5 -8.5zM1012 72l30 -72h-516v72h486zM978 0v397q-16 5 -43.5 8t-65.5 3q-162 0 -240.5 -90t-78.5 -278h-64v430h64v-195q24 66 72 112t118.5 69.5t159.5 23.5q54 0 84.5 -10t44 -32.5t13.5 -63.5v-374h-64z" />
    <glyph glyph-name="uniFEBB" unicode="&#x635;" horiz-adv-x="798" arabic-form="initial" 
d="M698 72v-72h-718v72h718zM634 0v397q-35 11 -109 11q-163 0 -241 -90t-78 -278h-64v430h64v-195q24 66 72 112t118 69.5t160 23.5q53 0 84 -10t44.5 -32.5t13.5 -63.5v-374h-64z" />
    <glyph glyph-name="uniFEBC" unicode="&#x635;" horiz-adv-x="804" arabic-form="medial" 
d="M824 72v-72h-844v72h844zM634 40v357q-35 11 -109 11q-163 0 -241 -90t-78 -278h-64v430h64v-195q24 66 72 112t118 69.5t160 23.5q53 0 84 -10t44.5 -32.5t13.5 -63.5v-334h-64z" />
    <glyph glyph-name="uniFEBE" unicode="&#x636;" horiz-adv-x="1151" arabic-form="final" 
d="M1042 72h129v-72h-129v72zM293 -240q-76 0 -120.5 9.5t-66 33.5t-28 66.5t-6.5 109.5q0 37 3.5 78t9.5 78.5t14 64.5l63 -11q-11 -53 -18.5 -103t-7.5 -92q0 -51 3 -88.5t10 -73.5h193q83 0 113.5 10.5t30.5 42.5v155h64v-85q0 -60 -10 -98t-37.5 -59t-78 -29.5
t-131.5 -8.5zM1012 72l30 -72h-516v72h486zM978 0v397q-16 5 -43.5 8t-65.5 3q-162 0 -240.5 -90t-78.5 -278h-64v430h64v-195q24 66 72 112t118.5 69.5t159.5 23.5q54 0 84.5 -10t44 -32.5t13.5 -63.5v-374h-64zM811 591q-9 0 -20.5 8t-20 20t-8.5 21q0 10 8.5 21t20 19.5
t20.5 8.5q10 0 21.5 -8.5t19.5 -19.5t8 -21q0 -9 -8.5 -20.5t-20 -20t-20.5 -8.5z" />
    <glyph glyph-name="uniFEBF" unicode="&#x636;" horiz-adv-x="798" arabic-form="initial" 
d="M698 72v-72h-718v72h718zM634 0v397q-35 11 -109 11q-163 0 -241 -90t-78 -278h-64v430h64v-195q24 66 72 112t118 69.5t160 23.5q53 0 84 -10t44.5 -32.5t13.5 -63.5v-374h-64zM464 591q-9 0 -20.5 8t-20 20t-8.5 21q0 10 8.5 21t20 19.5t20.5 8.5q10 0 21.5 -8.5
t19.5 -19.5t8 -21q0 -9 -8.5 -20.5t-20 -20t-20.5 -8.5z" />
    <glyph glyph-name="uniFEC0" unicode="&#x636;" horiz-adv-x="804" arabic-form="medial" 
d="M824 72v-72h-844v72h844zM634 40v357q-35 11 -109 11q-163 0 -241 -90t-78 -278h-64v430h64v-195q24 66 72 112t118 69.5t160 23.5q53 0 84 -10t44.5 -32.5t13.5 -63.5v-334h-64zM464 591q-9 0 -20.5 8t-20 20t-8.5 21q0 10 8.5 21t20 19.5t20.5 8.5q10 0 21.5 -8.5
t19.5 -19.5t8 -21q0 -9 -8.5 -20.5t-20 -20t-20.5 -8.5z" />
    <glyph glyph-name="uniFEC2" unicode="&#x637;" horiz-adv-x="804" arabic-form="final" 
d="M698 72h126v-72h-126v72zM698 72v-72h-678v72h678zM634 0v397q-35 11 -109 11q-163 0 -241 -90t-78 -278h-64v590h64v-355q24 66 72 112t118 69.5t160 23.5q53 0 84 -10t44.5 -32.5t13.5 -63.5v-374h-64z" />
    <glyph glyph-name="uniFEC3" unicode="&#x637;" horiz-adv-x="798" arabic-form="initial" 
d="M634 72v-72h-654v72h654zM634 0v397q-35 11 -109 11q-163 0 -241 -90t-78 -278h-64v590h64v-355q24 66 72 112t118 69.5t160 23.5q53 0 84 -10t44.5 -32.5t13.5 -63.5v-374h-64z" />
    <glyph glyph-name="uniFEC4" unicode="&#x637;" horiz-adv-x="804" arabic-form="medial" 
d="M824 72v-72h-844v72h844zM634 0v397q-35 11 -109 11q-163 0 -241 -90t-78 -278h-64v590h64v-355q24 66 72 112t118 69.5t160 23.5q53 0 84 -10t44.5 -32.5t13.5 -63.5v-374h-64z" />
    <glyph glyph-name="uniFEC6" unicode="&#x638;" horiz-adv-x="804" arabic-form="final" 
d="M698 72h126v-72h-126v72zM698 72v-72h-678v72h678zM634 0v397q-35 11 -109 11q-163 0 -241 -90t-78 -278h-64v590h64v-355q24 66 72 112t118 69.5t160 23.5q53 0 84 -10t44.5 -32.5t13.5 -63.5v-374h-64zM486 591q-9 0 -20.5 8t-20 20t-8.5 21q0 10 8.5 21t20 19.5
t20.5 8.5q10 0 21.5 -8.5t19.5 -19.5t8 -21q0 -9 -8.5 -20.5t-20 -20t-20.5 -8.5z" />
    <glyph glyph-name="uniFEC7" unicode="&#x638;" horiz-adv-x="798" arabic-form="initial" 
d="M634 72v-72h-654v72h654zM634 0v397q-35 11 -109 11q-163 0 -241 -90t-78 -278h-64v590h64v-355q24 66 72 112t118 69.5t160 23.5q53 0 84 -10t44.5 -32.5t13.5 -63.5v-374h-64zM486 591q-9 0 -20.5 8t-20 20t-8.5 21q0 10 8.5 21t20 19.5t20.5 8.5q10 0 21.5 -8.5
t19.5 -19.5t8 -21q0 -9 -8.5 -20.5t-20 -20t-20.5 -8.5z" />
    <glyph glyph-name="uniFEC8" unicode="&#x638;" horiz-adv-x="804" arabic-form="medial" 
d="M824 72v-72h-844v72h844zM634 0v397q-35 11 -109 11q-163 0 -241 -90t-78 -278h-64v590h64v-355q24 66 72 112t118 69.5t160 23.5q53 0 84 -10t44.5 -32.5t13.5 -63.5v-374h-64zM486 591q-9 0 -20.5 8t-20 20t-8.5 21q0 10 8.5 21t20 19.5t20.5 8.5q10 0 21.5 -8.5
t19.5 -19.5t8 -21q0 -9 -8.5 -20.5t-20 -20t-20.5 -8.5z" />
    <glyph glyph-name="uniFECA" unicode="&#x639;" horiz-adv-x="606" arabic-form="final" 
d="M53 -137q0 42 8 71.5t28 52t56 43t93 44.5q-78 53 -124 133t-46 176q0 39 19.5 60t70.5 28.5t145 7.5q95 0 145.5 -8t70 -29t19.5 -59q0 -74 -22.5 -131t-59.5 -99t-82 -73q22 -4 46 -6t51 -2h155v-72h-130q-52 0 -101.5 10t-93.5 27q-47 -18 -87.5 -37.5t-65.5 -38
t-25 -36.5v-160q29 -5 64 -7.5t83 -2.5q32 0 68.5 5t96.5 17l11 -71q-28 -10 -78 -16.5t-123 -6.5q-58 0 -95.5 7.5t-58.5 27t-29.5 55t-8.5 90.5zM132 407q0 -87 25 -147.5t64.5 -99t81.5 -60.5q83 42 127 120.5t44 186.5h-342z" />
    <glyph glyph-name="uniFECB" unicode="&#x639;" horiz-adv-x="579" arabic-form="initial" 
d="M-20 0v72h257l72 -72h-329zM191 397v-245q-1 -43 24.5 -61.5t76.5 -18.5h234v-72h-215q-59 0 -96 11.5t-57.5 39t-28.5 75.5t-8 120q0 71 7.5 117t28.5 71.5t58.5 36t98.5 10.5q31 0 64 -4t63 -11t50 -16l-11 -66q-44 12 -89.5 18.5t-85.5 6.5q-34 0 -63.5 -2.5
t-50.5 -9.5z" />
    <glyph glyph-name="uniFECC" unicode="&#x639;" horiz-adv-x="606" arabic-form="medial" 
d="M496 72h130v-72h-130v72zM132 407q0 -105 44.5 -180t126 -115t193.5 -40v-72q-90 0 -168 29t-136.5 81.5t-91 122t-32.5 150.5q0 39 19.5 60t70.5 28.5t145 7.5q95 0 145.5 -8t70 -29t19.5 -59q0 -81 -32.5 -150.5t-91 -121.5t-136 -81.5t-168.5 -29.5v72q113 0 194 40
t125.5 115t44.5 180h-342zM-20 72h130v-72h-130v72z" />
    <glyph glyph-name="uniFECE" unicode="&#x63a;" horiz-adv-x="606" arabic-form="final" 
d="M53 -137q0 42 8 71.5t28 52t56 43t93 44.5q-78 53 -124 133t-46 176q0 39 19.5 60t70.5 28.5t145 7.5q95 0 145.5 -8t70 -29t19.5 -59q0 -74 -22.5 -131t-59.5 -99t-82 -73q22 -4 46 -6t51 -2h155v-72h-130q-52 0 -101.5 10t-93.5 27q-47 -18 -87.5 -37.5t-65.5 -38
t-25 -36.5v-160q29 -5 64 -7.5t83 -2.5q32 0 68.5 5t96.5 17l11 -71q-28 -10 -78 -16.5t-123 -6.5q-58 0 -95.5 7.5t-58.5 27t-29.5 55t-8.5 90.5zM132 407q0 -87 25 -147.5t64.5 -99t81.5 -60.5q83 42 127 120.5t44 186.5h-342zM303 591q-9 0 -20.5 8t-20 20t-8.5 21
q0 10 8.5 21t20 19.5t20.5 8.5q10 0 21.5 -8.5t19.5 -19.5t8 -21q0 -9 -8.5 -20.5t-20 -20t-20.5 -8.5z" />
    <glyph glyph-name="uniFECF" unicode="&#x63a;" horiz-adv-x="579" arabic-form="initial" 
d="M-20 0v72h257l72 -72h-329zM191 397v-245q-1 -43 24.5 -61.5t76.5 -18.5h234v-72h-215q-59 0 -96 11.5t-57.5 39t-28.5 75.5t-8 120q0 71 7.5 117t28.5 71.5t58.5 36t98.5 10.5q31 0 64 -4t63 -11t50 -16l-11 -66q-44 12 -89.5 18.5t-85.5 6.5q-34 0 -63.5 -2.5
t-50.5 -9.5zM325 591q-9 0 -20.5 8t-20 20t-8.5 21q0 10 8.5 21t20 19.5t20.5 8.5q10 0 21.5 -8.5t19.5 -19.5t8 -21q0 -9 -8.5 -20.5t-20 -20t-20.5 -8.5z" />
    <glyph glyph-name="uniFED0" unicode="&#x63a;" horiz-adv-x="606" arabic-form="medial" 
d="M496 72h130v-72h-130v72zM132 407q0 -105 44.5 -180t126 -115t193.5 -40v-72q-90 0 -168 29t-136.5 81.5t-91 122t-32.5 150.5q0 39 19.5 60t70.5 28.5t145 7.5q95 0 145.5 -8t70 -29t19.5 -59q0 -81 -32.5 -150.5t-91 -121.5t-136 -81.5t-168.5 -29.5v72q113 0 194 40
t125.5 115t44.5 180h-342zM-20 72h130v-72h-130v72zM303 591q-9 0 -20.5 8t-20 20t-8.5 21q0 10 8.5 21t20 19.5t20.5 8.5q10 0 21.5 -8.5t19.5 -19.5t8 -21q0 -9 -8.5 -20.5t-20 -20t-20.5 -8.5z" />
    <glyph glyph-name="uniFED2" unicode="&#x641;" horiz-adv-x="976" arabic-form="final" 
d="M870 72h126v-72h-126v72zM206 0q-49 0 -78 19.5t-41.5 64t-12.5 119.5q0 43 7.5 92.5t19.5 80.5l60 -11q-11 -41 -17 -80.5t-6 -72.5q0 -44 3.5 -77t13.5 -63h320q-4 27 -6 68.5t-2 111.5q0 68 8 112.5t29.5 69t60.5 35t102 10.5q52 0 97 -6.5t106 -22.5v-450h-664z
M759 72q27 0 37 11.5t10 41.5v280h-223q-28 0 -38 -11t-10 -47v-275h224zM697 591q-9 0 -20.5 8t-20 20t-8.5 21q0 10 8.5 21t20 19.5t20.5 8.5q10 0 21.5 -8.5t19.5 -19.5t8 -21q0 -9 -8.5 -20.5t-20 -20t-20.5 -8.5z" />
    <glyph glyph-name="uniFED3" unicode="&#x641;" horiz-adv-x="644" arabic-form="initial" 
d="M-20 72h163q-3 27 -5.5 68.5t-2.5 111.5q0 68 8 112.5t29 69t61 35t102 10.5q51 0 97 -6.5t106 -22.5v-450h-558v72zM427 72q27 0 37 11.5t10 41.5v280h-223q-28 0 -37.5 -12t-9.5 -47v-274h223zM335 591q-9 0 -20.5 8t-20 20t-8.5 21q0 10 8.5 21t20 19.5t20.5 8.5
q10 0 21.5 -8.5t19.5 -19.5t8 -21q0 -9 -8.5 -20.5t-20 -20t-20.5 -8.5z" />
    <glyph glyph-name="uniFED4" unicode="&#x641;" horiz-adv-x="644" arabic-form="medial" 
d="M538 72h126v-72h-126v72zM-20 72h163q-3 27 -5.5 68.5t-2.5 111.5q0 68 8 112.5t29 69t61 35t102 10.5q51 0 97 -6.5t106 -22.5v-450h-558v72zM427 72q27 0 37 11.5t10 41.5v280h-223q-28 0 -37.5 -12t-9.5 -47v-274h223zM335 591q-9 0 -20.5 8t-20 20t-8.5 21
q0 10 8.5 21t20 19.5t20.5 8.5q10 0 21.5 -8.5t19.5 -19.5t8 -21q0 -9 -8.5 -20.5t-20 -20t-20.5 -8.5z" />
    <glyph glyph-name="uniFED6" unicode="&#x642;" horiz-adv-x="869" arabic-form="final" 
d="M764 72h125v-72h-125v72zM194 -256q-49 0 -78 22.5t-41.5 74.5t-12.5 140q0 35 3.5 73.5t10 74t13.5 59.5l61 -10q-12 -52 -18 -99.5t-6 -88.5q0 -54 4 -95.5t13 -78.5h557v184h64v-107q0 -83 -30.5 -116t-107.5 -33h-432zM491 0q-40 0 -65.5 10.5t-39.5 36t-19.5 72.5
t-5.5 119q0 76 8 123t29.5 72.5t61 35.5t101.5 10q61 0 106.5 -6.5t96.5 -22.5v-450h-273zM652 72q27 0 37.5 11.5t10.5 41.5v282h-228q-26 0 -34.5 -11.5t-8.5 -46.5v-277h223zM498 591q-9 0 -20.5 8t-20 20t-8.5 21q0 10 8.5 21t20 19.5t20.5 8.5q10 0 21.5 -8.5
t19.5 -19.5t8 -21q0 -9 -8.5 -20.5t-20 -20t-20.5 -8.5zM632 591q-9 0 -20.5 8t-20 20t-8.5 21q0 10 8.5 21t20 19.5t20.5 8.5q10 0 21.5 -8.5t19.5 -19.5t8 -21q0 -9 -8.5 -20.5t-20 -20t-20.5 -8.5z" />
    <glyph glyph-name="uniFED7" unicode="&#x642;" horiz-adv-x="644" arabic-form="initial" 
d="M-20 72h163q-3 27 -5.5 68.5t-2.5 111.5q0 68 8 112.5t29 69t61 35t102 10.5q51 0 97 -6.5t106 -22.5v-450h-558v72zM427 72q27 0 37 11.5t10 41.5v280h-223q-28 0 -37.5 -12t-9.5 -47v-274h223zM268 591q-9 0 -20.5 8t-20 20t-8.5 21q0 10 8.5 21t20 19.5t20.5 8.5
q10 0 21.5 -8.5t19.5 -19.5t8 -21q0 -9 -8.5 -20.5t-20 -20t-20.5 -8.5zM402 591q-9 0 -20.5 8t-20 20t-8.5 21q0 10 8.5 21t20 19.5t20.5 8.5q10 0 21.5 -8.5t19.5 -19.5t8 -21q0 -9 -8.5 -20.5t-20 -20t-20.5 -8.5z" />
    <glyph glyph-name="uniFED8" unicode="&#x642;" horiz-adv-x="644" arabic-form="medial" 
d="M538 72h126v-72h-126v72zM-20 72h163q-3 27 -5.5 68.5t-2.5 111.5q0 68 8 112.5t29 69t61 35t102 10.5q51 0 97 -6.5t106 -22.5v-450h-558v72zM427 72q27 0 37 11.5t10 41.5v280h-223q-28 0 -37.5 -12t-9.5 -47v-274h223zM268 591q-9 0 -20.5 8t-20 20t-8.5 21
q0 10 8.5 21t20 19.5t20.5 8.5q10 0 21.5 -8.5t19.5 -19.5t8 -21q0 -9 -8.5 -20.5t-20 -20t-20.5 -8.5zM402 591q-9 0 -20.5 8t-20 20t-8.5 21q0 10 8.5 21t20 19.5t20.5 8.5q10 0 21.5 -8.5t19.5 -19.5t8 -21q0 -9 -8.5 -20.5t-20 -20t-20.5 -8.5z" />
    <glyph glyph-name="uniFEDA" unicode="&#x643;" horiz-adv-x="876" arabic-form="final" 
d="M770 72h126v-72h-126v72zM155 72h551v558h64v-630h-564q-49 0 -78 19.5t-41.5 64t-12.5 119.5q0 43 7.5 92.5t19.5 80.5l60 -11q-11 -41 -17 -80.5t-6 -72.5q0 -44 3.5 -77t13.5 -63zM452 456l87 24v-41l-226 -60v40l46 13q-7 13 -10 32t-3 47q0 57 21.5 87t59.5 41.5
t89 9.5v-50q-28 0 -59.5 -6t-51.5 -19l-2 -97q0 -19 11 -23.5t38 2.5z" />
    <glyph glyph-name="uniFEDB" unicode="&#x643;" horiz-adv-x="697" arabic-form="initial" 
d="M-20 0v72h547v248h-350q-43 0 -66 19t-23 57q0 32 12 72t32.5 83t47 82.5t54.5 68.5l56 -29q-29 -33 -53.5 -67.5t-43 -70.5t-31 -72t-18.5 -71h355q36 0 55.5 -8.5t28 -28t8.5 -55.5v-300h-611z" />
    <glyph glyph-name="uniFEDC" unicode="&#x643;" horiz-adv-x="697" arabic-form="medial" 
d="M591 72h126v-72h-126v72zM-20 0v72h547v248h-350q-43 0 -66 19t-23 57q0 32 12 72t32.5 83t47 82.5t54.5 68.5l56 -29q-29 -33 -53.5 -67.5t-43 -70.5t-31 -72t-18.5 -71h355q36 0 55.5 -8.5t28 -28t8.5 -55.5v-300h-611z" />
    <glyph glyph-name="uniFEDE" unicode="&#x644;" horiz-adv-x="656" arabic-form="final" 
d="M550 72h126v-72h-126v72zM149 -168h193q83 0 113.5 10.5t30.5 42.5v743h64v-673q0 -60 -10 -98t-37.5 -59t-78 -29.5t-131.5 -8.5q-72 0 -115.5 9.5t-66.5 33.5t-31 66.5t-8 109.5q0 42 3.5 88.5t10.5 89t15 73.5l59 -11q-12 -61 -18 -118.5t-6 -106.5q0 -51 3 -88.5
t10 -73.5z" />
    <glyph glyph-name="uniFEDF" unicode="&#x644;" horiz-adv-x="312" arabic-form="initial" 
d="M206 0h-226v72h162v558h64v-630z" />
    <glyph glyph-name="uniFEE0" unicode="&#x644;" horiz-adv-x="312" arabic-form="medial" 
d="M206 72h126v-72h-352v72h162v558h64v-558z" />
    <glyph glyph-name="uniFEE2" unicode="&#x645;" horiz-adv-x="646" arabic-form="final" 
d="M540 72h126v-72h-126v72zM53 -334q-8 24 -15 58t-10.5 72t-3.5 72q0 76 10 121t34.5 64t64.5 19h343v322q-45 13 -119 13q-43 0 -90.5 -6.5t-84.5 -17.5l-25 58q34 16 90 27t114 11q68 0 107 -11.5t55.5 -37.5t16.5 -72v-358h-435q-9 -30 -13 -64t-4 -80q0 -34 6.5 -76.5
t20.5 -100.5zM155 29q-27 31 -36 84.5t-9 109.5q0 59 13.5 114t33.5 104l57 -21q-17 -52 -28.5 -100t-11.5 -97q0 -35 4 -71t14 -68.5t28 -57.5z" />
    <glyph glyph-name="uniFEE3" unicode="&#x645;" horiz-adv-x="642" arabic-form="initial" 
d="M361 479q68 0 107 -11.5t55.5 -37.5t16.5 -72v-358h-560v72h496v322q-26 8 -54 10.5t-65 2.5q-38 0 -86 -6t-89 -18l-25 58q25 13 59.5 21t73 12.5t71.5 4.5zM155 29q-27 31 -36 84.5t-9 109.5q0 59 13.5 114t33.5 104l57 -21q-17 -52 -28.5 -100t-11.5 -97q0 -35 4 -71
t14 -68.5t28 -57.5z" />
    <glyph glyph-name="uniFEE4" unicode="&#x645;" horiz-adv-x="646" arabic-form="medial" 
d="M540 72h126v-72h-126v72zM361 479q68 0 107 -11.5t55.5 -37.5t16.5 -72v-358h-560v72h496v322q-26 8 -54 10.5t-65 2.5q-38 0 -86 -6t-89 -18l-25 58q25 13 59.5 21t73 12.5t71.5 4.5zM155 29q-27 31 -36 84.5t-9 109.5q0 59 13.5 114t33.5 104l57 -21
q-17 -52 -28.5 -100t-11.5 -97q0 -35 4 -71t14 -68.5t28 -57.5z" />
    <glyph glyph-name="uniFEE6" unicode="&#x646;" horiz-adv-x="656" arabic-form="final" 
d="M550 72h126v-72h-126v72zM149 -168h193q83 0 113.5 10.5t30.5 42.5v585h64v-515q0 -60 -10 -98t-37.5 -59t-78 -29.5t-131.5 -8.5q-72 0 -115.5 9.5t-66.5 33.5t-31 66.5t-8 109.5q0 42 3.5 88.5t10.5 89t15 73.5l59 -11q-12 -61 -18 -118.5t-6 -106.5q0 -51 3 -88.5
t10 -73.5zM316 591q-9 0 -20.5 8t-20 20t-8.5 21q0 10 8.5 21t20 19.5t20.5 8.5q10 0 21.5 -8.5t19.5 -19.5t8 -21q0 -9 -8.5 -20.5t-20 -20t-20.5 -8.5z" />
    <glyph glyph-name="uniFEE7" unicode="&#x646;" horiz-adv-x="312" arabic-form="initial" 
d="M-20 0v72h162v398h64v-470h-226zM174 591q-9 0 -20.5 8t-20 20t-8.5 21q0 10 8.5 21t20 19.5t20.5 8.5q10 0 21.5 -8.5t19.5 -19.5t8 -21q0 -9 -8.5 -20.5t-20 -20t-20.5 -8.5z" />
    <glyph glyph-name="uniFEE8" unicode="&#x646;" horiz-adv-x="312" arabic-form="medial" 
d="M206 72h126v-72h-352v72h162v398h64v-398zM174 591q-9 0 -20.5 8t-20 20t-8.5 21q0 10 8.5 21t20 19.5t20.5 8.5q10 0 21.5 -8.5t19.5 -19.5t8 -21q0 -9 -8.5 -20.5t-20 -20t-20.5 -8.5z" />
    <glyph glyph-name="uniFEEA" unicode="&#x647;" horiz-adv-x="614" arabic-form="final" 
d="M520 72h114v-72h-114v72zM524 470v-470h-239q-62 0 -101 8.5t-59 33.5t-27.5 71t-7.5 122t7.5 122t27.5 71t59 33.5t101 8.5h239zM460 398h-226q-41 0 -58.5 -14t-17.5 -47v-204q0 -33 17.5 -47t58.5 -14h226v326z" />
    <glyph glyph-name="uniFEEB" unicode="&#x647;" horiz-adv-x="720" arabic-form="initial" 
d="M-20 0v72h621l-54 209q-20 74 -59.5 114t-100.5 55.5t-148 15.5l5 69q101 0 173 -18.5t118.5 -68t70.5 -143.5l64 -250v-55h-690zM98 54q0 80 4.5 127.5t21 71t49.5 30.5t90 7q62 0 98 -7t53 -30.5t22 -71t5 -127.5h-343zM385 238h-176q-31 0 -43 -8.5t-12 -32.5v-143
h231v184z" />
    <glyph glyph-name="uniFEEC" unicode="&#x647;" horiz-adv-x="720" arabic-form="medial" 
d="M640 71h100v-72h-100v72zM-20 0v72h621l-54 209q-20 74 -59.5 114t-100.5 55.5t-148 15.5l5 69q101 0 173 -18.5t118.5 -68t70.5 -143.5l64 -250v-55h-690zM98 54q0 80 4.5 127.5t21 71t49.5 30.5t90 7q62 0 98 -7t53 -30.5t22 -71t5 -127.5h-343zM385 238h-176
q-31 0 -43 -8.5t-12 -32.5v-143h231v184z" />
    <glyph glyph-name="uniFEEE" unicode="&#x648;" horiz-adv-x="611" arabic-form="final" 
d="M473 72h158v-72h-158v72zM222 0q-40 0 -65 10.5t-39.5 36t-20 72.5t-5.5 119q0 76 8 123t29.5 72.5t61 35.5t101.5 10q61 0 106.5 -6.5t96.5 -22.5v-378l-27 -72h-246zM383 72q28 0 38 11.5t10 41.5v282h-228q-25 0 -34 -11.5t-9 -46.5v-277h223zM285 -264l-38 51
q36 28 69 64t59 75t41 77t15 69h64q0 -38 -17 -84.5t-46 -93.5t-67 -88t-80 -70z" />
    <glyph glyph-name="uniFEF0" unicode="&#x649;" horiz-adv-x="856" arabic-form="final" 
d="M391 -272q-97 0 -159.5 4t-97 20.5t-48.5 52.5t-14 100q0 39 3.5 82.5t10.5 83.5t15 69l63 -12q-12 -56 -20 -107.5t-8 -95.5q0 -39 3 -67t10 -58h283q100 0 155 4.5t77 16t22 32.5v147h64v-89q0 -54 -14 -90t-52 -56t-109 -28.5t-184 -8.5zM626 0q-48 0 -101.5 8
t-88.5 21l11 67q45 -12 88 -18t79 -6h262v-72h-250z" />
    <glyph glyph-name="uniFEF2" unicode="&#x64a;" horiz-adv-x="856" arabic-form="final" 
d="M391 -272q-97 0 -159.5 4t-97 20.5t-48.5 52.5t-14 100q0 39 3.5 82.5t10.5 83.5t15 69l63 -12q-12 -56 -20 -107.5t-8 -95.5q0 -39 3 -67t10 -58h283q100 0 155 4.5t77 16t22 32.5v147h64v-89q0 -54 -14 -90t-52 -56t-109 -28.5t-184 -8.5zM626 0q-48 0 -101.5 8
t-88.5 21l11 67q45 -12 88 -18t79 -6h262v-72h-250zM363 -428q-9 0 -20.5 8t-20 20t-8.5 21q0 10 8.5 21t20 19.5t20.5 8.5q10 0 21.5 -8.5t19.5 -19.5t8 -21q0 -9 -8.5 -20.5t-20 -20t-20.5 -8.5zM497 -428q-9 0 -20.5 8t-20 20t-8.5 21q0 10 8.5 21t20 19.5t20.5 8.5
q10 0 21.5 -8.5t19.5 -19.5t8 -21q0 -9 -8.5 -20.5t-20 -20t-20.5 -8.5z" />
    <glyph glyph-name="uniFEF3" unicode="&#x64a;" horiz-adv-x="312" arabic-form="initial" 
d="M-20 0v72h162v398h64v-470h-226zM42 -155q-9 0 -20.5 8t-20 20t-8.5 21q0 10 8.5 21t20 19.5t20.5 8.5q10 0 21.5 -8.5t19.5 -19.5t8 -21q0 -9 -8.5 -20.5t-20 -20t-20.5 -8.5zM176 -155q-9 0 -20.5 8t-20 20t-8.5 21q0 10 8.5 21t20 19.5t20.5 8.5q10 0 21.5 -8.5
t19.5 -19.5t8 -21q0 -9 -8.5 -20.5t-20 -20t-20.5 -8.5z" />
    <glyph glyph-name="uniFEF4" unicode="&#x64a;" horiz-adv-x="312" arabic-form="medial" 
d="M206 72h126v-72h-352v72h162v398h64v-398zM101 -178q-9 0 -20.5 8t-20 20t-8.5 21q0 10 8.5 21t20 19.5t20.5 8.5q10 0 21.5 -8.5t19.5 -19.5t8 -21q0 -9 -8.5 -20.5t-20 -20t-20.5 -8.5zM235 -178q-9 0 -20.5 8t-20 20t-8.5 21q0 10 8.5 21t20 19.5t20.5 8.5
q10 0 21.5 -8.5t19.5 -19.5t8 -21q0 -9 -8.5 -20.5t-20 -20t-20.5 -8.5z" />
    <glyph glyph-name=".notdef" horiz-adv-x="600" 
d="M24 1012h524v-1012h-524v1012zM40 996v-979h492v979h-492z" />
    <glyph glyph-name=".null" 
 />
    <glyph glyph-name="nonmarkingreturn" horiz-adv-x="333" 
 />
    <glyph glyph-name="space" unicode=" " horiz-adv-x="260" 
 />
    <glyph glyph-name="exclam" unicode="!" horiz-adv-x="241" 
d="M95 189l-28 440q0 7 4 11.5t17 4.5h62q13 0 17.5 -4.5t4.5 -11.5l-27 -440h-50zM62 56q0 32 11 47.5t47 15.5q35 0 46 -15.5t11 -47.5q0 -33 -11 -47.5t-46 -14.5q-36 0 -47 14.5t-11 47.5z" />
    <glyph glyph-name="quotedbl" unicode="&#x22;" horiz-adv-x="386" 
d="M261 402l-32 169v52q0 11 7.5 19t29.5 8h20q22 0 29.5 -8t7.5 -19v-52l-32 -169h-30zM95 402l-32 169v52q0 11 7.5 19t29.5 8h20q22 0 29.5 -8t7.5 -19v-52l-32 -169h-30z" />
    <glyph glyph-name="numbersign" unicode="#" horiz-adv-x="724" 
d="M320 -40l269 680q5 13 13.5 19t29.5 6h29l-269 -680q-5 -13 -13.5 -19t-29.5 -6h-29zM32 163l11 27q8 19 18 23.5t25 4.5h511l-11 -27q-8 -20 -17.5 -24t-24.5 -4h-512zM67 -40l269 680q5 13 13.5 19t29.5 6h29l-269 -680q-5 -13 -13.5 -19t-29.5 -6h-29zM131 405l11 28
q8 19 18 23t24 4h511l-11 -27q-8 -19 -17.5 -23.5t-23.5 -4.5h-512z" />
    <glyph glyph-name="dollar" unicode="$" horiz-adv-x="517" 
d="M198 -130l77 884h53l-77 -884h-53zM77 84q35 -9 87 -15t98 -6q23 0 47.5 1t66.5 5v203l-92 6q-65 5 -106.5 13.5t-64.5 27t-32 48.5t-9 77q0 66 17 105.5t54 57t99 17.5q47 0 92 -4t94 -12l-10 -60q-41 8 -83 11t-95 3q-28 0 -45.5 -1t-38.5 -4v-204l113 -7
q74 -4 115.5 -20.5t58 -53t16.5 -101.5t-19.5 -102t-66 -52.5t-127.5 -15.5q-47 0 -90.5 4.5t-91.5 16.5z" />
    <glyph glyph-name="percent" unicode="%" horiz-adv-x="1139" 
d="M68 427q0 69 6 111.5t22.5 64.5t50.5 29.5t90 7.5q55 0 88.5 -7.5t50.5 -29.5t22.5 -64t5.5 -112q0 -71 -5 -113t-22 -64t-50.5 -29t-89.5 -7q-57 0 -90.5 7t-50.5 29t-22.5 64t-5.5 113zM125 595v-301q0 -21 13.5 -27.5t56.5 -6.5h153v300q0 21 -15 28t-60 7h-148z
M482 -15q-7 -12 -14.5 -18.5t-28.5 -6.5h-15l233 680q4 13 13 19t30 6h15zM735 203q0 69 6 111.5t22.5 64.5t50.5 29.5t90 7.5q55 0 88.5 -7.5t50.5 -29.5t22.5 -64t5.5 -112q0 -71 -5 -113t-22 -64t-50.5 -29t-89.5 -7q-57 0 -90.5 7t-50.5 29t-22.5 64t-5.5 113zM792 371
v-301q0 -21 13.5 -27.5t56.5 -6.5h153v300q0 21 -15 28t-60 7h-148z" />
    <glyph glyph-name="ampersand" unicode="&#x26;" horiz-adv-x="568" 
d="M157 279l42 66h358l-10 -66h-390zM123 356q1 86 11.5 141t33.5 86.5t63.5 44t102.5 12.5q22 0 46.5 -2.5t46.5 -7t37 -10.5l-11 -67q-18 5 -45.5 9t-56 6.5t-50.5 2.5q-54 0 -73.5 -16t-19.5 -61v-176l-39 -36v-149q0 -91 95 -91q50 0 93.5 8.5t102.5 28.5l13 -37
q-63 -23 -105 -35.5t-73 -17t-67 -4.5q-76 0 -110 43t-34 140q0 146 81 171v4zM407 282h83v-389l-39 -5z" />
    <glyph glyph-name="quotesingle" unicode="'" horiz-adv-x="220" 
d="M95 402l-32 169v52q0 11 7.5 19t29.5 8h20q22 0 29.5 -8t7.5 -19v-52l-32 -169h-30z" />
    <glyph glyph-name="parenleft" unicode="(" horiz-adv-x="300" 
d="M233 -95q-54 25 -97 73.5t-67.5 130t-24.5 203.5t24.5 203t67.5 130.5t97 73.5l13 -60q-25 -24 -46.5 -52.5t-37.5 -67.5t-25 -94t-9 -133t9 -133t25 -94t37.5 -67.5t46.5 -52.5z" />
    <glyph glyph-name="parenright" unicode=")" horiz-adv-x="300" 
d="M67 -95l-13 60q25 24 46.5 52.5t37.5 67.5t25 94t9 133t-9 133t-25 94t-37.5 67.5t-46.5 52.5l13 60q55 -24 98 -73.5t67 -130.5t24 -203t-24 -203.5t-67 -130t-98 -73.5z" />
    <glyph glyph-name="asterisk" unicode="*" horiz-adv-x="515" 
d="M338 342l-26 40l-66 138l22 17l113 -106l26 -38zM176 342l-69 51l26 38l113 106l22 -17l-65 -138zM253 515l-152 21l-46 13l27 81l45 -15l134 -73zM244 529l-30 152v47h86v-47l-29 -152h-27zM261 515l-8 27l134 73l46 15l26 -81l-45 -13z" />
    <glyph glyph-name="plus" unicode="+" horiz-adv-x="530" 
d="M86 346h358v-68h-358v68zM231 133v358h68v-358h-68zM86 346h358v-68h-358v68z" />
    <glyph glyph-name="comma" unicode="," horiz-adv-x="221" 
d="M110 -99l-36 11l17 83q-21 4 -29 16.5t-8 43.5q0 35 13 48t45 13q30 0 42.5 -13t12.5 -48q0 -8 -2.5 -19.5t-8 -27.5t-14.5 -37z" />
    <glyph glyph-name="hyphen" unicode="-" horiz-adv-x="350" 
d="M35 278q0 23 11 27.5t36 4.5h233v-38q0 -23 -10.5 -27.5t-36.5 -4.5h-233v38z" />
    <glyph glyph-name="period" unicode="." horiz-adv-x="221" 
d="M54 55q0 32 11 46.5t45 14.5q35 0 46 -14.5t11 -46.5q0 -33 -11 -47t-46 -14q-34 0 -45 14t-11 47z" />
    <glyph glyph-name="slash" unicode="/" horiz-adv-x="404" 
d="M70 -15q-7 -15 -16.5 -20t-26.5 -5h-27l334 680q8 15 17 20t26 5h27z" />
    <glyph glyph-name="zero" unicode="0" horiz-adv-x="613" 
d="M64 312q0 107 8.5 172t33.5 99t73 45.5t128 11.5q79 0 127 -11.5t73 -45t33.5 -99t8.5 -172.5q0 -87 -5 -146t-18.5 -95t-40 -54.5t-70 -25t-108.5 -6.5t-108.5 6.5t-70.5 25t-41 55t-18.5 95t-4.5 145.5zM149 572v-466q0 -32 19.5 -42.5t80.5 -10.5h214v466
q0 32 -21 42.5t-84 10.5h-209z" />
    <glyph glyph-name="one" unicode="1" horiz-adv-x="415" 
d="M37 0v66h144v493l-154 -19v70l234 30v-574h122v-66h-346z" />
    <glyph glyph-name="two" unicode="2" horiz-adv-x="541" 
d="M59 0v72q0 50 5 84.5t22.5 61t53.5 51t97 52.5t155 67v177q-16 4 -37.5 5.5t-56.5 1.5q-49 0 -105.5 -5t-107.5 -14l-10 62q39 13 90 19t107 6q107 0 156 -37t49 -118q0 -39 -6.5 -67.5t-25.5 -52.5t-56.5 -47.5t-99.5 -52t-154 -67.5v-132h331v-66h-407z" />
    <glyph glyph-name="three" unicode="3" horiz-adv-x="490" 
d="M213 -15q-55 0 -100.5 6t-78.5 19l9 62q41 -9 94.5 -14t101.5 -5q84 0 112 7v215l-175 21v42l175 28v199q-27 7 -88 7q-48 0 -101.5 -5t-95.5 -14l-7 62q35 13 83.5 19t106.5 6q93 0 140 -42.5t47 -128.5q0 -50 -19.5 -90t-54.5 -59v-5q39 -22 56.5 -58.5t17.5 -93.5
q0 -67 -20.5 -106t-69 -55.5t-133.5 -16.5z" />
    <glyph glyph-name="four" unicode="4" horiz-adv-x="563" 
d="M365 145h-331v37l241 443h170v-413h64v-67h-64v-145h-80v145zM134 212h231v353h-41z" />
    <glyph glyph-name="five" unicode="5" horiz-adv-x="518" 
d="M259 -15q-56 0 -106.5 6t-88.5 19l10 62q47 -9 101 -14t101 -5q38 0 62 1.5t41 5.5v189l-85 8q-67 8 -108 16t-63.5 21.5t-30.5 34.5t-8 53l10 243h344l-7 -66h-257v-218l59 -6q92 -9 142 -26.5t69.5 -52.5t19.5 -96q0 -91 -49 -133t-156 -42z" />
    <glyph glyph-name="six" unicode="6" horiz-adv-x="554" 
d="M409 292h-197q-41 0 -54.5 -8t-13.5 -34v-201h198q41 0 54 8.5t13 33.5v201zM495 182q0 -73 -20.5 -116.5t-68 -62t-129.5 -18.5q-71 0 -114 12t-65.5 46.5t-30.5 99t-8 169.5q0 99 10.5 163t36 100t71.5 50.5t117 14.5q25 0 59 -3.5t66 -9t49 -12.5l-10 -62
q-34 8 -85.5 13.5t-95.5 5.5q-43 0 -81.5 -2t-51.5 -4v-208h165q97 0 141.5 -41.5t44.5 -134.5z" />
    <glyph glyph-name="seven" unicode="7" horiz-adv-x="460" 
d="M203 0h-80l206 559h-293l-7 66h387v-49z" />
    <glyph glyph-name="eight" unicode="8" horiz-adv-x="573" 
d="M288 640q81 0 129 -16t68.5 -53t20.5 -100q0 -51 -11.5 -97.5t-31.5 -74.5v-7q24 -15 37.5 -48.5t13.5 -72.5q0 -58 -9.5 -94.5t-33.5 -56.5t-68.5 -27.5t-114.5 -7.5q-71 0 -116 8t-69.5 28t-34 56.5t-9.5 93.5q0 51 15 95.5t41 66.5v7q-22 20 -35 54.5t-13 76.5
q0 62 21 99t69.5 53.5t130.5 16.5zM180 314q-15 6 -23 6q-13 0 -13 -17v-254h208q45 0 60 8.5t15 34.5l1 139zM388 323q5 -1 9.5 -2.5t7.5 -1.5q10 0 17 5.5t7 12.5v239h-210q-45 0 -60 -8t-15 -35v-128z" />
    <glyph glyph-name="nine" unicode="9" horiz-adv-x="554" 
d="M144 578v-200q0 -25 11 -33.5t45 -8.5h209v200q0 26 -11 34t-44 8h-210zM59 444q0 74 20.5 116.5t68 61t129.5 18.5q70 0 113 -12t66 -46.5t31 -98.5t8 -169q0 -99 -10.5 -163.5t-36.5 -100.5t-72 -50.5t-118 -14.5q-25 0 -61 3.5t-69 9.5t-52 13l8 62q38 -8 92 -13.5
t100 -5.5q43 0 82 2t51 5v207h-164q-97 0 -141.5 42.5t-44.5 133.5z" />
    <glyph glyph-name="colon" unicode=":" horiz-adv-x="210" 
d="M54 55q0 32 11 46.5t45 14.5q35 0 46 -14.5t11 -46.5q0 -33 -11 -47t-46 -14q-34 0 -45 14t-11 47zM54 444q0 32 11 46.5t45 14.5q35 0 46 -14.5t11 -46.5q0 -33 -11 -47t-46 -14q-34 0 -45 14t-11 47z" />
    <glyph glyph-name="semicolon" unicode=";" horiz-adv-x="210" 
d="M110 -99l-36 11l17 83q-21 4 -29 16.5t-8 43.5q0 35 13 48t45 13q30 0 42.5 -13t12.5 -48q0 -8 -2.5 -19.5t-8 -27.5t-14.5 -37zM54 444q0 32 11 46.5t45 14.5q35 0 46 -14.5t11 -46.5q0 -33 -11 -47t-46 -14q-34 0 -45 14t-11 47z" />
    <glyph glyph-name="less" unicode="&#x3c;" horiz-adv-x="530" 
d="M444 140l-358 127v90l358 127v-66l-315 -111v10l315 -111v-66z" />
    <glyph glyph-name="equal" unicode="=" horiz-adv-x="530" 
d="M86 250h358v-68h-358v68zM86 442h358v-68h-358v68z" />
    <glyph glyph-name="greater" unicode="&#x3e;" horiz-adv-x="530" 
d="M86 484l358 -127v-90l-358 -127v66l315 111v-10l-315 111v66z" />
    <glyph glyph-name="question" unicode="?" horiz-adv-x="396" 
d="M144 189l-10 177q-1 12 12.5 20t52.5 22l95 34v132q-21 3 -45 4.5t-49 1.5q-24 0 -64.5 -4.5t-92.5 -15.5l-11 54q42 14 82.5 20t75.5 6q69 0 110 -13t59.5 -42t18.5 -78q0 -34 -6 -57t-23 -40t-53.5 -33.5t-96.5 -38.5l-5 -149h-50zM112 56q0 32 10.5 47.5t46.5 15.5
q35 0 46.5 -15.5t11.5 -47.5q0 -33 -11.5 -47.5t-46.5 -14.5q-36 0 -46.5 14.5t-10.5 47.5z" />
    <glyph glyph-name="at" unicode="@" horiz-adv-x="803" 
d="M631 483q-20 3 -52.5 5t-69.5 3.5t-72 1.5q-47 0 -95.5 -4t-89.5 -20.5t-66 -53.5t-25 -101v-232q0 -58 20 -91.5t53 -49t75.5 -19.5t86.5 -4h194v-63q-41 -7 -80 -11.5t-79 -4.5q-96 0 -165.5 17t-113.5 56t-65 104.5t-21 162.5v80q0 94 25 155.5t70.5 97t108.5 50
t140 14.5q158 0 229 -45t71 -141v-390h-35l-23 50q-35 -31 -79 -45t-101 -14q-81 0 -115 33t-34 113q0 53 9.5 85t38.5 47.5t88 20.5t159 5h42v-58h-181q-49 0 -66.5 -12.5t-17.5 -49.5v-119h153q48 0 65 13t17 49z" />
    <glyph glyph-name="A" unicode="A" horiz-adv-x="533" 
d="M17 0l190 625h119l190 -625h-80l-165 553h-9l-165 -553h-80zM104 148v66h327v-66h-327z" />
    <glyph glyph-name="B" unicode="B" horiz-adv-x="580" 
d="M98 625h231q84 0 124 -37t40 -116q0 -58 -13.5 -92t-45.5 -57v-6q44 -17 67 -52.5t23 -88.5q0 -85 -42 -130.5t-121 -45.5h-263v625zM178 21l-38 38h213q50 0 71 28t21 92q0 58 -20.5 83t-70.5 25h-192v56h164q49 0 68 24t19 86q0 64 -18.5 88.5t-67.5 24.5h-187l38 38
v-583z" />
    <glyph glyph-name="C" unicode="C" horiz-adv-x="485" 
d="M459 11q-37 -14 -76 -20t-91 -6q-68 0 -111 15t-67 51.5t-33 100t-9 160.5q0 99 9.5 162.5t34 100t69 51t115.5 14.5q20 0 46 -2t52 -6.5t45 -11.5l-10 -67q-26 7 -57.5 10.5t-59.5 5.5t-45 2q-59 0 -86.5 -13t-27.5 -64v-427q27 -8 59.5 -12t67.5 -4q43 0 84.5 7
t81.5 18z" />
    <glyph glyph-name="D" unicode="D" horiz-adv-x="618" 
d="M98 625h213q74 0 120 -12t71.5 -45.5t34.5 -95t9 -160.5q0 -98 -9 -159.5t-34.5 -95t-71.5 -45.5t-120 -12h-213v625zM178 557v-489h203q44 0 61 16.5t17 58.5v339q0 42 -17 58.5t-61 16.5h-203z" />
    <glyph glyph-name="E" unicode="E" horiz-adv-x="514" 
d="M178 280v-214h283v-66h-363v625h358l-9 -66h-269v-214h244v-65h-244z" />
    <glyph glyph-name="F" unicode="F" horiz-adv-x="446" 
d="M178 268v-268h-80v625h326l-8 -66h-238v-225h206v-66h-206z" />
    <glyph glyph-name="G" unicode="G" horiz-adv-x="569" 
d="M275 -15q-63 0 -103 12.5t-61.5 46.5t-30 98.5t-8.5 169.5q0 98 10 162t35.5 100.5t71 51t118.5 14.5q23 0 53.5 -2t60.5 -6.5t52 -11.5l-10 -67q-30 7 -66.5 10.5t-69.5 5.5t-53 2q-61 0 -89.5 -13t-28.5 -64v-445h327l13 -31q-49 -18 -101 -25.5t-120 -7.5zM427 30v242
h-104v66h173v-320z" />
    <glyph glyph-name="H" unicode="H" horiz-adv-x="638" 
d="M178 0h-80v625h80v-625zM460 625h80v-625h-80v625zM476 276h-314v66h314v-66z" />
    <glyph glyph-name="I" unicode="I" horiz-adv-x="276" 
d="M98 625h80v-625h-80v625z" />
    <glyph glyph-name="J" unicode="J" horiz-adv-x="343" 
d="M22 63h95q20 0 34 4.5t14 25.5v466h-100v66h180v-496q0 -54 -18 -81.5t-52.5 -37.5t-84.5 -10h-57z" />
    <glyph glyph-name="K" unicode="K" horiz-adv-x="540" 
d="M438 0l-72 152q-14 30 -28 65t-14 72h-162v64h162q0 37 13.5 72t28.5 65l67 135h91l-151 -304l156 -321h-91zM98 0v625h80v-625h-80z" />
    <glyph glyph-name="L" unicode="L" horiz-adv-x="427" 
d="M98 0v625h80v-559h238v-66h-318z" />
    <glyph glyph-name="M" unicode="M" horiz-adv-x="792" 
d="M83 0l43 625h115l151 -498h7l152 498h115l43 -625h-79l-35 531h-6l-160 -531h-66l-160 531h-6l-35 -531h-79z" />
    <glyph glyph-name="N" unicode="N" horiz-adv-x="658" 
d="M103 0v625h77l263 -424q15 -25 20 -34.5t6 -26.5h6v485h80v-625h-77l-263 424q-15 26 -19.5 35.5t-6.5 25.5h-6v-485h-80z" />
    <glyph glyph-name="O" unicode="O" horiz-adv-x="631" 
d="M72 312q0 104 9.5 168.5t35 99t73.5 47.5t126 13q77 0 125 -13t73.5 -48t35 -99t9.5 -168t-9.5 -168t-35 -98.5t-73.5 -47.5t-125 -13q-78 0 -126 13t-73.5 47.5t-35 98.5t-9.5 168zM157 53h230q48 0 67.5 17t19.5 60v442h-230q-49 0 -68 -17t-19 -60v-442z" />
    <glyph glyph-name="P" unicode="P" horiz-adv-x="518" 
d="M178 217v-217h-80v625h237q62 0 97 -19t50 -64.5t15 -123.5q0 -109 -33 -155t-114 -46h-172zM178 283h160q43 0 59 9t16 33v192q0 24 -16 33t-59 9h-160v-276z" />
    <glyph glyph-name="Q" unicode="Q" horiz-adv-x="621" 
d="M311 -15q-76 0 -123 12.5t-72.5 47t-34.5 99t-9 168.5t9 168.5t34.5 99.5t72.5 47.5t123 12.5t122.5 -13t71.5 -48t34.5 -99.5t9.5 -167.5q0 -100 -8.5 -161t-30 -93t-58.5 -47l-85 -4zM159 53h220q47 0 65 17t18 60v442h-220q-47 0 -65 -17t-18 -60v-442zM536 -71
l-169 56v22l78 35l111 -70z" />
    <glyph glyph-name="R" unicode="R" horiz-adv-x="571" 
d="M178 229v-229h-80v625h242q62 0 97 -19t50 -64.5t15 -123.5q0 -102 -33.5 -145.5t-113.5 -43.5h-177zM178 295h165q43 0 59 9t16 33v180q0 24 -16 33t-59 9h-165v-264zM408 257l125 -257h-87l-121 256z" />
    <glyph glyph-name="S" unicode="S" horiz-adv-x="508" 
d="M63 72q37 -9 91.5 -15t102.5 -6q25 0 51 1t69 5v212l-96 7q-69 5 -112.5 14.5t-68 28.5t-33.5 51t-9 81q0 69 17.5 110.5t57 60t103.5 18.5q50 0 97.5 -4t98.5 -13l-11 -63q-42 8 -86.5 11t-100.5 3q-29 0 -47.5 -1t-40.5 -4v-214l119 -7q78 -5 121 -22t60.5 -55.5
t17.5 -106.5t-20.5 -107t-69.5 -55.5t-133 -16.5q-50 0 -95.5 5t-95.5 17z" />
    <glyph glyph-name="T" unicode="T" horiz-adv-x="454" 
d="M267 559v-559h-80v559h-170v66h420v-66h-170z" />
    <glyph glyph-name="U" unicode="U" horiz-adv-x="639" 
d="M319 -15q-71 0 -116 8.5t-70 29.5t-35 59t-10 98v445h80v-572h157q60 0 91 4.5t43 16t12 32.5v519h80v-445q0 -60 -10 -98t-35 -59t-70.5 -29.5t-116.5 -8.5z" />
    <glyph glyph-name="V" unicode="V" horiz-adv-x="501" 
d="M11 625h80l155 -553h9l155 553h80l-180 -625h-119z" />
    <glyph glyph-name="W" unicode="W" horiz-adv-x="777" 
d="M25 625h80l93 -553h9l139 553h71l-155 -625h-127zM752 625l-110 -625h-127l-155 625h70l140 -553h9l93 553h80z" />
    <glyph glyph-name="X" unicode="X" horiz-adv-x="510" 
d="M499 0h-90l-390 625h90zM260 272l-162 -272h-87l221 364zM242 353l162 272h87l-220 -364z" />
    <glyph glyph-name="Y" unicode="Y" horiz-adv-x="472" 
d="M222 270l156 355h83l-185 -407v-218h-80v218l-185 407h83l156 -355h-28z" />
    <glyph glyph-name="Z" unicode="Z" horiz-adv-x="536" 
d="M37 0v54l359 499l-3 6h-305l-10 66h422v-54l-360 -499l3 -6h337v-66h-443z" />
    <glyph glyph-name="bracketleft" unicode="[" horiz-adv-x="267" 
d="M74 613q0 40 14.5 63t48.5 32.5t94 9.5l6 -63l-83 -8v-669l83 -8l-6 -63q-60 0 -94 9.5t-48.5 32.5t-14.5 63v601z" />
    <glyph glyph-name="backslash" unicode="\" horiz-adv-x="395" 
d="M-4 665h43q21 0 28.5 -6.5t14.5 -18.5l317 -680h-43q-21 0 -28.5 6.5t-14.5 18.5z" />
    <glyph glyph-name="bracketright" unicode="]" horiz-adv-x="267" 
d="M193 613v-601q0 -40 -14.5 -63t-48.5 -32.5t-94 -9.5l-6 63l83 8v669l-83 8l6 63q60 0 94 -9.5t48.5 -32.5t14.5 -63z" />
    <glyph glyph-name="asciicircum" unicode="^" horiz-adv-x="530" 
d="M69 120l151 384h90l151 -384h-66l-134 341h8l-134 -341h-66z" />
    <glyph glyph-name="underscore" unicode="_" horiz-adv-x="475" 
d="M25 -39q0 29 13.5 35.5t43.5 6.5h368v-29q0 -29 -13.5 -35.5t-43.5 -6.5h-368v29z" />
    <glyph glyph-name="grave" unicode="`" horiz-adv-x="600" 
d="M265 557l-133 35q-15 4 -21 10l-25 20q-6 4 -6 9q0 3 6 11l39 49q3 4 7 4q2 0 7 -4l145 -105z" />
    <glyph glyph-name="a" unicode="a" horiz-adv-x="541" 
d="M210 -9q-81 0 -115 33t-34 113q0 53 9.5 85t38.5 47.5t88 20.5t159 5h42v-58h-181q-49 0 -66.5 -12.5t-17.5 -49.5v-119h153q48 0 65 13t17 49v313q-42 13 -111 13q-38 0 -79.5 -6t-84.5 -18l-10 60q22 8 54 15t68 10.5t68 3.5q66 0 104 -12.5t54.5 -41.5t16.5 -79v-376
h-35l-23 50q-35 -31 -79 -45t-101 -14z" />
    <glyph glyph-name="b" unicode="b" horiz-adv-x="564" 
d="M325 515q53 0 87 -11t52.5 -39.5t26 -80.5t7.5 -134q0 -81 -7.5 -131.5t-27.5 -78.5t-57 -38.5t-97 -10.5q-61 0 -98 9t-56 35.5t-25.5 78t-6.5 136.5q0 87 7 139.5t27.5 79.5t61 36.5t106.5 9.5zM415 447h-190q-27 0 -37 -5t-10 -20v-363h189q27 0 37.5 4t10.5 15v369z
M98 668l80 11v-586v-50l131 -52q-58 0 -106 7t-105 22v648z" />
    <glyph glyph-name="c" unicode="c" horiz-adv-x="454" 
d="M237 -9q-53 0 -86.5 10.5t-52 39t-25.5 79t-7 130.5t7 131t25.5 79t52 38.5t86.5 10.5q26 0 54.5 -2t55.5 -6t50 -10l-12 -63q-38 8 -74 12t-73 4q-50 0 -70 -19.5t-20 -67.5v-288q40 -13 112 -13q31 0 61.5 5.5t76.5 18.5l10 -60q-32 -13 -77.5 -21t-93.5 -8z" />
    <glyph glyph-name="d" unicode="d" horiz-adv-x="564" 
d="M239 509q67 0 107 -9.5t60.5 -36t27.5 -77.5t7 -136q0 -87 -7 -140t-27.5 -80t-60.5 -36t-107 -9q-55 0 -89 11t-52 39.5t-25 80.5t-7 134q0 80 7.5 131t26 79t52 38.5t87.5 10.5zM386 441h-190q-27 0 -37 -5t-10 -20v-363h189q28 0 38 5t10 20v363zM466 679v-679h-35
l-45 93v575z" />
    <glyph glyph-name="e" unicode="e" horiz-adv-x="535" 
d="M246 -9q-55 0 -90.5 11t-55 39.5t-27 79t-7.5 129.5q0 101 17.5 157.5t61 79t121.5 22.5q77 0 119 -12.5t58 -44t16 -89.5q0 -53 -9.5 -85t-40.5 -47.5t-93 -20.5t-167 -5h-30v58h181q51 0 69 13t18 49v114h-152q-50 0 -68 -12.5t-18 -49.5v-308q24 -6 50.5 -9.5
t63.5 -3.5q40 0 78 5.5t94 18.5l11 -60q-34 -13 -88.5 -21t-111.5 -8z" />
    <glyph glyph-name="f" unicode="f" horiz-adv-x="328" 
d="M208 0h-80v493q4 71 14.5 110.5t33 55.5t60.5 16q23 0 45.5 -2.5t43.5 -7.5l-5 -62l-112 9v-612zM292 500v-57h-238v57h238z" />
    <glyph glyph-name="g" unicode="g" horiz-adv-x="497" 
d="M238 147q-73 0 -114 16t-58 56t-17 111t17 111t58 57t114 17t114.5 -17t58.5 -57t17 -111q0 -70 -17 -110.5t-58.5 -56.5t-114.5 -16zM130 205h136q46 0 63.5 15t17.5 53v183h-136q-45 0 -63 -14.5t-18 -53.5v-183zM434 -43q0 -45 -18 -71.5t-60 -37.5t-115 -11
q-53 0 -102.5 8t-82.5 21l11 64q52 -13 87.5 -18.5t72.5 -5.5q45 0 76 3t60 9v82q-103 6 -147 15.5t-44 26.5l29 116h51l-6 -93q61 -7 98 -14t56.5 -18t26.5 -29.5t7 -46.5zM396 426l-51 59l83 62l40 -41z" />
    <glyph glyph-name="h" unicode="h" horiz-adv-x="572" 
d="M98 0v658l79 7v-201q32 24 70 34.5t92 10.5q70 0 105 -19.5t35 -59.5v-430h-80v443h-133q-51 0 -69.5 -12.5t-18.5 -47.5v-383h-80z" />
    <glyph glyph-name="i" unicode="i" horiz-adv-x="276" 
d="M98 496l80 14v-510h-80v496zM140 596q-32 0 -42.5 10.5t-10.5 40.5q0 31 11 42t42 11q30 0 40.5 -11t10.5 -42q0 -30 -10 -40.5t-41 -10.5z" />
    <glyph glyph-name="j" unicode="j" horiz-adv-x="276" 
d="M63 -174q-17 0 -35 3t-32 7l6 45q41 0 61.5 4t27.5 17t7 39v555l80 14v-580q0 -53 -27.5 -78.5t-87.5 -25.5zM140 596q-32 0 -42.5 10.5t-10.5 40.5q0 31 11 42t42 11q30 0 40.5 -11t10.5 -42q0 -30 -10 -40.5t-41 -10.5z" />
    <glyph glyph-name="k" unicode="k" horiz-adv-x="479" 
d="M266 237h-88v-237h-80v650l80 15v-368h88l113 203h84l-130 -232l135 -268h-82z" />
    <glyph glyph-name="l" unicode="l" horiz-adv-x="264" 
d="M172 60q8 -1 20.5 -2t24.5 -2l-5 -55q-18 -5 -31 -7.5t-26 -2.5q-32 0 -47.5 17t-15.5 51v591l80 15v-605z" />
    <glyph glyph-name="m" unicode="m" horiz-adv-x="852" 
d="M98 0v500h35l23 -50q34 31 75.5 45t97.5 14q70 0 105 -19.5t35 -59.5v-430h-80v443h-117q-55 0 -74.5 -12.5t-19.5 -50.5v-380h-80zM389 0v500l57 -50q34 31 75.5 45t97.5 14q70 0 105 -19.5t35 -59.5v-430h-80v443h-117q-55 0 -74.5 -12.5t-19.5 -50.5v-380h-79z" />
    <glyph glyph-name="n" unicode="n" horiz-adv-x="572" 
d="M98 0v500h35l23 -50q36 30 80 44.5t103 14.5q70 0 105 -19.5t35 -59.5v-430h-80v443h-127q-55 0 -74.5 -12.5t-19.5 -50.5v-380h-80z" />
    <glyph glyph-name="o" unicode="o" horiz-adv-x="547" 
d="M274 -9q-65 0 -105.5 10.5t-63 38.5t-31 79t-8.5 131t8.5 131t31 79t63 38.5t105.5 10.5t106 -10.5t63 -38.5t30 -78.5t8 -131.5q0 -80 -8.5 -131t-30.5 -79t-63 -38.5t-105 -10.5zM148 59h201q30 0 40 5t10 20v357h-201q-30 0 -40 -5t-10 -20v-357z" />
    <glyph glyph-name="p" unicode="p" horiz-adv-x="564" 
d="M325 -15q-66 0 -106.5 9.5t-61 36.5t-27.5 79.5t-7 139.5q0 85 7 136.5t27.5 78t61 35.5t106.5 9q54 0 88.5 -10.5t52.5 -38.5t25 -78.5t7 -131.5t-7.5 -133.5t-26 -81t-52.5 -39.5t-87 -11zM178 53h189q28 0 38 5t10 20v363h-190q-26 0 -36.5 -4t-10.5 -15v-369z
M98 -179v679h35l45 -93v-575z" />
    <glyph glyph-name="q" unicode="q" horiz-adv-x="564" 
d="M239 -15q-54 0 -87.5 11t-52 39.5t-26 81t-7.5 133.5t7 131.5t25 78.5t52 38.5t89 10.5q67 0 107 -9t60.5 -35.5t27.5 -78t7 -136.5q0 -87 -7 -139.5t-27.5 -79.5t-60.5 -36.5t-107 -9.5zM149 53h189q28 0 38 5t10 20v363h-190q-26 0 -36.5 -4t-10.5 -15v-369zM466 -168
l-80 -11v586l45 93h35v-668z" />
    <glyph glyph-name="r" unicode="r" horiz-adv-x="327" 
d="M134 500l31 -82q49 43 80 65t55 32l10 -79q-22 -7 -46 -18t-46 -24t-40 -27v-367h-80v500h36z" />
    <glyph glyph-name="s" unicode="s" horiz-adv-x="473" 
d="M61 370q0 75 44.5 110t137.5 35q43 0 80.5 -5.5t75.5 -16.5l-12 -60q-25 7 -59.5 12t-63.5 5q-34 0 -64.5 -2.5t-55.5 -6.5v-135q90 -12 145.5 -25t84.5 -30.5t39.5 -44t10.5 -68.5q0 -55 -19.5 -89t-63.5 -49t-118 -15q-42 0 -84.5 7t-89.5 21l14 67q78 -30 165 -30
q33 0 57 3t56 12v134q-96 15 -152 27t-84 29t-36 44t-8 71z" />
    <glyph glyph-name="t" unicode="t" horiz-adv-x="352" 
d="M193 -9q-31 0 -47 17t-16 51v553l80 21v-573q13 -1 29.5 -2t44.5 -2l-6 -55q-29 -5 -50 -7.5t-35 -2.5zM56 443v57h247v-57h-247z" />
    <glyph glyph-name="u" unicode="u" horiz-adv-x="572" 
d="M474 500v-500h-35l-23 50q-38 -30 -85 -44.5t-109 -14.5q-67 0 -98 24t-31 73v412h80v-444h127q56 0 75 13.5t19 50.5v380h80z" />
    <glyph glyph-name="v" unicode="v" horiz-adv-x="445" 
d="M7 500h79l132 -433h10l131 433h80l-155 -500h-123z" />
    <glyph glyph-name="w" unicode="w" horiz-adv-x="683" 
d="M434 0l-122 500h68l102 -433h10l104 433h80l-129 -500h-113zM135 0l-128 500h79l105 -433h10l102 433h67l-122 -500h-113z" />
    <glyph glyph-name="x" unicode="x" horiz-adv-x="495" 
d="M380 0l-343 500h84l343 -500h-84zM31 0l176 266l47 -51l-139 -215h-84zM282 236l-47 49l139 215h84z" />
    <glyph glyph-name="y" unicode="y" horiz-adv-x="435" 
d="M156 26l-149 474h79l127 -407h10l126 407h80l-150 -474h-123zM83 -174q-19 0 -41 3t-39 7l3 43l59 8q39 5 62 15t37 31t26 59l10 34h79q-24 -75 -50.5 -119t-61 -62.5t-84.5 -18.5z" />
    <glyph glyph-name="z" unicode="z" horiz-adv-x="462" 
d="M324 436l-5 6h-250l-7 58h360v-44l-283 -392l3 -6h273v-58h-374v44z" />
    <glyph glyph-name="braceleft" unicode="{" horiz-adv-x="307" 
d="M170 -22l83 -7l-5 -64q-42 0 -72.5 2.5t-49 13t-26.5 33t-6 62.5l15 242l-65 17v68l65 17l-15 245q-2 40 4 62.5t24 33t49 13t77 2.5l5 -64l-83 -7l19 -200q5 -46 -9.5 -78t-46.5 -52v-12q32 -20 46.5 -52t9.5 -78z" />
    <glyph glyph-name="bar" unicode="|" horiz-adv-x="260" 
d="M106 704h48v-884h-48v884z" />
    <glyph glyph-name="braceright" unicode="}" horiz-adv-x="307" 
d="M137 -22l-19 197q-4 46 10.5 78t45.5 52v12q-31 20 -45.5 52t-10.5 78l19 200l-83 7l5 64q47 0 77.5 -2.5t48.5 -13t24 -33t4 -62.5l-15 -245l65 -17v-68l-65 -17l15 -242q2 -40 -6 -62.5t-26.5 -33t-48.5 -13t-73 -2.5l-5 64z" />
    <glyph glyph-name="asciitilde" unicode="~" horiz-adv-x="530" 
d="M444 279q-19 -17 -38 -24.5t-38 -7.5q-26 0 -52 10t-51.5 24t-51 24t-52.5 10q-18 0 -37 -7.5t-38 -24.5v64q19 17 38 24t38 7q26 0 51.5 -10t51 -24t51.5 -24t52 -10q19 0 38 7.5t38 25.5v-64z" />
    <glyph glyph-name="uni00A0" unicode="&#xa0;" horiz-adv-x="260" 
 />
    <glyph glyph-name="exclamdown" unicode="&#xa1;" horiz-adv-x="241" 
d="M146 320l27 -440q0 -6 -4 -11t-17 -5h-61q-14 0 -18.5 5t-4.5 11l28 440h50zM178 453q0 -32 -10.5 -47.5t-47.5 -15.5q-34 0 -45.5 15.5t-11.5 47.5q0 33 11.5 47.5t45.5 14.5q37 0 47.5 -14.5t10.5 -47.5z" />
    <glyph glyph-name="cent" unicode="&#xa2;" horiz-adv-x="454" 
d="M258 91l-17 -221h-53l18 221h52zM247 553l18 201h52l-18 -201h-52zM237 56q-53 0 -86.5 10.5t-52 39t-25.5 79t-7 130.5t7 131t25.5 79t52 38.5t86.5 10.5q26 0 54.5 -2t55.5 -6t50 -10l-12 -63q-38 8 -74 12t-73 4q-50 0 -70 -19.5t-20 -67.5v-288q40 -13 112 -13
q31 0 61.5 5.5t76.5 18.5l10 -60q-32 -13 -77.5 -21t-93.5 -8z" />
    <glyph glyph-name="sterling" unicode="&#xa3;" horiz-adv-x="512" 
d="M113 37l30 356q8 91 31 145t67 78t114 24q14 0 36 -3t46.5 -7t43.5 -10l-17 -67q-28 8 -66 13t-70 5q-50 0 -70 -22t-28 -84l-34 -405zM62 0v38l60 28h340l10 -66h-410zM62 292v47h306l-4 -47h-302z" />
    <glyph glyph-name="currency" unicode="&#xa4;" horiz-adv-x="682" 
d="M342 129q-66 0 -106.5 8.5t-62 31t-29.5 64.5t-8 110q0 67 8.5 109.5t30.5 65.5t62.5 31.5t104.5 8.5t104 -8.5t61.5 -31.5t30 -65.5t8.5 -109.5q0 -68 -8 -110t-30 -64.5t-61.5 -31t-104.5 -8.5zM121 3l-48 29l117 161l48 -25zM302 201h153v247q0 23 -16 31t-63 8h-149
v-249q0 -22 14.5 -29.5t60.5 -7.5zM492 491l-47 26l118 166l46 -29zM562 3l-118 165l48 25l117 -161zM191 491l-118 163l47 29l117 -166z" />
    <glyph glyph-name="yen" unicode="&#xa5;" horiz-adv-x="472" 
d="M62 155v47h360v-47h-360zM62 288v47h134v-47h-134zM288 288v47h134v-47h-134zM222 270l156 355h83l-185 -407v-218h-80v218l-185 407h83l156 -355h-28z" />
    <glyph glyph-name="brokenbar" unicode="&#xa6;" horiz-adv-x="260" 
d="M106 704h48v-336h-48v336zM106 156h48v-336h-48v336z" />
    <glyph glyph-name="section" unicode="&#xa7;" horiz-adv-x="468" 
d="M149 373v-181q90 -13 144.5 -25t83 -28.5t38.5 -42t10 -64.5q0 -55 -19.5 -89t-63.5 -49t-118 -15q-40 0 -82.5 7t-91.5 21l14 67q78 -30 165 -30q36 0 59.5 3t53.5 12v134q-96 16 -152 29t-83.5 31t-36 47t-8.5 76q0 39 12 66.5t36 45.5zM338 119v191
q-95 14 -150.5 26.5t-82.5 28.5t-35 41.5t-8 66.5q0 75 44.5 110t137.5 35q43 0 80 -5.5t76 -16.5l-12 -60q-25 8 -59 12.5t-64 4.5q-31 0 -62.5 -2t-57.5 -7v-135q90 -14 145 -27.5t84.5 -32.5t40 -47.5t10.5 -72.5t-11.5 -71.5t-38.5 -46.5z" />
    <glyph glyph-name="dieresis" unicode="&#xa8;" horiz-adv-x="600" 
d="M278 580q-29 0 -37.5 11.5t-8.5 39.5q0 30 8.5 41.5t37.5 11.5t36.5 -11.5t7.5 -41.5q0 -28 -7.5 -39.5t-36.5 -11.5zM101 580q-30 0 -38 11.5t-8 39.5q0 30 8 41.5t38 11.5q28 0 35.5 -11.5t7.5 -41.5q0 -28 -7.5 -39.5t-35.5 -11.5z" />
    <glyph glyph-name="copyright" unicode="&#xa9;" horiz-adv-x="563" 
d="M282 179q-130 0 -191 61t-61 191t61 190.5t191 60.5t190.5 -60.5t60.5 -190.5t-60.5 -191t-190.5 -61zM288 274q-65 0 -91.5 35t-26.5 120t26.5 120.5t91.5 35.5q20 0 44.5 -3t35.5 -8l-12 -57q-28 7 -61 7q-25 0 -35.5 -5t-10.5 -19v-159q8 -2 17.5 -3t21.5 -1
q18 0 38 3t36 7l6 -61q-15 -7 -33.5 -9.5t-46.5 -2.5zM282 207q81 0 128.5 21.5t69 71t21.5 131.5t-21.5 131t-69 70.5t-128.5 21.5t-129 -21.5t-69.5 -70.5t-21.5 -131t21.5 -131.5t69.5 -71t129 -21.5z" />
    <glyph glyph-name="ordfeminine" unicode="&#xaa;" horiz-adv-x="389" 
d="M149 343q-63 0 -90.5 26t-27.5 88q0 40 7.5 64t30.5 36.5t69 16.5t123 4h34v-45h-136q-37 0 -51.5 -9.5t-14.5 -37.5v-88h114q37 0 50.5 10t13.5 36v238q-18 5 -38 6.5t-46 1.5q-28 0 -60.5 -5t-68.5 -13l-9 52q27 10 70.5 16t81.5 6q78 0 109.5 -23.5t31.5 -82.5
l-1 -290h-32l-19 39q-55 -46 -141 -46zM49 251q0 24 8 31.5t33 7.5h232v-19q0 -23 -7 -30t-34 -7h-232v17z" />
    <glyph glyph-name="guillemotleft" unicode="&#xab;" horiz-adv-x="403" 
d="M353 62l-143 149v77l143 150l25 -22l-95 -166l95 -166zM167 62l-142 149v77l142 150l26 -22l-95 -166l95 -166z" />
    <glyph glyph-name="logicalnot" unicode="&#xac;" horiz-adv-x="530" 
d="M386 162v116h58v-116h-58zM86 346h358v-68h-358v68z" />
    <glyph glyph-name="registered" unicode="&#xae;" horiz-adv-x="563" 
d="M30 431q0 130 61 190.5t191 60.5t190.5 -60.5t60.5 -190.5t-60.5 -191t-190.5 -61t-191 61t-61 191zM62 431q0 -82 21.5 -131.5t69.5 -71t129 -21.5t128.5 21.5t69 71t21.5 131.5t-21.5 131t-69 70.5t-128.5 21.5t-129 -21.5t-69.5 -70.5t-21.5 -131zM329 281l-43 99h-42
v-99h-72v300h128q99 0 99 -100q0 -69 -45 -90l57 -110h-82zM244 435h44q21 0 28.5 4.5t7.5 17.5v45q0 13 -7 17t-29 4h-44v-88z" />
    <glyph glyph-name="macron" unicode="&#xaf;" horiz-adv-x="600" 
d="M127 589q-30 0 -36.5 10.5t-6.5 32.5v29h189q30 0 36 -9t6 -32v-31h-188z" />
    <glyph glyph-name="degree" unicode="&#xb0;" horiz-adv-x="407" 
d="M61 531q0 70 33.5 106t109.5 36t109 -36t33 -106q0 -71 -33 -107t-109 -36t-109.5 36t-33.5 107zM140 461h63q28 0 45 5.5t17 33.5v100h-57q-31 0 -49.5 -5t-18.5 -33v-101z" />
    <glyph glyph-name="plusminus" unicode="&#xb1;" horiz-adv-x="531" 
d="M87 388h358v-68h-358v68zM232 175v358h68v-358h-68zM86 67h358v-67h-358v67zM87 388h358v-68h-358v68zM86 67h358v-67h-358v67z" />
    <glyph glyph-name="uni00B2" unicode="&#xb2;" horiz-adv-x="423" 
d="M66 324v48q0 40 6 66t28 45.5t69.5 40.5t130.5 52v114q-12 2 -28 3.5t-39 1.5q-33 0 -72.5 -3.5t-76.5 -9.5l-7 42q28 8 63 12t73 4q75 0 108.5 -24.5t33.5 -76.5q0 -31 -6 -52t-29 -39.5t-71 -40.5t-133 -55v-83h231v-45h-281z" />
    <glyph glyph-name="uni00B3" unicode="&#xb3;" horiz-adv-x="393" 
d="M175 314q-37 0 -68.5 4t-54.5 12l5 42q32 -6 69.5 -9t68.5 -3q29 0 48.5 1t29.5 3v138l-122 14v29l122 17v128q-10 2 -24 3.5t-37 1.5q-31 0 -68.5 -3.5t-68.5 -9.5l-6 42q25 8 59 12t73 4q128 0 128 -111q0 -33 -13.5 -58.5t-37.5 -38.5v-3q27 -15 39 -38t12 -61
t-11 -64t-44 -39t-99 -13z" />
    <glyph glyph-name="acute" unicode="&#xb4;" horiz-adv-x="600" 
d="M157 569l-19 30l145 104q5 4 7 4q3 0 7 -4l39 -49q6 -7 6 -11t-6 -10l-25 -19q-4 -4 -8 -6t-13 -4z" />
    <glyph glyph-name="uni03BC" unicode="&#xb5;" horiz-adv-x="577" 
d="M98 -165v665h80v-444h119q24 0 48 5.5t39 24t15 56.5v358h80v-500h-36l-23 51q-19 -20 -45.5 -31t-53 -15.5t-47.5 -4.5h-109l-32 -165h-35z" />
    <glyph glyph-name="paragraph" unicode="&#xb6;" horiz-adv-x="604" 
d="M118 32l91 31v250q-65 8 -98 47t-33 106q0 159 181 159h257v-66h-50v-559h-75v559h-126v-559h-147v32z" />
    <glyph glyph-name="periodcentered" unicode="&#xb7;" horiz-adv-x="221" 
d="M54 234q0 32 11 46.5t45 14.5q35 0 46 -14.5t11 -46.5q0 -33 -11 -47t-46 -14q-34 0 -45 14t-11 47z" />
    <glyph glyph-name="cedilla" unicode="&#xb8;" horiz-adv-x="600" 
d="M57 -171q-27 0 -61 16l7 41h37q24 0 33.5 7t9.5 23v105h12q24 -15 39.5 -46t15.5 -68q0 -36 -25.5 -57t-67.5 -21z" />
    <glyph glyph-name="uni00B9" unicode="&#xb9;" horiz-adv-x="344" 
d="M54 324v45h101v317l-108 -13v48l159 19v-371h86v-45h-238z" />
    <glyph glyph-name="ordmasculine" unicode="&#xba;" horiz-adv-x="494" 
d="M247 353q-53 0 -86.5 8.5t-52.5 31t-25.5 63.5t-6.5 104q0 64 6.5 104.5t25.5 63t52.5 31t86.5 8.5q55 0 88.5 -8.5t51 -31t24.5 -63t7 -104.5q0 -63 -7 -104t-25 -63.5t-51.5 -31t-87.5 -8.5zM146 412h161q24 0 32 4t8 15v277h-160q-23 0 -32 -4t-9 -15v-277zM98 251
q0 25 9 32t36 7h255v-18q0 -24 -8.5 -31t-36.5 -7h-255v17z" />
    <glyph glyph-name="guillemotright" unicode="&#xbb;" horiz-adv-x="403" 
d="M51 438l142 -149v-77l-142 -150l-26 22l95 166l-95 166zM236 438l142 -149v-77l-142 -150l-26 22l96 166l-96 166z" />
    <glyph glyph-name="onequarter" unicode="&#xbc;" horiz-adv-x="943" 
d="M54 224v45h101v317l-108 -13v48l159 19v-371h86v-45h-238zM354 -15q-7 -12 -14.5 -18.5t-28.5 -6.5h-15l233 680q4 13 13 19t30 6h15zM783 93h-232v26l170 287h113v-268h46v-45h-46v-93h-51v93zM618 138h165v229h-29z" />
    <glyph glyph-name="onehalf" unicode="&#xbd;" horiz-adv-x="961" 
d="M54 224v45h101v317l-108 -13v48l159 19v-371h86v-45h-238zM354 -15q-7 -12 -14.5 -18.5t-28.5 -6.5h-15l233 680q4 13 13 19t30 6h15zM605 0v48q0 40 6 66t28 45.5t69.5 40.5t130.5 52v114q-12 2 -28 3.5t-39 1.5q-33 0 -72.5 -3.5t-76.5 -9.5l-7 42q28 8 63 12t73 4
q75 0 108.5 -24.5t33.5 -76.5q0 -31 -6 -52t-29 -39.5t-71 -40.5t-133 -55v-83h231v-45h-281z" />
    <glyph glyph-name="threequarters" unicode="&#xbe;" horiz-adv-x="992" 
d="M175 214q-37 0 -68.5 4t-54.5 12l5 42q32 -6 69.5 -9t68.5 -3q29 0 48.5 1t29.5 3v138l-122 14v29l122 17v128q-10 2 -24 3.5t-37 1.5q-31 0 -68.5 -3.5t-68.5 -9.5l-6 42q25 8 59 12t73 4q128 0 128 -111q0 -33 -13.5 -58.5t-37.5 -38.5v-3q27 -15 39 -38t12 -61
t-11 -64t-44 -39t-99 -13zM403 -15q-7 -12 -14.5 -18.5t-28.5 -6.5h-15l233 680q4 13 13 19t30 6h15zM832 93h-232v26l170 287h113v-268h46v-45h-46v-93h-51v93zM667 138h165v229h-29z" />
    <glyph glyph-name="questiondown" unicode="&#xbf;" horiz-adv-x="396" 
d="M252 320l10 -177q1 -11 -12.5 -19.5t-52.5 -22.5l-95 -34v-132q21 -3 45.5 -4.5t48.5 -1.5t65 5t93 15l10 -54q-42 -13 -82 -19.5t-76 -6.5q-68 0 -109.5 13t-59.5 42.5t-18 77.5q0 34 5.5 57t23 40t53.5 33.5t97 38.5l5 149h49zM284 453q0 -32 -10.5 -47.5t-46.5 -15.5
q-35 0 -46.5 15.5t-11.5 47.5q0 33 11.5 47.5t46.5 14.5q36 0 46.5 -14.5t10.5 -47.5z" />
    <glyph glyph-name="Agrave" unicode="&#xc0;" horiz-adv-x="533" 
d="M17 0l190 625h119l190 -625h-80l-165 553h-9l-165 -553h-80zM104 148v66h327v-66h-327zM350 682l-133 35q-15 4 -21 10l-25 20q-6 4 -6 9q0 3 6 11l39 49q3 4 7 4q2 0 7 -4l145 -105z" />
    <glyph glyph-name="Aacute" unicode="&#xc1;" horiz-adv-x="533" 
d="M17 0l190 625h119l190 -625h-80l-165 553h-9l-165 -553h-80zM104 148v66h327v-66h-327zM206 694l-19 30l145 104q5 4 7 4q3 0 7 -4l39 -49q6 -7 6 -11t-6 -10l-25 -19q-4 -4 -8 -6t-13 -4z" />
    <glyph glyph-name="Acircumflex" unicode="&#xc2;" horiz-adv-x="533" 
d="M17 0l190 625h119l190 -625h-80l-165 553h-9l-165 -553h-80zM104 148v66h327v-66h-327zM186 685l-32 31l98 112q5 6 9 6h12q4 0 9 -6l98 -112l-32 -31l-81 62z" />
    <glyph glyph-name="Atilde" unicode="&#xc3;" horiz-adv-x="533" 
d="M17 0l190 625h119l190 -625h-80l-165 553h-9l-165 -553h-80zM104 148v66h327v-66h-327zM290 693q-9 0 -16.5 3t-19.5 12t-34 28l-62 -32l-25 41q33 26 54 39.5t34 19t23 5.5q8 0 15 -3t19 -11.5t36 -28.5l62 32l25 -41q-28 -23 -49 -37t-36 -20.5t-26 -6.5z" />
    <glyph glyph-name="Adieresis" unicode="&#xc4;" horiz-adv-x="533" 
d="M17 0l190 625h119l190 -625h-80l-165 553h-9l-165 -553h-80zM104 148v66h327v-66h-327zM356 705q-29 0 -37.5 11.5t-8.5 39.5q0 30 8.5 41.5t37.5 11.5t36.5 -11.5t7.5 -41.5q0 -28 -7.5 -39.5t-36.5 -11.5zM179 705q-30 0 -38 11.5t-8 39.5q0 30 8 41.5t38 11.5
q28 0 35.5 -11.5t7.5 -41.5q0 -28 -7.5 -39.5t-35.5 -11.5z" />
    <glyph glyph-name="Aring" unicode="&#xc5;" horiz-adv-x="533" 
d="M17 0l190 625h119l190 -625h-80l-165 553h-9l-165 -553h-80zM104 148v66h327v-66h-327zM267 666q-51 0 -73.5 24.5t-22.5 71.5t22.5 70.5t73.5 23.5t73 -23.5t22 -70.5t-22 -71.5t-73 -24.5zM223 714h44q19 0 30.5 3.5t11.5 22.5v69h-41q-20 0 -32.5 -3.5t-12.5 -21.5
v-70z" />
    <glyph glyph-name="AE" unicode="&#xc6;" horiz-adv-x="742" 
d="M17 0l162 625h459l-13 -76h-262l53 -204h180v-73h-160l50 -196h202v-76h-267l-36 144h-248l-35 -144h-85zM156 221h210l-81 332h-47z" />
    <glyph glyph-name="Ccedilla" unicode="&#xc7;" horiz-adv-x="485" 
d="M459 11q-37 -14 -76 -20t-91 -6q-68 0 -111 15t-67 51.5t-33 100t-9 160.5q0 99 9.5 162.5t34 100t69 51t115.5 14.5q20 0 46 -2t52 -6.5t45 -11.5l-10 -67q-26 7 -57.5 10.5t-59.5 5.5t-45 2q-59 0 -86.5 -13t-27.5 -64v-427q27 -8 59.5 -12t67.5 -4q43 0 84.5 7
t81.5 18zM221 -171q-27 0 -61 16l7 41h37q24 0 33.5 7t9.5 23v105h12q24 -15 39.5 -46t15.5 -68q0 -36 -25.5 -57t-67.5 -21z" />
    <glyph glyph-name="Egrave" unicode="&#xc8;" horiz-adv-x="514" 
d="M178 280v-214h283v-66h-363v625h358l-9 -66h-269v-214h244v-65h-244zM366 682l-133 35q-15 4 -21 10l-25 20q-6 4 -6 9q0 3 6 11l39 49q3 4 7 4q2 0 7 -4l145 -105z" />
    <glyph glyph-name="Eacute" unicode="&#xc9;" horiz-adv-x="514" 
d="M178 280v-214h283v-66h-363v625h358l-9 -66h-269v-214h244v-65h-244zM222 694l-19 30l145 104q5 4 7 4q3 0 7 -4l39 -49q6 -7 6 -11t-6 -10l-25 -19q-4 -4 -8 -6t-13 -4z" />
    <glyph glyph-name="Ecircumflex" unicode="&#xca;" horiz-adv-x="514" 
d="M178 280v-214h283v-66h-363v625h358l-9 -66h-269v-214h244v-65h-244zM201 685l-32 31l98 112q5 6 9 6h12q4 0 9 -6l98 -112l-32 -31l-81 62z" />
    <glyph glyph-name="Edieresis" unicode="&#xcb;" horiz-adv-x="514" 
d="M178 280v-214h283v-66h-363v625h358l-9 -66h-269v-214h244v-65h-244zM372 705q-29 0 -37.5 11.5t-8.5 39.5q0 30 8.5 41.5t37.5 11.5t36.5 -11.5t7.5 -41.5q0 -28 -7.5 -39.5t-36.5 -11.5zM195 705q-30 0 -38 11.5t-8 39.5q0 30 8 41.5t38 11.5q28 0 35.5 -11.5
t7.5 -41.5q0 -28 -7.5 -39.5t-35.5 -11.5z" />
    <glyph glyph-name="Igrave" unicode="&#xcc;" horiz-adv-x="276" 
d="M98 625h80v-625h-80v625zM222 682l-133 35q-15 4 -21 10l-25 20q-6 4 -6 9q0 3 6 11l39 49q3 4 7 4q2 0 7 -4l145 -105z" />
    <glyph glyph-name="Iacute" unicode="&#xcd;" horiz-adv-x="276" 
d="M98 625h80v-625h-80v625zM78 694l-19 30l145 104q5 4 7 4q3 0 7 -4l39 -49q6 -7 6 -11t-6 -10l-25 -19q-4 -4 -8 -6t-13 -4z" />
    <glyph glyph-name="Icircumflex" unicode="&#xce;" horiz-adv-x="276" 
d="M98 625h80v-625h-80v625zM57 685l-32 31l98 112q5 6 9 6h12q4 0 9 -6l98 -112l-32 -31l-81 62z" />
    <glyph glyph-name="Idieresis" unicode="&#xcf;" horiz-adv-x="276" 
d="M98 625h80v-625h-80v625zM228 705q-29 0 -37.5 11.5t-8.5 39.5q0 30 8.5 41.5t37.5 11.5t36.5 -11.5t7.5 -41.5q0 -28 -7.5 -39.5t-36.5 -11.5zM51 705q-30 0 -38 11.5t-8 39.5q0 30 8 41.5t38 11.5q28 0 35.5 -11.5t7.5 -41.5q0 -28 -7.5 -39.5t-35.5 -11.5z" />
    <glyph glyph-name="Eth" unicode="&#xd0;" horiz-adv-x="618" 
d="M98 625h213q74 0 120 -12t71.5 -45.5t34.5 -95t9 -160.5q0 -98 -9 -159.5t-34.5 -95t-71.5 -45.5t-120 -12h-213v625zM178 557v-489h203q44 0 61 16.5t17 58.5v339q0 42 -17 58.5t-61 16.5h-203zM34 303q0 24 7 31t30 7h212v-18q0 -24 -6.5 -31t-31.5 -7h-211v18z" />
    <glyph glyph-name="Ntilde" unicode="&#xd1;" horiz-adv-x="658" 
d="M103 0v625h77l263 -424q15 -25 20 -34.5t6 -26.5h6v485h80v-625h-77l-263 424q-15 26 -19.5 35.5t-6.5 25.5h-6v-485h-80zM365 693q-9 0 -16.5 3t-19.5 12t-34 28l-62 -32l-25 41q33 26 54 39.5t34 19t23 5.5q8 0 15 -3t19 -11.5t36 -28.5l62 32l25 -41q-28 -23 -49 -37
t-36 -20.5t-26 -6.5z" />
    <glyph glyph-name="Ograve" unicode="&#xd2;" horiz-adv-x="631" 
d="M72 312q0 104 9.5 168.5t35 99t73.5 47.5t126 13q77 0 125 -13t73.5 -48t35 -99t9.5 -168t-9.5 -168t-35 -98.5t-73.5 -47.5t-125 -13q-78 0 -126 13t-73.5 47.5t-35 98.5t-9.5 168zM157 53h230q48 0 67.5 17t19.5 60v442h-230q-49 0 -68 -17t-19 -60v-442zM399 682
l-133 35q-15 4 -21 10l-25 20q-6 4 -6 9q0 3 6 11l39 49q3 4 7 4q2 0 7 -4l145 -105z" />
    <glyph glyph-name="Oacute" unicode="&#xd3;" horiz-adv-x="631" 
d="M72 312q0 104 9.5 168.5t35 99t73.5 47.5t126 13q77 0 125 -13t73.5 -48t35 -99t9.5 -168t-9.5 -168t-35 -98.5t-73.5 -47.5t-125 -13q-78 0 -126 13t-73.5 47.5t-35 98.5t-9.5 168zM157 53h230q48 0 67.5 17t19.5 60v442h-230q-49 0 -68 -17t-19 -60v-442zM255 694
l-19 30l145 104q5 4 7 4q3 0 7 -4l39 -49q6 -7 6 -11t-6 -10l-25 -19q-4 -4 -8 -6t-13 -4z" />
    <glyph glyph-name="Ocircumflex" unicode="&#xd4;" horiz-adv-x="631" 
d="M72 312q0 104 9.5 168.5t35 99t73.5 47.5t126 13q77 0 125 -13t73.5 -48t35 -99t9.5 -168t-9.5 -168t-35 -98.5t-73.5 -47.5t-125 -13q-78 0 -126 13t-73.5 47.5t-35 98.5t-9.5 168zM157 53h230q48 0 67.5 17t19.5 60v442h-230q-49 0 -68 -17t-19 -60v-442zM235 685
l-32 31l98 112q5 6 9 6h12q4 0 9 -6l98 -112l-32 -31l-81 62z" />
    <glyph glyph-name="Otilde" unicode="&#xd5;" horiz-adv-x="631" 
d="M72 312q0 104 9.5 168.5t35 99t73.5 47.5t126 13q77 0 125 -13t73.5 -48t35 -99t9.5 -168t-9.5 -168t-35 -98.5t-73.5 -47.5t-125 -13q-78 0 -126 13t-73.5 47.5t-35 98.5t-9.5 168zM157 53h230q48 0 67.5 17t19.5 60v442h-230q-49 0 -68 -17t-19 -60v-442zM339 693
q-9 0 -16.5 3t-19.5 12t-34 28l-62 -32l-25 41q33 26 54 39.5t34 19t23 5.5q8 0 15 -3t19 -11.5t36 -28.5l62 32l25 -41q-28 -23 -49 -37t-36 -20.5t-26 -6.5z" />
    <glyph glyph-name="Odieresis" unicode="&#xd6;" horiz-adv-x="631" 
d="M72 312q0 104 9.5 168.5t35 99t73.5 47.5t126 13q77 0 125 -13t73.5 -48t35 -99t9.5 -168t-9.5 -168t-35 -98.5t-73.5 -47.5t-125 -13q-78 0 -126 13t-73.5 47.5t-35 98.5t-9.5 168zM157 53h230q48 0 67.5 17t19.5 60v442h-230q-49 0 -68 -17t-19 -60v-442zM405 705
q-29 0 -37.5 11.5t-8.5 39.5q0 30 8.5 41.5t37.5 11.5t36.5 -11.5t7.5 -41.5q0 -28 -7.5 -39.5t-36.5 -11.5zM228 705q-30 0 -38 11.5t-8 39.5q0 30 8 41.5t38 11.5q28 0 35.5 -11.5t7.5 -41.5q0 -28 -7.5 -39.5t-35.5 -11.5z" />
    <glyph glyph-name="multiply" unicode="&#xd7;" horiz-adv-x="530" 
d="M92 187l298 298l48 -48l-298 -298zM390 139l-298 298l48 48l298 -298z" />
    <glyph glyph-name="Oslash" unicode="&#xd8;" horiz-adv-x="631" 
d="M184 -47q-7 -17 -16.5 -22.5t-26.5 -5.5h-27l334 748q8 17 17 22.5t26 5.5h27zM72 312q0 104 9.5 168.5t35 99t73.5 47.5t126 13q77 0 125 -13t73.5 -48t35 -99t9.5 -168t-9.5 -168t-35 -98.5t-73.5 -47.5t-125 -13q-78 0 -126 13t-73.5 47.5t-35 98.5t-9.5 168zM157 53
h230q48 0 67.5 17t19.5 60v442h-230q-49 0 -68 -17t-19 -60v-442z" />
    <glyph glyph-name="Ugrave" unicode="&#xd9;" horiz-adv-x="639" 
d="M319 -15q-71 0 -116 8.5t-70 29.5t-35 59t-10 98v445h80v-572h157q60 0 91 4.5t43 16t12 32.5v519h80v-445q0 -60 -10 -98t-35 -59t-70.5 -29.5t-116.5 -8.5zM404 682l-133 35q-15 4 -21 10l-25 20q-6 4 -6 9q0 3 6 11l39 49q3 4 7 4q2 0 7 -4l145 -105z" />
    <glyph glyph-name="Uacute" unicode="&#xda;" horiz-adv-x="639" 
d="M319 -15q-71 0 -116 8.5t-70 29.5t-35 59t-10 98v445h80v-572h157q60 0 91 4.5t43 16t12 32.5v519h80v-445q0 -60 -10 -98t-35 -59t-70.5 -29.5t-116.5 -8.5zM260 694l-19 30l145 104q5 4 7 4q3 0 7 -4l39 -49q6 -7 6 -11t-6 -10l-25 -19q-4 -4 -8 -6t-13 -4z" />
    <glyph glyph-name="Ucircumflex" unicode="&#xdb;" horiz-adv-x="639" 
d="M319 -15q-71 0 -116 8.5t-70 29.5t-35 59t-10 98v445h80v-572h157q60 0 91 4.5t43 16t12 32.5v519h80v-445q0 -60 -10 -98t-35 -59t-70.5 -29.5t-116.5 -8.5zM240 685l-32 31l98 112q5 6 9 6h12q4 0 9 -6l98 -112l-32 -31l-81 62z" />
    <glyph glyph-name="Udieresis" unicode="&#xdc;" horiz-adv-x="639" 
d="M319 -15q-71 0 -116 8.5t-70 29.5t-35 59t-10 98v445h80v-572h157q60 0 91 4.5t43 16t12 32.5v519h80v-445q0 -60 -10 -98t-35 -59t-70.5 -29.5t-116.5 -8.5zM410 705q-29 0 -37.5 11.5t-8.5 39.5q0 30 8.5 41.5t37.5 11.5t36.5 -11.5t7.5 -41.5q0 -28 -7.5 -39.5
t-36.5 -11.5zM233 705q-30 0 -38 11.5t-8 39.5q0 30 8 41.5t38 11.5q28 0 35.5 -11.5t7.5 -41.5q0 -28 -7.5 -39.5t-35.5 -11.5z" />
    <glyph glyph-name="Yacute" unicode="&#xdd;" horiz-adv-x="472" 
d="M222 270l156 355h83l-185 -407v-218h-80v218l-185 407h83l156 -355h-28zM175 694l-19 30l145 104q5 4 7 4q3 0 7 -4l39 -49q6 -7 6 -11t-6 -10l-25 -19q-4 -4 -8 -6t-13 -4z" />
    <glyph glyph-name="Thorn" unicode="&#xde;" horiz-adv-x="518" 
d="M335 516q62 0 97 -19t50 -64t15 -124q0 -109 -33 -155t-114 -46h-172v-108h-80v625h80v-109h157zM413 216v192q0 24 -16 33t-59 9h-160v-276h160q43 0 59 9t16 33z" />
    <glyph glyph-name="germandbls" unicode="&#xdf;" horiz-adv-x="619" 
d="M389 -15q-29 0 -64.5 6.5t-77.5 18.5l14 67q33 -12 72 -19.5t75 -7.5q26 0 46.5 2t35.5 6v138q-56 27 -89 44.5t-49.5 29t-22 21.5t-5.5 23q0 26 15.5 47t36 43t36 49.5t15.5 64.5q0 48 -31.5 70t-98.5 22q-17 0 -38.5 -2t-50.5 -7v-601h-80v443h-74v57h74q4 64 23 102.5
t56.5 55.5t98.5 17q104 0 152.5 -36t48.5 -112q0 -30 -11 -59.5t-36.5 -65t-69.5 -82.5q72 -31 111 -57.5t54 -56t15 -73.5q0 -78 -43 -113t-138 -35z" />
    <glyph glyph-name="agrave" unicode="&#xe0;" horiz-adv-x="541" 
d="M210 -9q-81 0 -115 33t-34 113q0 53 9.5 85t38.5 47.5t88 20.5t159 5h42v-58h-181q-49 0 -66.5 -12.5t-17.5 -49.5v-119h153q48 0 65 13t17 49v313q-42 13 -111 13q-38 0 -79.5 -6t-84.5 -18l-10 60q22 8 54 15t68 10.5t68 3.5q66 0 104 -12.5t54.5 -41.5t16.5 -79v-376
h-35l-23 50q-35 -31 -79 -45t-101 -14zM357 557l-133 35q-15 4 -21 10l-25 20q-6 4 -6 9q0 3 6 11l39 49q3 4 7 4q2 0 7 -4l145 -105z" />
    <glyph glyph-name="aacute" unicode="&#xe1;" horiz-adv-x="541" 
d="M210 -9q-81 0 -115 33t-34 113q0 53 9.5 85t38.5 47.5t88 20.5t159 5h42v-58h-181q-49 0 -66.5 -12.5t-17.5 -49.5v-119h153q48 0 65 13t17 49v313q-42 13 -111 13q-38 0 -79.5 -6t-84.5 -18l-10 60q22 8 54 15t68 10.5t68 3.5q66 0 104 -12.5t54.5 -41.5t16.5 -79v-376
h-35l-23 50q-35 -31 -79 -45t-101 -14zM213 569l-19 30l145 104q5 4 7 4q3 0 7 -4l39 -49q6 -7 6 -11t-6 -10l-25 -19q-4 -4 -8 -6t-13 -4z" />
    <glyph glyph-name="acircumflex" unicode="&#xe2;" horiz-adv-x="541" 
d="M210 -9q-81 0 -115 33t-34 113q0 53 9.5 85t38.5 47.5t88 20.5t159 5h42v-58h-181q-49 0 -66.5 -12.5t-17.5 -49.5v-119h153q48 0 65 13t17 49v313q-42 13 -111 13q-38 0 -79.5 -6t-84.5 -18l-10 60q22 8 54 15t68 10.5t68 3.5q66 0 104 -12.5t54.5 -41.5t16.5 -79v-376
h-35l-23 50q-35 -31 -79 -45t-101 -14zM192 560l-32 31l98 112q5 6 9 6h12q4 0 9 -6l98 -112l-32 -31l-81 62z" />
    <glyph glyph-name="atilde" unicode="&#xe3;" horiz-adv-x="541" 
d="M210 -9q-81 0 -115 33t-34 113q0 53 9.5 85t38.5 47.5t88 20.5t159 5h42v-58h-181q-49 0 -66.5 -12.5t-17.5 -49.5v-119h153q48 0 65 13t17 49v313q-42 13 -111 13q-38 0 -79.5 -6t-84.5 -18l-10 60q22 8 54 15t68 10.5t68 3.5q66 0 104 -12.5t54.5 -41.5t16.5 -79v-376
h-35l-23 50q-35 -31 -79 -45t-101 -14zM296 568q-9 0 -16.5 3t-19.5 12t-34 28l-62 -32l-25 41q33 26 54 39.5t34 19t23 5.5q8 0 15 -3t19 -11.5t36 -28.5l62 32l25 -41q-28 -23 -49 -37t-36 -20.5t-26 -6.5z" />
    <glyph glyph-name="adieresis" unicode="&#xe4;" horiz-adv-x="541" 
d="M210 -9q-81 0 -115 33t-34 113q0 53 9.5 85t38.5 47.5t88 20.5t159 5h42v-58h-181q-49 0 -66.5 -12.5t-17.5 -49.5v-119h153q48 0 65 13t17 49v313q-42 13 -111 13q-38 0 -79.5 -6t-84.5 -18l-10 60q22 8 54 15t68 10.5t68 3.5q66 0 104 -12.5t54.5 -41.5t16.5 -79v-376
h-35l-23 50q-35 -31 -79 -45t-101 -14zM363 580q-29 0 -37.5 11.5t-8.5 39.5q0 30 8.5 41.5t37.5 11.5t36.5 -11.5t7.5 -41.5q0 -28 -7.5 -39.5t-36.5 -11.5zM186 580q-30 0 -38 11.5t-8 39.5q0 30 8 41.5t38 11.5q28 0 35.5 -11.5t7.5 -41.5q0 -28 -7.5 -39.5t-35.5 -11.5z
" />
    <glyph glyph-name="aring" unicode="&#xe5;" horiz-adv-x="541" 
d="M210 -9q-81 0 -115 33t-34 113q0 53 9.5 85t38.5 47.5t88 20.5t159 5h42v-58h-181q-49 0 -66.5 -12.5t-17.5 -49.5v-119h153q48 0 65 13t17 49v313q-42 13 -111 13q-38 0 -79.5 -6t-84.5 -18l-10 60q22 8 54 15t68 10.5t68 3.5q66 0 104 -12.5t54.5 -41.5t16.5 -79v-376
h-35l-23 50q-35 -31 -79 -45t-101 -14zM273 541q-51 0 -73.5 24.5t-22.5 71.5t22.5 70.5t73.5 23.5t73 -23.5t22 -70.5t-22 -71.5t-73 -24.5zM229 589h44q19 0 30.5 3.5t11.5 22.5v69h-41q-20 0 -32.5 -3.5t-12.5 -21.5v-70z" />
    <glyph glyph-name="ae" unicode="&#xe6;" horiz-adv-x="835" 
d="M210 -9q-81 0 -115 33t-34 113q0 53 9.5 85t38.5 47.5t88 20.5t159 5h42v-58h-181q-49 0 -66.5 -12.5t-17.5 -49.5v-119h153q48 0 65 13t17 49v313q-42 13 -111 13q-38 0 -79.5 -6t-84.5 -18l-10 60q22 8 54 15t68 10.5t68 3.5q66 0 104.5 -12.5t55 -41.5t16.5 -79v-326
l-49 8q-37 -34 -83 -50.5t-107 -16.5zM546 -9q-75 0 -111 19.5t-52 67.5l17 368q21 34 60 48.5t106 14.5q77 0 119 -12.5t58.5 -44t16.5 -89.5q0 -53 -10 -85t-41 -47.5t-93 -20.5t-167 -5h-30v58h181q52 0 69.5 13t17.5 49v114h-152q-50 0 -68 -12.5t-18 -49.5v-308
q25 -6 52 -9.5t62 -3.5q39 0 77.5 5.5t95.5 18.5l11 -60q-37 -13 -91 -21t-110 -8z" />
    <glyph glyph-name="ccedilla" unicode="&#xe7;" horiz-adv-x="454" 
d="M237 -9q-53 0 -86.5 10.5t-52 39t-25.5 79t-7 130.5t7 131t25.5 79t52 38.5t86.5 10.5q26 0 54.5 -2t55.5 -6t50 -10l-12 -63q-38 8 -74 12t-73 4q-50 0 -70 -19.5t-20 -67.5v-288q40 -13 112 -13q31 0 61.5 5.5t76.5 18.5l10 -60q-32 -13 -77.5 -21t-93.5 -8zM194 -171
q-27 0 -61 16l7 41h37q24 0 33.5 7t9.5 23v105h12q24 -15 39.5 -46t15.5 -68q0 -36 -25.5 -57t-67.5 -21z" />
    <glyph glyph-name="egrave" unicode="&#xe8;" horiz-adv-x="535" 
d="M246 -9q-55 0 -90.5 11t-55 39.5t-27 79t-7.5 129.5q0 101 17.5 157.5t61 79t121.5 22.5q77 0 119 -12.5t58 -44t16 -89.5q0 -53 -9.5 -85t-40.5 -47.5t-93 -20.5t-167 -5h-30v58h181q51 0 69 13t18 49v114h-152q-50 0 -68 -12.5t-18 -49.5v-308q24 -6 50.5 -9.5
t63.5 -3.5q40 0 78 5.5t94 18.5l11 -60q-34 -13 -88.5 -21t-111.5 -8zM350 557l-133 35q-15 4 -21 10l-25 20q-6 4 -6 9q0 3 6 11l39 49q3 4 7 4q2 0 7 -4l145 -105z" />
    <glyph glyph-name="eacute" unicode="&#xe9;" horiz-adv-x="535" 
d="M246 -9q-55 0 -90.5 11t-55 39.5t-27 79t-7.5 129.5q0 101 17.5 157.5t61 79t121.5 22.5q77 0 119 -12.5t58 -44t16 -89.5q0 -53 -9.5 -85t-40.5 -47.5t-93 -20.5t-167 -5h-30v58h181q51 0 69 13t18 49v114h-152q-50 0 -68 -12.5t-18 -49.5v-308q24 -6 50.5 -9.5
t63.5 -3.5q40 0 78 5.5t94 18.5l11 -60q-34 -13 -88.5 -21t-111.5 -8zM206 569l-19 30l145 104q5 4 7 4q3 0 7 -4l39 -49q6 -7 6 -11t-6 -10l-25 -19q-4 -4 -8 -6t-13 -4z" />
    <glyph glyph-name="ecircumflex" unicode="&#xea;" horiz-adv-x="535" 
d="M246 -9q-55 0 -90.5 11t-55 39.5t-27 79t-7.5 129.5q0 101 17.5 157.5t61 79t121.5 22.5q77 0 119 -12.5t58 -44t16 -89.5q0 -53 -9.5 -85t-40.5 -47.5t-93 -20.5t-167 -5h-30v58h181q51 0 69 13t18 49v114h-152q-50 0 -68 -12.5t-18 -49.5v-308q24 -6 50.5 -9.5
t63.5 -3.5q40 0 78 5.5t94 18.5l11 -60q-34 -13 -88.5 -21t-111.5 -8zM185 560l-32 31l98 112q5 6 9 6h12q4 0 9 -6l98 -112l-32 -31l-81 62z" />
    <glyph glyph-name="edieresis" unicode="&#xeb;" horiz-adv-x="535" 
d="M246 -9q-55 0 -90.5 11t-55 39.5t-27 79t-7.5 129.5q0 101 17.5 157.5t61 79t121.5 22.5q77 0 119 -12.5t58 -44t16 -89.5q0 -53 -9.5 -85t-40.5 -47.5t-93 -20.5t-167 -5h-30v58h181q51 0 69 13t18 49v114h-152q-50 0 -68 -12.5t-18 -49.5v-308q24 -6 50.5 -9.5
t63.5 -3.5q40 0 78 5.5t94 18.5l11 -60q-34 -13 -88.5 -21t-111.5 -8zM356 580q-29 0 -37.5 11.5t-8.5 39.5q0 30 8.5 41.5t37.5 11.5t36.5 -11.5t7.5 -41.5q0 -28 -7.5 -39.5t-36.5 -11.5zM179 580q-30 0 -38 11.5t-8 39.5q0 30 8 41.5t38 11.5q28 0 35.5 -11.5t7.5 -41.5
q0 -28 -7.5 -39.5t-35.5 -11.5z" />
    <glyph glyph-name="igrave" unicode="&#xec;" horiz-adv-x="276" 
d="M98 496l80 14v-510h-80v496zM222 557l-133 35q-15 4 -21 10l-25 20q-6 4 -6 9q0 3 6 11l39 49q3 4 7 4q2 0 7 -4l145 -105z" />
    <glyph glyph-name="iacute" unicode="&#xed;" horiz-adv-x="276" 
d="M98 496l80 14v-510h-80v496zM78 569l-19 30l145 104q5 4 7 4q3 0 7 -4l39 -49q6 -7 6 -11t-6 -10l-25 -19q-4 -4 -8 -6t-13 -4z" />
    <glyph glyph-name="icircumflex" unicode="&#xee;" horiz-adv-x="276" 
d="M98 496l80 14v-510h-80v496zM57 560l-32 31l98 112q5 6 9 6h12q4 0 9 -6l98 -112l-32 -31l-81 62z" />
    <glyph glyph-name="idieresis" unicode="&#xef;" horiz-adv-x="276" 
d="M98 496l80 14v-510h-80v496zM228 580q-29 0 -37.5 11.5t-8.5 39.5q0 30 8.5 41.5t37.5 11.5t36.5 -11.5t7.5 -41.5q0 -28 -7.5 -39.5t-36.5 -11.5zM51 580q-30 0 -38 11.5t-8 39.5q0 30 8 41.5t38 11.5q28 0 35.5 -11.5t7.5 -41.5q0 -28 -7.5 -39.5t-35.5 -11.5z" />
    <glyph glyph-name="eth" unicode="&#xf0;" horiz-adv-x="550" 
d="M274 -9q-63 0 -102.5 9t-61 33.5t-30 68.5t-8.5 113q0 70 8.5 113.5t30 68t61 33.5t102.5 9h140l61 -68v-164q0 -67 -8 -109.5t-29.5 -65.5t-61.5 -32t-102 -9zM155 59h189q28 0 38 5t10 20v287h-190q-27 0 -37 -5t-10 -20v-287zM400 371q0 63 -27.5 134.5t-80.5 146.5
l67 18q35 -48 61 -101t40.5 -104t14.5 -94h-75zM281 500l-8 24q-6 18 -6 26q0 14 16 19l206 69l8 -25q6 -17 6 -26q0 -13 -16 -19z" />
    <glyph glyph-name="ntilde" unicode="&#xf1;" horiz-adv-x="572" 
d="M98 0v500h35l23 -50q36 30 80 44.5t103 14.5q70 0 105 -19.5t35 -59.5v-430h-80v443h-127q-55 0 -74.5 -12.5t-19.5 -50.5v-380h-80zM319 568q-9 0 -16.5 3t-19.5 12t-34 28l-62 -32l-25 41q33 26 54 39.5t34 19t23 5.5q8 0 15 -3t19 -11.5t36 -28.5l62 32l25 -41
q-28 -23 -49 -37t-36 -20.5t-26 -6.5z" />
    <glyph glyph-name="ograve" unicode="&#xf2;" horiz-adv-x="547" 
d="M274 -9q-65 0 -105.5 10.5t-63 38.5t-31 79t-8.5 131t8.5 131t31 79t63 38.5t105.5 10.5t106 -10.5t63 -38.5t30 -78.5t8 -131.5q0 -80 -8.5 -131t-30.5 -79t-63 -38.5t-105 -10.5zM148 59h201q30 0 40 5t10 20v357h-201q-30 0 -40 -5t-10 -20v-357zM357 557l-133 35
q-15 4 -21 10l-25 20q-6 4 -6 9q0 3 6 11l39 49q3 4 7 4q2 0 7 -4l145 -105z" />
    <glyph glyph-name="oacute" unicode="&#xf3;" horiz-adv-x="547" 
d="M274 -9q-65 0 -105.5 10.5t-63 38.5t-31 79t-8.5 131t8.5 131t31 79t63 38.5t105.5 10.5t106 -10.5t63 -38.5t30 -78.5t8 -131.5q0 -80 -8.5 -131t-30.5 -79t-63 -38.5t-105 -10.5zM148 59h201q30 0 40 5t10 20v357h-201q-30 0 -40 -5t-10 -20v-357zM213 569l-19 30
l145 104q5 4 7 4q3 0 7 -4l39 -49q6 -7 6 -11t-6 -10l-25 -19q-4 -4 -8 -6t-13 -4z" />
    <glyph glyph-name="ocircumflex" unicode="&#xf4;" horiz-adv-x="547" 
d="M274 -9q-65 0 -105.5 10.5t-63 38.5t-31 79t-8.5 131t8.5 131t31 79t63 38.5t105.5 10.5t106 -10.5t63 -38.5t30 -78.5t8 -131.5q0 -80 -8.5 -131t-30.5 -79t-63 -38.5t-105 -10.5zM148 59h201q30 0 40 5t10 20v357h-201q-30 0 -40 -5t-10 -20v-357zM193 560l-32 31
l98 112q5 6 9 6h12q4 0 9 -6l98 -112l-32 -31l-81 62z" />
    <glyph glyph-name="otilde" unicode="&#xf5;" horiz-adv-x="547" 
d="M274 -9q-65 0 -105.5 10.5t-63 38.5t-31 79t-8.5 131t8.5 131t31 79t63 38.5t105.5 10.5t106 -10.5t63 -38.5t30 -78.5t8 -131.5q0 -80 -8.5 -131t-30.5 -79t-63 -38.5t-105 -10.5zM148 59h201q30 0 40 5t10 20v357h-201q-30 0 -40 -5t-10 -20v-357zM297 568
q-9 0 -16.5 3t-19.5 12t-34 28l-62 -32l-25 41q33 26 54 39.5t34 19t23 5.5q8 0 15 -3t19 -11.5t36 -28.5l62 32l25 -41q-28 -23 -49 -37t-36 -20.5t-26 -6.5z" />
    <glyph glyph-name="odieresis" unicode="&#xf6;" horiz-adv-x="547" 
d="M274 -9q-65 0 -105.5 10.5t-63 38.5t-31 79t-8.5 131t8.5 131t31 79t63 38.5t105.5 10.5t106 -10.5t63 -38.5t30 -78.5t8 -131.5q0 -80 -8.5 -131t-30.5 -79t-63 -38.5t-105 -10.5zM148 59h201q30 0 40 5t10 20v357h-201q-30 0 -40 -5t-10 -20v-357zM363 580
q-29 0 -37.5 11.5t-8.5 39.5q0 30 8.5 41.5t37.5 11.5t36.5 -11.5t7.5 -41.5q0 -28 -7.5 -39.5t-36.5 -11.5zM186 580q-30 0 -38 11.5t-8 39.5q0 30 8 41.5t38 11.5q28 0 35.5 -11.5t7.5 -41.5q0 -28 -7.5 -39.5t-35.5 -11.5z" />
    <glyph glyph-name="divide" unicode="&#xf7;" horiz-adv-x="530" 
d="M223 138q0 23 8 34t34 11t34.5 -11t8.5 -34q0 -25 -8.5 -35.5t-34.5 -10.5t-34 10.5t-8 35.5zM223 466q0 24 8 35t34 11t34.5 -11t8.5 -35q0 -25 -8.5 -35t-34.5 -10t-34 10t-8 35zM86 346h358v-68h-358v68z" />
    <glyph glyph-name="oslash" unicode="&#xf8;" horiz-adv-x="547" 
d="M274 -9q-65 0 -105.5 10.5t-63 38.5t-31 79t-8.5 131t8.5 131t31 79t63 38.5t105.5 10.5t106 -10.5t63 -38.5t30 -78.5t8 -131.5q0 -80 -8.5 -131t-30.5 -79t-63 -38.5t-105 -10.5zM148 59h201q30 0 40 5t10 20v357h-201q-30 0 -40 -5t-10 -20v-357zM142 -78
q-7 -15 -16.5 -20t-26.5 -5h-27l334 680q8 15 17 20t26 5h27z" />
    <glyph glyph-name="ugrave" unicode="&#xf9;" horiz-adv-x="572" 
d="M474 500v-500h-35l-23 50q-38 -30 -85 -44.5t-109 -14.5q-67 0 -98 24t-31 73v412h80v-444h127q56 0 75 13.5t19 50.5v380h80zM370 557l-133 35q-15 4 -21 10l-25 20q-6 4 -6 9q0 3 6 11l39 49q3 4 7 4q2 0 7 -4l145 -105z" />
    <glyph glyph-name="uacute" unicode="&#xfa;" horiz-adv-x="572" 
d="M474 500v-500h-35l-23 50q-38 -30 -85 -44.5t-109 -14.5q-67 0 -98 24t-31 73v412h80v-444h127q56 0 75 13.5t19 50.5v380h80zM226 569l-19 30l145 104q5 4 7 4q3 0 7 -4l39 -49q6 -7 6 -11t-6 -10l-25 -19q-4 -4 -8 -6t-13 -4z" />
    <glyph glyph-name="ucircumflex" unicode="&#xfb;" horiz-adv-x="572" 
d="M474 500v-500h-35l-23 50q-38 -30 -85 -44.5t-109 -14.5q-67 0 -98 24t-31 73v412h80v-444h127q56 0 75 13.5t19 50.5v380h80zM205 560l-32 31l98 112q5 6 9 6h12q4 0 9 -6l98 -112l-32 -31l-81 62z" />
    <glyph glyph-name="udieresis" unicode="&#xfc;" horiz-adv-x="572" 
d="M474 500v-500h-35l-23 50q-38 -30 -85 -44.5t-109 -14.5q-67 0 -98 24t-31 73v412h80v-444h127q56 0 75 13.5t19 50.5v380h80zM376 580q-29 0 -37.5 11.5t-8.5 39.5q0 30 8.5 41.5t37.5 11.5t36.5 -11.5t7.5 -41.5q0 -28 -7.5 -39.5t-36.5 -11.5zM199 580q-30 0 -38 11.5
t-8 39.5q0 30 8 41.5t38 11.5q28 0 35.5 -11.5t7.5 -41.5q0 -28 -7.5 -39.5t-35.5 -11.5z" />
    <glyph glyph-name="yacute" unicode="&#xfd;" horiz-adv-x="435" 
d="M156 26l-149 474h79l127 -407h10l126 407h80l-150 -474h-123zM83 -174q-19 0 -41 3t-39 7l3 43l59 8q39 5 62 15t37 31t26 59l10 34h79q-24 -75 -50.5 -119t-61 -62.5t-84.5 -18.5zM157 569l-19 30l145 104q5 4 7 4q3 0 7 -4l39 -49q6 -7 6 -11t-6 -10l-25 -19
q-4 -4 -8 -6t-13 -4z" />
    <glyph glyph-name="thorn" unicode="&#xfe;" horiz-adv-x="564" 
d="M325 -15q-66 0 -106.5 9.5t-61 36.5t-27.5 79.5t-7 139.5q0 85 7 136.5t27.5 78t61 35.5t106.5 9q54 0 88.5 -10.5t52.5 -38.5t25 -78.5t7 -131.5t-7.5 -133.5t-26 -81t-52.5 -39.5t-87 -11zM178 53h189q28 0 38 5t10 20v363h-190q-26 0 -36.5 -4t-10.5 -15v-369z
M98 -179v829l80 15v-833z" />
    <glyph glyph-name="ydieresis" unicode="&#xff;" horiz-adv-x="435" 
d="M156 26l-149 474h79l127 -407h10l126 407h80l-150 -474h-123zM83 -174q-19 0 -41 3t-39 7l3 43l59 8q39 5 62 15t37 31t26 59l10 34h79q-24 -75 -50.5 -119t-61 -62.5t-84.5 -18.5zM307 580q-29 0 -37.5 11.5t-8.5 39.5q0 30 8.5 41.5t37.5 11.5t36.5 -11.5t7.5 -41.5
q0 -28 -7.5 -39.5t-36.5 -11.5zM130 580q-30 0 -38 11.5t-8 39.5q0 30 8 41.5t38 11.5q28 0 35.5 -11.5t7.5 -41.5q0 -28 -7.5 -39.5t-35.5 -11.5z" />
    <glyph glyph-name="Amacron" unicode="&#x100;" horiz-adv-x="533" 
d="M17 0l190 625h119l190 -625h-80l-165 553h-9l-165 -553h-80zM104 148v66h327v-66h-327zM194 714q-30 0 -36.5 10.5t-6.5 32.5v29h189q30 0 36 -9t6 -32v-31h-188z" />
    <glyph glyph-name="amacron" unicode="&#x101;" horiz-adv-x="541" 
d="M210 -9q-81 0 -115 33t-34 113q0 53 9.5 85t38.5 47.5t88 20.5t159 5h42v-58h-181q-49 0 -66.5 -12.5t-17.5 -49.5v-119h153q48 0 65 13t17 49v313q-42 13 -111 13q-38 0 -79.5 -6t-84.5 -18l-10 60q22 8 54 15t68 10.5t68 3.5q66 0 104 -12.5t54.5 -41.5t16.5 -79v-376
h-35l-23 50q-35 -31 -79 -45t-101 -14zM200 589q-30 0 -36.5 10.5t-6.5 32.5v29h189q30 0 36 -9t6 -32v-31h-188z" />
    <glyph glyph-name="Abreve" unicode="&#x102;" horiz-adv-x="533" 
d="M17 0l190 625h119l190 -625h-80l-165 553h-9l-165 -553h-80zM104 148v66h327v-66h-327zM267 695q-40 0 -69.5 22.5t-41.5 79.5l59 11q5 -23 20.5 -35t31.5 -12t31.5 12t20.5 35l59 -11q-13 -52 -42.5 -77t-68.5 -25z" />
    <glyph glyph-name="abreve" unicode="&#x103;" horiz-adv-x="541" 
d="M210 -9q-81 0 -115 33t-34 113q0 53 9.5 85t38.5 47.5t88 20.5t159 5h42v-58h-181q-49 0 -66.5 -12.5t-17.5 -49.5v-119h153q48 0 65 13t17 49v313q-42 13 -111 13q-38 0 -79.5 -6t-84.5 -18l-10 60q22 8 54 15t68 10.5t68 3.5q66 0 104 -12.5t54.5 -41.5t16.5 -79v-376
h-35l-23 50q-35 -31 -79 -45t-101 -14zM273 570q-40 0 -69.5 22.5t-41.5 79.5l59 11q5 -23 20.5 -35t31.5 -12t31.5 12t20.5 35l59 -11q-13 -52 -42.5 -77t-68.5 -25z" />
    <glyph glyph-name="Aogonek" unicode="&#x104;" horiz-adv-x="533" 
d="M17 0l190 625h119l190 -625h-80l-165 553h-9l-165 -553h-80zM104 148v66h327v-66h-327zM471 -171q-42 0 -66 24t-24 65q0 39 37 68t90 35l10 -21l-22 -5q-29 -7 -37.5 -17t-8.5 -33v-25q0 -16 7.5 -25t21.5 -9h56l7 -41q-17 -7 -35 -11.5t-36 -4.5z" />
    <glyph glyph-name="aogonek" unicode="&#x105;" horiz-adv-x="541" 
d="M210 -9q-81 0 -115 33t-34 113q0 53 9.5 85t38.5 47.5t88 20.5t159 5h42v-58h-181q-49 0 -66.5 -12.5t-17.5 -49.5v-119h153q48 0 65 13t17 49v313q-42 13 -111 13q-38 0 -79.5 -6t-84.5 -18l-10 60q22 8 54 15t68 10.5t68 3.5q66 0 104 -12.5t54.5 -41.5t16.5 -79v-376
h-35l-23 50q-35 -31 -79 -45t-101 -14zM401 -171q-42 0 -66 24t-24 65q0 39 37 68t90 35l10 -21l-22 -5q-29 -7 -37.5 -17t-8.5 -33v-25q0 -16 7.5 -25t21.5 -9h56l7 -41q-17 -7 -35 -11.5t-36 -4.5z" />
    <glyph glyph-name="Cacute" unicode="&#x106;" horiz-adv-x="485" 
d="M459 11q-37 -14 -76 -20t-91 -6q-68 0 -111 15t-67 51.5t-33 100t-9 160.5q0 99 9.5 162.5t34 100t69 51t115.5 14.5q20 0 46 -2t52 -6.5t45 -11.5l-10 -67q-26 7 -57.5 10.5t-59.5 5.5t-45 2q-59 0 -86.5 -13t-27.5 -64v-427q27 -8 59.5 -12t67.5 -4q43 0 84.5 7
t81.5 18zM223 694l-19 30l145 104q5 4 7 4q3 0 7 -4l39 -49q6 -7 6 -11t-6 -10l-25 -19q-4 -4 -8 -6t-13 -4z" />
    <glyph glyph-name="cacute" unicode="&#x107;" horiz-adv-x="454" 
d="M237 -9q-53 0 -86.5 10.5t-52 39t-25.5 79t-7 130.5t7 131t25.5 79t52 38.5t86.5 10.5q26 0 54.5 -2t55.5 -6t50 -10l-12 -63q-38 8 -74 12t-73 4q-50 0 -70 -19.5t-20 -67.5v-288q40 -13 112 -13q31 0 61.5 5.5t76.5 18.5l10 -60q-32 -13 -77.5 -21t-93.5 -8zM187 569
l-19 30l145 104q5 4 7 4q3 0 7 -4l39 -49q6 -7 6 -11t-6 -10l-25 -19q-4 -4 -8 -6t-13 -4z" />
    <glyph glyph-name="Ccircumflex" unicode="&#x108;" horiz-adv-x="485" 
d="M459 11q-37 -14 -76 -20t-91 -6q-68 0 -111 15t-67 51.5t-33 100t-9 160.5q0 99 9.5 162.5t34 100t69 51t115.5 14.5q20 0 46 -2t52 -6.5t45 -11.5l-10 -67q-26 7 -57.5 10.5t-59.5 5.5t-45 2q-59 0 -86.5 -13t-27.5 -64v-427q27 -8 59.5 -12t67.5 -4q43 0 84.5 7
t81.5 18zM202 685l-32 31l98 112q5 6 9 6h12q4 0 9 -6l98 -112l-32 -31l-81 62z" />
    <glyph glyph-name="ccircumflex" unicode="&#x109;" horiz-adv-x="454" 
d="M237 -9q-53 0 -86.5 10.5t-52 39t-25.5 79t-7 130.5t7 131t25.5 79t52 38.5t86.5 10.5q26 0 54.5 -2t55.5 -6t50 -10l-12 -63q-38 8 -74 12t-73 4q-50 0 -70 -19.5t-20 -67.5v-288q40 -13 112 -13q31 0 61.5 5.5t76.5 18.5l10 -60q-32 -13 -77.5 -21t-93.5 -8zM167 560
l-32 31l98 112q5 6 9 6h12q4 0 9 -6l98 -112l-32 -31l-81 62z" />
    <glyph glyph-name="Cdotaccent" unicode="&#x10a;" horiz-adv-x="485" 
d="M459 11q-37 -14 -76 -20t-91 -6q-68 0 -111 15t-67 51.5t-33 100t-9 160.5q0 99 9.5 162.5t34 100t69 51t115.5 14.5q20 0 46 -2t52 -6.5t45 -11.5l-10 -67q-26 7 -57.5 10.5t-59.5 5.5t-45 2q-59 0 -86.5 -13t-27.5 -64v-427q27 -8 59.5 -12t67.5 -4q43 0 84.5 7
t81.5 18zM285 721q-32 0 -42.5 10.5t-10.5 40.5q0 31 11 42t42 11q30 0 40.5 -11t10.5 -42q0 -30 -10 -40.5t-41 -10.5z" />
    <glyph glyph-name="cdotaccent" unicode="&#x10b;" horiz-adv-x="454" 
d="M237 -9q-53 0 -86.5 10.5t-52 39t-25.5 79t-7 130.5t7 131t25.5 79t52 38.5t86.5 10.5q26 0 54.5 -2t55.5 -6t50 -10l-12 -63q-38 8 -74 12t-73 4q-50 0 -70 -19.5t-20 -67.5v-288q40 -13 112 -13q31 0 61.5 5.5t76.5 18.5l10 -60q-32 -13 -77.5 -21t-93.5 -8zM249 596
q-32 0 -42.5 10.5t-10.5 40.5q0 31 11 42t42 11q30 0 40.5 -11t10.5 -42q0 -30 -10 -40.5t-41 -10.5z" />
    <glyph glyph-name="Ccaron" unicode="&#x10c;" horiz-adv-x="485" 
d="M459 11q-37 -14 -76 -20t-91 -6q-68 0 -111 15t-67 51.5t-33 100t-9 160.5q0 99 9.5 162.5t34 100t69 51t115.5 14.5q20 0 46 -2t52 -6.5t45 -11.5l-10 -67q-26 7 -57.5 10.5t-59.5 5.5t-45 2q-59 0 -86.5 -13t-27.5 -64v-427q27 -8 59.5 -12t67.5 -4q43 0 84.5 7
t81.5 18zM202 834l81 -63l81 63l32 -32l-98 -112q-4 -5 -9 -5h-12q-5 0 -9 5l-98 112z" />
    <glyph glyph-name="ccaron" unicode="&#x10d;" horiz-adv-x="454" 
d="M237 -9q-53 0 -86.5 10.5t-52 39t-25.5 79t-7 130.5t7 131t25.5 79t52 38.5t86.5 10.5q26 0 54.5 -2t55.5 -6t50 -10l-12 -63q-38 8 -74 12t-73 4q-50 0 -70 -19.5t-20 -67.5v-288q40 -13 112 -13q31 0 61.5 5.5t76.5 18.5l10 -60q-32 -13 -77.5 -21t-93.5 -8zM167 709
l81 -63l81 63l32 -32l-98 -112q-4 -5 -9 -5h-12q-5 0 -9 5l-98 112z" />
    <glyph glyph-name="Dcaron" unicode="&#x10e;" horiz-adv-x="618" 
d="M98 625h213q74 0 120 -12t71.5 -45.5t34.5 -95t9 -160.5q0 -98 -9 -159.5t-34.5 -95t-71.5 -45.5t-120 -12h-213v625zM178 557v-489h203q44 0 61 16.5t17 58.5v339q0 42 -17 58.5t-61 16.5h-203zM228 834l81 -63l81 63l32 -32l-98 -112q-4 -5 -9 -5h-12q-5 0 -9 5
l-98 112z" />
    <glyph glyph-name="dcaron" unicode="&#x10f;" horiz-adv-x="634" 
d="M239 509q67 0 107 -9.5t60.5 -36t27.5 -77.5t7 -136q0 -87 -7 -140t-27.5 -80t-60.5 -36t-107 -9q-55 0 -89 11t-52 39.5t-25 80.5t-7 134q0 80 7.5 131t26 79t52 38.5t87.5 10.5zM386 441h-190q-27 0 -37 -5t-10 -20v-363h189q28 0 38 5t10 20v363zM466 679v-679h-35
l-45 93v575zM573 463l-37 11l21 97q-24 3 -36.5 16.5t-12.5 49.5q0 35 15 49t48 14t48 -14t15 -49q0 -39 -9 -61.5t-23 -52.5z" />
    <glyph glyph-name="Dcroat" unicode="&#x110;" horiz-adv-x="618" 
d="M98 625h213q74 0 120 -12t71.5 -45.5t34.5 -95t9 -160.5q0 -98 -9 -159.5t-34.5 -95t-71.5 -45.5t-120 -12h-213v625zM178 557v-489h203q44 0 61 16.5t17 58.5v339q0 42 -17 58.5t-61 16.5h-203zM34 303q0 24 7 31t30 7h212v-18q0 -24 -6.5 -31t-31.5 -7h-211v18z" />
    <glyph glyph-name="dcroat" unicode="&#x111;" horiz-adv-x="564" 
d="M313 584q0 13 6.5 17t27.5 4h191v-10q0 -14 -6.5 -17t-27.5 -3h-191v9zM239 509q67 0 107 -9.5t60.5 -36t27.5 -77.5t7 -136q0 -87 -7 -140t-27.5 -80t-60.5 -36t-107 -9q-55 0 -89 11t-52 39.5t-25 80.5t-7 134q0 80 7.5 131t26 79t52 38.5t87.5 10.5zM386 441h-190
q-27 0 -37 -5t-10 -20v-363h189q28 0 38 5t10 20v363zM466 679v-679h-35l-45 93v575z" />
    <glyph glyph-name="Emacron" unicode="&#x112;" horiz-adv-x="514" 
d="M178 280v-214h283v-66h-363v625h358l-9 -66h-269v-214h244v-65h-244zM209 714q-30 0 -36.5 10.5t-6.5 32.5v29h189q30 0 36 -9t6 -32v-31h-188z" />
    <glyph glyph-name="emacron" unicode="&#x113;" horiz-adv-x="535" 
d="M246 -9q-55 0 -90.5 11t-55 39.5t-27 79t-7.5 129.5q0 101 17.5 157.5t61 79t121.5 22.5q77 0 119 -12.5t58 -44t16 -89.5q0 -53 -9.5 -85t-40.5 -47.5t-93 -20.5t-167 -5h-30v58h181q51 0 69 13t18 49v114h-152q-50 0 -68 -12.5t-18 -49.5v-308q24 -6 50.5 -9.5
t63.5 -3.5q40 0 78 5.5t94 18.5l11 -60q-34 -13 -88.5 -21t-111.5 -8zM193 589q-30 0 -36.5 10.5t-6.5 32.5v29h189q30 0 36 -9t6 -32v-31h-188z" />
    <glyph glyph-name="Ebreve" unicode="&#x114;" horiz-adv-x="514" 
d="M178 280v-214h283v-66h-363v625h358l-9 -66h-269v-214h244v-65h-244zM282 695q-40 0 -69.5 22.5t-41.5 79.5l59 11q5 -23 20.5 -35t31.5 -12t31.5 12t20.5 35l59 -11q-13 -52 -42.5 -77t-68.5 -25z" />
    <glyph glyph-name="ebreve" unicode="&#x115;" horiz-adv-x="535" 
d="M246 -9q-55 0 -90.5 11t-55 39.5t-27 79t-7.5 129.5q0 101 17.5 157.5t61 79t121.5 22.5q77 0 119 -12.5t58 -44t16 -89.5q0 -53 -9.5 -85t-40.5 -47.5t-93 -20.5t-167 -5h-30v58h181q51 0 69 13t18 49v114h-152q-50 0 -68 -12.5t-18 -49.5v-308q24 -6 50.5 -9.5
t63.5 -3.5q40 0 78 5.5t94 18.5l11 -60q-34 -13 -88.5 -21t-111.5 -8zM266 570q-40 0 -69.5 22.5t-41.5 79.5l59 11q5 -23 20.5 -35t31.5 -12t31.5 12t20.5 35l59 -11q-13 -52 -42.5 -77t-68.5 -25z" />
    <glyph glyph-name="Edotaccent" unicode="&#x116;" horiz-adv-x="514" 
d="M178 280v-214h283v-66h-363v625h358l-9 -66h-269v-214h244v-65h-244zM284 721q-32 0 -42.5 10.5t-10.5 40.5q0 31 11 42t42 11q30 0 40.5 -11t10.5 -42q0 -30 -10 -40.5t-41 -10.5z" />
    <glyph glyph-name="edotaccent" unicode="&#x117;" horiz-adv-x="535" 
d="M246 -9q-55 0 -90.5 11t-55 39.5t-27 79t-7.5 129.5q0 101 17.5 157.5t61 79t121.5 22.5q77 0 119 -12.5t58 -44t16 -89.5q0 -53 -9.5 -85t-40.5 -47.5t-93 -20.5t-167 -5h-30v58h181q51 0 69 13t18 49v114h-152q-50 0 -68 -12.5t-18 -49.5v-308q24 -6 50.5 -9.5
t63.5 -3.5q40 0 78 5.5t94 18.5l11 -60q-34 -13 -88.5 -21t-111.5 -8zM268 596q-32 0 -42.5 10.5t-10.5 40.5q0 31 11 42t42 11q30 0 40.5 -11t10.5 -42q0 -30 -10 -40.5t-41 -10.5z" />
    <glyph glyph-name="Eogonek" unicode="&#x118;" horiz-adv-x="514" 
d="M178 280v-214h283v-66h-363v625h358l-9 -66h-269v-214h244v-65h-244zM414 -171q-42 0 -66 24t-24 65q0 39 37 68t90 35l10 -21l-22 -5q-29 -7 -37.5 -17t-8.5 -33v-25q0 -16 7.5 -25t21.5 -9h56l7 -41q-17 -7 -35 -11.5t-36 -4.5z" />
    <glyph glyph-name="eogonek" unicode="&#x119;" horiz-adv-x="535" 
d="M246 -9q-55 0 -90.5 11t-55 39.5t-27 79t-7.5 129.5q0 101 17.5 157.5t61 79t121.5 22.5q77 0 119 -12.5t58 -44t16 -89.5q0 -53 -9.5 -85t-40.5 -47.5t-93 -20.5t-167 -5h-30v58h181q51 0 69 13t18 49v114h-152q-50 0 -68 -12.5t-18 -49.5v-308q24 -6 50.5 -9.5
t63.5 -3.5q40 0 78 5.5t94 18.5l11 -60q-34 -13 -88.5 -21t-111.5 -8zM399 -151q-42 0 -66 24t-24 65q0 39 37 68t90 35l10 -21l-22 -5q-29 -7 -37.5 -17t-8.5 -33v-25q0 -16 7.5 -25t21.5 -9h56l7 -41q-17 -7 -35 -11.5t-36 -4.5z" />
    <glyph glyph-name="Ecaron" unicode="&#x11a;" horiz-adv-x="514" 
d="M178 280v-214h283v-66h-363v625h358l-9 -66h-269v-214h244v-65h-244zM201 834l81 -63l81 63l32 -32l-98 -112q-4 -5 -9 -5h-12q-5 0 -9 5l-98 112z" />
    <glyph glyph-name="ecaron" unicode="&#x11b;" horiz-adv-x="535" 
d="M246 -9q-55 0 -90.5 11t-55 39.5t-27 79t-7.5 129.5q0 101 17.5 157.5t61 79t121.5 22.5q77 0 119 -12.5t58 -44t16 -89.5q0 -53 -9.5 -85t-40.5 -47.5t-93 -20.5t-167 -5h-30v58h181q51 0 69 13t18 49v114h-152q-50 0 -68 -12.5t-18 -49.5v-308q24 -6 50.5 -9.5
t63.5 -3.5q40 0 78 5.5t94 18.5l11 -60q-34 -13 -88.5 -21t-111.5 -8zM185 709l81 -63l81 63l32 -32l-98 -112q-4 -5 -9 -5h-12q-5 0 -9 5l-98 112z" />
    <glyph glyph-name="Gcircumflex" unicode="&#x11c;" horiz-adv-x="569" 
d="M275 -15q-63 0 -103 12.5t-61.5 46.5t-30 98.5t-8.5 169.5q0 98 10 162t35.5 100.5t71 51t118.5 14.5q23 0 53.5 -2t60.5 -6.5t52 -11.5l-10 -67q-30 7 -66.5 10.5t-69.5 5.5t-53 2q-61 0 -89.5 -13t-28.5 -64v-445h327l13 -31q-49 -18 -101 -25.5t-120 -7.5zM427 30v242
h-104v66h173v-320zM231 685l-32 31l98 112q5 6 9 6h12q4 0 9 -6l98 -112l-32 -31l-81 62z" />
    <glyph glyph-name="gcircumflex" unicode="&#x11d;" horiz-adv-x="497" 
d="M238 147q-73 0 -114 16t-58 56t-17 111t17 111t58 57t114 17t114.5 -17t58.5 -57t17 -111q0 -70 -17 -110.5t-58.5 -56.5t-114.5 -16zM130 205h136q46 0 63.5 15t17.5 53v183h-136q-45 0 -63 -14.5t-18 -53.5v-183zM434 -43q0 -45 -18 -71.5t-60 -37.5t-115 -11
q-53 0 -102.5 8t-82.5 21l11 64q52 -13 87.5 -18.5t72.5 -5.5q45 0 76 3t60 9v82q-103 6 -147 15.5t-44 26.5l29 116h51l-6 -93q61 -7 98 -14t56.5 -18t26.5 -29.5t7 -46.5zM396 426l-51 59l83 62l40 -41zM168 560l-32 31l98 112q5 6 9 6h12q4 0 9 -6l98 -112l-32 -31
l-81 62z" />
    <glyph glyph-name="Gbreve" unicode="&#x11e;" horiz-adv-x="569" 
d="M275 -15q-63 0 -103 12.5t-61.5 46.5t-30 98.5t-8.5 169.5q0 98 10 162t35.5 100.5t71 51t118.5 14.5q23 0 53.5 -2t60.5 -6.5t52 -11.5l-10 -67q-30 7 -66.5 10.5t-69.5 5.5t-53 2q-61 0 -89.5 -13t-28.5 -64v-445h327l13 -31q-49 -18 -101 -25.5t-120 -7.5zM427 30v242
h-104v66h173v-320zM312 695q-40 0 -69.5 22.5t-41.5 79.5l59 11q5 -23 20.5 -35t31.5 -12t31.5 12t20.5 35l59 -11q-13 -52 -42.5 -77t-68.5 -25z" />
    <glyph glyph-name="gbreve" unicode="&#x11f;" horiz-adv-x="497" 
d="M238 147q-73 0 -114 16t-58 56t-17 111t17 111t58 57t114 17t114.5 -17t58.5 -57t17 -111q0 -70 -17 -110.5t-58.5 -56.5t-114.5 -16zM130 205h136q46 0 63.5 15t17.5 53v183h-136q-45 0 -63 -14.5t-18 -53.5v-183zM434 -43q0 -45 -18 -71.5t-60 -37.5t-115 -11
q-53 0 -102.5 8t-82.5 21l11 64q52 -13 87.5 -18.5t72.5 -5.5q45 0 76 3t60 9v82q-103 6 -147 15.5t-44 26.5l29 116h51l-6 -93q61 -7 98 -14t56.5 -18t26.5 -29.5t7 -46.5zM396 426l-51 59l83 62l40 -41zM249 570q-40 0 -69.5 22.5t-41.5 79.5l59 11q5 -23 20.5 -35
t31.5 -12t31.5 12t20.5 35l59 -11q-13 -52 -42.5 -77t-68.5 -25z" />
    <glyph glyph-name="Gdotaccent" unicode="&#x120;" horiz-adv-x="569" 
d="M275 -15q-63 0 -103 12.5t-61.5 46.5t-30 98.5t-8.5 169.5q0 98 10 162t35.5 100.5t71 51t118.5 14.5q23 0 53.5 -2t60.5 -6.5t52 -11.5l-10 -67q-30 7 -66.5 10.5t-69.5 5.5t-53 2q-61 0 -89.5 -13t-28.5 -64v-445h327l13 -31q-49 -18 -101 -25.5t-120 -7.5zM427 30v242
h-104v66h173v-320zM314 721q-32 0 -42.5 10.5t-10.5 40.5q0 31 11 42t42 11q30 0 40.5 -11t10.5 -42q0 -30 -10 -40.5t-41 -10.5z" />
    <glyph glyph-name="gdotaccent" unicode="&#x121;" horiz-adv-x="497" 
d="M238 147q-73 0 -114 16t-58 56t-17 111t17 111t58 57t114 17t114.5 -17t58.5 -57t17 -111q0 -70 -17 -110.5t-58.5 -56.5t-114.5 -16zM130 205h136q46 0 63.5 15t17.5 53v183h-136q-45 0 -63 -14.5t-18 -53.5v-183zM434 -43q0 -45 -18 -71.5t-60 -37.5t-115 -11
q-53 0 -102.5 8t-82.5 21l11 64q52 -13 87.5 -18.5t72.5 -5.5q45 0 76 3t60 9v82q-103 6 -147 15.5t-44 26.5l29 116h51l-6 -93q61 -7 98 -14t56.5 -18t26.5 -29.5t7 -46.5zM396 426l-51 59l83 62l40 -41zM251 596q-32 0 -42.5 10.5t-10.5 40.5q0 31 11 42t42 11
q30 0 40.5 -11t10.5 -42q0 -30 -10 -40.5t-41 -10.5z" />
    <glyph glyph-name="uni0122" unicode="&#x122;" horiz-adv-x="569" 
d="M275 -15q-63 0 -103 12.5t-61.5 46.5t-30 98.5t-8.5 169.5q0 98 10 162t35.5 100.5t71 51t118.5 14.5q23 0 53.5 -2t60.5 -6.5t52 -11.5l-10 -67q-30 7 -66.5 10.5t-69.5 5.5t-53 2q-61 0 -89.5 -13t-28.5 -64v-445h327l13 -31q-49 -18 -101 -25.5t-120 -7.5zM427 30v242
h-104v66h173v-320zM295 -277l-37 11l21 97q-25 3 -37 16.5t-12 49.5q0 35 15 49t48 14q32 0 47.5 -14t15.5 -49q0 -39 -9 -61.5t-23 -52.5z" />
    <glyph glyph-name="uni0123" unicode="&#x123;" horiz-adv-x="497" 
d="M238 147q-73 0 -114 16t-58 56t-17 111t17 111t58 57t114 17t114.5 -17t58.5 -57t17 -111q0 -70 -17 -110.5t-58.5 -56.5t-114.5 -16zM130 205h136q46 0 63.5 15t17.5 53v183h-136q-45 0 -63 -14.5t-18 -53.5v-183zM434 -43q0 -45 -18 -71.5t-60 -37.5t-115 -11
q-53 0 -102.5 8t-82.5 21l11 64q52 -13 87.5 -18.5t72.5 -5.5q45 0 76 3t60 9v82q-103 6 -147 15.5t-44 26.5l29 116h51l-6 -93q61 -7 98 -14t56.5 -18t26.5 -29.5t7 -46.5zM396 426l-51 59l83 62l40 -41zM247 815l37 -12l-21 -96q24 -3 36.5 -16.5t12.5 -49.5
q0 -35 -15 -49t-48 -14t-48 14t-15 49q0 39 9 61.5t23 52.5z" />
    <glyph glyph-name="Hcircumflex" unicode="&#x124;" horiz-adv-x="638" 
d="M178 0h-80v625h80v-625zM460 625h80v-625h-80v625zM476 276h-314v66h314v-66zM238 685l-32 31l98 112q5 6 9 6h12q4 0 9 -6l98 -112l-32 -31l-81 62z" />
    <glyph glyph-name="hcircumflex" unicode="&#x125;" horiz-adv-x="572" 
d="M98 0v658l79 7v-201q32 24 70 34.5t92 10.5q70 0 105 -19.5t35 -59.5v-430h-80v443h-133q-51 0 -69.5 -12.5t-18.5 -47.5v-383h-80zM57 681l-32 31l98 112q5 6 9 6h12q4 0 9 -6l98 -112l-32 -31l-81 62z" />
    <glyph glyph-name="Hbar" unicode="&#x126;" horiz-adv-x="638" 
d="M178 0h-80v625h80v-625zM460 625h80v-625h-80v625zM476 276h-314v66h314v-66zM37 470q0 24 7 31.5t30 7.5h528v-22q0 -24 -6.5 -30.5t-31.5 -6.5h-527v20z" />
    <glyph glyph-name="hbar" unicode="&#x127;" horiz-adv-x="572" 
d="M26 574q0 13 6.5 17t27.5 4h190v-10q0 -13 -6 -16.5t-28 -3.5h-190v9zM98 0v658l79 7v-201q31 24 69.5 34.5t92.5 10.5q70 0 105 -19.5t35 -59.5v-430h-80v443h-133q-51 0 -69.5 -12.5t-18.5 -47.5v-383h-80z" />
    <glyph glyph-name="Itilde" unicode="&#x128;" horiz-adv-x="276" 
d="M98 625h80v-625h-80v625zM161 693q-9 0 -16.5 3t-19.5 12t-34 28l-62 -32l-25 41q33 26 54 39.5t34 19t23 5.5q8 0 15 -3t19 -11.5t36 -28.5l62 32l25 -41q-28 -23 -49 -37t-36 -20.5t-26 -6.5z" />
    <glyph glyph-name="itilde" unicode="&#x129;" horiz-adv-x="276" 
d="M98 496l80 14v-510h-80v496zM161 568q-9 0 -16.5 3t-19.5 12t-34 28l-62 -32l-25 41q33 26 54 39.5t34 19t23 5.5q8 0 15 -3t19 -11.5t36 -28.5l62 32l25 -41q-28 -23 -49 -37t-36 -20.5t-26 -6.5z" />
    <glyph glyph-name="Imacron" unicode="&#x12a;" horiz-adv-x="276" 
d="M98 625h80v-625h-80v625zM65 714q-30 0 -36.5 10.5t-6.5 32.5v29h189q30 0 36 -9t6 -32v-31h-188z" />
    <glyph glyph-name="imacron" unicode="&#x12b;" horiz-adv-x="276" 
d="M98 496l80 14v-510h-80v496zM65 589q-30 0 -36.5 10.5t-6.5 32.5v29h189q30 0 36 -9t6 -32v-31h-188z" />
    <glyph glyph-name="Ibreve" unicode="&#x12c;" horiz-adv-x="276" 
d="M98 625h80v-625h-80v625zM138 695q-40 0 -69.5 22.5t-41.5 79.5l59 11q5 -23 20.5 -35t31.5 -12t31.5 12t20.5 35l59 -11q-13 -52 -42.5 -77t-68.5 -25z" />
    <glyph glyph-name="ibreve" unicode="&#x12d;" horiz-adv-x="276" 
d="M98 496l80 14v-510h-80v496zM138 570q-40 0 -69.5 22.5t-41.5 79.5l59 11q5 -23 20.5 -35t31.5 -12t31.5 12t20.5 35l59 -11q-13 -52 -42.5 -77t-68.5 -25z" />
    <glyph glyph-name="Iogonek" unicode="&#x12e;" horiz-adv-x="276" 
d="M98 625h80v-625h-80v625zM131 -171q-42 0 -66 24t-24 65q0 39 37 68t90 35l10 -21l-22 -5q-29 -7 -37.5 -17t-8.5 -33v-25q0 -16 7.5 -25t21.5 -9h56l7 -41q-17 -7 -35 -11.5t-36 -4.5z" />
    <glyph glyph-name="iogonek" unicode="&#x12f;" horiz-adv-x="276" 
d="M98 496l80 14v-510h-80v496zM140 596q-32 0 -42.5 10.5t-10.5 40.5q0 31 11 42t42 11q30 0 40.5 -11t10.5 -42q0 -30 -10 -40.5t-41 -10.5zM131 -171q-42 0 -66 24t-24 65q0 39 37 68t90 35l10 -21l-22 -5q-29 -7 -37.5 -17t-8.5 -33v-25q0 -16 7.5 -25t21.5 -9h56l7 -41
q-17 -7 -35 -11.5t-36 -4.5z" />
    <glyph glyph-name="Idotaccent" unicode="&#x130;" horiz-adv-x="276" 
d="M98 625h80v-625h-80v625zM140 721q-32 0 -42.5 10.5t-10.5 40.5q0 31 11 42t42 11q30 0 40.5 -11t10.5 -42q0 -30 -10 -40.5t-41 -10.5z" />
    <glyph glyph-name="dotlessi" unicode="&#x131;" horiz-adv-x="276" 
d="M98 496l80 14v-510h-80v496z" />
    <glyph glyph-name="IJ" unicode="&#x132;" horiz-adv-x="619" 
d="M98 625h80v-625h-80v625zM298 63h95q20 0 34 4.5t14 25.5v466h-100v66h180v-496q0 -54 -18 -81.5t-52.5 -37.5t-84.5 -10h-57z" />
    <glyph glyph-name="ij" unicode="&#x133;" horiz-adv-x="552" 
d="M98 496l80 14v-510h-80v496zM140 596q-32 0 -42.5 10.5t-10.5 40.5q0 31 11 42t42 11q30 0 40.5 -11t10.5 -42q0 -30 -10 -40.5t-41 -10.5zM339 -174q-17 0 -35 3t-32 7l6 45q41 0 61.5 4t27.5 17t7 39v555l80 14v-580q0 -53 -27.5 -78.5t-87.5 -25.5zM416 596
q-32 0 -42.5 10.5t-10.5 40.5q0 31 11 42t42 11q30 0 40.5 -11t10.5 -42q0 -30 -10 -40.5t-41 -10.5z" />
    <glyph glyph-name="Jcircumflex" unicode="&#x134;" horiz-adv-x="343" 
d="M22 63h95q20 0 34 4.5t14 25.5v466h-100v66h180v-496q0 -54 -18 -81.5t-52.5 -37.5t-84.5 -10h-57zM91 685l-32 31l98 112q5 6 9 6h12q4 0 9 -6l98 -112l-32 -31l-81 62z" />
    <glyph glyph-name="jcircumflex" unicode="&#x135;" horiz-adv-x="276" 
d="M63 -174q-17 0 -35 3t-32 7l6 45q41 0 61.5 4t27.5 17t7 39v555l80 14v-580q0 -53 -27.5 -78.5t-87.5 -25.5zM57 560l-32 31l98 112q5 6 9 6h12q4 0 9 -6l98 -112l-32 -31l-81 62z" />
    <glyph glyph-name="uni0136" unicode="&#x136;" horiz-adv-x="540" 
d="M438 0l-72 152q-14 30 -28 65t-14 72h-162v64h162q0 37 13.5 72t28.5 65l67 135h91l-151 -304l156 -321h-91zM98 0v625h80v-625h-80zM295 -277l-37 11l21 97q-25 3 -37 16.5t-12 49.5q0 35 15 49t48 14q32 0 47.5 -14t15.5 -49q0 -39 -9 -61.5t-23 -52.5z" />
    <glyph glyph-name="uni0137" unicode="&#x137;" horiz-adv-x="479" 
d="M266 237h-88v-237h-80v650l80 15v-368h88l113 203h84l-130 -232l135 -268h-82zM266 -277l-37 11l21 97q-25 3 -37 16.5t-12 49.5q0 35 15 49t48 14q32 0 47.5 -14t15.5 -49q0 -39 -9 -61.5t-23 -52.5z" />
    <glyph glyph-name="kgreenlandic" unicode="&#x138;" horiz-adv-x="496" 
d="M283 219h-105v-219h-80v500h80v-221h105l113 221h84l-130 -250l135 -250h-82z" />
    <glyph glyph-name="Lacute" unicode="&#x139;" horiz-adv-x="427" 
d="M98 0v625h80v-559h238v-66h-318zM78 694l-19 30l145 104q5 4 7 4q3 0 7 -4l39 -49q6 -7 6 -11t-6 -10l-25 -19q-4 -4 -8 -6t-13 -4z" />
    <glyph glyph-name="lacute" unicode="&#x13a;" horiz-adv-x="264" 
d="M172 60q8 -1 20.5 -2t24.5 -2l-5 -55q-18 -5 -31 -7.5t-26 -2.5q-32 0 -47.5 17t-15.5 51v591l80 15v-605zM72 690l-19 30l145 104q5 4 7 4q3 0 7 -4l39 -49q6 -7 6 -11t-6 -10l-25 -19q-4 -4 -8 -6t-13 -4z" />
    <glyph glyph-name="uni013B" unicode="&#x13b;" horiz-adv-x="427" 
d="M98 0v625h80v-559h238v-66h-318zM250 -277l-37 11l21 97q-25 3 -37 16.5t-12 49.5q0 35 15 49t48 14q32 0 47.5 -14t15.5 -49q0 -39 -9 -61.5t-23 -52.5z" />
    <glyph glyph-name="uni013C" unicode="&#x13c;" horiz-adv-x="264" 
d="M172 60q8 -1 20.5 -2t24.5 -2l-5 -55q-18 -5 -31 -7.5t-26 -2.5q-32 0 -47.5 17t-15.5 51v591l80 15v-605zM134 -277l-37 11l21 97q-25 3 -37 16.5t-12 49.5q0 35 15 49t48 14q32 0 47.5 -14t15.5 -49q0 -39 -9 -61.5t-23 -52.5z" />
    <glyph glyph-name="Lcaron" unicode="&#x13d;" horiz-adv-x="427" 
d="M98 0v625h80v-559h238v-66h-318zM250 -277l-37 11l21 97q-25 3 -37 16.5t-12 49.5q0 35 15 49t48 14q32 0 47.5 -14t15.5 -49q0 -39 -9 -61.5t-23 -52.5z" />
    <glyph glyph-name="lcaron" unicode="&#x13e;" horiz-adv-x="318" 
d="M172 60q8 -1 20.5 -2t24.5 -2l-5 -55q-18 -5 -31 -7.5t-26 -2.5q-32 0 -47.5 17t-15.5 51v591l80 15v-605zM273 463l-37 11l21 97q-24 3 -36.5 16.5t-12.5 49.5q0 35 15 49t48 14t48 -14t15 -49q0 -39 -9 -61.5t-23 -52.5z" />
    <glyph glyph-name="Ldot" unicode="&#x13f;" horiz-adv-x="427" 
d="M281 328q0 25 8.5 37t36.5 12t37 -12t9 -37q0 -27 -9 -38t-37 -11t-36.5 11t-8.5 38zM98 0v625h80v-559h238v-66h-318z" />
    <glyph glyph-name="ldot" unicode="&#x140;" horiz-adv-x="313" 
d="M172 60q8 -1 20.5 -2t24.5 -2l-5 -55q-18 -5 -31 -7.5t-26 -2.5q-32 0 -47.5 17t-15.5 51v591l80 15v-605zM223 334q0 32 11 46.5t45 14.5q35 0 46 -14.5t11 -46.5q0 -33 -11 -47t-46 -14q-34 0 -45 14t-11 47z" />
    <glyph glyph-name="Lslash" unicode="&#x141;" horiz-adv-x="427" 
d="M98 0v625h80v-559h238v-66h-318zM34 259l-8 24q-5 18 -5 26q0 14 15 19l207 69l8 -24q5 -18 5 -27q0 -13 -15 -19z" />
    <glyph glyph-name="lslash" unicode="&#x142;" horiz-adv-x="264" 
d="M172 60q8 -1 20.5 -2t24.5 -2l-5 -55q-18 -5 -31 -7.5t-26 -2.5q-32 0 -47.5 17t-15.5 51v591l80 15v-605zM28 261l-8 24q-5 18 -5 26q0 14 15 19l207 69l8 -24q5 -18 5 -27q0 -13 -15 -19z" />
    <glyph glyph-name="Nacute" unicode="&#x143;" horiz-adv-x="658" 
d="M103 0v625h77l263 -424q15 -25 20 -34.5t6 -26.5h6v485h80v-625h-77l-263 424q-15 26 -19.5 35.5t-6.5 25.5h-6v-485h-80zM281 694l-19 30l145 104q5 4 7 4q3 0 7 -4l39 -49q6 -7 6 -11t-6 -10l-25 -19q-4 -4 -8 -6t-13 -4z" />
    <glyph glyph-name="nacute" unicode="&#x144;" horiz-adv-x="572" 
d="M98 0v500h35l23 -50q36 30 80 44.5t103 14.5q70 0 105 -19.5t35 -59.5v-430h-80v443h-127q-55 0 -74.5 -12.5t-19.5 -50.5v-380h-80zM236 569l-19 30l145 104q5 4 7 4q3 0 7 -4l39 -49q6 -7 6 -11t-6 -10l-25 -19q-4 -4 -8 -6t-13 -4z" />
    <glyph glyph-name="uni0145" unicode="&#x145;" horiz-adv-x="658" 
d="M103 0v625h77l263 -424q15 -25 20 -34.5t6 -26.5h6v485h80v-625h-77l-263 424q-15 26 -19.5 35.5t-6.5 25.5h-6v-485h-80zM332 -277l-37 11l21 97q-25 3 -37 16.5t-12 49.5q0 35 15 49t48 14q32 0 47.5 -14t15.5 -49q0 -39 -9 -61.5t-23 -52.5z" />
    <glyph glyph-name="uni0146" unicode="&#x146;" horiz-adv-x="572" 
d="M98 0v500h35l23 -50q36 30 80 44.5t103 14.5q70 0 105 -19.5t35 -59.5v-430h-80v443h-127q-55 0 -74.5 -12.5t-19.5 -50.5v-380h-80zM288 -277l-37 11l21 97q-25 3 -37 16.5t-12 49.5q0 35 15 49t48 14q32 0 47.5 -14t15.5 -49q0 -39 -9 -61.5t-23 -52.5z" />
    <glyph glyph-name="Ncaron" unicode="&#x147;" horiz-adv-x="658" 
d="M103 0v625h77l263 -424q15 -25 20 -34.5t6 -26.5h6v485h80v-625h-77l-263 424q-15 26 -19.5 35.5t-6.5 25.5h-6v-485h-80zM261 834l81 -63l81 63l32 -32l-98 -112q-4 -5 -9 -5h-12q-5 0 -9 5l-98 112z" />
    <glyph glyph-name="ncaron" unicode="&#x148;" horiz-adv-x="572" 
d="M98 0v500h35l23 -50q36 30 80 44.5t103 14.5q70 0 105 -19.5t35 -59.5v-430h-80v443h-127q-55 0 -74.5 -12.5t-19.5 -50.5v-380h-80zM215 709l81 -63l81 63l32 -32l-98 -112q-4 -5 -9 -5h-12q-5 0 -9 5l-98 112z" />
    <glyph glyph-name="Eng" unicode="&#x14a;" horiz-adv-x="658" 
d="M103 0v625h77l263 -424q15 -25 20 -34.5t6 -26.5h6v485h80v-625h-77l-263 424q-15 26 -19.5 35.5t-6.5 25.5h-6v-485h-80zM442 -174q-17 0 -35 3t-32 7l6 45q41 0 61.5 4t27.5 17t7 39v555l80 14v-580q0 -53 -27.5 -78.5t-87.5 -25.5z" />
    <glyph glyph-name="eng" unicode="&#x14b;" horiz-adv-x="572" 
d="M364 -174q-15 0 -33 3t-33 7l5 38q42 1 62.5 5t27 17t6.5 38v92h80v-96q0 -53 -27.5 -78.5t-87.5 -25.5zM98 0v500h35l23 -50q36 30 80 44.5t103 14.5q70 0 105 -19.5t35 -59.5v-430h-80v443h-127q-55 0 -74.5 -12.5t-19.5 -50.5v-380h-80z" />
    <glyph glyph-name="Omacron" unicode="&#x14c;" horiz-adv-x="631" 
d="M72 312q0 104 9.5 168.5t35 99t73.5 47.5t126 13q77 0 125 -13t73.5 -48t35 -99t9.5 -168t-9.5 -168t-35 -98.5t-73.5 -47.5t-125 -13q-78 0 -126 13t-73.5 47.5t-35 98.5t-9.5 168zM157 53h230q48 0 67.5 17t19.5 60v442h-230q-49 0 -68 -17t-19 -60v-442zM243 714
q-30 0 -36.5 10.5t-6.5 32.5v29h189q30 0 36 -9t6 -32v-31h-188z" />
    <glyph glyph-name="omacron" unicode="&#x14d;" horiz-adv-x="547" 
d="M274 -9q-65 0 -105.5 10.5t-63 38.5t-31 79t-8.5 131t8.5 131t31 79t63 38.5t105.5 10.5t106 -10.5t63 -38.5t30 -78.5t8 -131.5q0 -80 -8.5 -131t-30.5 -79t-63 -38.5t-105 -10.5zM148 59h201q30 0 40 5t10 20v357h-201q-30 0 -40 -5t-10 -20v-357zM201 589
q-30 0 -36.5 10.5t-6.5 32.5v29h189q30 0 36 -9t6 -32v-31h-188z" />
    <glyph glyph-name="Obreve" unicode="&#x14e;" horiz-adv-x="631" 
d="M72 312q0 104 9.5 168.5t35 99t73.5 47.5t126 13q77 0 125 -13t73.5 -48t35 -99t9.5 -168t-9.5 -168t-35 -98.5t-73.5 -47.5t-125 -13q-78 0 -126 13t-73.5 47.5t-35 98.5t-9.5 168zM157 53h230q48 0 67.5 17t19.5 60v442h-230q-49 0 -68 -17t-19 -60v-442zM316 695
q-40 0 -69.5 22.5t-41.5 79.5l59 11q5 -23 20.5 -35t31.5 -12t31.5 12t20.5 35l59 -11q-13 -52 -42.5 -77t-68.5 -25z" />
    <glyph glyph-name="obreve" unicode="&#x14f;" horiz-adv-x="547" 
d="M274 -9q-65 0 -105.5 10.5t-63 38.5t-31 79t-8.5 131t8.5 131t31 79t63 38.5t105.5 10.5t106 -10.5t63 -38.5t30 -78.5t8 -131.5q0 -80 -8.5 -131t-30.5 -79t-63 -38.5t-105 -10.5zM148 59h201q30 0 40 5t10 20v357h-201q-30 0 -40 -5t-10 -20v-357zM274 570
q-40 0 -69.5 22.5t-41.5 79.5l59 11q5 -23 20.5 -35t31.5 -12t31.5 12t20.5 35l59 -11q-13 -52 -42.5 -77t-68.5 -25z" />
    <glyph glyph-name="Ohungarumlaut" unicode="&#x150;" horiz-adv-x="631" 
d="M72 312q0 104 9.5 168.5t35 99t73.5 47.5t126 13q77 0 125 -13t73.5 -48t35 -99t9.5 -168t-9.5 -168t-35 -98.5t-73.5 -47.5t-125 -13q-78 0 -126 13t-73.5 47.5t-35 98.5t-9.5 168zM157 53h230q48 0 67.5 17t19.5 60v442h-230q-49 0 -68 -17t-19 -60v-442zM366 702
l-18 29l132 98q3 2 6 2h2.5t3.5 -4l40 -50l4 -4t2 -5v-2t-3 -4l-28 -23q-4 -3 -7.5 -4.5t-12.5 -3.5zM153 702l-18 29l132 98q3 2 6 2h2.5t3.5 -4l40 -50l4 -4t2 -5v-2t-3 -4l-28 -23q-4 -3 -7.5 -4.5t-12.5 -3.5z" />
    <glyph glyph-name="ohungarumlaut" unicode="&#x151;" horiz-adv-x="547" 
d="M274 -9q-65 0 -105.5 10.5t-63 38.5t-31 79t-8.5 131t8.5 131t31 79t63 38.5t105.5 10.5t106 -10.5t63 -38.5t30 -78.5t8 -131.5q0 -80 -8.5 -131t-30.5 -79t-63 -38.5t-105 -10.5zM148 59h201q30 0 40 5t10 20v357h-201q-30 0 -40 -5t-10 -20v-357zM324 577l-18 29
l132 98q3 2 6 2h2.5t3.5 -4l40 -50l4 -4t2 -5v-2t-3 -4l-28 -23q-4 -3 -7.5 -4.5t-12.5 -3.5zM111 577l-18 29l132 98q3 2 6 2h2.5t3.5 -4l40 -50l4 -4t2 -5v-2t-3 -4l-28 -23q-4 -3 -7.5 -4.5t-12.5 -3.5z" />
    <glyph glyph-name="OE" unicode="&#x152;" horiz-adv-x="890" 
d="M554 280v-214h283v-66h-363v625h358l-9 -66h-269v-214h244v-65h-244zM72 312q0 99 9.5 160.5t35 94.5t74 45.5t125.5 12.5h166v-625h-166q-78 0 -126 12t-73.5 45t-35 94.5t-9.5 160.5zM157 66h230q48 0 67.5 17t19.5 60v416h-230q-49 0 -68 -17t-19 -60v-416z" />
    <glyph glyph-name="oe" unicode="&#x153;" horiz-adv-x="866" 
d="M274 -9q-65 0 -105.5 10.5t-63 38.5t-31 79t-8.5 131t8.5 131t31 79t63 38.5t105.5 10.5q63 0 102 -10t60 -38t29 -79t8 -132q0 -80 -8 -131t-29.5 -79t-60.5 -38.5t-101 -10.5zM148 59h201q30 0 40 5t10 20v357h-201q-30 0 -40 -5t-10 -20v-357zM576 -9
q-52 0 -85.5 11.5t-52 40t-26 79t-7.5 128.5q0 102 16 158t58 78.5t118 22.5t118.5 -12.5t58.5 -44t16 -89.5q0 -53 -9.5 -85t-40.5 -47.5t-93 -20.5t-167 -5h-30v58h181q51 0 69 13t18 49v114h-153q-50 0 -67.5 -12.5t-17.5 -49.5v-308q25 -6 51.5 -9.5t62.5 -3.5
q39 0 77 5.5t95 18.5l11 -60q-36 -13 -90.5 -21t-110.5 -8z" />
    <glyph glyph-name="Racute" unicode="&#x154;" horiz-adv-x="571" 
d="M178 229v-229h-80v625h242q62 0 97 -19t50 -64.5t15 -123.5q0 -102 -33.5 -145.5t-113.5 -43.5h-177zM178 295h165q43 0 59 9t16 33v180q0 24 -16 33t-59 9h-165v-264zM408 257l125 -257h-87l-121 256zM237 694l-19 30l145 104q5 4 7 4q3 0 7 -4l39 -49q6 -7 6 -11
t-6 -10l-25 -19q-4 -4 -8 -6t-13 -4z" />
    <glyph glyph-name="racute" unicode="&#x155;" horiz-adv-x="327" 
d="M134 500l31 -82q49 43 80 65t55 32l10 -79q-22 -7 -46 -18t-46 -24t-40 -27v-367h-80v500h36zM137 569l-19 30l145 104q5 4 7 4q3 0 7 -4l39 -49q6 -7 6 -11t-6 -10l-25 -19q-4 -4 -8 -6t-13 -4z" />
    <glyph glyph-name="uni0156" unicode="&#x156;" horiz-adv-x="571" 
d="M178 229v-229h-80v625h242q62 0 97 -19t50 -64.5t15 -123.5q0 -102 -33.5 -145.5t-113.5 -43.5h-177zM178 295h165q43 0 59 9t16 33v180q0 24 -16 33t-59 9h-165v-264zM408 257l125 -257h-87l-121 256zM288 -277l-37 11l21 97q-25 3 -37 16.5t-12 49.5q0 35 15 49t48 14
q32 0 47.5 -14t15.5 -49q0 -39 -9 -61.5t-23 -52.5z" />
    <glyph glyph-name="uni0157" unicode="&#x157;" horiz-adv-x="327" 
d="M134 500l31 -82q49 43 80 65t55 32l10 -79q-22 -7 -46 -18t-46 -24t-40 -27v-367h-80v500h36zM140 -277l-37 11l21 97q-25 3 -37 16.5t-12 49.5q0 35 15 49t48 14q32 0 47.5 -14t15.5 -49q0 -39 -9 -61.5t-23 -52.5z" />
    <glyph glyph-name="Rcaron" unicode="&#x158;" horiz-adv-x="571" 
d="M178 229v-229h-80v625h242q62 0 97 -19t50 -64.5t15 -123.5q0 -102 -33.5 -145.5t-113.5 -43.5h-177zM178 295h165q43 0 59 9t16 33v180q0 24 -16 33t-59 9h-165v-264zM408 257l125 -257h-87l-121 256zM216 834l81 -63l81 63l32 -32l-98 -112q-4 -5 -9 -5h-12q-5 0 -9 5
l-98 112z" />
    <glyph glyph-name="rcaron" unicode="&#x159;" horiz-adv-x="327" 
d="M134 500l31 -82q49 43 80 65t55 32l10 -79q-22 -7 -46 -18t-46 -24t-40 -27v-367h-80v500h36zM117 709l81 -63l81 63l32 -32l-98 -112q-4 -5 -9 -5h-12q-5 0 -9 5l-98 112z" />
    <glyph glyph-name="Sacute" unicode="&#x15a;" horiz-adv-x="508" 
d="M63 72q37 -9 91.5 -15t102.5 -6q25 0 51 1t69 5v212l-96 7q-69 5 -112.5 14.5t-68 28.5t-33.5 51t-9 81q0 69 17.5 110.5t57 60t103.5 18.5q50 0 97.5 -4t98.5 -13l-11 -63q-42 8 -86.5 11t-100.5 3q-29 0 -47.5 -1t-40.5 -4v-214l119 -7q78 -5 121 -22t60.5 -55.5
t17.5 -106.5t-20.5 -107t-69.5 -55.5t-133 -16.5q-50 0 -95.5 5t-95.5 17zM193 694l-19 30l145 104q5 4 7 4q3 0 7 -4l39 -49q6 -7 6 -11t-6 -10l-25 -19q-4 -4 -8 -6t-13 -4z" />
    <glyph glyph-name="sacute" unicode="&#x15b;" horiz-adv-x="473" 
d="M61 370q0 75 44.5 110t137.5 35q43 0 80.5 -5.5t75.5 -16.5l-12 -60q-25 7 -59.5 12t-63.5 5q-34 0 -64.5 -2.5t-55.5 -6.5v-135q90 -12 145.5 -25t84.5 -30.5t39.5 -44t10.5 -68.5q0 -55 -19.5 -89t-63.5 -49t-118 -15q-42 0 -84.5 7t-89.5 21l14 67q78 -30 165 -30
q33 0 57 3t56 12v134q-96 15 -152 27t-84 29t-36 44t-8 71zM184 569l-19 30l145 104q5 4 7 4q3 0 7 -4l39 -49q6 -7 6 -11t-6 -10l-25 -19q-4 -4 -8 -6t-13 -4z" />
    <glyph glyph-name="Scircumflex" unicode="&#x15c;" horiz-adv-x="508" 
d="M63 72q37 -9 91.5 -15t102.5 -6q25 0 51 1t69 5v212l-96 7q-69 5 -112.5 14.5t-68 28.5t-33.5 51t-9 81q0 69 17.5 110.5t57 60t103.5 18.5q50 0 97.5 -4t98.5 -13l-11 -63q-42 8 -86.5 11t-100.5 3q-29 0 -47.5 -1t-40.5 -4v-214l119 -7q78 -5 121 -22t60.5 -55.5
t17.5 -106.5t-20.5 -107t-69.5 -55.5t-133 -16.5q-50 0 -95.5 5t-95.5 17zM172 685l-32 31l98 112q5 6 9 6h12q4 0 9 -6l98 -112l-32 -31l-81 62z" />
    <glyph glyph-name="scircumflex" unicode="&#x15d;" horiz-adv-x="473" 
d="M61 370q0 75 44.5 110t137.5 35q43 0 80.5 -5.5t75.5 -16.5l-12 -60q-25 7 -59.5 12t-63.5 5q-34 0 -64.5 -2.5t-55.5 -6.5v-135q90 -12 145.5 -25t84.5 -30.5t39.5 -44t10.5 -68.5q0 -55 -19.5 -89t-63.5 -49t-118 -15q-42 0 -84.5 7t-89.5 21l14 67q78 -30 165 -30
q33 0 57 3t56 12v134q-96 15 -152 27t-84 29t-36 44t-8 71zM163 560l-32 31l98 112q5 6 9 6h12q4 0 9 -6l98 -112l-32 -31l-81 62z" />
    <glyph glyph-name="Scedilla" unicode="&#x15e;" horiz-adv-x="508" 
d="M63 72q37 -9 91.5 -15t102.5 -6q25 0 51 1t69 5v212l-96 7q-69 5 -112.5 14.5t-68 28.5t-33.5 51t-9 81q0 69 17.5 110.5t57 60t103.5 18.5q50 0 97.5 -4t98.5 -13l-11 -63q-42 8 -86.5 11t-100.5 3q-29 0 -47.5 -1t-40.5 -4v-214l119 -7q78 -5 121 -22t60.5 -55.5
t17.5 -106.5t-20.5 -107t-69.5 -55.5t-133 -16.5q-50 0 -95.5 5t-95.5 17zM213 -171q-27 0 -61 16l7 41h37q24 0 33.5 7t9.5 23v105h12q24 -15 39.5 -46t15.5 -68q0 -36 -25.5 -57t-67.5 -21z" />
    <glyph glyph-name="scedilla" unicode="&#x15f;" horiz-adv-x="473" 
d="M61 370q0 75 44.5 110t137.5 35q43 0 80.5 -5.5t75.5 -16.5l-12 -60q-25 7 -59.5 12t-63.5 5q-34 0 -64.5 -2.5t-55.5 -6.5v-135q90 -12 145.5 -25t84.5 -30.5t39.5 -44t10.5 -68.5q0 -55 -19.5 -89t-63.5 -49t-118 -15q-42 0 -84.5 7t-89.5 21l14 67q78 -30 165 -30
q33 0 57 3t56 12v134q-96 15 -152 27t-84 29t-36 44t-8 71zM197 -171q-27 0 -61 16l7 41h37q24 0 33.5 7t9.5 23v105h12q24 -15 39.5 -46t15.5 -68q0 -36 -25.5 -57t-67.5 -21z" />
    <glyph glyph-name="Scaron" unicode="&#x160;" horiz-adv-x="508" 
d="M63 72q37 -9 91.5 -15t102.5 -6q25 0 51 1t69 5v212l-96 7q-69 5 -112.5 14.5t-68 28.5t-33.5 51t-9 81q0 69 17.5 110.5t57 60t103.5 18.5q50 0 97.5 -4t98.5 -13l-11 -63q-42 8 -86.5 11t-100.5 3q-29 0 -47.5 -1t-40.5 -4v-214l119 -7q78 -5 121 -22t60.5 -55.5
t17.5 -106.5t-20.5 -107t-69.5 -55.5t-133 -16.5q-50 0 -95.5 5t-95.5 17zM172 834l81 -63l81 63l32 -32l-98 -112q-4 -5 -9 -5h-12q-5 0 -9 5l-98 112z" />
    <glyph glyph-name="scaron" unicode="&#x161;" horiz-adv-x="473" 
d="M61 370q0 75 44.5 110t137.5 35q43 0 80.5 -5.5t75.5 -16.5l-12 -60q-25 7 -59.5 12t-63.5 5q-34 0 -64.5 -2.5t-55.5 -6.5v-135q90 -12 145.5 -25t84.5 -30.5t39.5 -44t10.5 -68.5q0 -55 -19.5 -89t-63.5 -49t-118 -15q-42 0 -84.5 7t-89.5 21l14 67q78 -30 165 -30
q33 0 57 3t56 12v134q-96 15 -152 27t-84 29t-36 44t-8 71zM163 709l81 -63l81 63l32 -32l-98 -112q-4 -5 -9 -5h-12q-5 0 -9 5l-98 112z" />
    <glyph glyph-name="uni0162" unicode="&#x162;" horiz-adv-x="454" 
d="M267 559v-559h-80v559h-170v66h420v-66h-170zM187 -171q-27 0 -61 16l7 41h37q24 0 33.5 7t9.5 23v105h12q24 -15 39.5 -46t15.5 -68q0 -36 -25.5 -57t-67.5 -21z" />
    <glyph glyph-name="uni0163" unicode="&#x163;" horiz-adv-x="352" 
d="M193 -9q-31 0 -47 17t-16 51v553l80 21v-573q13 -1 29.5 -2t44.5 -2l-6 -55q-29 -5 -50 -7.5t-35 -2.5zM56 443v57h247v-57h-247zM136 -171q-27 0 -61 16l7 41h37q24 0 33.5 7t9.5 23v105h12q24 -15 39.5 -46t15.5 -68q0 -36 -25.5 -57t-67.5 -21z" />
    <glyph glyph-name="Tcaron" unicode="&#x164;" horiz-adv-x="454" 
d="M267 559v-559h-80v559h-170v66h420v-66h-170zM146 834l81 -63l81 63l32 -32l-98 -112q-4 -5 -9 -5h-12q-5 0 -9 5l-98 112z" />
    <glyph glyph-name="tcaron" unicode="&#x165;" horiz-adv-x="409" 
d="M193 -9q-31 0 -47 17t-16 51v553l80 21v-573q13 -1 29.5 -2t44.5 -2l-6 -55q-29 -5 -50 -7.5t-35 -2.5zM56 443v57h247v-57h-247zM364 463l-37 11l21 97q-24 3 -36.5 16.5t-12.5 49.5q0 35 15 49t48 14t48 -14t15 -49q0 -39 -9 -61.5t-23 -52.5z" />
    <glyph glyph-name="Tbar" unicode="&#x166;" horiz-adv-x="454" 
d="M267 559v-559h-80v559h-170v66h420v-66h-170zM103 299q0 24 7 31t30 7h212v-18q0 -24 -6.5 -31t-31.5 -7h-211v18z" />
    <glyph glyph-name="tbar" unicode="&#x167;" horiz-adv-x="352" 
d="M193 -9q-31 0 -47 17t-16 51v553l80 21v-573q13 -1 29.5 -2t44.5 -2l-6 -55q-29 -5 -50 -7.5t-35 -2.5zM56 443v57h247v-57h-247zM46 251q0 24 7 31t30 7h212v-18q0 -24 -6.5 -31t-31.5 -7h-211v18z" />
    <glyph glyph-name="Utilde" unicode="&#x168;" horiz-adv-x="639" 
d="M319 -15q-71 0 -116 8.5t-70 29.5t-35 59t-10 98v445h80v-572h157q60 0 91 4.5t43 16t12 32.5v519h80v-445q0 -60 -10 -98t-35 -59t-70.5 -29.5t-116.5 -8.5zM344 693q-9 0 -16.5 3t-19.5 12t-34 28l-62 -32l-25 41q33 26 54 39.5t34 19t23 5.5q8 0 15 -3t19 -11.5
t36 -28.5l62 32l25 -41q-28 -23 -49 -37t-36 -20.5t-26 -6.5z" />
    <glyph glyph-name="utilde" unicode="&#x169;" horiz-adv-x="572" 
d="M474 500v-500h-35l-23 50q-38 -30 -85 -44.5t-109 -14.5q-67 0 -98 24t-31 73v412h80v-444h127q56 0 75 13.5t19 50.5v380h80zM309 568q-9 0 -16.5 3t-19.5 12t-34 28l-62 -32l-25 41q33 26 54 39.5t34 19t23 5.5q8 0 15 -3t19 -11.5t36 -28.5l62 32l25 -41
q-28 -23 -49 -37t-36 -20.5t-26 -6.5z" />
    <glyph glyph-name="Umacron" unicode="&#x16a;" horiz-adv-x="639" 
d="M319 -15q-71 0 -116 8.5t-70 29.5t-35 59t-10 98v445h80v-572h157q60 0 91 4.5t43 16t12 32.5v519h80v-445q0 -60 -10 -98t-35 -59t-70.5 -29.5t-116.5 -8.5zM248 714q-30 0 -36.5 10.5t-6.5 32.5v29h189q30 0 36 -9t6 -32v-31h-188z" />
    <glyph glyph-name="umacron" unicode="&#x16b;" horiz-adv-x="572" 
d="M474 500v-500h-35l-23 50q-38 -30 -85 -44.5t-109 -14.5q-67 0 -98 24t-31 73v412h80v-444h127q56 0 75 13.5t19 50.5v380h80zM213 589q-30 0 -36.5 10.5t-6.5 32.5v29h189q30 0 36 -9t6 -32v-31h-188z" />
    <glyph glyph-name="Ubreve" unicode="&#x16c;" horiz-adv-x="639" 
d="M319 -15q-71 0 -116 8.5t-70 29.5t-35 59t-10 98v445h80v-572h157q60 0 91 4.5t43 16t12 32.5v519h80v-445q0 -60 -10 -98t-35 -59t-70.5 -29.5t-116.5 -8.5zM321 695q-40 0 -69.5 22.5t-41.5 79.5l59 11q5 -23 20.5 -35t31.5 -12t31.5 12t20.5 35l59 -11
q-13 -52 -42.5 -77t-68.5 -25z" />
    <glyph glyph-name="ubreve" unicode="&#x16d;" horiz-adv-x="572" 
d="M474 500v-500h-35l-23 50q-38 -30 -85 -44.5t-109 -14.5q-67 0 -98 24t-31 73v412h80v-444h127q56 0 75 13.5t19 50.5v380h80zM286 570q-40 0 -69.5 22.5t-41.5 79.5l59 11q5 -23 20.5 -35t31.5 -12t31.5 12t20.5 35l59 -11q-13 -52 -42.5 -77t-68.5 -25z" />
    <glyph glyph-name="Uring" unicode="&#x16e;" horiz-adv-x="639" 
d="M319 -15q-71 0 -116 8.5t-70 29.5t-35 59t-10 98v445h80v-572h157q60 0 91 4.5t43 16t12 32.5v519h80v-445q0 -60 -10 -98t-35 -59t-70.5 -29.5t-116.5 -8.5zM321 666q-51 0 -73.5 24.5t-22.5 71.5t22.5 70.5t73.5 23.5t73 -23.5t22 -70.5t-22 -71.5t-73 -24.5zM277 714
h44q19 0 30.5 3.5t11.5 22.5v69h-41q-20 0 -32.5 -3.5t-12.5 -21.5v-70z" />
    <glyph glyph-name="uring" unicode="&#x16f;" horiz-adv-x="572" 
d="M474 500v-500h-35l-23 50q-38 -30 -85 -44.5t-109 -14.5q-67 0 -98 24t-31 73v412h80v-444h127q56 0 75 13.5t19 50.5v380h80zM286 541q-51 0 -73.5 24.5t-22.5 71.5t22.5 70.5t73.5 23.5t73 -23.5t22 -70.5t-22 -71.5t-73 -24.5zM242 589h44q19 0 30.5 3.5t11.5 22.5v69
h-41q-20 0 -32.5 -3.5t-12.5 -21.5v-70z" />
    <glyph glyph-name="Uhungarumlaut" unicode="&#x170;" horiz-adv-x="639" 
d="M319 -15q-71 0 -116 8.5t-70 29.5t-35 59t-10 98v445h80v-572h157q60 0 91 4.5t43 16t12 32.5v519h80v-445q0 -60 -10 -98t-35 -59t-70.5 -29.5t-116.5 -8.5zM371 702l-18 29l132 98q3 2 6 2h2.5t3.5 -4l40 -50l4 -4t2 -5v-2t-3 -4l-28 -23q-4 -3 -7.5 -4.5t-12.5 -3.5z
M158 702l-18 29l132 98q3 2 6 2h2.5t3.5 -4l40 -50l4 -4t2 -5v-2t-3 -4l-28 -23q-4 -3 -7.5 -4.5t-12.5 -3.5z" />
    <glyph glyph-name="uhungarumlaut" unicode="&#x171;" horiz-adv-x="572" 
d="M474 500v-500h-35l-23 50q-38 -30 -85 -44.5t-109 -14.5q-67 0 -98 24t-31 73v412h80v-444h127q56 0 75 13.5t19 50.5v380h80zM337 577l-18 29l132 98q3 2 6 2h2.5t3.5 -4l40 -50l4 -4t2 -5v-2t-3 -4l-28 -23q-4 -3 -7.5 -4.5t-12.5 -3.5zM124 577l-18 29l132 98q3 2 6 2
h2.5t3.5 -4l40 -50l4 -4t2 -5v-2t-3 -4l-28 -23q-4 -3 -7.5 -4.5t-12.5 -3.5z" />
    <glyph glyph-name="Uogonek" unicode="&#x172;" horiz-adv-x="639" 
d="M319 -15q-71 0 -116 8.5t-70 29.5t-35 59t-10 98v445h80v-572h157q60 0 91 4.5t43 16t12 32.5v519h80v-445q0 -60 -10 -98t-35 -59t-70.5 -29.5t-116.5 -8.5zM321 -181q-42 0 -66 24t-24 65q0 39 37 68t90 35l10 -21l-22 -5q-29 -7 -37.5 -17t-8.5 -33v-25q0 -16 7.5 -25
t21.5 -9h56l7 -41q-17 -7 -35 -11.5t-36 -4.5z" />
    <glyph glyph-name="uogonek" unicode="&#x173;" horiz-adv-x="572" 
d="M474 500v-500h-35l-23 50q-38 -30 -85 -44.5t-109 -14.5q-67 0 -98 24t-31 73v412h80v-444h127q56 0 75 13.5t19 50.5v380h80zM426 -171q-42 0 -66 24t-24 65q0 39 37 68t90 35l10 -21l-22 -5q-29 -7 -37.5 -17t-8.5 -33v-25q0 -16 7.5 -25t21.5 -9h56l7 -41
q-17 -7 -35 -11.5t-36 -4.5z" />
    <glyph glyph-name="Wcircumflex" unicode="&#x174;" horiz-adv-x="777" 
d="M25 625h80l93 -553h9l139 553h71l-155 -625h-127zM752 625l-110 -625h-127l-155 625h70l140 -553h9l93 553h80zM307 685l-32 31l98 112q5 6 9 6h12q4 0 9 -6l98 -112l-32 -31l-81 62z" />
    <glyph glyph-name="wcircumflex" unicode="&#x175;" horiz-adv-x="683" 
d="M434 0l-122 500h68l102 -433h10l104 433h80l-129 -500h-113zM135 0l-128 500h79l105 -433h10l102 433h67l-122 -500h-113zM260 560l-32 31l98 112q5 6 9 6h12q4 0 9 -6l98 -112l-32 -31l-81 62z" />
    <glyph glyph-name="Ycircumflex" unicode="&#x176;" horiz-adv-x="472" 
d="M222 270l156 355h83l-185 -407v-218h-80v218l-185 407h83l156 -355h-28zM155 685l-32 31l98 112q5 6 9 6h12q4 0 9 -6l98 -112l-32 -31l-81 62z" />
    <glyph glyph-name="ycircumflex" unicode="&#x177;" horiz-adv-x="435" 
d="M156 26l-149 474h79l127 -407h10l126 407h80l-150 -474h-123zM83 -174q-19 0 -41 3t-39 7l3 43l59 8q39 5 62 15t37 31t26 59l10 34h79q-24 -75 -50.5 -119t-61 -62.5t-84.5 -18.5zM137 560l-32 31l98 112q5 6 9 6h12q4 0 9 -6l98 -112l-32 -31l-81 62z" />
    <glyph glyph-name="Ydieresis" unicode="&#x178;" horiz-adv-x="472" 
d="M222 270l156 355h83l-185 -407v-218h-80v218l-185 407h83l156 -355h-28zM325 705q-29 0 -37.5 11.5t-8.5 39.5q0 30 8.5 41.5t37.5 11.5t36.5 -11.5t7.5 -41.5q0 -28 -7.5 -39.5t-36.5 -11.5zM148 705q-30 0 -38 11.5t-8 39.5q0 30 8 41.5t38 11.5q28 0 35.5 -11.5
t7.5 -41.5q0 -28 -7.5 -39.5t-35.5 -11.5z" />
    <glyph glyph-name="Zacute" unicode="&#x179;" horiz-adv-x="536" 
d="M37 0v54l359 499l-3 6h-305l-10 66h422v-54l-360 -499l3 -6h337v-66h-443zM244 694l-19 30l145 104q5 4 7 4q3 0 7 -4l39 -49q6 -7 6 -11t-6 -10l-25 -19q-4 -4 -8 -6t-13 -4z" />
    <glyph glyph-name="zacute" unicode="&#x17a;" horiz-adv-x="462" 
d="M324 436l-5 6h-250l-7 58h360v-44l-283 -392l3 -6h273v-58h-374v44zM193 569l-19 30l145 104q5 4 7 4q3 0 7 -4l39 -49q6 -7 6 -11t-6 -10l-25 -19q-4 -4 -8 -6t-13 -4z" />
    <glyph glyph-name="Zdotaccent" unicode="&#x17b;" horiz-adv-x="536" 
d="M37 0v54l359 499l-3 6h-305l-10 66h422v-54l-360 -499l3 -6h337v-66h-443zM306 721q-32 0 -42.5 10.5t-10.5 40.5q0 31 11 42t42 11q30 0 40.5 -11t10.5 -42q0 -30 -10 -40.5t-41 -10.5z" />
    <glyph glyph-name="zdotaccent" unicode="&#x17c;" horiz-adv-x="462" 
d="M324 436l-5 6h-250l-7 58h360v-44l-283 -392l3 -6h273v-58h-374v44zM255 596q-32 0 -42.5 10.5t-10.5 40.5q0 31 11 42t42 11q30 0 40.5 -11t10.5 -42q0 -30 -10 -40.5t-41 -10.5z" />
    <glyph glyph-name="Zcaron" unicode="&#x17d;" horiz-adv-x="536" 
d="M37 0v54l359 499l-3 6h-305l-10 66h422v-54l-360 -499l3 -6h337v-66h-443zM223 834l81 -63l81 63l32 -32l-98 -112q-4 -5 -9 -5h-12q-5 0 -9 5l-98 112z" />
    <glyph glyph-name="zcaron" unicode="&#x17e;" horiz-adv-x="462" 
d="M324 436l-5 6h-250l-7 58h360v-44l-283 -392l3 -6h273v-58h-374v44zM173 709l81 -63l81 63l32 -32l-98 -112q-4 -5 -9 -5h-12q-5 0 -9 5l-98 112z" />
    <glyph glyph-name="florin" unicode="&#x192;" horiz-adv-x="407" 
d="M59 -174q-14 0 -32 3t-33 7l9 45q41 1 62 5t28.5 17t9.5 38l40 452q8 91 29.5 145t63.5 78t109 24q17 0 49.5 -4.5t56.5 -15.5l-17 -67q-21 8 -51 13t-55 5q-50 0 -70.5 -22t-27.5 -84l-44 -519q-6 -64 -36 -92t-91 -28zM64 292v47h298l-4 -47h-294z" />
    <glyph glyph-name="Aringacute" unicode="&#x1fa;" horiz-adv-x="533" 
d="M17 0l190 625h119l190 -625h-80l-165 553h-9l-165 -553h-80zM104 148v66h327v-66h-327zM267 666q-51 0 -73.5 24.5t-22.5 71.5t22.5 70.5t73.5 23.5t73 -23.5t22 -70.5t-22 -71.5t-73 -24.5zM223 714h44q19 0 30.5 3.5t11.5 22.5v69h-41q-20 0 -32.5 -3.5t-12.5 -21.5
v-70zM206 905l-19 30l145 104q5 4 7 4q3 0 7 -4l39 -49q6 -7 6 -11t-6 -10l-25 -19q-4 -4 -8 -6t-13 -4z" />
    <glyph glyph-name="aringacute" unicode="&#x1fb;" horiz-adv-x="541" 
d="M210 -9q-81 0 -115 33t-34 113q0 53 9.5 85t38.5 47.5t88 20.5t159 5h42v-58h-181q-49 0 -66.5 -12.5t-17.5 -49.5v-119h153q48 0 65 13t17 49v313q-42 13 -111 13q-38 0 -79.5 -6t-84.5 -18l-10 60q22 8 54 15t68 10.5t68 3.5q66 0 104 -12.5t54.5 -41.5t16.5 -79v-376
h-35l-23 50q-35 -31 -79 -45t-101 -14zM273 541q-51 0 -73.5 24.5t-22.5 71.5t22.5 70.5t73.5 23.5t73 -23.5t22 -70.5t-22 -71.5t-73 -24.5zM229 589h44q19 0 30.5 3.5t11.5 22.5v69h-41q-20 0 -32.5 -3.5t-12.5 -21.5v-70zM213 780l-19 30l145 104q5 4 7 4q3 0 7 -4
l39 -49q6 -7 6 -11t-6 -10l-25 -19q-4 -4 -8 -6t-13 -4z" />
    <glyph glyph-name="AEacute" unicode="&#x1fc;" horiz-adv-x="742" 
d="M17 0l162 625h459l-13 -76h-262l53 -204h180v-73h-160l50 -196h202v-76h-267l-36 144h-248l-35 -144h-85zM156 221h210l-81 332h-47zM310 694l-19 30l145 104q5 4 7 4q3 0 7 -4l39 -49q6 -7 6 -11t-6 -10l-25 -19q-4 -4 -8 -6t-13 -4z" />
    <glyph glyph-name="aeacute" unicode="&#x1fd;" horiz-adv-x="835" 
d="M210 -9q-81 0 -115 33t-34 113q0 53 9.5 85t38.5 47.5t88 20.5t159 5h42v-58h-181q-49 0 -66.5 -12.5t-17.5 -49.5v-119h153q48 0 65 13t17 49v313q-42 13 -111 13q-38 0 -79.5 -6t-84.5 -18l-10 60q22 8 54 15t68 10.5t68 3.5q66 0 104.5 -12.5t55 -41.5t16.5 -79v-326
l-49 8q-37 -34 -83 -50.5t-107 -16.5zM546 -9q-75 0 -111 19.5t-52 67.5l17 368q21 34 60 48.5t106 14.5q77 0 119 -12.5t58.5 -44t16.5 -89.5q0 -53 -10 -85t-41 -47.5t-93 -20.5t-167 -5h-30v58h181q52 0 69.5 13t17.5 49v114h-152q-50 0 -68 -12.5t-18 -49.5v-308
q25 -6 52 -9.5t62 -3.5q39 0 77.5 5.5t95.5 18.5l11 -60q-37 -13 -91 -21t-110 -8zM358 569l-19 30l145 104q5 4 7 4q3 0 7 -4l39 -49q6 -7 6 -11t-6 -10l-25 -19q-4 -4 -8 -6t-13 -4z" />
    <glyph glyph-name="Oslashacute" unicode="&#x1fe;" horiz-adv-x="631" 
d="M184 -47q-7 -17 -16.5 -22.5t-26.5 -5.5h-27l334 748q8 17 17 22.5t26 5.5h27zM72 312q0 104 9.5 168.5t35 99t73.5 47.5t126 13q77 0 125 -13t73.5 -48t35 -99t9.5 -168t-9.5 -168t-35 -98.5t-73.5 -47.5t-125 -13q-78 0 -126 13t-73.5 47.5t-35 98.5t-9.5 168zM157 53
h230q48 0 67.5 17t19.5 60v442h-230q-49 0 -68 -17t-19 -60v-442zM255 694l-19 30l145 104q5 4 7 4q3 0 7 -4l39 -49q6 -7 6 -11t-6 -10l-25 -19q-4 -4 -8 -6t-13 -4z" />
    <glyph glyph-name="oslashacute" unicode="&#x1ff;" horiz-adv-x="547" 
d="M274 -9q-65 0 -105.5 10.5t-63 38.5t-31 79t-8.5 131t8.5 131t31 79t63 38.5t105.5 10.5t106 -10.5t63 -38.5t30 -78.5t8 -131.5q0 -80 -8.5 -131t-30.5 -79t-63 -38.5t-105 -10.5zM148 59h201q30 0 40 5t10 20v357h-201q-30 0 -40 -5t-10 -20v-357zM142 -78
q-7 -15 -16.5 -20t-26.5 -5h-27l334 680q8 15 17 20t26 5h27zM213 569l-19 30l145 104q5 4 7 4q3 0 7 -4l39 -49q6 -7 6 -11t-6 -10l-25 -19q-4 -4 -8 -6t-13 -4z" />
    <glyph glyph-name="uni0218" unicode="&#x218;" horiz-adv-x="508" 
d="M63 72q37 -9 91.5 -15t102.5 -6q25 0 51 1t69 5v212l-96 7q-69 5 -112.5 14.5t-68 28.5t-33.5 51t-9 81q0 69 17.5 110.5t57 60t103.5 18.5q50 0 97.5 -4t98.5 -13l-11 -63q-42 8 -86.5 11t-100.5 3q-29 0 -47.5 -1t-40.5 -4v-214l119 -7q78 -5 121 -22t60.5 -55.5
t17.5 -106.5t-20.5 -107t-69.5 -55.5t-133 -16.5q-50 0 -95.5 5t-95.5 17zM255 -277l-37 11l21 97q-25 3 -37 16.5t-12 49.5q0 35 15 49t48 14q32 0 47.5 -14t15.5 -49q0 -39 -9 -61.5t-23 -52.5z" />
    <glyph glyph-name="uni0219" unicode="&#x219;" horiz-adv-x="473" 
d="M61 370q0 75 44.5 110t137.5 35q43 0 80.5 -5.5t75.5 -16.5l-12 -60q-25 7 -59.5 12t-63.5 5q-34 0 -64.5 -2.5t-55.5 -6.5v-135q90 -12 145.5 -25t84.5 -30.5t39.5 -44t10.5 -68.5q0 -55 -19.5 -89t-63.5 -49t-118 -15q-42 0 -84.5 7t-89.5 21l14 67q78 -30 165 -30
q33 0 57 3t56 12v134q-96 15 -152 27t-84 29t-36 44t-8 71zM239 -277l-37 11l21 97q-25 3 -37 16.5t-12 49.5q0 35 15 49t48 14q32 0 47.5 -14t15.5 -49q0 -39 -9 -61.5t-23 -52.5z" />
    <glyph glyph-name="uni021A" unicode="&#x21a;" horiz-adv-x="454" 
d="M267 559v-559h-80v559h-170v66h420v-66h-170zM229 -277l-37 11l21 97q-25 3 -37 16.5t-12 49.5q0 35 15 49t48 14q32 0 47.5 -14t15.5 -49q0 -39 -9 -61.5t-23 -52.5z" />
    <glyph glyph-name="uni021B" unicode="&#x21b;" horiz-adv-x="352" 
d="M193 -9q-31 0 -47 17t-16 51v553l80 21v-573q13 -1 29.5 -2t44.5 -2l-6 -55q-29 -5 -50 -7.5t-35 -2.5zM56 443v57h247v-57h-247zM178 -277l-37 11l21 97q-25 3 -37 16.5t-12 49.5q0 35 15 49t48 14q32 0 47.5 -14t15.5 -49q0 -39 -9 -61.5t-23 -52.5z" />
    <glyph glyph-name="uni0237" unicode="&#x237;" horiz-adv-x="276" 
d="M63 -174q-17 0 -35 3t-32 7l6 45q41 0 61.5 4t27.5 17t7 39v555l80 14v-580q0 -53 -27.5 -78.5t-87.5 -25.5z" />
    <glyph glyph-name="circumflex" unicode="&#x2c6;" horiz-adv-x="600" 
d="M111 560l-32 31l98 112q5 6 9 6h12q4 0 9 -6l98 -112l-32 -31l-81 62z" />
    <glyph glyph-name="caron" unicode="&#x2c7;" horiz-adv-x="600" 
d="M111 709l81 -63l81 63l32 -32l-98 -112q-4 -5 -9 -5h-12q-5 0 -9 5l-98 112z" />
    <glyph glyph-name="breve" unicode="&#x2d8;" horiz-adv-x="600" 
d="M192 570q-40 0 -69.5 22.5t-41.5 79.5l59 11q5 -23 20.5 -35t31.5 -12t31.5 12t20.5 35l59 -11q-13 -52 -42.5 -77t-68.5 -25z" />
    <glyph glyph-name="dotaccent" unicode="&#x2d9;" horiz-adv-x="600" 
d="M132 596q-32 0 -42.5 10.5t-10.5 40.5q0 31 11 42t42 11q30 0 40.5 -11t10.5 -42q0 -30 -10 -40.5t-41 -10.5z" />
    <glyph glyph-name="ring" unicode="&#x2da;" horiz-adv-x="600" 
d="M133 541q-51 0 -73.5 24.5t-22.5 71.5t22.5 70.5t73.5 23.5t73 -23.5t22 -70.5t-22 -71.5t-73 -24.5zM89 589h44q19 0 30.5 3.5t11.5 22.5v69h-41q-20 0 -32.5 -3.5t-12.5 -21.5v-70z" />
    <glyph glyph-name="ogonek" unicode="&#x2db;" horiz-adv-x="600" 
d="M90 -171q-42 0 -66 24t-24 65q0 39 37 68t90 35l10 -21l-22 -5q-29 -7 -37.5 -17t-8.5 -33v-25q0 -16 7.5 -25t21.5 -9h56l7 -41q-17 -7 -35 -11.5t-36 -4.5z" />
    <glyph glyph-name="tilde" unicode="&#x2dc;" horiz-adv-x="600" 
d="M252 568q-9 0 -16.5 3t-19.5 12t-34 28l-62 -32l-25 41q33 26 54 39.5t34 19t23 5.5q8 0 15 -3t19 -11.5t36 -28.5l62 32l25 -41q-28 -23 -49 -37t-36 -20.5t-26 -6.5z" />
    <glyph glyph-name="hungarumlaut" unicode="&#x2dd;" horiz-adv-x="600" 
d="M273 577l-18 29l132 98q3 2 6 2h2.5t3.5 -4l40 -50l4 -4t2 -5v-2t-3 -4l-28 -23q-4 -3 -7.5 -4.5t-12.5 -3.5zM60 577l-18 29l132 98q3 2 6 2h2.5t3.5 -4l40 -50l4 -4t2 -5v-2t-3 -4l-28 -23q-4 -3 -7.5 -4.5t-12.5 -3.5z" />
    <glyph glyph-name="gravecomb" unicode="&#x300;" 
d="M265 557l-133 35q-15 4 -21 10l-25 20q-6 4 -6 9q0 3 6 11l39 49q3 4 7 4q2 0 7 -4l145 -105z" />
    <glyph glyph-name="acutecomb" unicode="&#x301;" 
d="M157 569l-19 30l145 104q5 4 7 4q3 0 7 -4l39 -49q6 -7 6 -11t-6 -10l-25 -19q-4 -4 -8 -6t-13 -4z" />
    <glyph glyph-name="uni0302" unicode="&#x302;" 
d="M111 560l-32 31l98 112q5 6 9 6h12q4 0 9 -6l98 -112l-32 -31l-81 62z" />
    <glyph glyph-name="tildecomb" unicode="&#x303;" 
d="M252 568q-9 0 -16.5 3t-19.5 12t-34 28l-62 -32l-25 41q33 26 54 39.5t34 19t23 5.5q8 0 15 -3t19 -11.5t36 -28.5l62 32l25 -41q-28 -23 -49 -37t-36 -20.5t-26 -6.5z" />
    <glyph glyph-name="uni0304" unicode="&#x304;" 
d="M127 589q-30 0 -36.5 10.5t-6.5 32.5v29h189q30 0 36 -9t6 -32v-31h-188z" />
    <glyph glyph-name="uni0306" unicode="&#x306;" 
d="M192 570q-40 0 -69.5 22.5t-41.5 79.5l59 11q5 -23 20.5 -35t31.5 -12t31.5 12t20.5 35l59 -11q-13 -52 -42.5 -77t-68.5 -25z" />
    <glyph glyph-name="uni0307" unicode="&#x307;" 
d="M132 596q-32 0 -42.5 10.5t-10.5 40.5q0 31 11 42t42 11q30 0 40.5 -11t10.5 -42q0 -30 -10 -40.5t-41 -10.5z" />
    <glyph glyph-name="uni0308" unicode="&#x308;" 
d="M278 580q-29 0 -37.5 11.5t-8.5 39.5q0 30 8.5 41.5t37.5 11.5t36.5 -11.5t7.5 -41.5q0 -28 -7.5 -39.5t-36.5 -11.5zM101 580q-30 0 -38 11.5t-8 39.5q0 30 8 41.5t38 11.5q28 0 35.5 -11.5t7.5 -41.5q0 -28 -7.5 -39.5t-35.5 -11.5z" />
    <glyph glyph-name="uni030A" unicode="&#x30a;" 
d="M133 541q-51 0 -73.5 24.5t-22.5 71.5t22.5 70.5t73.5 23.5t73 -23.5t22 -70.5t-22 -71.5t-73 -24.5zM89 589h44q19 0 30.5 3.5t11.5 22.5v69h-41q-20 0 -32.5 -3.5t-12.5 -21.5v-70z" />
    <glyph glyph-name="uni030B" unicode="&#x30b;" 
d="M273 577l-18 29l132 98q3 2 6 2h2.5t3.5 -4l40 -50l4 -4t2 -5v-2t-3 -4l-28 -23q-4 -3 -7.5 -4.5t-12.5 -3.5zM60 577l-18 29l132 98q3 2 6 2h2.5t3.5 -4l40 -50l4 -4t2 -5v-2t-3 -4l-28 -23q-4 -3 -7.5 -4.5t-12.5 -3.5z" />
    <glyph glyph-name="uni030C" unicode="&#x30c;" 
d="M111 709l81 -63l81 63l32 -32l-98 -112q-4 -5 -9 -5h-12q-5 0 -9 5l-98 112z" />
    <glyph glyph-name="uni0312" unicode="&#x312;" 
d="M131 815l37 -12l-21 -96q24 -3 36.5 -16.5t12.5 -49.5q0 -35 -15 -49t-48 -14t-48 14t-15 49q0 39 9 61.5t23 52.5z" />
    <glyph glyph-name="uni0326" unicode="&#x326;" 
d="M86 -277l-37 11l21 97q-25 3 -37 16.5t-12 49.5q0 35 15 49t48 14q32 0 47.5 -14t15.5 -49q0 -39 -9 -61.5t-23 -52.5z" />
    <glyph glyph-name="uni0327" unicode="&#x327;" 
d="M57 -171q-27 0 -61 16l7 41h37q24 0 33.5 7t9.5 23v105h12q24 -15 39.5 -46t15.5 -68q0 -36 -25.5 -57t-67.5 -21z" />
    <glyph glyph-name="uni0328" unicode="&#x328;" 
d="M90 -171q-42 0 -66 24t-24 65q0 39 37 68t90 35l10 -21l-22 -5q-29 -7 -37.5 -17t-8.5 -33v-25q0 -16 7.5 -25t21.5 -9h56l7 -41q-17 -7 -35 -11.5t-36 -4.5z" />
    <glyph glyph-name="uni0335" unicode="&#x335;" 
d="M33 266q0 24 7 31t30 7h212v-18q0 -24 -6.5 -31t-31.5 -7h-211v18z" />
    <glyph glyph-name="uni0336" unicode="&#x336;" 
d="M33 267q0 24 7 31.5t30 7.5h528v-22q0 -24 -6.5 -30.5t-31.5 -6.5h-527v20z" />
    <glyph glyph-name="uni0337" unicode="&#x337;" 
d="M13 271l-8 24q-5 18 -5 26q0 14 15 19l207 69l8 -24q5 -18 5 -27q0 -13 -15 -19z" />
    <glyph glyph-name="uni0338" unicode="&#x338;" 
d="M70 -15q-7 -15 -16.5 -20t-26.5 -5h-27l334 680q8 15 17 20t26 5h27z" />
    <glyph glyph-name="uni0394" unicode="&#x394;" horiz-adv-x="658" 
d="M379 625l227 -573l-19 -52h-515l-19 52l227 573h99zM467 66q29 0 29 23v6.5t-2 7.5l-165 425h-17l-180 -462h335z" />
    <glyph glyph-name="uni03A9" unicode="&#x3a9;" horiz-adv-x="654" 
d="M148 579v-307q0 -44 12.5 -64t33 -25t47.5 -5l-15 -178h-178v51l127 8l7 77q-37 8 -60 21.5t-36 39.5t-18 69t-5 109q0 85 11 137t39.5 80t80.5 38t133 10q82 0 133.5 -10t80 -38t39.5 -80t11 -137q0 -66 -5 -109t-18 -69t-36 -39.5t-60 -21.5l7 -77l127 -8v-51h-178
l-15 178h93v335q0 31 -10.5 45t-27.5 17.5t-39 3.5h-281z" />
    <glyph glyph-name="pi" unicode="&#x3c0;" horiz-adv-x="609" 
d="M103 0l31 432l-47 12v56h384q5 14 6 36l63 -7q0 -44 -5 -65.5t-21 -28.5t-48 -7h-195q-23 0 -36.5 -9.5t-15.5 -28.5l-60 -390h-56zM469 -5q-32 0 -47.5 16.5t-15.5 51.5v380h80v-379q12 -1 22.5 -2.5t23.5 -2.5l-6 -54q-22 -6 -34.5 -8t-22.5 -2z" />
    <glyph glyph-name="uni060C" unicode="&#x60c;" horiz-adv-x="221" 
d="M111 210l36 -12l-17 -83q21 -4 29 -16.5t8 -42.5q0 -35 -13 -48.5t-46 -13.5q-29 0 -41.5 13.5t-12.5 48.5q0 8 2.5 19.5t8 27.5t14.5 36z" />
    <glyph glyph-name="uni0615" unicode="&#x615;" 
d="M-121 626v237h48v-122q18 28 44.5 43.5t73.5 15.5q46 0 62 -15.5t16 -56.5v-102h-48v127q-9 4 -21 6t-24 2q-53 0 -78 -32t-25 -103h-48zM-151 590v40h274v-40h-274z" />
    <glyph glyph-name="uni061B" unicode="&#x61b;" horiz-adv-x="221" 
d="M111 490l36 -12l-17 -83q21 -4 29 -16.5t8 -42.5q0 -35 -13 -48.5t-46 -13.5q-29 0 -41.5 13.5t-12.5 48.5q0 8 2.5 19.5t8 27.5t14.5 36zM54 55q0 32 11 46.5t45 14.5q35 0 46 -14.5t11 -46.5q0 -33 -11 -47t-46 -14q-34 0 -45 14t-11 47z" />
    <glyph glyph-name="uni061F" unicode="&#x61f;" horiz-adv-x="396" 
d="M252 189h-49l-5 149q-61 22 -97 38.5t-53.5 33.5t-23 40t-5.5 57q0 49 18 78t59.5 42t109.5 13q36 0 76 -6t82 -20l-10 -54q-52 11 -93 15.5t-65 4.5t-48.5 -1.5t-45.5 -4.5v-132l95 -34q39 -14 52.5 -22t12.5 -20zM284 56q0 -33 -10.5 -47.5t-46.5 -14.5
q-35 0 -46.5 14.5t-11.5 47.5q0 32 11.5 47.5t46.5 15.5q36 0 46.5 -15.5t10.5 -47.5z" />
    <glyph glyph-name="uni0621" unicode="&#x621;" horiz-adv-x="416" 
d="M246 156l152 40v-68l-378 -102v68l101 28q-29 46 -29 137q0 124 62.5 179t204.5 55v-72q-55 0 -107.5 -11t-89.5 -32v-173q0 -43 17.5 -52.5t66.5 3.5z" />
    <glyph glyph-name="uni0622" unicode="&#x622;" horiz-adv-x="276" 
d="M106 0v470h64v-470h-64zM155 613q-11 0 -20.5 7t-36.5 32l-57 -26l-12 25q28 20 44 30t26.5 14t18.5 4q9 0 18 -7t38 -34l57 26l12 -25q-23 -16 -39.5 -26.5t-28 -15t-20.5 -4.5z" />
    <glyph glyph-name="uni0623" unicode="&#x623;" horiz-adv-x="276" 
d="M106 0v470h64v-470h-64zM164 656l87 24v-41l-226 -60v40l46 13q-7 13 -10 32t-3 47q0 57 21 87t59.5 41.5t89.5 9.5v-50q-28 0 -59.5 -6t-51.5 -19l-2 -97q0 -19 11 -23.5t38 2.5z" />
    <glyph glyph-name="uni0624" unicode="&#x624;" horiz-adv-x="601" 
d="M222 0q-40 0 -65 10.5t-39.5 36t-20 72.5t-5.5 119q0 76 8 123t29.5 72.5t61 35.5t101.5 10q61 0 106.5 -6.5t96.5 -22.5v-378l-27 -72h-246zM383 72q28 0 38 11.5t10 41.5v282h-228q-25 0 -34 -11.5t-9 -46.5v-277h223zM285 -264l-38 51q36 28 69 64t59 75t41 77t15 69
h64q0 -38 -17 -84.5t-46 -93.5t-67 -88t-80 -70zM318 656l87 24v-41l-226 -60v40l46 13q-7 13 -10 32t-3 47q0 57 21 87t59.5 41.5t89.5 9.5v-50q-28 0 -59.5 -6t-51.5 -19l-2 -97q0 -19 11 -23.5t38 2.5z" />
    <glyph glyph-name="uni0625" unicode="&#x625;" horiz-adv-x="276" 
d="M106 0v630h64v-630h-64zM164 -273l87 24v-41l-226 -60v40l46 13q-7 13 -10 32t-3 47q0 57 21 87t59.5 41.5t89.5 9.5v-50q-28 0 -59.5 -6t-51.5 -19l-2 -97q0 -19 11 -23.5t38 2.5z" />
    <glyph glyph-name="uni0626" unicode="&#x626;" horiz-adv-x="844" 
d="M72 -95q0 39 3.5 82.5t10.5 83.5t15 69l63 -12q-12 -56 -20 -107.5t-8 -95.5q0 -39 3 -67t10 -58h283q100 0 155 4.5t77 16t22 32.5v234l-142 18q-65 8 -100 26.5t-48 56.5t-13 103q0 51 8.5 87t27.5 58.5t51.5 33t79.5 10.5q46 0 90 -4t93 -14l-12 -69q-46 8 -86 11.5
t-83 3.5q-31 0 -54.5 -1t-46.5 -4v-218l169 -18q53 -5 81 -25t38.5 -59.5t10.5 -102.5v-69q0 -54 -14 -90t-52 -56t-109 -28.5t-184 -8.5q-97 0 -159.5 4t-97 20.5t-48.5 52.5t-14 100zM192 346l87 24v-41l-226 -60v40l46 13q-7 13 -10 32t-3 47q0 57 21 87t59.5 41.5
t89.5 9.5v-50q-28 0 -59.5 -6t-51.5 -19l-2 -97q0 -19 11 -23.5t38 2.5z" />
    <glyph glyph-name="uni0627" unicode="&#x627;" horiz-adv-x="276" 
d="M106 0v630h64v-630h-64z" />
    </font>
</defs>
</svg>
